<svg width="103" height="103" viewBox="0 0 103 103" fill="none" xmlns="http://www.w3.org/2000/svg">
<g clip-path="url(#clip0_509_3018)">
<path fill-rule="evenodd" clip-rule="evenodd" d="M25.2778 19.7846C24.3389 19.7679 23.4275 20.1015 22.7213 20.7204C22.0151 21.3393 21.5648 22.1991 21.4582 23.1321C21.4751 23.695 21.6123 24.2477 21.8604 24.7532C22.1085 25.2587 22.4619 25.7053 22.8968 26.063C23.3317 26.4207 23.8381 26.6813 24.382 26.8271C24.926 26.973 25.4948 27.0008 26.0503 26.9088C26.5695 26.7998 27.0592 26.5802 27.4858 26.265C27.9125 25.9497 28.2662 25.5461 28.5228 25.0818C28.7794 24.6175 28.9329 24.1033 28.9728 23.5743C29.0127 23.0452 28.9381 22.5138 28.7541 22.0163C28.4453 21.3534 27.9547 20.7917 27.3394 20.3967C26.724 20.0016 26.0091 19.7894 25.2778 19.7846Z" fill="#342E84" fill-opacity="0.1"/>
<path fill-rule="evenodd" clip-rule="evenodd" d="M46.0068 19.7846C45.0753 19.7785 44.1744 20.117 43.4772 20.7349C42.7801 21.3528 42.336 22.2065 42.2301 23.1321C42.247 23.6949 42.3841 24.2477 42.6323 24.7532C42.8804 25.2587 43.2338 25.7053 43.6687 26.063C44.1036 26.4207 44.61 26.6812 45.1539 26.8271C45.6978 26.973 46.2667 27.0008 46.8222 26.9087C47.3414 26.7998 47.831 26.5802 48.2577 26.2649C48.6844 25.9496 49.0381 25.5461 49.2947 25.0818C49.5513 24.6174 49.7048 24.1032 49.7447 23.5742C49.7846 23.0452 49.71 22.5138 49.526 22.0162C49.2141 21.3467 48.7169 20.7806 48.0931 20.3851C47.4694 19.9896 46.7454 19.7812 46.0068 19.7846Z" fill="#342E84" fill-opacity="0.1"/>
<path fill-rule="evenodd" clip-rule="evenodd" d="M67.8513 78.1941C67.6996 78.041 67.5191 77.9195 67.3203 77.8365C67.1214 77.7536 66.908 77.7109 66.6925 77.7109C66.477 77.7109 66.2637 77.7536 66.0648 77.8365C65.8659 77.9195 65.6854 78.041 65.5338 78.1941L60.8988 83.2583C58.9675 81.7562 57.1221 80.1683 55.1908 78.4945C54.2038 77.6362 53.1738 76.8208 52.1438 76.0054L48.9679 73.602C46.3929 71.7137 43.8179 69.9112 41.3717 68.0658C41.2218 67.8959 41.0381 67.7592 40.8324 67.6642C40.6267 67.5693 40.4034 67.5182 40.1769 67.5143C39.9504 67.5105 39.7255 67.5538 39.5167 67.6417C39.3078 67.7295 39.1196 67.8599 38.9639 68.0245C38.8083 68.1892 38.6886 68.3844 38.6126 68.5979C38.5366 68.8113 38.5059 69.0382 38.5225 69.2642C38.5391 69.4902 38.6025 69.7102 38.7088 69.9103C38.8152 70.1103 38.962 70.286 39.14 70.4262C41.2 72.7866 43.4317 75.2329 45.6204 77.5504C46.6146 78.5216 47.6604 79.4385 48.7533 80.297C49.8297 81.1845 50.9622 82.0016 52.1438 82.7433C54.1878 83.905 56.3102 84.9231 58.4954 85.7904L56.9933 87.3783C56.7971 87.637 56.5282 87.8313 56.2209 87.9362C55.428 88.0086 54.6299 87.8756 53.9034 87.55C52.2657 86.9845 50.6733 86.2958 49.1396 85.49C46.8221 84.46 44.5475 83.1725 42.2729 81.885C39.9983 80.5975 37.9813 79.2241 35.7067 77.5933C32.8855 75.5486 30.2953 73.203 27.9817 70.5979C27.7513 70.2943 27.4113 70.0929 27.0343 70.0368C26.6574 69.9807 26.2735 70.0742 25.9646 70.2975C25.6677 70.5341 25.4747 70.8771 25.4266 71.2538C25.3786 71.6304 25.4792 72.0109 25.7071 72.3145C31.3506 78.4635 37.6382 83.9885 44.4617 88.7945C47.0069 90.358 49.73 91.6115 52.5729 92.5283C53.392 92.6967 54.2259 92.7829 55.0621 92.7858C56.7788 92.5712 58.4096 92.2279 58.4096 91.9704C58.8424 91.7847 59.2469 91.5391 59.6113 91.2408C60.3813 90.3844 61.098 89.4815 61.7571 88.537L68.0229 80.3829C68.2817 80.0661 68.4083 79.6618 68.3763 79.2541C68.3443 78.8463 68.1562 78.4666 67.8513 78.1941Z" fill="#342E84" fill-opacity="0.1"/>
<path fill-rule="evenodd" clip-rule="evenodd" d="M56.5214 94.76C54.1609 95.1033 54.7189 96.5196 54.2897 96.8629H51.3714C49.1843 97.1889 46.9724 97.3182 44.7622 97.2491C43.7402 97.2523 42.7454 96.9207 41.9297 96.305C41.6084 96.107 41.3657 95.8036 41.243 95.4466C41.243 94.7171 40.8997 93.9016 40.728 93.1721C40.6188 91.1973 40.1838 89.2541 39.4405 87.4212C38.9931 86.908 38.4382 86.4997 37.8151 86.2252C37.192 85.9508 36.5162 85.817 35.8355 85.8333C33.7761 85.7001 31.7266 85.4422 29.6984 85.0608C27.6567 84.7193 25.6363 84.2608 23.6472 83.6875C22.5031 83.4062 21.3837 83.0331 20.2997 82.5716C19.2839 82.1425 18.3074 81.6255 17.3814 81.0266C15.9738 80.1235 14.613 79.1495 13.3043 78.1083C12.1402 77.1665 11.1271 76.0521 10.3001 74.8037C9.76461 73.9836 9.39972 73.0641 9.22719 72.1C8.92329 70.3432 8.79391 68.5606 8.84094 66.7783V54.2896L8.32594 34.3333C11.8978 35.731 15.5527 36.9063 19.2697 37.8525C21.1707 38.217 23.0907 38.4749 25.0205 38.625C26.9697 38.8832 28.9339 39.0123 30.9001 39.0112C35.4824 39.0767 40.0584 38.645 44.5476 37.7237C44.7769 37.7216 45.0032 37.6712 45.2117 37.5758C45.4202 37.4803 45.6062 37.3419 45.7576 37.1697C45.909 36.9975 46.0224 36.7952 46.0903 36.5762C46.1583 36.3572 46.1793 36.1263 46.152 35.8987C46.1246 35.671 46.0496 35.4516 45.9318 35.2549C45.8139 35.0582 45.6559 34.8885 45.4681 34.757C45.2802 34.6255 45.0668 34.5351 44.8416 34.4916C44.6164 34.4482 44.3846 34.4528 44.1614 34.505C40.4563 34.6842 36.7437 34.6269 33.0459 34.3333C29.6126 34.0329 26.2222 33.475 22.7889 33.0029C17.8105 32.3162 12.8751 31.8012 8.02552 30.9C8.02552 29.7842 8.32594 28.6683 8.58344 27.5954C9.04576 25.8245 9.76895 24.1322 10.7293 22.5742C12.9097 19.0113 16.0274 16.1163 19.7418 14.2054C22.219 12.9231 24.8415 11.9433 27.5526 11.2871C30.9932 10.4428 34.5246 10.0248 38.0672 10.0425C41.62 10.0059 45.1644 10.3949 48.6247 11.2012C50.7687 11.7667 52.8419 12.573 54.8047 13.6046C57.7694 15.3155 60.6351 17.1925 63.388 19.2267C63.7356 19.4816 64.1699 19.5887 64.5962 19.5243C65.0224 19.46 65.4058 19.2295 65.6626 18.8833C65.7945 18.7134 65.8906 18.5185 65.9449 18.3103C65.9992 18.1022 66.0107 17.8851 65.9785 17.6724C65.9464 17.4597 65.8714 17.2557 65.7581 17.0729C65.6448 16.89 65.4955 16.7321 65.3193 16.6087C62.5909 14.265 59.7247 12.0866 56.7359 10.0854C57.4411 9.57002 58.0886 8.98008 58.6672 8.32582C59.1183 7.73858 59.5067 7.10568 59.8259 6.43749C62.1005 2.14582 61.9289 1.75957 61.328 1.0729C60.7272 0.386236 60.0834 -0.55793 55.7918 3.21874C55.3776 3.58133 55.0165 4.00028 54.7189 4.46332C54.379 4.88561 54.1174 5.36523 53.9464 5.87957C53.6627 6.7138 53.4755 7.57776 53.3884 8.45457C52.2872 7.8657 51.1554 7.33565 49.998 6.86665C46.1965 5.61067 42.239 4.8885 38.2389 4.72082C34.2085 4.55578 30.1754 4.97498 26.2651 5.9654C25.4926 6.17999 24.8489 6.65207 24.0764 6.86665C24.0235 6.15385 23.894 5.44881 23.6901 4.76374C23.4895 4.26725 23.2146 3.80417 22.8747 3.3904C22.5753 2.92869 22.2143 2.50997 21.8018 2.14582C20.128 0.772486 16.9093 -1.11585 15.8793 0.858319C15.3214 1.93124 15.8793 1.80249 17.8105 5.4504C18.0968 6.04147 18.4419 6.60222 18.8405 7.12415C19.2629 7.62082 19.7543 8.0544 20.2997 8.41165C19.2697 8.88374 18.1539 9.14124 17.1668 9.69915C12.9027 12.2653 9.4511 15.9848 7.21011 20.4283C6.41621 22.0028 5.83876 23.6774 5.49344 25.4067C3.94844 32.3592 5.92261 24.205 3.81969 53.9462C3.60511 56.0921 3.43344 58.2379 3.39052 60.3837C3.34761 62.5296 3.39052 64.6754 3.39052 66.8212C3.37195 68.9621 3.52985 71.1009 3.86261 73.2158C4.24759 74.8233 4.91611 76.3493 5.83677 77.7221C6.80905 79.0503 7.94859 80.2475 9.22719 81.2841C10.2568 82.0492 11.3317 82.7515 12.4459 83.3871C11.6263 85.7662 11.0652 88.2266 10.7722 90.7258C10.5787 92.4801 10.5787 94.2503 10.7722 96.0046C10.8831 96.9761 11.0696 97.9375 11.3301 98.88C11.6088 99.6476 12.0646 100.339 12.6605 100.897C13.95 101.985 15.505 102.71 17.1668 103C19.075 103.258 21.0093 103.258 22.9176 103C23.893 102.769 24.8421 102.438 25.7501 102.013C29.3122 100.897 30.7714 101.069 32.1876 96.2191C32.4321 95.6446 32.5912 95.0373 32.6597 94.4166C32.726 93.8033 32.726 93.1846 32.6597 92.5712C32.2848 91.278 31.8113 90.0154 31.2434 88.7946C32.7884 88.7946 34.3334 89.0521 35.8355 89.0521C36.0316 89.0683 36.2289 89.0422 36.414 88.9756C36.5991 88.9089 36.7677 88.8033 36.9084 88.6658V93.7729C36.8704 94.9643 36.9422 96.1567 37.123 97.335C37.3769 98.4124 37.9097 99.4041 38.668 100.21C40.2387 101.815 42.3494 102.778 44.5905 102.914C47.2229 102.969 49.8505 102.665 52.4014 102.013C53.5247 101.838 54.6304 101.566 55.7059 101.197C56.4555 100.95 57.1332 100.522 57.6801 99.9529C58.3591 99.0704 58.7756 98.0143 58.8818 96.9058C58.7101 95.5754 58.238 94.4166 56.5214 94.76ZM28.2393 88.8375C27.8236 90.2497 27.4799 91.6821 27.2093 93.1292C27.145 93.9003 27.145 94.6755 27.2093 95.4466V97.7212C26.4597 98.0013 25.683 98.2026 24.8918 98.3221C24.1063 98.3872 23.3168 98.3872 22.5314 98.3221C21.2488 98.2292 19.9732 98.0572 18.7118 97.8071C16.6947 97.335 15.6218 97.8071 15.0639 89.5241C14.9779 87.9947 14.9779 86.4616 15.0639 84.9321C16.2029 85.552 17.395 86.069 18.6259 86.4771C19.9038 86.9056 21.2084 87.2496 22.5314 87.5071C24.3768 87.8504 26.308 88.1079 28.1964 88.3654C28.3251 88.6229 28.2393 88.7087 28.2393 88.8375Z" fill="#342E84" fill-opacity="0.1"/>
<path fill-rule="evenodd" clip-rule="evenodd" d="M99.3093 37.595C98.9002 36.872 98.3949 36.2079 97.8073 35.6208L93.5156 31.0717C90.125 28.1623 86.5559 25.4677 82.8293 23.0033C70.5981 15.0637 70.6839 13.2183 55.7918 28.84C53.3456 31.4579 50.9852 34.2046 48.7535 37.0371C45.4489 41.3287 42.4448 45.6204 39.0114 49.6975C38.8424 49.8234 38.7027 49.9844 38.6019 50.1695C38.5011 50.3545 38.4415 50.5592 38.4274 50.7695C38.4132 50.9798 38.4448 51.1906 38.5199 51.3875C38.5949 51.5844 38.7118 51.7627 38.8624 51.9102C39.013 52.0576 39.1937 52.1707 39.3921 52.2416C39.5906 52.3125 39.802 52.3396 40.0119 52.3211C40.2219 52.3025 40.4253 52.2386 40.6081 52.1339C40.791 52.0292 40.9491 51.8862 41.0714 51.7146C44.4618 48.7533 47.7235 45.6204 50.8993 42.3587C52.0581 41.1571 53.2168 39.9554 54.3327 38.7108C55.4485 37.4662 57.5943 35.02 59.2252 33.1317C60.856 31.2433 62.7014 28.84 64.5039 26.9946C66.5978 29.6963 68.8933 32.2357 71.3706 34.5908C73.2441 36.2157 75.207 37.7345 77.2502 39.14C80.2543 41.2429 83.3873 43.0883 86.3485 45.1912C86.4965 45.3431 86.6733 45.4637 86.8686 45.5461C87.064 45.6285 87.2738 45.671 87.4858 45.671C87.6978 45.671 87.9076 45.6285 88.103 45.5461C88.2983 45.4637 88.4751 45.3431 88.6231 45.1912C88.7762 45.0396 88.8977 44.8591 88.9807 44.6602C89.0636 44.4613 89.1064 44.248 89.1064 44.0325C89.1064 43.817 89.0636 43.6036 88.9807 43.4048C88.8977 43.2059 88.7762 43.0254 88.6231 42.8737C85.7477 39.9983 82.8723 37.08 79.7393 34.2904C77.8939 32.7025 76.0056 31.2004 74.0743 29.7412C72.1431 28.2821 69.3964 26.3508 67.1218 24.5912C68.4687 23.0794 69.9016 21.6464 71.4135 20.2996C73.731 21.8017 76.0485 23.3896 78.2802 25.1062C80.5118 26.8229 83.001 29.0975 85.3185 31.1146C86.8635 32.4879 88.4085 33.8183 89.9106 35.4062L93.9448 39.4404L94.5885 39.8267C94.4052 41.1761 93.9528 42.475 93.2581 43.6462C91.0693 47.5946 87.2498 51.3283 85.3614 54.7617C85.2172 54.9413 85.1126 55.1494 85.0547 55.3724C84.9967 55.5953 84.9866 55.828 85.0251 56.0552C85.0636 56.2823 85.1497 56.4987 85.2779 56.6901C85.4061 56.8815 85.5733 57.0436 85.7687 57.1657C85.964 57.2878 86.183 57.3671 86.4113 57.3984C86.6395 57.4298 86.8718 57.4124 87.0928 57.3474C87.3138 57.2825 87.5185 57.1715 87.6936 57.0217C87.8686 56.8719 88.0098 56.6867 88.1081 56.4783C90.3827 53.2596 94.5885 49.8692 97.2064 46.0925C98.6166 44.1744 99.5174 41.93 99.8243 39.5692C99.8745 38.8724 99.6935 38.1785 99.3093 37.595Z" fill="#342E84" fill-opacity="0.1"/>
<path fill-rule="evenodd" clip-rule="evenodd" d="M33.7326 62.0575L30.4709 63.4738C28.2665 64.0952 25.9553 64.2414 23.6901 63.9029C20.0438 63.1537 16.5291 61.8664 13.2614 60.0834C13.0703 59.9792 12.8604 59.9143 12.6439 59.8924C12.4274 59.8706 12.2088 59.8923 12.0008 59.9563C11.7928 60.0203 11.5998 60.1253 11.433 60.265C11.2662 60.4048 11.1291 60.5765 11.0297 60.77C10.9263 60.9578 10.8621 61.1646 10.8408 61.3778C10.8195 61.5911 10.8416 61.8065 10.9057 62.011C10.9699 62.2155 11.0748 62.4049 11.2141 62.5678C11.3534 62.7307 11.5243 62.8637 11.7164 62.9588C15.1278 65.2527 18.8588 67.0314 22.7889 68.2375C25.6691 68.9535 28.6696 69.0413 31.5868 68.495C32.628 68.3294 33.6491 68.0561 34.6339 67.6796C35.3344 67.4116 36.0095 67.0813 36.6509 66.6925C37.2509 66.3016 37.8244 65.8715 38.3676 65.405C38.9261 64.8548 39.4292 64.2511 39.8697 63.6025C41.0793 62.1151 41.6997 60.2348 41.6126 58.3197C41.5256 56.4045 40.7372 54.5882 39.3976 53.2167C35.9855 50.4043 31.8214 48.658 27.4239 48.1954C25.1922 47.8521 23.1322 47.5088 20.643 47.2942C19.1055 47.0945 17.5582 46.9799 16.008 46.9509C15.8207 46.9332 15.6318 46.9541 15.4529 47.0125C15.274 47.0708 15.1091 47.1653 14.9682 47.29C14.8274 47.4148 14.7137 47.5671 14.6341 47.7377C14.5546 47.9082 14.511 48.0932 14.5059 48.2813C14.4883 48.4708 14.5091 48.6619 14.567 48.8432C14.6249 49.0244 14.7188 49.1922 14.8429 49.3364C14.9671 49.4806 15.1191 49.5983 15.2898 49.6825C15.4605 49.7667 15.6464 49.8156 15.8364 49.8263C17.2801 50.0042 18.7129 50.2621 20.128 50.5988C22.3168 51.0709 24.4197 51.6717 26.6084 52.2725C29.8358 52.9643 32.8075 54.5393 35.1918 56.8217C35.6426 57.3559 35.8899 58.0324 35.8899 58.7315C35.8899 59.4305 35.6426 60.107 35.1918 60.6413L33.7326 62.0575Z" fill="#342E84" fill-opacity="0.1"/>
<path fill-rule="evenodd" clip-rule="evenodd" d="M82.6146 57.5083C79.1437 56.6753 75.5056 56.8691 72.1429 58.0662C71.4361 58.355 70.7603 58.7145 70.1258 59.1391L69.01 59.9975C68.8248 60.0879 68.6632 60.2201 68.5379 60.3837C68.3339 60.5807 68.1806 60.824 68.0909 61.0931C68.0012 61.3621 67.9779 61.6488 68.0229 61.9287C67.0898 64.6024 66.5126 67.3873 66.3062 70.2116C66.1134 72.6391 66.5883 75.0731 67.6796 77.25C68.3729 78.5217 69.4775 79.5204 70.8125 80.0825C72.6004 80.7943 74.5661 80.9294 76.4346 80.4687C79.1175 79.823 81.5597 78.4232 83.4729 76.4346C85.2774 74.5793 86.7313 72.4129 87.7646 70.04C88.2748 68.7965 88.6489 67.5015 88.8804 66.1775C89.1174 65.0887 89.1174 63.9617 88.8804 62.8729C88.4152 61.4977 87.5876 60.2735 86.4849 59.3294C85.3821 58.3852 84.045 57.7561 82.6146 57.5083ZM83.6446 65.8771C83.3855 66.623 83.0846 67.3537 82.7433 68.0658C81.9715 69.8659 80.8974 71.5206 79.5675 72.9583C78.4073 74.24 76.9256 75.1883 75.2758 75.705C74.5304 75.9544 73.7403 76.0421 72.9583 75.9625C72.6873 75.9402 72.4242 75.8596 72.1872 75.7263C71.9502 75.593 71.7448 75.41 71.585 75.19C70.6668 73.797 70.1473 72.1792 70.0829 70.5121C69.9861 67.9706 70.2461 65.428 70.8554 62.9587C71.1959 62.6912 71.5544 62.4474 71.9283 62.2291C72.3702 61.974 72.8475 61.786 73.3446 61.6712C75.5429 61.126 77.8412 61.126 80.0396 61.6712C81.8421 62.1004 83.5158 62.8729 83.8592 64.5896C83.8537 65.0272 83.7813 65.4613 83.6446 65.8771Z" fill="#342E84" fill-opacity="0.1"/>
</g>
<defs>
<clipPath id="clip0_509_3018">
<rect width="103" height="103" fill="white"/>
</clipPath>
</defs>
</svg>
