<svg width="20" height="20" viewBox="0 0 20 20" fill="none" xmlns="http://www.w3.org/2000/svg">
<path d="M17.8125 10C17.8125 10.2486 17.7137 10.4871 17.5379 10.6629C17.3621 10.8387 17.1236 10.9375 16.875 10.9375H5.39062L9.41562 14.9617C9.59174 15.1378 9.69069 15.3767 9.69069 15.6258C9.69069 15.8749 9.59174 16.1137 9.41562 16.2898C9.2395 16.466 9.00063 16.5649 8.75156 16.5649C8.50249 16.5649 8.26362 16.466 8.0875 16.2898L2.4625 10.6648C2.3751 10.5777 2.30575 10.4743 2.25843 10.3603C2.21112 10.2463 2.18676 10.1242 2.18676 10.0008C2.18676 9.8774 2.21112 9.75522 2.25843 9.64127C2.30575 9.52731 2.3751 9.42382 2.4625 9.33672L8.0875 3.71172C8.17471 3.62451 8.27823 3.55534 8.39217 3.50814C8.50611 3.46095 8.62823 3.43666 8.75156 3.43666C8.87489 3.43666 8.99701 3.46095 9.11095 3.50814C9.22489 3.55534 9.32842 3.62451 9.41562 3.71172C9.50283 3.79893 9.57201 3.90246 9.6192 4.0164C9.6664 4.13034 9.69069 4.25246 9.69069 4.37578C9.69069 4.49911 9.6664 4.62123 9.6192 4.73517C9.57201 4.84911 9.50283 4.95264 9.41562 5.03985L5.39062 9.0625H16.875C17.1236 9.0625 17.3621 9.16127 17.5379 9.33709C17.7137 9.51291 17.8125 9.75136 17.8125 10Z" fill="#FEECB8"/>
</svg>
