<svg width="168" height="150" viewBox="0 0 168 150" fill="none" xmlns="http://www.w3.org/2000/svg">
<path d="M74.2396 49.9449C72.7514 59.8674 76.291 69.508 83.8128 76.1364C90.9002 82.3782 99.8941 83.6507 108.824 80.9446C115.509 78.915 120.963 74.7189 122.677 67.7039C124.688 59.4969 122.5 50.4362 120.842 42.3742C120.698 41.6574 119.596 41.9635 119.748 42.6803C122.419 55.7035 126.176 73.2289 110.497 79.1808C101.929 82.4346 92.5654 81.9111 85.3493 75.9673C77.6988 69.661 73.8615 60.0929 75.3337 50.251C75.4383 49.5261 74.3442 49.2201 74.2396 49.9449Z" fill="#6C64CB" fill-opacity="0.2"/>
<path d="M74.4722 55.1317C70.2327 55.9774 65.0117 56.968 62.6707 61.0755C60.6274 64.6676 61.279 69.2261 62.8397 72.8665C64.1107 75.8384 66.3149 78.9392 69.6937 79.5593C74.3033 80.405 79.5163 78.0371 83.3616 75.6934C83.9891 75.3149 83.4179 74.3243 82.7904 74.7108C80.015 76.4022 77.1753 77.6425 73.9494 78.1982C68.6801 79.1002 65.4863 76.6277 63.62 71.7873C62.3972 68.6301 61.9065 64.7239 63.6522 61.6634C65.8242 57.862 70.8522 57.0324 74.7699 56.2431C75.4939 56.0901 75.1882 54.9948 74.4722 55.1317Z" fill="#6C64CB" fill-opacity="0.2"/>
<path d="M98.695 82.5069C98.3009 84.5043 98.2365 87.8387 100.175 89.1595C102.42 90.6817 107.19 89.2642 109.451 88.4024C111.663 87.5648 114.382 86.1232 114.809 83.5217C115.122 81.6049 114.093 79.8733 112.258 79.3417C111.55 79.1404 111.253 80.2357 111.953 80.4371C115.919 81.5888 112.548 85.5513 110.802 86.55C109.515 87.291 108.003 87.75 106.563 88.0642C105.388 88.3219 103.136 88.8937 101.889 88.4668C99.3869 87.6131 99.3869 84.8506 99.7891 82.8049C99.9339 82.0962 98.8399 81.7901 98.695 82.5069Z" fill="#6C64CB" fill-opacity="0.2"/>
<path d="M103.538 89.3609C104.414 92.212 105.098 95.1598 105.267 98.1397C105.46 101.538 104.736 108.36 100.32 109.166C99.6038 109.294 99.9014 110.398 100.625 110.261C104.229 109.609 105.726 105.324 106.241 102.094C106.933 97.7854 105.903 93.1624 104.64 89.0549C104.423 88.3542 103.32 88.6522 103.538 89.3609Z" fill="#6C64CB" fill-opacity="0.2"/>
<path d="M109.177 88.0161C110.07 92.8244 111.961 97.4715 114.865 101.426C116.41 103.528 118.783 106.927 121.727 105.397C122.379 105.058 121.8 104.076 121.156 104.414C118.107 105.993 114.254 98.5749 113.288 96.6903C111.832 93.8472 110.859 90.8431 110.28 87.7182C110.143 86.9933 109.049 87.2993 109.177 88.0161Z" fill="#6C64CB" fill-opacity="0.2"/>
<path d="M96.4504 111.735C103.707 109.987 111.003 108.385 118.284 106.725C120.07 106.315 122.242 105.429 124.068 105.38C124.993 104.744 125.717 104.865 126.248 105.735C126.594 107.346 126.216 108.215 125.13 108.336C124.003 108.997 121.92 109.029 120.649 109.279C116.039 110.205 111.413 111.058 106.78 111.872C104.785 112.226 102.782 112.573 100.778 112.887C100.07 112.999 98.8075 113.45 98.1076 113.297C96.7641 112.999 97.1261 112.718 96.8445 111.034C96.7239 110.309 95.6298 110.616 95.7505 111.34C95.9114 112.291 96.0803 113.249 96.2412 114.2C96.2814 114.417 96.563 114.642 96.7883 114.618C103.136 113.845 109.443 112.589 115.717 111.397C118.766 110.817 121.944 110.39 124.937 109.552C128.018 108.683 127.455 107.458 127.318 104.156C127.302 103.778 126.964 103.52 126.594 103.609C116.466 106.049 106.273 108.199 96.1447 110.64C95.4367 110.809 95.7344 111.904 96.4504 111.735Z" fill="#6C64CB" fill-opacity="0.2"/>
<path d="M74.0059 58.1839C70.4501 59.1745 67.2161 60.3504 65.5831 63.9505C64.489 66.3667 64.7384 68.9037 65.6313 71.328C68.1815 78.2141 76.3308 76.6597 81.2059 72.9951C81.7851 72.5602 81.2139 71.5696 80.6347 72.0125C76.2503 75.3147 68.7205 77.0382 66.5886 70.5628C66.0014 68.7829 65.7279 66.9708 66.3393 65.1264C67.5621 61.4296 70.9328 60.2216 74.3196 59.2792C75.0114 59.0859 74.7138 57.9906 74.0059 58.1839Z" fill="#6C64CB" fill-opacity="0.2"/>
<path d="M121.542 47.6577C125.274 46.7637 130.069 45.4106 133.568 47.714C136.73 49.8 137.953 53.827 138.13 57.4271C138.347 61.8729 136.995 65.4891 132.506 66.9388C128.975 68.0744 125.524 68.2194 121.879 67.8086C121.155 67.7281 121.155 68.8637 121.879 68.9443C126.312 69.4516 132.104 69.3953 135.901 66.6891C139.007 64.4743 139.513 60.101 139.208 56.5975C138.886 52.9813 137.526 49.1396 134.461 46.965C130.616 44.2347 125.443 45.5556 121.244 46.5623C120.528 46.7314 120.834 47.8268 121.542 47.6577Z" fill="#6C64CB" fill-opacity="0.2"/>
<path d="M122.057 50.549C125.403 49.9853 128.758 49.1879 131.743 51.2578C133.641 52.5786 134.542 54.5035 134.872 56.7264C135.226 59.1346 135.033 61.4702 132.837 63.0166C130.053 64.9817 126.103 65.1831 122.886 64.4743C122.17 64.3132 121.864 65.4166 122.58 65.5697C128.935 66.9791 136.94 64.6515 136.047 56.9922C135.733 54.3344 134.743 52.0068 132.531 50.388C129.249 47.9798 125.492 48.8174 121.759 49.4456C121.027 49.5664 121.333 50.6698 122.057 50.549Z" fill="#6C64CB" fill-opacity="0.2"/>
<path d="M75.7435 50.8869C90.4491 47.158 105.509 45.5552 120.44 43.0665C121.164 42.9457 120.858 41.8504 120.134 41.9712C105.203 44.4518 90.1434 46.0626 75.4378 49.7916C74.7298 49.9688 75.0355 51.0641 75.7435 50.8869Z" fill="#6C64CB" fill-opacity="0.2"/>
<path d="M96.2329 54.3584C94.9055 57.0082 92.4921 60.2298 92.0657 63.1614C92.0255 63.4272 92.0979 63.6527 92.3231 63.8057C93.6424 64.6675 95.4204 65.038 96.8925 65.5615C97.1017 65.634 97.4396 65.5132 97.5361 65.3038C98.0268 64.1762 98.5497 63.2661 99.2576 62.2594C98.9037 62.1627 98.5497 62.0661 98.1958 61.9694C98.3084 62.9923 98.3969 63.8379 98.5658 64.8527C98.6543 65.4085 99.6197 68.4126 99.4427 68.8878C99.0002 70.0798 96.1846 70.3616 94.994 70.9657C94.7768 71.0704 94.6561 71.3845 94.7285 71.61C95.2836 73.2933 95.187 74.8477 96.8442 75.2182C98.3244 75.5484 101.221 74.2356 102.644 73.8732C105.018 73.2611 107.367 72.5845 109.716 71.8597C110.013 71.7711 110.198 71.465 110.11 71.159C109.861 70.2408 109.732 69.2019 109.257 68.3643C109.161 68.1951 108.968 68.0824 108.766 68.0824C107.841 68.0904 106.715 68.9119 105.854 68.7348C103.956 68.3321 103.771 66.1817 103.457 64.6836C102.838 61.7198 102.339 58.7317 101.534 55.8162C100.456 51.8939 99.5392 51.7973 95.9754 53.9316C95.3479 54.3101 95.9191 55.2927 96.5466 54.9142C102.982 51.0563 100.69 68.3401 104.084 70.0798C104.631 70.3617 105.653 69.8704 106.16 69.8301C108.734 69.6207 109.128 70.6194 106.594 71.61C104.575 72.3993 102.307 72.802 100.199 73.3013C99.0083 73.5832 98.244 74.0423 97.1741 73.2691C94.9698 71.6905 99.2094 70.708 100.368 70.6274C100.73 70.6033 101.028 70.2811 100.915 69.9106C100.151 67.285 99.6277 64.6997 99.33 61.9775C99.2657 61.4137 98.606 61.2124 98.2681 61.6875C97.6889 62.509 97.3752 63.4836 96.434 63.8218C95.0342 64.3292 93.7792 63.1534 93.8597 61.607C93.9643 59.6741 96.3294 56.6699 97.2062 54.9303C97.5441 54.2779 96.5627 53.7061 96.2329 54.3584Z" fill="#6C64CB" fill-opacity="0.2"/>
<path d="M117.286 48.3018C118.115 53.7302 119.893 62.356 116.458 67.1481C116.031 67.7441 117.013 68.3159 117.439 67.7199C121.164 62.5171 119.273 53.843 118.388 47.9958C118.276 47.279 117.182 47.585 117.286 48.3018Z" fill="#6C64CB" fill-opacity="0.2"/>
<path d="M114.696 72.1577C113.699 73.2933 112.484 74.1792 111.076 74.743C110.408 75.0088 110.698 76.1122 111.382 75.8384C112.975 75.2021 114.366 74.2517 115.501 72.955C115.983 72.4154 115.187 71.602 114.696 72.1577Z" fill="#6C64CB" fill-opacity="0.2"/>
<path d="M110.497 82.9418C110.875 83.0223 110.931 83.4492 110.81 83.7713C110.641 84.2223 110.199 84.5526 109.837 84.8505C109.274 85.3257 110.086 86.1231 110.641 85.6559C111.301 85.1083 111.993 84.4317 112.009 83.5055C112.017 82.7485 111.567 81.9995 110.802 81.8384C110.086 81.6934 109.781 82.7887 110.497 82.9418Z" fill="#6C64CB" fill-opacity="0.2"/>
<path d="M107.922 92.7113C108.815 96.0457 109.837 99.4203 112.604 101.683C113.168 102.143 113.972 101.345 113.409 100.878C110.778 98.7196 109.869 95.5705 109.016 92.4053C108.823 91.6965 107.729 92.0026 107.922 92.7113Z" fill="#6C64CB" fill-opacity="0.2"/>
<path d="M74.7786 0.783691C81.0695 4.21468 88.1569 5.79325 95.0673 7.69399C117.351 13.8069 139.482 24.1885 153.681 42.4307C167.88 60.6729 172.031 88.1208 158.636 106.975C153.15 114.707 145.266 120.433 136.996 125.048C127.431 130.388 116.748 134.512 105.807 133.956C93.6836 133.344 82.6704 127.134 71.1183 123.413C55.4231 118.355 38.4247 117.912 22.2469 121.045C15.6985 122.318 8.86055 124.412 4.55665 129.51C0.252745 134.608 -0.0529742 143.516 5.48981 147.213C9.52823 149.911 15.2158 148.896 19.0934 145.972C22.9709 143.049 25.3843 138.595 27.3311 134.141C29.3181 129.599 30.7018 123.631 27.1139 120.208C25.5693 118.734 23.4214 118.114 21.3298 117.695C14.5481 116.334 7.44468 116.608 0.783691 118.5" stroke="#6C64CB" stroke-opacity="0.2" stroke-width="1.56701" stroke-miterlimit="10" stroke-linecap="round" stroke-dasharray="10.17 10.17"/>
<path d="M130.134 73.2774C136.924 73.5996 142.322 68.2356 142.056 61.4381C142.024 60.7052 140.89 60.7052 140.922 61.4381C141.163 67.6316 136.328 72.4398 130.142 72.1418C129.402 72.1016 129.402 73.2452 130.134 73.2774Z" fill="#6C64CB" fill-opacity="0.2"/>
<path d="M91.535 106.87C89.7571 108.699 86.668 111.034 86.8611 113.934C86.9817 115.851 88.6631 117.437 90.5857 116.994C91.3017 116.833 90.996 115.73 90.28 115.899C88.5987 116.285 87.8023 114.393 88.0758 113.08C88.2367 112.291 88.7676 111.526 89.2584 110.913C90.1915 109.762 91.3098 108.739 92.3395 107.676C92.8463 107.152 92.0418 106.347 91.535 106.87Z" fill="#6C64CB" fill-opacity="0.2"/>
<path d="M74.7704 47.1744C75.8001 45.7892 81.6727 45.3704 83.4505 44.9677C86.6282 44.2428 89.8058 43.526 92.9835 42.8011C93.6994 42.6401 93.3937 41.5367 92.6778 41.7058C88.5911 42.632 84.5044 43.5582 80.4177 44.4925C78.4789 44.9354 75.0519 44.8952 73.7808 46.6026C73.3464 47.1906 74.3359 47.7543 74.7704 47.1744Z" fill="#6C64CB" fill-opacity="0.2"/>
<path d="M75.9525 51.6682C75.7514 54.1408 75.5503 56.6134 75.3411 59.0859C75.2848 59.8188 76.4192 59.8108 76.4755 59.0859C76.6766 56.6134 76.8777 54.1408 77.0868 51.6682C77.1512 50.9353 76.0089 50.9434 75.9525 51.6682Z" fill="#6C64CB" fill-opacity="0.2"/>
<path d="M79.0171 54.7853C78.8884 59.1505 78.6309 63.5158 78.2287 67.8649C78.1644 68.5978 79.2986 68.5898 79.363 67.8649C79.7652 63.5158 80.0226 59.1505 80.1514 54.7853C80.1755 54.0524 79.0412 54.0524 79.0171 54.7853Z" fill="#6C64CB" fill-opacity="0.2"/>
<path d="M82.9439 60.1006C82.4049 64.1115 81.9946 68.1223 81.7372 72.1574C81.6889 72.8903 82.8313 72.8903 82.8715 72.1574C83.1289 68.227 83.5151 64.3048 84.038 60.3986C84.1426 59.6899 83.0404 59.3758 82.9439 60.1006Z" fill="#6C64CB" fill-opacity="0.2"/>
<path d="M86.2503 65.9159C85.7998 69.4193 85.6469 72.9308 85.7837 76.4585C85.8159 77.1914 86.9502 77.1914 86.918 76.4585C86.7732 72.9308 86.9341 69.4193 87.3846 65.9159C87.4811 65.191 86.3388 65.1991 86.2503 65.9159Z" fill="#6C64CB" fill-opacity="0.2"/>
<path d="M89.975 73.1886C89.621 74.9846 89.4601 76.7806 89.5084 78.6089C89.5325 79.3418 90.6668 79.3418 90.6427 78.6089C90.5944 76.8853 90.7312 75.186 91.069 73.4946C91.2139 72.7698 90.1198 72.4637 89.975 73.1886Z" fill="#6C64CB" fill-opacity="0.2"/>
<path d="M94.4636 77.0946C94.2222 78.3752 94.2062 79.6316 94.4153 80.9122C94.5279 81.637 95.6301 81.331 95.5094 80.6062C95.3404 79.535 95.3565 78.4557 95.5577 77.3926C95.6944 76.6758 94.6003 76.3698 94.4636 77.0946Z" fill="#6C64CB" fill-opacity="0.2"/>
<path d="M99.1213 78.0607C98.9443 78.6809 98.872 79.3252 98.9042 79.9695C98.9444 80.7024 100.079 80.7024 100.038 79.9695C100.006 79.4138 100.063 78.8983 100.215 78.3668C100.417 77.658 99.3224 77.36 99.1213 78.0607Z" fill="#6C64CB" fill-opacity="0.2"/>
<path d="M102.79 79.953C103.521 79.953 103.521 78.8181 102.79 78.8181C102.058 78.8181 102.058 79.953 102.79 79.953Z" fill="#6C64CB" fill-opacity="0.2"/>
<path d="M101.639 81.1783C100.996 83.0066 100.36 84.8267 99.7168 86.655C99.4754 87.3476 100.57 87.6456 100.811 86.9611C101.454 85.1328 102.09 83.3126 102.734 81.4844C102.975 80.7917 101.881 80.4937 101.639 81.1783Z" fill="#6C64CB" fill-opacity="0.2"/>
<path d="M103.465 82.8052C102.468 84.722 101.671 86.7194 101.084 88.8054C100.883 89.5141 101.977 89.8121 102.178 89.1114C102.741 87.1221 103.498 85.2214 104.447 83.3851C104.785 82.7246 103.803 82.1528 103.465 82.8052Z" fill="#6C64CB" fill-opacity="0.2"/>
<path d="M104.053 86.5182C103.86 86.9773 103.667 87.4283 103.466 87.8874C103.345 88.1693 103.385 88.4914 103.667 88.6686C103.908 88.8136 104.326 88.7492 104.447 88.4673C104.64 88.0082 104.833 87.5572 105.034 87.0981C105.155 86.8162 105.115 86.4941 104.833 86.3169C104.592 86.1719 104.173 86.2363 104.053 86.5182Z" fill="#6C64CB" fill-opacity="0.2"/>
<path d="M106.651 93.3154C106.177 95.4094 105.614 97.4793 104.962 99.533C104.737 100.234 105.839 100.532 106.056 99.839C106.708 97.7933 107.271 95.7235 107.745 93.6214C107.906 92.9046 106.812 92.5986 106.651 93.3154Z" fill="#6C64CB" fill-opacity="0.2"/>
<path d="M108.526 99.3961C106.515 102.521 104.495 105.646 102.484 108.771C102.09 109.391 103.071 109.963 103.466 109.343C105.477 106.218 107.496 103.093 109.507 99.968C109.909 99.3478 108.928 98.776 108.526 99.3961Z" fill="#6C64CB" fill-opacity="0.2"/>
<path d="M110.28 103.101C109.435 104.664 108.59 106.226 107.746 107.789C107.4 108.433 108.381 109.013 108.727 108.36C109.572 106.798 110.416 105.235 111.261 103.673C111.607 103.037 110.626 102.457 110.28 103.101Z" fill="#6C64CB" fill-opacity="0.2"/>
</svg>
