<svg width="338" height="278" viewBox="0 0 338 278" fill="none" xmlns="http://www.w3.org/2000/svg">
<path fill-rule="evenodd" clip-rule="evenodd" d="M80.5537 50.2083C79.3853 49.9841 78.2271 49.7124 77.0677 49.4482C75.9722 49.1979 74.8747 48.9485 73.7775 48.7083C73.49 48.6472 73.2047 48.5852 72.9172 48.5242C72.9686 48.5345 73.0197 48.5461 73.0711 48.5565C70.8265 48.0802 68.5842 47.6017 66.3477 47.0905C64.0638 46.5683 61.7827 46.0297 59.5078 45.4779C57.4332 44.9744 55.3397 44.4599 53.3522 43.7536C52.7322 43.5325 52.1238 43.2772 51.6463 42.9047C51.1223 42.4941 50.747 41.9942 50.4745 41.4929C50.2507 41.082 50.0418 40.6725 49.8821 40.2534C49.7233 39.8397 49.6031 39.412 49.5246 38.9956C49.3587 38.1377 49.2183 37.2857 49.1582 36.431C49.1046 35.6254 49.1359 34.8232 49.1663 34.0259C49.227 32.4107 49.4525 30.8089 49.7314 29.2269C50.0181 27.6009 50.3323 25.9809 50.6392 24.3585C50.9339 22.7949 51.2162 21.2265 51.5072 19.6622C51.7137 18.5558 51.9112 17.4464 52.1214 16.3407C51.068 16.2718 50.0126 16.2467 48.9712 16.2501C48.4103 16.2642 47.8572 16.2991 47.3024 16.3325C47.1853 16.3391 47.0671 16.3313 46.951 16.3108C46.5568 16.2413 46.2038 16.0245 46.0633 15.7439C45.8677 15.3561 46.1449 14.9154 46.7042 14.8452C47.3257 14.7678 47.9502 14.7052 48.5941 14.694C49.2114 14.6834 49.8332 14.7112 50.4547 14.7416C51.0588 14.7728 51.6633 14.8131 52.2681 14.873L52.4064 14.8857C52.6866 13.5014 52.9877 12.1168 53.4326 10.768C53.1213 10.7131 52.8104 10.6557 52.4995 10.5983C51.6752 10.4477 50.8488 10.2981 50.0207 10.169C50.0669 10.1759 50.1132 10.1827 50.1613 10.1899C48.8389 9.98789 47.5194 9.83444 46.1936 9.74871C45.482 9.71285 44.7763 9.7079 44.0756 9.7285C43.5247 9.75084 42.9749 9.77728 42.4315 9.82171C41.88 9.86863 41.334 9.93858 40.7914 10.0104C40.8049 10.0089 40.8167 10.0071 40.8282 10.0065C40.1253 10.1151 39.4409 10.2476 38.7659 10.4026C38.5786 10.4527 38.3947 10.5047 38.2122 10.5595C38.2208 10.6182 38.218 10.6774 38.2038 10.736C38.1539 10.9441 37.9521 11.1189 37.6784 11.1953C37.4478 11.4261 37.2396 11.6698 37.035 11.9143C36.5518 12.5005 36.1174 13.1005 35.7493 13.7343C35.2487 14.6344 34.8631 15.5716 34.5287 16.5204C33.8621 18.4911 33.5645 20.5451 33.1853 22.577C32.8117 24.5773 32.3937 26.5711 31.9906 28.5662C31.5696 30.6413 31.1816 32.7236 30.8064 34.808C30.4254 36.9369 30.129 39.0808 29.794 41.2178C29.4584 43.369 29.1135 45.5185 28.7169 47.6603C28.3371 49.7063 27.9221 51.7474 27.5182 53.7904C26.7162 57.8542 25.8501 61.904 25.0297 65.9645C24.6052 68.0598 24.2025 70.1602 23.8535 72.2688C23.512 74.3566 23.2257 76.4541 22.9247 78.5491C22.9256 78.544 22.9267 78.5377 22.9276 78.5327C22.3205 82.8048 21.7245 87.0789 21.038 91.3384C20.3452 95.6447 19.7062 99.958 18.9894 104.26C18.2853 108.491 17.5721 112.718 16.8664 116.947C16.171 121.106 15.5382 125.276 14.8431 129.434C14.4764 131.621 14.1101 133.806 13.7621 135.995C13.4316 138.085 13.1292 140.177 12.8153 142.27C12.1956 146.431 11.4508 150.568 10.6858 154.702C9.86522 159.14 9.00572 163.573 8.26595 168.027C7.57425 172.187 6.91387 176.352 6.24795 180.517C5.94125 182.439 5.64213 184.362 5.36489 186.29C5.05798 188.472 4.76256 190.653 4.44666 192.833C4.13634 194.948 3.81106 197.062 3.50832 199.178C3.50854 199.176 3.50899 199.174 3.50943 199.171C3.21105 201.284 2.93315 203.398 2.68679 205.517C2.56026 206.612 2.43905 207.709 2.33463 208.807C2.24085 209.77 2.12755 210.735 2.16199 211.714C2.17109 211.846 2.18019 211.977 2.19321 212.108C2.35681 212.193 2.49275 212.305 2.58395 212.434C2.67375 212.56 2.70976 212.69 2.73014 212.822C2.73497 212.859 2.73796 212.896 2.73727 212.933C2.73867 212.935 2.74007 212.938 2.74147 212.941C2.78811 213.043 2.84234 213.145 2.90069 213.244C2.99895 213.398 3.11098 213.549 3.22922 213.697C3.36726 213.851 3.51129 214.004 3.66172 214.153C3.84537 214.318 4.03545 214.478 4.23193 214.635C4.58662 214.896 4.96373 215.138 5.34909 215.376C5.87014 215.685 6.41288 215.968 6.97095 216.239C7.98813 216.696 9.03009 217.11 10.0874 217.512C10.0429 217.495 9.99634 217.479 9.95184 217.462C11.2917 217.953 12.6624 218.376 14.0533 218.76C16.1965 219.316 18.3587 219.796 20.5395 220.225C22.0523 220.521 23.5745 220.786 25.0946 221.051C25.8427 221.182 26.5908 221.313 27.3382 221.447C31.9851 222.281 36.6036 223.253 41.2413 224.139C45.7359 224.996 50.2475 225.767 54.7499 226.591C56.9727 226.997 59.1966 227.407 61.4144 227.841C63.7295 228.295 66.041 228.769 68.3524 229.242C71.7751 229.942 75.2096 230.585 78.6454 231.221C82.1254 231.865 85.6081 232.482 89.0929 233.088C89.0745 233.085 89.0558 233.083 89.0393 233.08C91.3544 233.479 93.67 233.875 95.9834 234.285C98.2692 234.689 100.547 235.115 102.83 235.536C107.403 236.38 111.983 237.194 116.562 238.004C121.194 238.825 125.826 239.658 130.457 240.483C132.488 240.845 134.521 241.199 136.553 241.554C139.075 241.995 141.599 242.437 144.121 242.891C147.317 243.466 150.507 244.066 153.701 244.653C156.905 245.242 160.115 245.811 163.325 246.372C163.277 246.363 163.229 246.355 163.181 246.346C163.629 246.424 164.079 246.502 164.525 246.578C164.514 246.576 164.505 246.575 164.494 246.573C169.037 247.35 173.583 248.105 178.133 248.832C182.727 249.567 187.323 250.27 191.921 250.974C196.411 251.66 200.887 252.453 205.374 253.156C207.518 253.493 209.663 253.825 211.809 254.151C211.852 254.152 211.897 254.156 211.941 254.162C212.003 254.171 212.061 254.182 212.121 254.198C214.169 254.508 216.218 254.811 218.269 255.104C219.069 255.219 219.876 255.317 220.671 255.465C220.935 255.514 221.164 255.642 221.322 255.801C221.46 255.23 221.577 254.656 221.684 254.082C221.718 253.886 221.751 253.691 221.785 253.496C221.62 253.474 221.457 253.449 221.293 253.42C221.225 253.408 221.155 253.395 221.087 253.382C220.605 253.286 220.02 253.167 219.691 252.854C219.712 252.869 219.73 252.885 219.748 252.9C219.453 252.643 219.361 252.316 219.58 252.055C219.827 251.762 220.362 251.689 220.841 251.849C220.8 251.835 220.76 251.824 220.717 251.81C220.719 251.81 220.722 251.811 220.724 251.811C220.68 251.802 220.636 251.793 220.593 251.783C220.694 251.802 220.797 251.827 220.9 251.85C221.274 251.922 221.651 251.974 222.028 252.031C222.101 251.585 222.172 251.139 222.247 250.694C222.442 249.536 222.668 248.382 222.875 247.227C222.87 247.258 222.864 247.291 222.859 247.322C223.129 245.818 223.373 244.309 223.638 242.805C223.9 241.317 224.157 239.827 224.37 238.329C224.576 236.873 224.797 235.423 225.08 233.979C225.352 232.6 225.6 231.214 225.952 229.851C226.039 229.522 226.136 229.2 226.268 228.881C226.331 228.73 226.48 228.616 226.672 228.547C226.511 228.183 226.743 227.826 227.21 227.687C227.594 227.573 228.034 227.535 228.456 227.489C228.94 227.437 229.427 227.391 229.921 227.367C230.967 227.319 232.021 227.329 233.087 227.421C234.163 227.515 235.233 227.67 236.305 227.827C237.401 227.991 238.497 228.164 239.591 228.324C241.86 228.654 244.129 228.959 246.397 229.276C248.637 229.589 250.874 229.935 253.106 230.295C255.35 230.658 257.583 231.094 259.812 231.54C262.122 232.002 264.422 232.488 266.703 233.056C268.726 233.56 270.727 234.124 272.732 234.68C272.688 234.669 272.645 234.656 272.599 234.645C273.636 234.927 274.678 235.19 275.721 235.457C276.777 235.727 277.826 236.016 278.872 236.311C278.942 236.33 279.013 236.349 279.084 236.365C279.563 236.482 279.907 236.805 279.907 237.136C280.121 237.23 280.298 237.369 280.407 237.526C280.527 237.696 280.561 237.888 280.575 238.067C280.615 238.659 280.578 239.248 280.558 239.834C280.516 241.031 280.493 242.228 280.511 243.431C280.516 243.748 280.524 244.065 280.529 244.381C280.529 244.384 280.529 244.384 280.53 244.386C280.531 244.405 280.531 244.423 280.532 244.441C280.532 244.439 280.533 244.436 280.531 244.433C280.531 244.448 280.532 244.461 280.532 244.475C280.532 244.476 280.531 244.478 280.531 244.479C280.531 244.51 280.531 244.541 280.534 244.573L280.534 244.571C280.534 244.634 280.536 244.697 280.537 244.76C280.536 244.751 280.536 244.741 280.536 244.732C280.564 246.286 280.548 247.839 280.509 249.388C280.47 250.934 280.298 252.458 280.056 253.978C279.813 255.499 279.529 257.012 279.194 258.516C278.976 259.502 278.749 260.488 278.506 261.47C280.459 261.866 282.43 262.159 284.398 262.47C284.932 262.555 285.353 262.921 285.368 263.291C285.384 263.686 284.902 264.035 284.31 263.967C283.241 263.846 282.175 263.678 281.114 263.491C280.781 263.432 280.446 263.37 280.113 263.309C279.453 263.186 278.795 263.052 278.141 262.9L278.126 262.955C277.936 263.677 277.735 264.397 277.554 265.121C277.475 265.428 277.402 265.736 277.329 266.044C277.48 266.056 277.63 266.068 277.782 266.082C278.333 266.13 278.884 266.176 279.435 266.228C280.554 266.333 281.671 266.451 282.791 266.597C283.854 266.735 284.92 266.886 285.986 267.014C287.014 267.137 288.045 267.235 289.075 267.329C289.346 267.355 289.619 267.38 289.89 267.403C291.313 267.514 292.731 267.593 294.142 267.589C294.835 267.58 295.525 267.556 296.205 267.496C296.562 267.452 296.915 267.397 297.263 267.332C297.589 267.259 297.904 267.174 298.214 267.078C298.694 266.915 299.158 266.733 299.605 266.533C299.794 266.443 299.976 266.348 300.153 266.248C300.284 266.162 300.406 266.072 300.527 265.979C300.633 265.885 300.735 265.792 300.833 265.696C300.867 265.561 300.948 265.432 301.038 265.313C301.317 264.932 301.595 264.553 301.845 264.159C302.354 263.309 302.77 262.425 303.131 261.527C303.312 261.04 303.473 260.547 303.627 260.054C303.783 259.544 303.89 259.022 303.994 258.502C303.988 258.533 303.982 258.565 303.977 258.596C304.203 257.333 304.354 256.059 304.534 254.788C304.729 253.429 304.939 252.072 305.15 250.715C305.349 249.424 305.565 248.135 305.805 246.85C306.049 245.539 306.321 244.235 306.56 242.924C306.554 242.956 306.547 242.987 306.541 243.018C306.894 241.029 307.197 239.031 307.544 237.041C307.908 234.957 308.266 232.871 308.643 230.788C308.638 230.803 308.636 230.816 308.633 230.832C309.121 228.138 309.704 225.462 310.194 222.769C310.188 222.801 310.182 222.832 310.177 222.864C310.335 221.986 310.493 221.112 310.654 220.235C310.648 220.266 310.643 220.298 310.637 220.329C311.383 216.171 312.012 211.995 312.729 207.832C313.437 203.731 314.204 199.639 314.819 195.523C315.467 191.19 316.052 186.849 316.831 182.539C316.826 182.57 316.82 182.602 316.815 182.633C317.633 178.111 318.571 173.61 319.389 169.088C319.384 169.12 319.378 169.151 319.372 169.183C319.754 167.041 320.13 164.897 320.519 162.756C320.513 162.788 320.508 162.819 320.502 162.851C320.882 160.731 321.243 158.609 321.604 156.487C321.96 154.39 322.328 152.294 322.675 150.194C323.034 148.038 323.393 145.884 323.769 143.731C324.12 141.721 324.509 139.719 324.893 137.715C325.222 135.985 325.55 134.256 325.865 132.523C325.86 132.554 325.854 132.586 325.849 132.617C326.209 130.625 326.538 128.629 326.861 126.63C327.183 124.62 327.446 122.6 327.722 120.583C328.022 118.386 328.327 116.191 328.673 114.002C329.015 111.834 329.418 109.678 329.812 107.519C329.895 107.071 329.978 106.624 330.059 106.175C330.053 106.207 330.048 106.238 330.042 106.27C330.758 102.287 331.416 98.2928 332.062 94.2964C332.388 92.2901 332.674 90.2783 332.975 88.2678C333.29 86.1675 333.637 84.0741 333.919 81.968C334.068 80.854 334.2 79.7371 334.327 78.6192C334.446 77.587 334.575 76.5564 334.68 75.5216C334.761 74.7061 334.825 73.8863 334.882 73.0678C334.952 72.1022 335.006 71.1365 334.998 70.1635C334.977 69.2352 334.884 68.3059 334.694 67.371C334.601 66.9429 334.488 66.5165 334.329 66.0911C334.212 65.8081 334.077 65.5297 333.92 65.2541C333.729 64.9398 333.513 64.6329 333.276 64.3313C333.08 64.0943 332.876 63.8622 332.65 63.6378C332.454 63.454 332.248 63.2786 332.029 63.1101C332.005 63.0917 331.982 63.0746 331.958 63.0575C331.906 63.0184 331.86 62.9778 331.818 62.9354L331.808 62.9284C331.08 62.4443 330.361 61.9589 329.593 61.5093C329.2 61.2907 328.798 61.0859 328.38 60.8915C327.674 60.5761 326.948 60.2962 326.208 60.0345C324.844 59.5641 323.457 59.1676 322.04 58.8126C320.045 58.3205 318.044 57.8559 316.028 57.429C313.935 56.986 311.838 56.554 309.741 56.1282C305.339 55.2366 300.929 54.4004 296.513 53.579C292.002 52.7394 287.489 51.8996 282.968 51.11C280.88 50.7458 278.796 50.3731 276.711 50.0004C274.211 49.553 271.71 49.1069 269.207 48.6746C264.529 47.8667 259.845 47.1056 255.175 46.2548C250.521 45.407 245.871 44.5235 241.218 43.6835C236.509 42.8325 231.798 42.0083 227.095 41.1387C224.713 40.698 222.334 40.25 219.953 39.8079C217.624 39.3766 215.295 38.9619 212.968 38.5322C203.531 36.7837 194.116 34.9223 184.671 33.2167C179.976 32.368 175.27 31.5851 170.559 30.8374C168.234 30.4704 165.906 30.1027 163.584 29.7076C161.248 29.31 158.918 28.8887 156.587 28.4712C154.79 28.1491 152.996 27.8236 151.198 27.5079C149.388 27.1902 147.578 26.8917 145.765 26.5954C142.092 25.9985 138.414 25.4227 134.736 24.8573C134.784 24.8645 134.833 24.8717 134.883 24.8792C133.157 24.6139 131.432 24.3499 129.704 24.0973C128.108 23.8626 126.507 23.657 124.908 23.4346C121.594 22.9764 118.299 22.3824 114.996 21.8674C115.005 21.8691 115.016 21.871 115.025 21.8726C113.378 21.6198 111.729 21.3745 110.078 21.1613C109.365 21.0693 108.652 20.9956 107.939 20.9282L107.881 20.9232C107.756 21.261 107.643 21.6021 107.532 21.9435C107.328 22.5687 107.142 23.1942 106.968 23.8246L106.985 23.8159C107.211 23.7077 107.476 23.6896 107.764 23.7248C108.731 23.8433 109.698 23.9839 110.659 24.1468C111.125 24.2265 111.589 24.3187 112.047 24.4279C112.559 24.5507 113.098 24.8627 113.076 25.2692C113.062 25.5641 112.862 25.7729 112.483 25.8775C112.215 25.9498 111.932 25.8882 111.654 25.8262C111.665 25.8281 111.676 25.8314 111.687 25.8333C110.313 25.5494 108.923 25.3628 107.538 25.1498C107.529 25.1481 107.52 25.1465 107.508 25.1446C107.173 25.0854 106.892 24.9125 106.736 24.7005C106.384 26.0918 106.045 27.4865 105.743 28.8865C105.4 30.4754 105.085 32.0679 104.781 33.6636C104.189 36.7747 103.689 39.9021 103.045 43.0016C102.739 44.4801 102.421 45.9603 101.961 47.4065C101.74 48.1025 101.483 48.7948 101.172 49.4661C100.836 50.1911 100.439 50.9341 99.5751 51.4052C98.779 51.8376 97.8039 52.0253 96.7642 52.094C95.6708 52.1661 94.5526 52.1313 93.4365 51.9656C92.3706 51.8063 91.3084 51.6255 90.2419 51.4699C89.1864 51.3162 88.13 51.178 87.0717 51.0511C87.1239 51.0565 87.1778 51.0634 87.2298 51.0699C86.1096 50.9387 84.9896 50.8165 83.8678 50.6836C82.9001 50.5701 81.9283 50.4481 80.9631 50.2779C80.824 50.2586 80.6896 50.2349 80.5537 50.2083ZM255.237 261.567C254.81 261.439 254.477 261.129 254.429 260.816C254.361 260.354 254.726 259.962 255.048 259.614C255.26 259.381 255.494 259.16 255.732 258.942C256.217 258.495 256.725 258.063 257.218 257.623C257.596 257.28 257.967 256.935 258.309 256.575C258.654 256.212 258.979 255.838 259.29 255.459C259.852 254.764 260.403 254.062 260.83 253.31C260.815 253.34 260.799 253.368 260.782 253.398C260.827 253.316 260.871 253.236 260.914 253.154C260.554 253.121 260.184 253.043 259.849 252.949C258.738 252.637 257.806 252.063 257.061 251.396C255.647 250.131 254.884 248.598 254.534 247.101C254.445 246.714 254.404 246.332 254.407 245.948C254.412 245.585 254.494 245.232 254.596 244.888C254.708 244.511 254.914 244.153 255.15 243.816C255.395 243.471 255.678 243.128 256.036 242.839C256.379 242.562 256.75 242.312 257.16 242.079C257.617 241.82 258.141 241.622 258.67 241.438C259.634 241.103 260.758 240.966 261.877 240.953C263.015 240.938 264.166 241.184 265.276 241.463C266.338 241.729 267.379 242.161 268.253 242.693C269.169 243.251 269.903 243.94 270.385 244.704C270.876 245.484 271.21 246.292 271.397 247.108C271.573 247.885 271.652 248.647 271.629 249.414C271.605 250.207 271.395 250.976 271.129 251.722C270.864 252.457 270.477 253.166 270.065 253.854C269.676 254.509 269.178 255.125 268.652 255.72C268.073 256.372 267.367 256.96 266.617 257.511C265.886 258.047 265.087 258.54 264.249 258.993C262.685 259.838 260.926 260.541 259.039 261.034C258.35 261.213 257.643 261.374 256.923 261.504C256.639 261.555 256.346 261.601 256.05 261.63C255.851 261.649 255.637 261.648 255.431 261.611C255.364 261.601 255.3 261.586 255.237 261.567ZM263.371 252.891C263.49 252.538 263.092 252.136 262.6 251.996C262.327 251.734 261.858 251.612 261.43 251.672C261.428 251.671 261.428 251.671 261.426 251.671C261.469 251.666 261.516 251.661 261.559 251.654C261.504 251.66 261.448 251.665 261.391 251.667C261.315 251.668 261.237 251.668 261.16 251.666C261.081 251.658 261.003 251.648 260.923 251.637C260.779 251.614 260.636 251.586 260.494 251.555C260.396 251.527 260.299 251.497 260.203 251.467C260.068 251.416 259.939 251.362 259.808 251.305C259.705 251.255 259.604 251.202 259.505 251.149C259.406 251.089 259.31 251.027 259.215 250.963C259.006 250.804 258.805 250.641 258.61 250.473C258.417 250.285 258.239 250.091 258.067 249.894C257.922 249.721 257.79 249.547 257.665 249.368C257.448 249.019 257.254 248.667 257.083 248.308C256.945 247.982 256.83 247.655 256.738 247.326C256.668 247.031 256.614 246.736 256.586 246.44C256.583 246.274 256.589 246.112 256.603 245.948C256.637 245.753 256.681 245.56 256.737 245.37C256.795 245.226 256.859 245.085 256.93 244.946C257.052 244.748 257.185 244.554 257.332 244.366C257.426 244.261 257.521 244.158 257.62 244.056C257.793 243.906 257.972 243.763 258.164 243.624C258.405 243.471 258.656 243.329 258.92 243.193C259.117 243.106 259.316 243.021 259.519 242.94C259.804 242.843 260.09 242.758 260.391 242.681C260.598 242.637 260.804 242.599 261.015 242.564C261.315 242.531 261.617 242.503 261.925 242.488C262.119 242.487 262.311 242.488 262.505 242.493C262.826 242.518 263.14 242.555 263.458 242.603C263.91 242.69 264.357 242.788 264.804 242.898C265.076 242.974 265.342 243.058 265.606 243.146C265.839 243.235 266.067 243.33 266.295 243.43C266.513 243.537 266.725 243.648 266.935 243.765C267.07 243.847 267.2 243.928 267.327 244.014C267.458 244.114 267.585 244.214 267.711 244.318C267.838 244.438 267.957 244.559 268.077 244.683C268.26 244.907 268.426 245.131 268.578 245.363C268.688 245.558 268.789 245.751 268.888 245.947C269.053 246.343 269.189 246.74 269.3 247.141C269.409 247.623 269.485 248.099 269.518 248.578C269.523 248.968 269.503 249.35 269.459 249.732C269.391 250.115 269.302 250.49 269.189 250.863C268.972 251.46 268.703 252.039 268.402 252.611C268.105 253.133 267.771 253.638 267.396 254.129C267.021 254.586 266.617 255.024 266.174 255.446C265.715 255.849 265.225 256.228 264.701 256.59C263.936 257.098 263.133 257.571 262.279 258.008C261.563 258.361 260.821 258.679 260.04 258.962C260.081 258.948 260.121 258.933 260.161 258.921C259.404 259.19 258.631 259.435 257.822 259.637C258.424 259.103 259.034 258.574 259.609 258.025C260.134 257.528 260.608 257.003 261.05 256.466C261.97 255.341 262.934 254.195 263.371 252.891ZM238.818 260.142C238.273 260.016 237.847 259.651 237.799 259.255C237.741 258.786 237.941 258.332 238.151 257.914C238.831 256.577 239.615 255.276 240.276 253.933C240.567 253.336 240.83 252.726 241.049 252.109C241.165 251.763 241.261 251.415 241.34 251.063C241.299 251.057 241.259 251.05 241.218 251.044C240.277 250.891 239.347 250.606 238.51 250.221C237.68 249.838 236.911 249.391 236.216 248.886C235.484 248.353 234.881 247.753 234.344 247.126C234.053 246.782 233.79 246.432 233.566 246.069C233.316 245.665 233.155 245.254 233.064 244.832C232.885 244.007 233.07 243.183 233.412 242.439C233.752 241.706 234.353 241.066 235.07 240.511C235.8 239.945 236.717 239.509 237.73 239.202C238.759 238.89 239.942 238.701 241.131 238.773C242.304 238.845 243.507 239.054 244.597 239.476C245.13 239.683 245.643 239.908 246.128 240.175C246.625 240.45 247.07 240.758 247.505 241.08C248.318 241.682 248.985 242.392 249.506 243.12C250.045 243.875 250.346 244.68 250.577 245.479C250.819 246.307 250.898 247.138 250.931 247.962C250.998 249.536 250.562 251.038 249.827 252.447C249.092 253.849 248.006 255.131 246.678 256.263C246.034 256.813 245.31 257.319 244.566 257.801C243.843 258.269 243.1 258.724 242.305 259.132C241.925 259.328 241.53 259.511 241.117 259.677C240.722 259.837 240.309 259.99 239.869 260.096C239.564 260.169 239.249 260.221 238.908 260.161C238.88 260.155 238.849 260.15 238.818 260.142ZM243.563 250.897C243.548 250.69 243.385 250.494 243.158 250.351C243.109 250.07 242.816 249.804 242.428 249.689C242.287 249.646 242.149 249.633 242.008 249.625C241.857 249.61 241.7 249.581 241.552 249.558C241.578 249.562 241.606 249.566 241.632 249.57C241.396 249.53 241.163 249.481 240.929 249.428C240.695 249.366 240.468 249.298 240.24 249.224C240.017 249.142 239.801 249.055 239.587 248.964C239.271 248.815 238.967 248.658 238.666 248.489C238.374 248.315 238.09 248.135 237.816 247.947C237.568 247.766 237.335 247.579 237.109 247.385C236.783 247.079 236.482 246.766 236.199 246.441C236.007 246.207 235.828 245.972 235.66 245.729C235.567 245.578 235.482 245.425 235.405 245.27C235.364 245.164 235.328 245.059 235.293 244.953C235.269 244.832 235.249 244.711 235.232 244.59C235.227 244.38 235.236 244.177 235.261 243.972C235.295 243.81 235.335 243.652 235.382 243.493C235.443 243.338 235.508 243.184 235.579 243.03C235.707 242.813 235.848 242.605 236.004 242.399C236.139 242.249 236.28 242.103 236.427 241.959C236.64 241.777 236.86 241.602 237.093 241.434C237.254 241.332 237.415 241.235 237.582 241.139C237.84 241.014 238.101 240.897 238.375 240.788C238.672 240.688 238.973 240.596 239.286 240.515C239.583 240.452 239.883 240.4 240.189 240.356C240.417 240.338 240.641 240.323 240.871 240.313C241.096 240.316 241.319 240.323 241.545 240.334C241.793 240.36 242.037 240.389 242.284 240.423C242.526 240.47 242.764 240.521 243.003 240.575C243.251 240.644 243.495 240.718 243.739 240.798C243.976 240.889 244.206 240.982 244.436 241.08C244.659 241.19 244.877 241.302 245.094 241.42C245.303 241.548 245.506 241.677 245.707 241.81C245.994 242.021 246.269 242.239 246.537 242.464C246.79 242.699 247.028 242.936 247.254 243.183C247.395 243.361 247.531 243.538 247.66 243.72C247.841 244.013 247.998 244.306 248.141 244.605C248.315 245.04 248.457 245.474 248.571 245.911C248.677 246.41 248.75 246.905 248.791 247.402C248.809 247.957 248.794 248.503 248.738 249.049C248.661 249.531 248.547 250 248.401 250.467C248.225 250.947 248.017 251.413 247.778 251.876C247.494 252.379 247.173 252.864 246.81 253.337C246.37 253.87 245.893 254.38 245.37 254.871C244.798 255.378 244.178 255.847 243.524 256.299C242.668 256.87 241.768 257.407 240.807 257.898C240.695 257.952 240.583 258.006 240.47 258.058C240.475 258.049 240.478 258.041 240.484 258.033C240.664 257.701 240.847 257.37 241.029 257.039C241.388 256.382 241.74 255.722 242.079 255.057C242.42 254.395 242.729 253.724 243.012 253.044C243.149 252.717 243.288 252.394 243.394 252.059C243.528 251.677 243.593 251.301 243.563 250.897ZM69.6085 33.337C68.4747 33.1319 67.3485 32.7437 66.4013 32.213C65.4935 31.7062 64.7212 31.0557 64.1327 30.365C63.5409 29.671 63.0906 28.9501 62.7602 28.1957C62.602 27.8327 62.4535 27.4468 62.4029 27.0769C62.3479 26.6672 62.3246 26.2605 62.3504 25.8559C62.403 25.0405 62.6521 24.2741 63.0679 23.5422C63.2627 23.2025 63.5014 22.8719 63.7388 22.5488C63.9931 22.2054 64.2716 21.8752 64.575 21.5547C65.1435 20.9589 65.7758 20.4002 66.4373 19.8584C67.1297 19.2922 67.9392 18.8051 68.7826 18.3525C69.5505 17.9399 70.354 17.5517 71.2082 17.2205C72.0729 16.8833 72.9924 16.613 73.9295 16.3718C74.805 16.1456 75.7246 15.9935 76.6705 15.907C77.0429 15.874 77.4197 15.8482 77.7993 15.8385C78.0321 15.8328 78.2662 15.8403 78.498 15.8942C78.9833 16.007 79.3617 16.3491 79.3749 16.6943C79.3892 17.1085 78.9852 17.4178 78.6365 17.6939C78.3364 17.9306 78.0347 18.1657 77.7398 18.4059C77.186 18.8537 76.6719 19.3241 76.1853 19.811C75.4127 20.6164 74.7001 21.4479 74.0747 22.3233C73.8031 22.7221 73.5692 23.1328 73.3333 23.5445C73.3462 23.5468 73.3591 23.549 73.3699 23.5522C74.3535 23.7478 75.3669 24.0433 76.1637 24.5436C77.0802 25.1195 77.6317 25.9128 77.988 26.6925C78.332 27.4454 78.4374 28.2159 78.4313 28.9719C78.4252 29.6527 78.2583 30.3297 77.8747 30.9218C77.4413 31.5922 76.7408 32.1609 75.8714 32.5569C75.4397 32.7535 74.9654 32.9231 74.4847 33.0643C74.2443 33.1349 73.9969 33.1913 73.7431 33.2413C73.4675 33.2966 73.1856 33.3547 72.8953 33.3854C72.3455 33.4443 71.786 33.4612 71.2207 33.4576C70.6988 33.4552 70.1593 33.4341 69.6343 33.3415C69.6251 33.3399 69.6159 33.3383 69.6085 33.337ZM70.1315 31.8682C70.0017 31.8505 69.8723 31.8303 69.742 31.8047C69.5156 31.7531 69.2942 31.6946 69.0723 31.6281C68.8049 31.5394 68.543 31.4413 68.2859 31.3375C68.1076 31.2607 67.9339 31.1794 67.7611 31.0931C67.6055 31.0059 67.456 30.9172 67.3093 30.8225C67.0621 30.6516 66.8211 30.478 66.5948 30.2965C66.4442 30.1596 66.3019 30.0189 66.1639 29.8751C65.9622 29.6512 65.7706 29.4239 65.5929 29.1926C65.3873 28.9044 65.2066 28.6154 65.0428 28.3164C64.8973 28.0102 64.771 27.7035 64.6623 27.3934C64.6157 27.2268 64.582 27.0624 64.5545 26.8952C64.5396 26.6458 64.5319 26.399 64.5358 26.1504C64.5381 26.1053 64.5403 26.0603 64.5442 26.0168C64.5433 26.0218 64.5443 26.0272 64.5434 26.0322C64.5573 25.8022 64.601 25.5762 64.6536 25.353C64.7319 25.0707 64.8291 24.7995 64.9491 24.5284C65.1567 24.1482 65.3961 23.7813 65.6482 23.418C65.63 23.4459 65.6101 23.4723 65.5917 23.5015C65.8866 23.1003 66.2105 22.7171 66.5633 22.343C67.1493 21.7554 67.7787 21.1911 68.4592 20.6604C68.8702 20.3653 69.3061 20.0903 69.7574 19.8257C70.5756 19.3752 71.4277 18.9592 72.3258 18.5838C72.965 18.3302 73.6318 18.114 74.3164 17.9153C74.3044 17.9184 74.2943 17.9218 74.2824 17.9249C74.2964 17.9209 74.3122 17.9172 74.3283 17.9122C74.3543 17.9051 74.3784 17.8976 74.4043 17.8905C74.3882 17.8955 74.3722 17.9005 74.3563 17.9041C74.8553 17.7675 75.3584 17.6393 75.881 17.5405C75.741 17.6561 75.6044 17.7736 75.4711 17.8942C74.8517 18.4447 74.2773 19.0201 73.7394 19.6148C72.6903 20.7714 71.812 22.0035 71.1116 23.3047C71.047 23.4232 71.032 23.5517 71.0608 23.6789C71.0158 23.7294 70.9831 23.7859 70.9607 23.8482C70.8836 24.0593 70.9654 24.3062 71.1708 24.4982C71.4383 24.748 71.8449 24.8548 72.2175 24.8205C72.2569 24.8235 72.2962 24.8266 72.3353 24.8309C72.6351 24.8759 72.9322 24.9361 73.2288 24.9988C73.4605 25.0526 73.6872 25.1134 73.9172 25.1773C74.1165 25.2423 74.3132 25.3121 74.5071 25.3865C74.5811 25.419 74.6547 25.4541 74.7264 25.4888C74.7834 25.521 74.84 25.5556 74.895 25.5887C74.9779 25.6462 75.0567 25.7055 75.1334 25.7658C75.2239 25.8454 75.3081 25.9277 75.3903 26.0111C75.4711 26.1019 75.5462 26.1931 75.6172 26.2861C75.7149 26.4319 75.8067 26.5793 75.8888 26.7275C75.9936 26.9408 76.0831 27.1553 76.1569 27.3722C76.2155 27.5786 76.2609 27.7841 76.2967 27.9904C76.3284 28.2739 76.3433 28.5557 76.3391 28.8381C76.321 29.07 76.2865 29.2976 76.2353 29.5237C76.1936 29.6631 76.1448 29.7999 76.087 29.9339C76.0174 30.0697 75.9355 30.2007 75.8482 30.3294C75.7964 30.3969 75.7414 30.4613 75.6845 30.5253C75.5779 30.6233 75.4649 30.7151 75.35 30.8065C75.2252 30.9001 75.0956 30.9889 74.9609 31.0743C74.8332 31.1414 74.7023 31.2053 74.5663 31.2657C74.232 31.3951 73.891 31.5194 73.5395 31.6275C73.2367 31.7079 72.9254 31.7712 72.6058 31.8278C72.4105 31.8583 72.2129 31.8806 72.0104 31.8982C71.5871 31.9183 71.1611 31.9211 70.7316 31.9117C70.5299 31.9034 70.3311 31.8891 70.1315 31.8682ZM85.8707 35.9421C85.3558 35.7383 84.8987 35.498 84.4519 35.2205C83.9982 34.9392 83.592 34.604 83.2278 34.267C82.8554 33.9234 82.5719 33.5384 82.3004 33.1606C81.7783 32.427 81.395 31.6711 81.1835 30.8884C81.0827 30.5122 81.0293 30.1261 81.0421 29.7518C81.0563 29.3478 81.0936 28.9427 81.2167 28.5566C81.3372 28.1856 81.5105 27.8279 81.6943 27.4746C81.8816 27.1128 82.0845 26.759 82.3289 26.4177C82.5576 26.1009 82.7935 25.7866 83.0487 25.481C83.3085 25.1709 83.6125 24.8791 83.9266 24.5955C85.1778 23.4668 86.7657 22.5507 88.4706 21.7682C88.894 21.5753 89.3141 21.3793 89.7678 21.219C90.236 21.0522 90.7188 20.9101 91.2143 20.7819C92.1555 20.5387 93.1338 20.3333 94.1362 20.1958C94.6071 20.1321 95.0805 20.0753 95.561 20.0327C95.9297 19.999 96.3045 19.9521 96.6798 19.9456C97.0917 19.9364 97.5216 20.0512 97.7939 20.3057C97.9455 20.448 98.0379 20.624 98.0444 20.7914C98.051 20.9913 97.9344 21.146 97.7826 21.2959C97.4882 21.5868 97.0444 21.8099 96.6554 22.0335C95.9682 22.4305 95.2774 22.8256 94.6117 23.2406C93.9651 23.6435 93.3625 24.0775 92.77 24.5185C92.1453 24.9914 91.534 25.4746 91.0038 26.0044C90.9039 26.1076 90.8096 26.2118 90.7169 26.3175C90.7551 26.3268 90.7952 26.3365 90.8352 26.3461C91.3828 26.483 91.9466 26.6681 92.4491 26.8879C92.9567 27.1111 93.4191 27.3758 93.8712 27.6555C94.6796 28.1552 95.4008 28.8044 95.8094 29.492C96.0426 29.8825 96.1792 30.2819 96.2981 30.6847C96.4097 31.0537 96.484 31.4292 96.5137 31.7993C96.5729 32.5409 96.3009 33.2215 95.8821 33.8516C95.6593 34.1889 95.391 34.4935 95.0445 34.7675C94.7156 35.0277 94.3322 35.2523 93.9331 35.4585C93.5337 35.666 93.0943 35.8314 92.6297 35.9677C92.1388 36.1123 91.643 36.2638 91.1248 36.3698C90.5608 36.4873 89.9692 36.5466 89.3604 36.5522C88.7783 36.5574 88.1957 36.4793 87.6137 36.3871C87.5361 36.3747 87.4585 36.3623 87.3811 36.3487C86.8677 36.2556 86.3392 36.1286 85.8707 35.9421ZM88.4044 34.9188C88.0803 34.872 87.757 34.8202 87.4362 34.7545C87.2937 34.7229 87.1497 34.6884 87.0082 34.6505C86.8646 34.6031 86.7252 34.5538 86.5845 34.5005C86.4877 34.4574 86.3931 34.4122 86.2967 34.3666C86.1342 34.2756 85.9774 34.1843 85.8216 34.088C85.6049 33.9381 85.3988 33.7823 85.2011 33.6215C85.0658 33.5054 84.9404 33.3872 84.8196 33.2646C84.606 33.0217 84.4145 32.7724 84.2289 32.5215C84.0852 32.313 83.9512 32.1037 83.8273 31.8909C83.6724 31.5844 83.5481 31.2768 83.4399 30.9642C83.3851 30.7792 83.3396 30.5958 83.3078 30.4097C83.3129 30.4457 83.3161 30.4813 83.3211 30.5173C83.2919 30.2952 83.2788 30.0786 83.2814 29.8596C83.3001 29.6136 83.3296 29.3707 83.3835 29.1296C83.4514 28.9169 83.5347 28.7134 83.6259 28.5087C83.8342 28.0818 84.0597 27.6644 84.3288 27.2586C84.6263 26.8422 84.9324 26.4313 85.2917 26.0414C85.6165 25.7181 85.9577 25.4095 86.3308 25.1142C86.9027 24.693 87.4933 24.2842 88.1375 23.9159C88.951 23.4711 89.7917 23.044 90.6836 22.6714C91.0214 22.5439 91.3686 22.4272 91.7217 22.3207C92.2629 22.1706 92.8161 22.0383 93.3779 21.9218C92.826 22.2621 92.2928 22.6149 91.7776 22.9838C91.1271 23.4522 90.482 23.9332 89.8925 24.4436C89.311 24.9514 88.7608 25.4869 88.3484 26.0804C88.3279 26.1105 88.3109 26.1426 88.2975 26.1753C88.253 26.1908 88.2096 26.2105 88.1698 26.232C87.8519 26.4084 87.7233 26.6636 87.8384 26.9697C87.9326 27.2213 88.2366 27.4256 88.5767 27.5219C88.7541 27.5714 88.9229 27.5726 89.0942 27.5599C89.1248 27.5588 89.1551 27.559 89.1836 27.5588C89.3116 27.5658 89.4411 27.5743 89.57 27.5867C89.7201 27.6079 89.8656 27.6336 90.0146 27.6612C90.2903 27.7241 90.5583 27.7986 90.8288 27.8801C91.0392 27.947 91.245 28.0184 91.4495 28.0973C91.6031 28.1634 91.7542 28.2328 91.901 28.3055C92.2111 28.4745 92.514 28.6525 92.8038 28.84C92.9067 28.914 93.0033 28.9907 93.1017 29.0678C93.2287 29.1772 93.3518 29.2873 93.4684 29.4013C93.5895 29.5331 93.703 29.6648 93.8081 29.8015C93.8696 29.8942 93.9256 29.9858 93.9773 30.0807C94.0617 30.2696 94.1324 30.4613 94.1957 30.6516C94.2777 30.9297 94.3409 31.2071 94.3829 31.4859C94.3935 31.6086 94.4003 31.7319 94.3978 31.8535C94.3865 31.9931 94.368 32.1301 94.3383 32.2664C94.311 32.3564 94.2785 32.4441 94.242 32.5325C94.1297 32.7491 94.0066 32.9624 93.8676 33.1691C93.7951 33.268 93.7141 33.3615 93.6293 33.4543C93.5408 33.5361 93.4491 33.6148 93.3523 33.6899C93.1858 33.8047 93.0147 33.9135 92.8348 34.0181C92.6461 34.1186 92.453 34.2119 92.2528 34.3025C92.0309 34.3868 91.8032 34.4609 91.5709 34.529C91.0981 34.6574 90.6201 34.7835 90.1248 34.8779C89.9221 34.9071 89.7169 34.9294 89.5086 34.9472C89.3458 34.9549 89.1837 34.9587 89.0183 34.9595C88.8182 34.9527 88.6115 34.9397 88.4044 34.9188ZM120.409 27.2726C119.847 27.1656 119.422 26.7843 119.485 26.3887C119.546 25.997 120.067 25.7655 120.633 25.8523C123.081 26.232 125.513 26.6907 127.951 27.1374C128.501 27.2383 128.916 27.618 128.858 28.0038C128.799 28.3817 128.283 28.6233 127.732 28.53C125.858 28.2125 123.983 27.9131 122.113 27.5834C121.544 27.4831 120.975 27.3802 120.409 27.2726ZM139.957 30.7531C138.616 30.5025 137.277 30.2455 135.936 29.9883C135.37 29.8794 134.945 29.4993 135.006 29.1009C135.065 28.723 135.595 28.4554 136.159 28.5627C137.493 28.8148 138.829 29.0711 140.163 29.3283C141.355 29.558 142.545 29.7978 143.739 30.0199C144.286 30.123 144.699 30.4958 144.639 30.88C144.58 31.2579 144.069 31.4951 143.521 31.4024C143.278 31.362 143.034 31.3204 142.789 31.2772C141.846 31.1122 140.902 30.9301 139.957 30.7531ZM151.281 32.7979C150.721 32.6979 150.3 32.308 150.363 31.9204C150.423 31.5349 150.942 31.2953 151.501 31.3874C152.661 31.5762 153.818 31.766 154.974 31.9621C155.561 32.0604 156.147 32.1611 156.736 32.2585C157.003 32.303 157.273 32.3479 157.54 32.3925C157.838 32.441 158.154 32.4786 158.435 32.5737C159.005 32.7677 159.245 33.2826 158.965 33.6178C158.785 33.8302 158.443 33.9283 158.094 33.9032C158.096 33.9048 158.096 33.906 158.097 33.9076C157.841 33.8883 157.578 33.8393 157.322 33.8021C157.052 33.7635 156.783 33.7239 156.513 33.6828C155.925 33.5909 155.338 33.4951 154.751 33.3981C153.939 33.2641 153.128 33.1237 152.318 32.9807C151.971 32.9209 151.625 32.8586 151.281 32.7979ZM170.639 36.2295C168.485 35.7808 166.316 35.4048 164.157 34.9813C163.589 34.8708 163.159 34.491 163.222 34.0892C163.281 33.7009 163.812 33.4477 164.381 33.5468C166.42 33.8998 168.452 34.2971 170.473 34.7275C170.468 34.7265 170.464 34.7258 170.458 34.7249C170.471 34.7271 170.486 34.731 170.499 34.7333C170.506 34.7346 170.513 34.7359 170.522 34.7388C170.519 34.7381 170.513 34.7371 170.51 34.7365C170.896 34.8176 171.308 34.8916 171.672 35.0272C172.014 35.155 172.274 35.3852 172.334 35.6465C172.399 35.932 172.212 36.1977 171.872 36.3182C171.641 36.3996 171.403 36.3889 171.16 36.346C170.987 36.3155 170.813 36.2692 170.639 36.2295ZM182.815 37.6153C182.778 37.6063 182.74 37.5982 182.705 37.5908C181.183 37.2717 179.636 37.043 178.103 36.7845C177.544 36.6911 177.126 36.2927 177.186 35.9085C177.245 35.5215 177.762 35.2894 178.323 35.3765C179.984 35.637 181.658 35.901 183.296 36.2846C183.84 36.4116 184.172 36.8559 184.045 37.2076C183.919 37.558 183.419 37.7231 182.905 37.6325C182.875 37.6285 182.844 37.623 182.815 37.6153ZM188.514 37.7775C188.576 37.3844 189.105 37.1414 189.676 37.2342C190.902 37.4347 192.127 37.6353 193.352 37.8421C193.926 37.9381 194.496 38.0347 195.069 38.1319C195.683 38.2363 196.313 38.3241 196.916 38.4848C197.453 38.6276 197.795 39.0438 197.665 39.4078C197.53 39.7815 196.98 39.9403 196.436 39.8158C196.43 39.8148 196.427 39.8142 196.421 39.8119C195.877 39.7029 195.323 39.6234 194.772 39.5354C194.165 39.4374 193.556 39.3431 192.949 39.2451C191.781 39.06 190.617 38.8638 189.451 38.6699C189.446 38.6689 189.44 38.6679 189.436 38.6673C188.872 38.5704 188.454 38.1654 188.514 37.7775ZM207.591 41.7841C206.33 41.559 205.069 41.3186 203.809 41.0886C203.255 40.987 202.836 40.6054 202.895 40.2158C202.955 39.8366 203.473 39.5891 204.029 39.6872C205.316 39.9114 206.603 40.128 207.888 40.3598C208.528 40.4766 209.168 40.5946 209.808 40.7152C210.09 40.7674 210.372 40.8225 210.655 40.8776C210.923 40.93 211.206 40.9759 211.459 41.0661C211.931 41.2325 212.203 41.6219 212.084 41.9503C211.963 42.2809 211.488 42.466 210.986 42.3852C210.633 42.3282 210.279 42.2683 209.927 42.2063C209.148 42.0689 208.37 41.9227 207.591 41.7841ZM217.998 43.7295C217.435 43.6288 217.012 43.2374 217.073 42.8469C217.133 42.4627 217.658 42.2124 218.222 42.3105C219.667 42.5588 221.111 42.8018 222.555 43.0615C223.25 43.1881 223.944 43.3143 224.638 43.4393C225.039 43.5113 225.439 43.5843 225.84 43.6577C225.934 43.6742 226.03 43.6898 226.126 43.7055C226.362 43.7445 226.604 43.7846 226.826 43.8484C227.316 43.9868 227.656 44.3337 227.602 44.6852C227.549 45.0291 227.118 45.2648 226.614 45.2265C226.39 45.2105 226.161 45.1674 225.936 45.1265C225.853 45.1119 225.772 45.0964 225.691 45.0833C225.293 45.0157 224.895 44.9468 224.498 44.8795C223.774 44.7556 223.051 44.6321 222.328 44.5073C222.096 44.4676 221.866 44.427 221.634 44.3861C220.42 44.1708 219.21 43.947 217.998 43.7295ZM239.397 47.3729C239.145 47.3271 238.895 47.2817 238.644 47.2375C238.005 47.1235 237.368 47.0111 236.731 46.8988C235.548 46.6902 234.373 46.4622 233.196 46.2405C232.632 46.1332 232.207 45.7518 232.27 45.3563C232.33 44.9721 232.855 44.7193 233.419 44.8186C234.625 45.0301 235.831 45.235 237.032 45.4622C237.66 45.5796 238.291 45.6998 238.919 45.8197C239.215 45.877 239.51 45.9344 239.806 45.9942C240.11 46.057 240.423 46.1134 240.683 46.2632C241.018 46.456 241.174 46.7758 241.08 47.041C240.973 47.3326 240.569 47.534 240.115 47.4929C240.008 47.4832 239.901 47.4669 239.792 47.4477C239.658 47.4228 239.528 47.3959 239.397 47.3729ZM247.214 48.8433C246.649 48.7386 246.224 48.3506 246.286 47.9563C246.345 47.568 246.871 47.3205 247.439 47.4168C248.595 47.6129 249.751 47.8102 250.906 48.0177C251.495 48.1229 252.084 48.2293 252.671 48.3367C252.938 48.3851 253.206 48.4337 253.473 48.4846C253.697 48.5268 253.929 48.5677 254.15 48.6262C254.165 48.6301 254.182 48.633 254.196 48.6368C254.688 48.7664 255.026 49.1313 254.971 49.4748C254.924 49.786 254.567 50.0126 254.121 50.0223C254.001 50.0245 253.881 50.0125 253.768 49.9861C252.739 49.7995 251.706 49.6368 250.678 49.4606C250.283 49.3936 249.89 49.3257 249.496 49.2562C248.738 49.1211 247.976 48.9828 247.214 48.8433ZM261.475 50.6658C261.537 50.2612 262.061 50.0496 262.633 50.1244C263.776 50.2754 264.916 50.4336 266.058 50.6063C266.642 50.695 267.226 50.7967 267.807 50.9044C268.089 50.9554 268.367 51.0186 268.645 51.078C268.857 51.1245 269.075 51.1799 269.268 51.2685C269.667 51.4543 269.877 51.8006 269.77 52.0972C269.663 52.3939 269.266 52.5758 268.814 52.5442C268.639 52.5329 268.463 52.4888 268.29 52.4544C268.035 52.403 267.781 52.3557 267.524 52.3102C266.961 52.2136 266.397 52.1259 265.833 52.0407C264.692 51.8667 263.549 51.7108 262.407 51.5522C262.391 51.5493 262.372 51.5473 262.356 51.5444C261.81 51.4508 261.417 51.0308 261.475 50.6658ZM281.004 54.7911C279.608 54.5424 278.214 54.2719 276.819 54.0115C276.262 53.9081 275.841 53.5274 275.902 53.1356C275.959 52.7574 276.481 52.5026 277.041 52.6026C278.435 52.8576 279.834 53.1016 281.231 53.3545C281.908 53.4765 282.588 53.5989 283.265 53.7222C283.596 53.7832 283.925 53.8438 284.255 53.9045C284.317 53.9155 284.38 53.9266 284.444 53.9367C284.74 53.9861 285.057 54.0395 285.287 54.1879C285.574 54.3696 285.743 54.6201 285.704 54.873C285.667 55.1158 285.439 55.3081 285.12 55.3831C284.827 55.4496 284.5 55.3905 284.185 55.335C284.135 55.325 284.084 55.3159 284.034 55.3084C283.701 55.2537 283.371 55.1981 283.041 55.1424C282.453 55.0413 281.865 54.9415 281.277 54.8379C281.186 54.8245 281.094 54.8083 281.004 54.7911ZM301.304 58.6783C301.144 58.6409 300.984 58.5997 300.823 58.5636C299.449 58.2784 298.067 58.027 296.687 57.7616C295.253 57.4853 293.819 57.1922 292.385 56.9109C291.827 56.802 291.403 56.4298 291.465 56.033C291.524 55.6576 292.047 55.3928 292.605 55.5004C294.274 55.8205 295.943 56.1318 297.61 56.4607C298.429 56.6219 299.247 56.7819 300.063 56.9478C300.459 57.0281 300.854 57.1146 301.247 57.2033C301.593 57.2798 301.969 57.3656 302.232 57.564C302.56 57.8141 302.649 58.1713 302.432 58.433C302.224 58.6781 301.81 58.7702 301.394 58.6968C301.366 58.6919 301.335 58.6864 301.304 58.6783ZM315.9 61.3844C315.891 61.3815 315.884 61.379 315.875 61.3761C315.293 61.2073 314.688 61.085 314.092 60.9552C312.135 60.5491 310.165 60.1823 308.199 59.8213C307.645 59.7197 307.226 59.338 307.287 58.9501C307.344 58.5731 307.863 58.3205 308.419 58.4199C309.993 58.7026 311.567 58.9841 313.133 59.2914C313.891 59.4406 314.647 59.605 315.397 59.7801C315.825 59.8816 316.273 59.9826 316.678 60.1373C317.276 60.3648 317.533 60.8386 317.255 61.2182C317.08 61.4561 316.645 61.556 316.255 61.4912C316.25 61.4903 316.244 61.4893 316.239 61.4883C316.117 61.4669 316.006 61.4316 315.9 61.3844ZM325.868 65.0446C325.823 65.0069 325.79 64.9673 325.762 64.9259C325.434 64.7174 325.082 64.528 324.729 64.3399C324.733 64.3418 324.736 64.3437 324.74 64.3457C324.01 63.9677 323.253 63.6328 322.485 63.3026C321.969 63.0818 321.796 62.5864 322.059 62.2729C322.342 61.9359 322.967 61.8903 323.485 62.1102C323.941 62.3036 324.403 62.4979 324.85 62.7054C325.28 62.9047 325.693 63.1189 326.098 63.3398C326.606 63.6163 327.164 63.912 327.508 64.2949C327.853 64.6752 327.671 65.1287 327.192 65.3157C327 65.3909 326.778 65.3999 326.562 65.3619C326.299 65.3154 326.048 65.1997 325.868 65.0446ZM329.84 73.3242C329.401 73.2377 329.029 72.9461 328.986 72.6295C328.973 72.5323 328.987 72.4451 328.992 72.3487C329.004 72.1442 329.006 71.9368 329.008 71.7307C329.008 71.3412 328.992 70.9512 328.969 70.5603C328.92 70.0022 328.848 69.448 328.719 68.8889C328.629 68.5717 328.531 68.2544 328.416 67.938C328.276 67.5483 328.612 67.1817 329.154 67.1356C329.705 67.0875 330.255 67.3752 330.408 67.7634C330.593 68.2349 330.772 68.7159 330.871 69.1929C330.963 69.6507 331.025 70.1058 331.062 70.563C331.098 71.007 331.107 71.4502 331.096 71.8898C331.09 72.1173 331.082 72.3445 331.056 72.5672C331.038 72.7225 331.012 72.8698 330.923 73.0074C330.753 73.276 330.306 73.4051 329.872 73.3284C329.86 73.3277 329.851 73.3261 329.84 73.3242ZM327.904 83.3022C327.506 83.1451 327.279 82.8413 327.3 82.5568C327.299 82.5656 327.299 82.5748 327.298 82.5836C327.309 82.4012 327.372 82.2241 327.408 82.0433C327.457 81.8116 327.501 81.5792 327.543 81.345C327.622 80.9186 327.684 80.4906 327.75 80.0633C327.885 79.1456 328.03 78.2282 328.146 77.3073C328.191 76.9567 328.706 76.741 329.194 76.7921C329.733 76.8482 330.26 77.2345 330.214 77.6226C330.099 78.6204 329.98 79.6176 329.828 80.609C329.765 81.0291 329.69 81.4482 329.599 81.8635C329.553 82.0722 329.512 82.2831 329.453 82.4896C329.394 82.6935 329.352 82.9133 329.213 83.0941C329.218 83.0872 329.223 83.0815 329.23 83.075C329.047 83.3387 328.607 83.4546 328.181 83.3796C328.087 83.363 327.995 83.3377 327.904 83.3022ZM326.525 94.1187C325.978 94.0105 325.593 93.6089 325.676 93.2365C325.789 92.7202 325.881 92.2 325.988 91.6824C326.105 91.1018 326.234 90.5232 326.365 89.9437C326.63 88.7748 326.912 87.613 327.197 86.449C327.29 86.0731 327.812 85.8471 328.372 85.9587C328.928 86.0685 329.316 86.4758 329.234 86.8536C328.983 88.0209 328.726 89.186 328.456 90.3489C328.202 91.4444 327.974 92.5469 327.685 93.6349C327.589 93.9972 327.105 94.2197 326.562 94.1239C326.547 94.1225 326.536 94.1206 326.525 94.1187ZM325.29 102.727C324.796 102.628 324.415 102.283 324.428 101.936C324.415 101.648 324.471 101.362 324.509 101.08C324.557 100.743 324.616 100.407 324.679 100.072C324.823 99.3107 324.974 98.5504 325.153 97.7962C325.244 97.4083 325.784 97.1776 326.358 97.2932C326.937 97.4068 327.317 97.822 327.243 98.2127C327.097 98.974 326.933 99.7321 326.776 100.49C326.707 100.817 326.647 101.148 326.586 101.476C326.554 101.642 326.529 101.809 326.503 101.975C326.482 102.108 326.463 102.235 326.403 102.358C326.409 102.349 326.414 102.341 326.42 102.331L326.419 102.332C326.407 102.358 326.396 102.381 326.38 102.405C326.38 102.406 326.378 102.407 326.378 102.408C326.378 102.407 326.378 102.407 326.378 102.406C326.202 102.673 325.768 102.814 325.321 102.735C325.31 102.73 325.301 102.729 325.29 102.727ZM323.5 111.897C322.944 111.787 322.579 111.389 322.651 111.015C322.79 110.268 322.981 109.529 323.156 108.789C323.376 107.849 323.616 106.912 323.857 105.977C323.954 105.598 324.473 105.368 325.04 105.481C325.598 105.591 326 106.004 325.912 106.384C325.696 107.315 325.48 108.243 325.244 109.169C325.054 109.915 324.894 110.672 324.658 111.409C324.657 111.41 324.657 111.411 324.657 111.413C324.653 111.424 324.649 111.436 324.645 111.447C324.641 111.462 324.636 111.478 324.629 111.492C324.634 111.479 324.638 111.465 324.642 111.452C324.513 111.787 324.066 111.995 323.534 111.901C323.524 111.901 323.513 111.899 323.5 111.897ZM322.097 120.577C321.563 120.471 321.142 120.06 321.246 119.693C321.387 119.185 321.47 118.662 321.577 118.149C321.707 117.523 321.84 116.899 321.985 116.276C322.075 115.888 322.621 115.657 323.195 115.772C323.767 115.886 324.17 116.306 324.082 116.696C323.831 117.833 323.577 118.971 323.255 120.095C323.152 120.456 322.679 120.682 322.128 120.585C322.119 120.581 322.108 120.579 322.097 120.577ZM320.446 130.33C320.079 130.257 319.715 130.024 319.626 129.756C319.621 129.748 319.619 129.738 319.617 129.73C319.596 129.655 319.578 129.583 319.587 129.509C319.601 129.4 319.624 129.292 319.645 129.184C319.692 128.95 319.735 128.715 319.779 128.479C319.864 128.014 319.946 127.549 320.027 127.082C320.201 126.081 320.384 125.08 320.545 124.077C320.607 123.693 321.185 123.477 321.726 123.584C322.304 123.699 322.647 124.101 322.591 124.485C322.449 125.466 322.291 126.445 322.114 127.42C322.03 127.88 321.94 128.339 321.848 128.796C321.802 129.026 321.752 129.256 321.702 129.484C321.656 129.689 321.623 129.919 321.468 130.089C321.27 130.309 320.866 130.402 320.475 130.333C320.464 130.333 320.455 130.331 320.446 130.33ZM318.594 141.315C318.058 141.208 317.642 140.799 317.742 140.428C318.016 139.402 318.211 138.36 318.439 137.325C318.702 136.127 318.993 134.937 319.274 133.745C319.361 133.367 319.891 133.142 320.449 133.252C321.007 133.363 321.394 133.771 321.312 134.15C321.054 135.347 320.801 136.545 320.524 137.739C320.391 138.307 320.259 138.876 320.129 139.442C320.013 139.935 319.917 140.439 319.726 140.916C319.599 141.236 319.104 141.405 318.622 141.32C318.614 141.318 318.605 141.317 318.594 141.315ZM316.497 151.927C315.957 151.768 315.661 151.345 315.804 150.986C315.812 150.967 315.819 150.947 315.826 150.927C316.097 150.061 316.227 149.16 316.395 148.274C316.574 147.323 316.765 146.377 316.95 145.427C317.025 145.046 317.58 144.824 318.131 144.934C318.703 145.047 319.067 145.453 318.999 145.835C318.824 146.821 318.657 147.809 318.463 148.79C318.367 149.273 318.272 149.756 318.161 150.236C318.058 150.681 317.969 151.142 317.76 151.561C317.602 151.875 317.15 152.049 316.661 151.963C316.604 151.956 316.551 151.943 316.497 151.927ZM314.304 162.901C313.814 162.804 313.423 162.457 313.442 162.11C313.451 161.953 313.498 161.802 313.533 161.648C313.584 161.426 313.631 161.203 313.68 160.979C313.781 160.503 313.885 160.03 313.988 159.555C314.2 158.59 314.437 157.632 314.669 156.672C314.76 156.293 315.287 156.066 315.85 156.18C316.408 156.29 316.799 156.701 316.717 157.08C316.517 157.983 316.331 158.887 316.119 159.789C316.018 160.221 315.915 160.654 315.815 161.085C315.707 161.534 315.614 161.988 315.468 162.428C315.475 162.407 315.482 162.388 315.49 162.367C315.465 162.445 315.442 162.517 315.392 162.588C315.212 162.853 314.781 162.986 314.34 162.909C314.326 162.905 314.315 162.903 314.304 162.901ZM312.262 173.567C311.74 173.414 311.464 173.026 311.554 172.677C311.551 172.684 311.55 172.692 311.546 172.7C311.658 172.291 311.69 171.863 311.747 171.445C311.817 170.93 311.902 170.416 311.984 169.903C312.158 168.844 312.394 167.796 312.639 166.75C312.729 166.37 313.265 166.142 313.826 166.256C314.39 166.367 314.78 166.778 314.698 167.16C314.47 168.218 314.274 169.285 314.077 170.349C313.984 170.855 313.891 171.359 313.809 171.867C313.737 172.318 313.679 172.768 313.518 173.203C313.4 173.528 312.89 173.687 312.413 173.602C312.363 173.594 312.312 173.582 312.262 173.567ZM310.657 185.389C310.112 185.281 309.722 184.877 309.808 184.507C309.92 184.024 309.991 183.532 310.076 183.045C310.162 182.52 310.255 181.997 310.347 181.473C310.524 180.467 310.711 179.461 310.918 178.46C311 178.069 311.561 177.842 312.128 177.955C312.708 178.07 313.088 178.486 313.014 178.877C312.823 179.882 312.62 180.884 312.422 181.887C312.224 182.894 312.069 183.911 311.814 184.906C311.721 185.269 311.232 185.491 310.687 185.395C310.678 185.392 310.667 185.39 310.657 185.389ZM309.122 197.974C308.863 197.923 308.623 197.801 308.463 197.641C308.303 197.479 308.253 197.304 308.267 197.126C308.31 196.786 308.384 196.453 308.441 196.119C308.515 195.686 308.589 195.254 308.664 194.822C308.812 193.972 308.978 193.125 309.15 192.281C309.229 191.895 309.785 191.671 310.343 191.781C310.918 191.896 311.292 192.306 311.222 192.692C311.064 193.54 310.918 194.391 310.752 195.237C310.669 195.666 310.587 196.098 310.502 196.528C310.432 196.881 310.371 197.236 310.252 197.578C310.138 197.9 309.623 198.064 309.151 197.98C309.141 197.977 309.131 197.975 309.122 197.974ZM307.041 208.708C306.487 208.599 306.12 208.2 306.194 207.828C306.369 206.922 306.579 206.023 306.766 205.121C306.974 204.124 307.197 203.129 307.407 202.132C307.486 201.748 308.039 201.523 308.598 201.633C309.169 201.747 309.55 202.158 309.475 202.544C309.278 203.543 309.079 204.542 308.852 205.537C308.741 206.025 308.628 206.515 308.516 207.005C308.414 207.441 308.345 207.895 308.167 208.313C308.033 208.63 307.555 208.8 307.072 208.715C307.062 208.712 307.051 208.71 307.041 208.708ZM304.796 216.833C304.772 216.259 304.866 215.693 304.933 215.13C305.015 214.446 305.126 213.765 305.253 213.089C305.325 212.703 305.891 212.483 306.442 212.592C307.024 212.706 307.374 213.111 307.315 213.498C307.185 214.356 307.042 215.211 306.921 216.069C306.916 216.098 306.913 216.126 306.91 216.155C306.913 216.135 306.917 216.116 306.918 216.097C306.902 216.22 306.888 216.342 306.872 216.465C306.876 216.433 306.879 216.403 306.883 216.371C306.853 216.594 306.827 216.82 306.821 217.047C306.812 217.43 306.341 217.699 305.789 217.642C305.754 217.638 305.72 217.634 305.685 217.627C305.171 217.537 304.812 217.194 304.796 216.833ZM303.281 226.892C302.804 226.75 302.477 226.377 302.559 226.041C302.632 225.744 302.727 225.453 302.797 225.154C302.889 224.763 302.964 224.367 303.045 223.973C303.215 223.149 303.394 222.326 303.588 221.506C303.679 221.12 304.215 220.892 304.786 221.005C305.357 221.118 305.741 221.531 305.666 221.917C305.493 222.765 305.31 223.609 305.123 224.454C305.035 224.845 304.955 225.239 304.85 225.626C304.759 225.959 304.675 226.3 304.496 226.61C304.338 226.886 303.867 227.004 303.436 226.928C303.382 226.919 303.331 226.906 303.281 226.892ZM302.617 236.772C302.32 236.712 302.025 236.552 301.888 236.351C301.729 236.119 301.764 235.922 301.786 235.69C301.809 235.462 301.834 235.235 301.865 235.008C301.938 234.45 302.029 233.893 302.13 233.339C302.316 232.329 302.54 231.326 302.757 230.321C302.837 229.946 303.383 229.725 303.931 229.836C304.49 229.95 304.864 230.355 304.786 230.732C304.621 231.538 304.473 232.345 304.321 233.153C304.178 233.921 304.033 234.687 303.918 235.46C303.889 235.676 303.861 235.891 303.828 236.108C303.794 236.343 303.69 236.6 303.382 236.711C303.161 236.791 302.923 236.826 302.658 236.779C302.645 236.778 302.632 236.776 302.617 236.772ZM300.143 248.446C300.102 248.428 300.062 248.41 300.025 248.393C300.032 248.395 300.041 248.399 300.048 248.402C299.881 248.323 299.742 248.219 299.645 248.091C299.466 247.847 299.427 247.561 299.422 247.309C299.415 247.014 299.436 246.726 299.464 246.435C299.523 245.876 299.63 245.321 299.75 244.772C300.007 243.592 300.319 242.425 300.63 241.257C300.73 240.885 301.242 240.659 301.802 240.772C302.35 240.883 302.743 241.292 302.653 241.665C302.446 242.524 302.256 243.385 302.044 244.242C301.85 245.034 301.676 245.828 301.542 246.632C301.501 246.949 301.466 247.265 301.477 247.588C301.481 247.618 301.485 247.65 301.491 247.681C301.58 247.858 301.578 248.051 301.473 248.208C301.297 248.472 300.85 248.604 300.423 248.529C300.329 248.513 300.235 248.486 300.143 248.446ZM297.057 258.332C296.889 258.022 297.015 257.707 297.106 257.417C297.183 257.177 297.257 256.936 297.334 256.696C297.494 256.2 297.646 255.703 297.793 255.204C298.086 254.221 298.353 253.23 298.612 252.24C298.71 251.866 299.226 251.64 299.786 251.753C300.337 251.866 300.729 252.274 300.642 252.65C300.428 253.56 300.213 254.469 299.951 255.369C299.703 256.219 299.412 257.059 299.127 257.899C299.102 257.981 299.074 258.061 299.05 258.144C299.074 258.246 299.065 258.348 299.02 258.443C298.958 258.577 298.846 258.676 298.692 258.755C298.486 258.853 298.252 258.9 297.978 258.868C297.947 258.864 297.917 258.86 297.886 258.854C297.516 258.789 297.192 258.587 297.057 258.332ZM288.83 264.102C288.455 263.933 288.222 263.637 288.266 263.343C288.315 263.037 288.667 262.807 289.111 262.799C289.314 262.796 289.523 262.828 289.728 262.839C290.064 262.843 290.393 262.832 290.721 262.811C290.963 262.784 291.202 262.753 291.442 262.719C291.702 262.667 291.953 262.61 292.208 262.545C292.47 262.459 292.723 262.369 292.974 262.273C293.326 262.117 293.661 261.951 293.99 261.774C294.415 261.52 294.819 261.253 295.202 260.967C295.528 260.724 296.157 260.765 296.55 260.999C296.984 261.256 297.136 261.748 296.785 262.016C296.268 262.409 295.728 262.779 295.138 263.119C294.861 263.278 294.565 263.417 294.265 263.555C293.93 263.709 293.55 263.85 293.168 263.947C292.468 264.128 291.755 264.249 290.986 264.292C290.606 264.312 290.225 264.31 289.839 264.293C289.667 264.286 289.492 264.269 289.32 264.239C289.151 264.208 288.986 264.164 288.83 264.102ZM211.009 251.61C210.124 251.447 209.235 251.288 208.357 251.095C208.366 251.097 208.377 251.099 208.386 251.102C208.384 251.101 208.382 251.101 208.381 251.101C207.832 250.991 207.417 250.63 207.477 250.237C207.534 249.871 208.051 249.606 208.599 249.713C209.439 249.878 210.293 250.011 211.137 250.16C212.154 250.338 213.171 250.525 214.186 250.718C214.748 250.825 215.175 251.205 215.111 251.602C215.053 251.985 214.527 252.239 213.962 252.139C212.978 251.965 211.993 251.792 211.009 251.61ZM193.573 248.398C193.144 248.245 192.873 247.908 192.922 247.598C192.972 247.273 193.329 247.082 193.775 247.051C193.896 247.044 194.029 247.062 194.152 247.075C194.312 247.093 194.474 247.114 194.634 247.134C194.929 247.171 195.222 247.212 195.517 247.252C196.15 247.338 196.784 247.436 197.416 247.535C198.724 247.741 200.026 247.965 201.326 248.209C201.895 248.316 202.325 248.703 202.262 249.102C202.203 249.491 201.672 249.746 201.101 249.646C199.813 249.42 198.524 249.213 197.236 248.995C196.596 248.889 195.957 248.787 195.316 248.685C195.023 248.64 194.729 248.598 194.435 248.555C194.261 248.529 194.079 248.513 193.902 248.482C193.788 248.461 193.679 248.436 193.573 248.398ZM181.154 246.336C180.527 246.222 179.896 246.107 179.269 245.991C178.669 245.88 178.068 245.755 177.468 245.649C176.917 245.552 176.506 245.167 176.567 244.787C176.624 244.414 177.136 244.168 177.685 244.265C178.265 244.367 178.853 244.451 179.434 244.549C180.083 244.657 180.734 244.768 181.383 244.878C182.674 245.098 183.963 245.337 185.254 245.57C185.824 245.673 186.254 246.067 186.191 246.466C186.132 246.857 185.599 247.109 185.026 247.011C184.055 246.844 183.082 246.68 182.112 246.509C181.791 246.451 181.473 246.395 181.154 246.336ZM162.655 242.824C162.106 242.718 161.691 242.35 161.751 241.962C161.811 241.581 162.323 241.35 162.873 241.438C165.356 241.831 167.841 242.21 170.316 242.659C170.879 242.761 171.302 243.15 171.241 243.542C171.18 243.928 170.657 244.171 170.094 244.077C168.854 243.871 167.613 243.672 166.375 243.464C165.461 243.309 164.544 243.165 163.63 243.004C163.304 242.946 162.981 242.886 162.655 242.824ZM156.517 241.918C154.973 241.639 153.429 241.355 151.887 241.065C151.161 240.928 150.433 240.791 149.707 240.651C149.037 240.523 148.353 240.403 147.696 240.232C147.206 240.102 146.869 239.74 146.924 239.397C146.98 239.036 147.498 238.758 148.044 238.873C149.127 239.103 150.229 239.296 151.323 239.489C151.587 239.536 151.85 239.582 152.113 239.63C153.656 239.906 155.201 240.183 156.745 240.462C157.321 240.568 157.756 240.965 157.693 241.368C157.634 241.758 157.097 242.02 156.522 241.919C156.521 241.919 156.519 241.918 156.517 241.918ZM131.984 236.875C132.044 236.503 132.508 236.295 133.031 236.342C133.056 236.344 133.08 236.347 133.106 236.35C133.117 236.351 133.128 236.353 133.141 236.355C134.314 236.491 135.487 236.667 136.654 236.843C137.955 237.04 139.256 237.245 140.547 237.497C141.116 237.608 141.546 237.989 141.485 238.392C141.423 238.783 140.893 239.033 140.321 238.936C139.025 238.716 137.727 238.495 136.428 238.289C135.249 238.102 134.063 237.945 132.887 237.74C132.337 237.643 131.924 237.257 131.984 236.875ZM125.283 236.206C123.909 235.953 122.534 235.695 121.161 235.444C120.49 235.321 119.822 235.201 119.151 235.08C118.848 235.024 118.546 234.97 118.244 234.914C118.039 234.875 117.822 234.844 117.623 234.786C117.137 234.643 116.798 234.307 116.853 233.953C116.906 233.609 117.334 233.377 117.837 233.413C118.022 233.427 118.208 233.459 118.391 233.49C118.688 233.54 118.987 233.59 119.285 233.642C119.96 233.757 120.637 233.873 121.313 233.991C122.715 234.237 124.115 234.497 125.511 234.765C126.078 234.874 126.508 235.258 126.447 235.66C126.387 236.042 125.86 236.305 125.295 236.205C125.291 236.207 125.287 236.206 125.283 236.206ZM110.51 233.462C109.249 233.238 107.989 233.015 106.729 232.782C106.135 232.672 105.541 232.561 104.945 232.449C104.671 232.397 104.399 232.347 104.127 232.293C103.813 232.233 103.486 232.183 103.186 232.085C103.202 232.089 103.219 232.093 103.235 232.097C102.795 231.953 102.482 231.627 102.535 231.287C102.566 231.075 102.742 230.897 103.005 230.806C103.286 230.709 103.607 230.73 103.915 230.829C103.873 230.815 103.83 230.803 103.789 230.79C103.746 230.781 103.704 230.772 103.659 230.761C103.913 230.793 104.173 230.852 104.425 230.897C104.703 230.946 104.979 230.994 105.258 231.043C105.853 231.147 106.448 231.251 107.045 231.356C108.276 231.57 109.507 231.791 110.737 232.011C111.314 232.115 111.745 232.513 111.68 232.912C111.621 233.302 111.085 233.561 110.512 233.46C110.512 233.462 110.51 233.462 110.51 233.462ZM94.788 230.68C93.5885 230.449 92.3885 230.221 91.1885 229.992C90.0531 229.775 88.9131 229.573 87.7841 229.33C87.2862 229.224 86.9582 228.822 87.0083 228.494C87.0658 228.125 87.583 227.863 88.1323 227.969C88.7515 228.087 89.3725 228.196 89.9951 228.305C90.4687 228.388 90.9403 228.471 91.413 228.558C92.6161 228.779 93.8118 229.021 95.0089 229.266C95.5678 229.382 95.9935 229.746 95.9305 230.147C95.873 230.516 95.359 230.781 94.8101 230.684C94.8027 230.683 94.7954 230.682 94.788 230.68ZM71.0807 226.534C70.5806 226.441 70.1862 226.124 70.1715 225.766C70.1569 225.375 70.6085 225.097 71.1607 225.132C71.4688 225.152 71.7796 225.199 72.0871 225.243C72.4762 225.298 72.8646 225.358 73.2543 225.42C74.0173 225.541 74.778 225.665 75.5381 225.793C77.1299 226.06 78.7201 226.338 80.3102 226.616C80.8667 226.713 81.2857 227.105 81.2253 227.49C81.1659 227.871 80.6476 228.117 80.089 228.021C78.518 227.753 76.9467 227.498 75.3751 227.234C74.6261 227.108 73.8792 226.982 73.13 226.858C72.7701 226.798 72.4068 226.737 72.0444 226.68C71.7504 226.635 71.4507 226.6 71.1578 226.549C71.1321 226.544 71.1063 226.54 71.0807 226.534ZM57.9316 223.939C57.2211 223.811 56.5086 223.683 55.7998 223.545C55.4381 223.474 55.0781 223.404 54.7152 223.33C54.5503 223.296 54.381 223.265 54.2179 223.22C53.8974 223.131 53.6694 222.97 53.5137 222.755C53.3673 222.551 53.4005 222.298 53.5427 222.127C53.7207 221.914 54.0465 221.823 54.4123 221.838C54.5407 221.842 54.6805 221.879 54.8074 221.902C54.9488 221.93 55.0904 221.956 55.2341 221.981C55.6021 222.049 55.9684 222.115 56.3366 222.181C57.0324 222.306 57.7306 222.429 58.4289 222.551C59.8238 222.795 61.2159 223.043 62.6112 223.283C63.1753 223.38 63.5974 223.777 63.5363 224.166C63.4757 224.553 62.9524 224.795 62.3897 224.701C61.1277 224.491 59.8674 224.281 58.6074 224.059C58.3809 224.019 58.1561 223.98 57.9316 223.939ZM43.7151 221.344C42.8793 221.194 42.0453 221.044 41.2113 220.894C40.8413 220.828 40.4694 220.761 40.0996 220.693C39.6543 220.612 39.2055 220.529 38.9422 220.213C38.7091 219.93 38.7324 219.55 39.0604 219.359C39.2696 219.239 39.5203 219.174 39.814 219.2C39.956 219.213 40.1015 219.239 40.2452 219.264C40.6272 219.328 41.0068 219.393 41.3863 219.46C42.2359 219.608 43.0876 219.754 43.9386 219.904C45.5234 220.179 47.1061 220.468 48.6893 220.752C49.2525 220.854 49.674 221.242 49.6128 221.633C49.5526 222.017 49.0302 222.265 48.468 222.169C47.0727 221.928 45.6769 221.69 44.2825 221.444C44.0946 221.411 43.9049 221.377 43.7151 221.344ZM28.5357 218.824C27.9312 218.709 27.3267 218.593 26.725 218.473C26.1782 218.363 25.5882 218.273 25.0763 218.074C24.5698 217.877 24.299 217.453 24.5042 217.107C24.7064 216.769 25.2953 216.649 25.8089 216.828C25.9665 216.871 26.1254 216.907 26.2864 216.942C28.444 217.373 30.6125 217.753 32.7758 218.151C33.3352 218.254 33.7594 218.638 33.6977 219.031C33.638 219.412 33.1191 219.662 32.555 219.565C32.3834 219.537 32.214 219.507 32.0426 219.476C30.8711 219.27 29.7043 219.047 28.5357 218.824ZM17.6665 216.247C16.4562 215.883 15.2511 215.5 14.0618 215.093C13.5263 214.909 13.0064 214.702 12.4951 214.478C12.234 214.364 11.9821 214.242 11.7326 214.116C11.4027 213.951 11.1047 213.746 10.9929 213.475C10.8492 213.127 11.0888 212.78 11.5491 212.68C11.9462 212.593 12.3991 212.706 12.6922 212.94C12.9414 213.067 13.2022 213.182 13.4649 213.297C14.2068 213.603 14.9743 213.86 15.7445 214.113C16.5917 214.392 17.4442 214.663 18.2969 214.933C18.7846 215.087 19.0412 215.516 18.9259 215.836C18.8079 216.161 18.3112 216.371 17.8139 216.283C17.7628 216.271 17.7135 216.26 17.6665 216.247ZM7.97912 210.392C7.6911 209.505 7.41614 208.608 7.28127 207.714C7.21962 207.31 7.17905 206.894 7.2205 206.497C7.2626 206.097 7.30791 205.657 7.6039 205.324C7.58266 205.348 7.56348 205.371 7.54224 205.394C7.5443 205.393 7.54474 205.391 7.54703 205.388C7.76252 205.093 8.29681 204.982 8.77502 205.135C9.27305 205.294 9.55424 205.681 9.44918 206.019C9.45007 206.014 9.45258 206.01 9.45346 206.005C9.42465 206.104 9.40157 206.202 9.38034 206.301C9.34478 206.535 9.33177 206.771 9.32775 207.009C9.35326 207.446 9.41349 207.88 9.4956 208.319C9.637 208.971 9.78806 209.623 9.98098 210.273C10.0964 210.664 9.74553 211.016 9.19878 211.047C9.08544 211.054 8.97292 211.046 8.86424 211.027C8.44197 210.955 8.0802 210.702 7.97912 210.392ZM7.85153 200.807C7.9879 199.743 8.13165 198.68 8.29588 197.619C8.37892 197.073 8.46381 196.527 8.55976 195.983C8.61246 195.695 8.66655 195.409 8.73377 195.125C8.78893 194.898 8.85265 194.645 9.04425 194.463C9.35547 194.174 9.97363 194.126 10.449 194.381C10.8601 194.603 11.0013 194.965 10.8476 195.255C10.8472 195.257 10.8465 195.261 10.8442 195.263C10.8469 195.259 10.8497 195.254 10.8542 195.25C10.8488 195.259 10.8452 195.269 10.8418 195.277C10.7613 195.54 10.7135 195.811 10.6642 196.08C10.532 196.904 10.4149 197.731 10.2993 198.558C10.1836 199.398 10.0511 200.235 9.92759 201.076C9.8709 201.462 9.41858 201.733 8.8339 201.656C8.81341 201.653 8.79131 201.649 8.77105 201.646C8.24562 201.556 7.80304 201.179 7.85153 200.807ZM9.58838 189.621C9.71591 188.65 9.84691 187.681 9.98181 186.711C10.0487 186.235 10.1065 185.757 10.1603 185.279C10.1842 185.068 10.2121 184.856 10.2361 184.645C10.2604 184.453 10.2653 184.242 10.3571 184.066C10.5083 183.78 10.9178 183.612 11.3818 183.673C11.8889 183.737 12.2955 184.06 12.3433 184.414C12.3648 184.582 12.333 184.752 12.3209 184.917C12.3025 185.13 12.282 185.343 12.2637 185.554C12.2189 186.034 12.1704 186.514 12.115 186.99C12.0003 187.963 11.8599 188.932 11.7047 189.898C11.6412 190.291 11.1898 190.567 10.5902 190.489C10.5679 190.486 10.5458 190.482 10.5237 190.478C9.98947 190.384 9.5404 190.001 9.58838 189.621ZM11.6486 180.081C11.0673 179.952 10.748 179.544 10.8157 179.16C10.9837 178.251 11.1493 177.343 11.3191 176.434C11.4057 175.976 11.4904 175.517 11.5752 175.057C11.6524 174.641 11.7241 174.224 11.88 173.824C12.0059 173.498 12.5583 173.349 13.0334 173.455C13.5542 173.571 13.9757 173.992 13.8455 174.354C13.7684 174.565 13.733 174.787 13.6923 175.007C13.4268 176.545 13.1874 178.086 12.8647 179.615C12.7883 179.983 12.2341 180.185 11.711 180.093C11.6907 180.089 11.6686 180.086 11.6486 180.081ZM12.5988 169.802C12.7219 168.931 12.8376 168.059 12.9495 167.188C13.0047 166.756 13.0583 166.323 13.1099 165.89C13.1516 165.535 13.1878 165.18 13.2589 164.83C13.3263 164.491 13.8271 164.29 14.3119 164.352C14.8708 164.424 15.2521 164.782 15.268 165.155C15.2692 165.493 15.2216 165.828 15.1913 166.161C15.151 166.595 15.1066 167.03 15.0587 167.463C14.9616 168.336 14.8385 169.207 14.6933 170.074C14.6304 170.462 14.185 170.737 13.5909 170.66C13.5686 170.657 13.5465 170.653 13.5244 170.649C12.9994 170.557 12.5478 170.177 12.5988 169.802ZM15.4919 160.643C14.9072 160.513 14.5879 160.104 14.6561 159.718C14.8239 158.788 15.0152 157.864 15.1993 156.938C15.2886 156.497 15.372 156.056 15.4555 155.615C15.4985 155.392 15.5397 155.17 15.5824 154.949C15.6218 154.736 15.6291 154.469 15.8162 154.302C16.0278 154.114 16.3512 154.014 16.7244 154.063C17.1311 154.115 17.4763 154.333 17.6234 154.608C17.7402 154.829 17.6672 155.06 17.635 155.275C17.5973 155.51 17.5579 155.745 17.5186 155.978C17.4395 156.449 17.3529 156.918 17.2664 157.387C17.0965 158.318 16.9152 159.25 16.7119 160.176C16.6319 160.544 16.0812 160.748 15.5543 160.655C15.5341 160.652 15.512 160.648 15.4919 160.643ZM16.7915 148.964C16.9063 148.248 17.0067 147.528 17.0847 146.806C17.1568 146.16 17.2215 145.513 17.3138 144.871C17.3671 144.493 17.8126 144.229 18.3844 144.304C18.9304 144.374 19.3815 144.756 19.3432 145.135C19.1988 146.536 19.1025 147.943 18.8435 149.326C18.7785 149.673 18.2584 149.876 17.7699 149.814C17.7494 149.811 17.7273 149.807 17.7071 149.804C17.1913 149.713 16.7338 149.335 16.7915 148.964ZM17.618 141.035C17.6811 140.289 17.759 139.546 17.8443 138.803C17.889 138.42 17.9342 138.035 17.9829 137.651C18.0034 137.47 18.0275 137.29 18.0517 137.11C18.0764 136.938 18.0918 136.764 18.1985 136.611C18.3884 136.342 18.8594 136.224 19.2998 136.322C19.742 136.421 20.0296 136.686 20.1117 136.985C20.1359 137.139 20.112 137.285 20.0948 137.437C20.0761 137.618 20.0554 137.8 20.0368 137.981C19.9991 138.346 19.9634 138.71 19.9275 139.075C19.8533 139.819 19.7791 140.563 19.6846 141.303C19.6357 141.688 19.1726 141.956 18.5952 141.88C18.5729 141.877 18.5508 141.873 18.5287 141.87C17.9978 141.779 17.5867 141.406 17.618 141.035ZM20.0479 132.435C19.4668 132.305 19.1453 131.899 19.2167 131.516C19.4278 130.372 19.6555 129.232 19.8594 128.086C19.9109 127.783 19.9334 127.462 20.0618 127.175C20.2077 126.854 20.7272 126.698 21.2153 126.806C21.7782 126.931 22.1025 127.332 22.0273 127.705C22.0161 127.757 22.0049 127.81 21.9956 127.863C21.7726 129.235 21.5275 130.604 21.2622 131.968C21.1897 132.336 20.63 132.538 20.1124 132.446C20.088 132.445 20.068 132.44 20.0479 132.435ZM21.0896 124.125C20.5122 123.996 20.1907 123.59 20.2619 123.208C20.3004 123.011 20.3353 122.813 20.3704 122.614C20.4747 122.022 20.5609 121.425 20.6706 120.836C20.7218 120.567 20.7735 120.295 20.8666 120.036C20.927 119.867 20.9922 119.712 21.1203 119.567C21.262 119.41 21.5191 119.331 21.7839 119.305C22.4599 119.241 23.1512 119.78 22.9949 120.235C22.9793 120.28 22.9603 120.324 22.9359 120.365C22.8648 120.585 22.823 120.811 22.7812 121.038C22.6322 121.915 22.511 122.797 22.2993 123.663C22.2105 124.027 21.6786 124.232 21.1518 124.139C21.1316 124.135 21.1115 124.13 21.0896 124.125ZM22.8059 116.589C22.2267 116.459 21.8982 116.05 21.9717 115.665C22.1297 114.855 22.2913 114.046 22.4548 113.237C22.5416 112.81 22.6252 112.379 22.712 111.952C22.7496 111.759 22.7891 111.568 22.8323 111.377C22.8648 111.236 22.894 111.091 22.9576 110.957C22.9533 110.971 22.9469 110.985 22.9426 110.999C23.073 110.691 23.4848 110.498 23.9788 110.562C24.4746 110.626 24.904 110.948 24.9352 111.299C24.9372 111.331 24.9372 111.363 24.9353 111.396C24.9345 111.379 24.9356 111.362 24.9348 111.345C24.934 111.478 24.9056 111.607 24.8807 111.738C24.8422 111.945 24.8035 112.154 24.7668 112.362C24.6897 112.789 24.6105 113.216 24.5297 113.642C24.3741 114.471 24.2001 115.296 24.0227 116.119C23.9427 116.487 23.3919 116.691 22.867 116.598C22.8481 116.598 22.8278 116.594 22.8059 116.589ZM23.7974 106.582C23.9045 105.835 24.0079 105.087 24.1113 104.339C24.1593 103.991 24.204 103.641 24.2538 103.294C24.2782 103.112 24.3046 102.93 24.3403 102.749C24.3644 102.634 24.3879 102.522 24.441 102.415C24.5995 102.097 25.0935 101.935 25.5905 102.046C26.1352 102.167 26.4594 102.547 26.4069 102.91C26.41 102.892 26.4134 102.873 26.4167 102.854C26.3183 103.455 26.2642 104.064 26.188 104.668C26.0955 105.398 26.0009 106.128 25.8829 106.851C25.8202 107.239 25.3751 107.512 24.7846 107.435C24.7642 107.433 24.7421 107.429 24.7218 107.425C24.1966 107.334 23.745 106.955 23.7974 106.582ZM25.036 98.168C25.1201 97.4646 25.2156 96.762 25.3236 96.0628C25.3751 95.7278 25.4284 95.393 25.5039 95.0622C25.5442 94.8875 25.5743 94.7058 25.6547 94.5407C25.7707 94.3027 26.0607 94.1448 26.4264 94.1171C26.975 94.0761 27.5011 94.3884 27.6318 94.7673C27.6733 94.8876 27.6568 95.0028 27.6144 95.1135C27.5763 95.2328 27.5566 95.3553 27.5351 95.4775C27.3694 96.4599 27.2644 97.4544 27.1337 98.443C27.0801 98.8336 26.6144 99.1047 26.0274 99.0298C26.0051 99.0271 25.9848 99.0236 25.9646 99.02C25.4322 98.9261 24.9903 98.5456 25.036 98.168ZM26.079 89.3987C26.1599 88.8104 26.248 88.2246 26.3345 87.6373C26.4064 87.1538 26.47 86.6638 26.6486 86.2005C26.7724 85.8755 27.3264 85.7278 27.7979 85.833C28.3276 85.9524 28.7256 86.3667 28.6067 86.7288C28.5726 86.8358 28.5494 86.946 28.5282 87.0553C28.381 87.9228 28.2928 88.7994 28.164 89.6702C28.1071 90.0576 27.6546 90.3297 27.0641 90.2529C27.0436 90.2506 27.0215 90.2467 27.0013 90.2431C26.4761 90.1518 26.0266 89.7712 26.079 89.3987ZM28.5087 81.4999C28.242 81.4399 28.0009 81.3104 27.8446 81.1412C27.6737 80.9579 27.6354 80.7654 27.6701 80.5689C27.782 79.9341 27.8995 79.3003 28.0114 78.6655C28.1025 78.1595 28.1569 77.6353 28.3285 77.1474C28.4439 76.8158 28.8614 76.6024 29.3814 76.6694C29.9274 76.7397 30.3767 77.1215 30.3383 77.5005C30.3172 77.7175 30.2605 77.9309 30.2189 78.1456C30.0589 79.107 29.9209 80.0723 29.737 81.0295C29.6655 81.4026 29.0961 81.6048 28.5712 81.5122C28.5509 81.5086 28.5288 81.5047 28.5087 81.4999ZM29.2172 73.5288C28.6361 73.3991 28.3129 72.9914 28.3862 72.6082C28.4903 72.05 28.5928 71.4902 28.6933 70.9312C28.7855 70.4085 28.8719 69.8861 28.953 69.3615C29.0294 68.8633 29.0697 68.3548 29.1851 67.8621C29.2618 67.5237 29.7459 67.3208 30.2399 67.3845C30.7748 67.4528 31.2483 67.8376 31.1966 68.2168C30.9807 69.8398 30.7724 71.4628 30.4292 73.0646C30.3512 73.4314 29.8007 73.6343 29.2794 73.5424C29.2594 73.5375 29.2373 73.5336 29.2172 73.5288ZM30.094 62.7718C30.3633 61.0076 30.5997 59.2363 30.9245 57.4806C30.9943 57.1059 31.5906 56.9124 32.1079 57.027C32.6762 57.1544 32.988 57.551 32.9202 57.9247C32.9146 57.9562 32.9089 57.989 32.9033 58.0204C32.6261 59.6897 32.4543 61.375 32.1678 63.0427C32.1349 63.2291 32.04 63.3903 31.834 63.5033C31.6284 63.6138 31.3508 63.6583 31.0743 63.6213C31.0539 63.619 31.0318 63.6151 31.0115 63.6115C30.4937 63.5215 30.038 63.1437 30.094 62.7718ZM32.0542 52.1292C32.1646 51.1799 32.2934 50.2338 32.4094 49.2854C32.4694 48.8051 32.5257 48.3241 32.5876 47.8441C32.6157 47.6088 32.6439 47.3735 32.6816 47.1386C32.7128 46.9506 32.7286 46.7534 32.8147 46.5776C32.9695 46.2595 33.469 46.0982 33.9642 46.2089C34.4776 46.3241 34.7895 46.6661 34.7904 47.0169C34.7911 47.1638 34.7458 47.3129 34.726 47.4575C34.6932 47.6972 34.6662 47.9366 34.6373 48.1756C34.581 48.6566 34.5304 49.1373 34.472 49.6192C34.3672 50.5475 34.2569 51.4748 34.1169 52.3981C34.0588 52.7814 33.6125 53.0507 33.0294 52.9752C33.0089 52.9729 32.9868 52.969 32.9666 52.9654C32.4434 52.8732 32.0119 52.4984 32.0542 52.1292ZM34.2477 43.5239C33.6737 43.3967 33.3467 42.9897 33.4213 42.6093C33.6898 41.2372 33.9711 39.8686 34.2228 38.4948C34.2175 38.5251 34.2121 38.5553 34.2066 38.5868C34.2266 38.4734 34.2463 38.3613 34.2661 38.2492C34.3247 37.9063 34.3828 37.5659 34.4411 37.2242C34.4835 36.9733 34.4969 36.6925 34.6268 36.4622C34.7996 36.1498 35.2703 35.9795 35.7781 36.0938C36.3281 36.2167 36.6821 36.622 36.5904 36.9915C36.5742 37.051 36.5617 37.1112 36.5508 37.1729C36.3851 38.1449 36.2454 39.1203 36.0631 40.0895C35.8746 41.0835 35.6643 42.0711 35.4555 43.0615C35.3798 43.4261 34.8296 43.6277 34.3119 43.5365C34.288 43.5323 34.2677 43.5287 34.2477 43.5239ZM35.5667 30.776C35.699 29.789 35.8105 28.8008 35.9518 27.8167C36.0276 27.2898 36.1087 26.7651 36.2082 26.2437C36.2503 26.0161 36.3027 25.7942 36.3848 25.5762C36.435 25.4422 36.4854 25.2965 36.5785 25.1779C36.6789 25.0501 36.7977 24.9581 36.9695 24.878C37.3637 24.6994 37.9742 24.824 38.3014 25.1011C38.5856 25.3422 38.6316 25.6412 38.474 25.8783C38.456 25.9154 38.4397 25.9541 38.4236 25.9915C38.343 26.2227 38.292 26.4579 38.2461 26.6966C37.9976 28.1384 37.8506 29.5969 37.6241 31.0427C37.5644 31.4244 37.1201 31.6928 36.5389 31.6176C36.5184 31.6153 36.4963 31.6114 36.4761 31.6078C35.958 31.519 35.5168 31.1451 35.5667 30.776ZM38.1814 21.2255C37.6602 21.0037 37.4668 20.5605 37.6896 20.2232C37.9739 19.7954 38.267 19.3717 38.613 18.9717C38.9324 18.6034 39.2676 18.243 39.6272 17.8947C40.0099 17.5232 40.425 17.151 40.9301 16.8608C41.2892 16.6553 41.6896 16.4636 42.1516 16.3749C42.6135 16.2862 43.1697 16.5038 43.3961 16.8242C43.6345 17.1636 43.483 17.5382 43.0709 17.6993C43.0567 17.7046 43.042 17.7124 43.0259 17.7174C42.9709 17.7388 42.9177 17.7606 42.8642 17.7837C42.681 17.8747 42.5043 17.9721 42.3343 18.0746C42.2168 18.1591 42.103 18.2442 41.9927 18.3313C41.338 18.899 40.7773 19.5157 40.2303 20.14C39.9938 20.4256 39.768 20.7156 39.558 21.0123C39.3685 21.2789 38.9212 21.3923 38.492 21.3166C38.387 21.2981 38.2822 21.2679 38.1814 21.2255ZM303.871 264.725C303.92 264.885 303.9 265.051 303.8 265.199C303.559 265.555 303.319 265.912 303.053 266.259C302.785 266.605 302.494 266.95 302.113 267.24C301.431 267.759 300.555 268.145 299.639 268.449C299.127 268.619 298.609 268.775 298.053 268.883C297.507 268.987 296.948 269.064 296.374 269.11C295.351 269.189 294.301 269.188 293.254 269.171C292.258 269.154 291.251 269.078 290.249 268.999C289.213 268.917 288.175 268.816 287.14 268.71C284.955 268.486 282.782 268.121 280.599 267.879C279.395 267.746 278.191 267.65 276.986 267.522C276.828 268.206 276.673 268.893 276.474 269.567C276.252 270.321 275.967 271.054 275.635 271.78C275.325 272.464 274.958 273.144 274.492 273.773C273.996 274.442 273.387 275.043 272.659 275.585C271.911 276.143 270.946 276.488 269.915 276.764C269.397 276.904 268.842 276.99 268.296 277.081C267.783 277.167 267.25 277.222 266.717 277.261C265.58 277.343 264.429 277.385 263.268 277.376C262.179 277.369 261.081 277.276 259.987 277.146C258.875 277.011 257.763 276.861 256.655 276.683C255.501 276.497 254.352 276.283 253.206 276.062C252.269 275.881 251.333 275.694 250.397 275.521C248.28 275.15 246.149 274.856 244.025 274.529C241.784 274.183 239.542 273.834 237.304 273.467C236.071 273.264 234.837 273.06 233.606 272.843C233.472 272.82 233.337 272.796 233.203 272.772C233.221 272.775 233.24 272.779 233.26 272.782C233.194 272.771 233.127 272.759 233.061 272.747C233.05 272.745 233.039 272.743 233.028 272.741C230.847 272.353 228.693 271.871 226.529 271.415C224.399 270.967 222.286 270.484 220.196 269.906C219.182 269.625 218.16 269.315 217.185 268.953C216.183 268.582 215.186 268.203 214.25 267.742C213.295 267.272 212.398 266.739 211.533 266.185C210.662 265.626 209.843 265.018 209.217 264.321C208.594 263.625 208.025 262.908 207.801 262.123C207.581 261.352 207.542 260.588 207.519 259.821C207.497 259.103 207.508 258.387 207.516 257.67C207.524 256.972 207.605 256.286 207.713 255.6C207.741 255.415 207.768 255.23 207.795 255.047C205.809 254.741 203.824 254.431 201.839 254.11C199.556 253.741 197.275 253.352 194.991 252.983C192.777 252.625 190.557 252.297 188.34 251.958C185.998 251.602 183.658 251.237 181.318 250.868C176.856 250.163 172.396 249.444 167.942 248.69C166.657 248.472 165.373 248.255 164.089 248.031C164.136 248.04 164.184 248.048 164.232 248.056C163.902 248 163.571 247.942 163.241 247.884C163.208 247.878 163.176 247.873 163.143 247.866C163.086 247.857 163.031 247.848 162.972 247.838C162.726 247.796 162.48 247.753 162.233 247.709C161.676 247.612 161.12 247.514 160.562 247.416C160.361 247.38 160.158 247.345 159.956 247.309C159.018 247.144 158.079 246.975 157.14 246.807C152.601 245.989 148.068 245.133 143.528 244.316C141.038 243.868 138.546 243.433 136.054 242.997C133.988 242.637 131.922 242.276 129.86 241.909C125.243 241.086 120.627 240.255 116.009 239.438C112.511 238.818 109.015 238.203 105.521 237.563C101.838 236.887 98.1549 236.199 94.4671 235.548C93.988 235.465 93.5107 235.382 93.0334 235.3C93.0518 235.303 93.0684 235.306 93.0852 235.307C88.4549 234.509 83.8257 233.705 79.1996 232.86C76.8795 232.436 74.5609 232.002 72.2423 231.558C70.0355 231.137 67.838 230.684 65.6364 230.234C61.1781 229.322 56.7071 228.481 52.2258 227.678C47.6561 226.859 43.0797 226.068 38.5235 225.172C36.2179 224.719 33.9157 224.257 31.6101 223.804C29.4092 223.371 27.2072 222.965 24.9979 222.58C25.0274 222.585 25.0569 222.59 25.0884 222.594C24.7529 222.536 24.4175 222.479 24.0801 222.42C24.128 222.429 24.1778 222.438 24.2257 222.446C21.9331 222.048 19.6365 221.651 17.3647 221.147C15.1239 220.649 12.9099 220.096 10.7398 219.402C9.6737 219.061 8.6396 218.656 7.61148 218.25C6.62948 217.863 5.67366 217.435 4.77155 216.95C3.93315 216.502 3.14838 215.987 2.45258 215.43C1.8252 214.928 1.26695 214.334 0.920421 213.725C0.863683 213.627 0.812699 213.528 0.765616 213.429C0.696887 213.399 0.632727 213.364 0.573142 213.325C0.346807 213.176 0.234571 212.994 0.18639 212.793C-0.000519802 212 -0.0220575 211.207 0.0153437 210.424C0.0575277 209.56 0.156076 208.699 0.242914 207.841C0.425457 205.998 0.636299 204.156 0.874327 202.321C1.3468 198.704 1.91344 195.103 2.42991 191.495C2.42946 191.498 2.4288 191.502 2.42835 191.504C2.72398 189.429 3.00487 187.351 3.30395 185.278C3.60948 183.168 3.94611 181.065 4.28295 178.961C4.96055 174.752 5.61626 170.538 6.32885 166.335C6.71076 164.083 7.13276 161.84 7.5552 159.595C7.96031 157.449 8.3521 155.302 8.75169 153.155C9.52704 148.984 10.2377 144.802 10.8622 140.603C11.1692 138.539 11.4766 136.473 11.8077 134.412C12.1643 132.195 12.5431 129.983 12.9144 127.769C13.6077 123.644 14.2363 119.508 14.9296 115.382C15.645 111.109 16.3661 106.837 17.0778 102.563C17.435 100.408 17.7628 98.2478 18.0907 96.0862C18.4133 93.9768 18.7651 91.874 19.1026 89.766C19.5081 87.2401 19.8784 84.7093 20.2431 82.1775C20.242 82.1838 20.2409 82.1901 20.2416 82.1967C20.5324 80.1493 20.8194 78.1012 21.1118 76.0554C21.4048 74.0058 21.6999 71.9552 22.0629 69.918C22.7862 65.8481 23.6698 61.8066 24.5147 57.7582C24.9402 55.7112 25.3365 53.6577 25.7399 51.6068C26.1463 49.5499 26.5547 47.492 26.9056 45.4266C27.2676 43.2983 27.6059 41.1644 27.9255 39.0286C28.2492 36.8805 28.5971 34.7354 28.9944 32.6002C29.7507 28.5479 30.6096 24.5176 31.364 20.4649C31.5607 19.4035 31.7668 18.3424 32.0242 17.2917C32.1353 16.8451 32.2811 16.4059 32.4359 15.9695C32.6135 15.458 32.8 14.9493 33.0264 14.4516C33.2192 14.0259 33.4127 13.5964 33.645 13.1841C33.9018 12.7293 34.1812 12.2864 34.4968 11.8538C34.6592 11.633 34.834 11.4171 35.0158 11.205C34.6569 10.8703 34.8204 10.4498 35.1094 10.1787C35.4215 9.88435 35.8474 9.65555 36.3028 9.47482C36.7646 9.29002 37.273 9.15369 37.7735 9.01857C38.2796 8.88443 38.813 8.77849 39.3444 8.68387C40.3934 8.49742 41.4777 8.36914 42.5749 8.29766C43.6258 8.22971 44.7024 8.19878 45.7794 8.25231C47.2482 8.32429 48.7097 8.49109 50.1771 8.71087C51.4334 8.89992 52.6892 9.11356 53.9346 9.36432C54.3767 8.17087 54.87 6.98903 55.562 5.87599C55.7817 5.52383 56.0123 5.17488 56.2604 4.83421C56.5056 4.49952 56.7964 4.18586 57.0854 3.87189C57.3739 3.56043 57.6844 3.26453 58.0228 2.98265C58.3893 2.68105 58.7984 2.40772 59.2204 2.14708C59.6404 1.88736 60.1285 1.67213 60.6139 1.47201C61.1282 1.25881 61.6565 1.07404 62.2223 0.924453C62.7102 0.796207 63.2014 0.671129 63.7084 0.574815C64.2843 0.464678 64.8673 0.379165 65.4586 0.300311C66.572 0.147284 67.7088 0.0555206 68.8641 0.0202718C70.0463 -0.0167271 71.2323 0.000188545 72.4308 0.0426979C73.6068 0.0838293 74.7891 0.165022 75.9693 0.257549C77.0656 0.341758 78.1646 0.431653 79.2609 0.558724C81.6082 0.82975 83.9514 1.16631 86.289 1.54602C88.6102 1.92155 90.9286 2.31345 93.2456 2.71291C94.429 2.91639 95.6123 3.12113 96.791 3.34067C97.9201 3.55143 99.0435 3.79368 100.164 4.04317C102.461 4.55724 104.753 5.08359 107.055 5.58288C109.18 6.04342 111.31 6.53835 113.356 7.21217C115.517 7.92441 117.7 8.81704 119.349 10.0961C120.193 10.7501 120.938 11.4452 121.626 12.1768C122.288 12.8806 122.822 13.6423 123.264 14.4111C124.01 15.718 124.294 17.0602 124.42 18.4032C124.489 19.1284 124.512 19.8531 124.516 20.5733C124.517 21.0098 124.524 21.4527 124.498 21.8897C126.02 22.1035 127.542 22.3005 129.063 22.5114C131.393 22.8341 133.721 23.1822 136.048 23.5262C138.417 23.8765 140.78 24.2633 143.142 24.6459C145.422 25.0156 147.704 25.3815 149.98 25.7738C152.218 26.1593 154.453 26.5624 156.685 26.9652C159.146 27.4095 161.609 27.8554 164.074 28.2758C168.686 29.0617 173.312 29.7437 177.923 30.5229C187.407 32.125 196.847 33.9728 206.293 35.7682C208.667 36.2193 211.041 36.6717 213.416 37.1112C215.719 37.538 218.023 37.9456 220.324 38.372C225.062 39.249 229.8 40.1364 234.543 40.9832C239.222 41.8173 243.897 42.665 248.569 43.5303C253.288 44.404 258.002 45.2872 262.736 46.0816C267.338 46.8542 271.938 47.6432 276.533 48.4611C278.847 48.8732 281.163 49.2893 283.481 49.6941C285.757 50.0902 288.032 50.4926 290.305 50.9142C299.062 52.5337 307.816 54.1707 316.526 56.0131C318.132 56.3533 319.727 56.7203 321.323 57.1044C322.87 57.4758 324.408 57.8665 325.913 58.35C327.264 58.7844 328.605 59.2623 329.854 59.8578C330.455 60.1443 331.022 60.4625 331.578 60.7944C332.175 61.1502 332.744 61.5323 333.259 61.9467C333.373 62.0368 333.454 62.138 333.503 62.2442C334.292 62.8352 334.903 63.5169 335.418 64.2272C336.082 65.1431 336.473 66.1133 336.704 67.0878C337.002 68.3378 337.091 69.5769 337.092 70.8145C337.089 71.6349 337.031 72.4493 336.973 73.2638C336.925 73.9682 336.873 74.6708 336.816 75.3749C336.742 76.2438 336.635 77.108 336.534 77.9733C336.429 78.8678 336.33 79.7634 336.22 80.6582C335.97 82.7102 335.669 84.7532 335.347 86.7938C335.035 88.7661 334.778 90.7453 334.464 92.7173C334.139 94.7664 333.801 96.8145 333.459 98.8607C332.806 102.779 332.114 106.691 331.391 110.596C331.397 110.575 331.401 110.554 331.405 110.532C330.704 114.419 330.158 118.332 329.629 122.248C329.121 126.003 328.513 129.744 327.838 133.472C327.844 133.441 327.849 133.409 327.855 133.378C327.832 133.506 327.808 133.635 327.785 133.764C327.79 133.734 327.796 133.702 327.801 133.671C327.231 136.83 326.596 139.978 326.02 143.136C326.026 143.104 326.033 143.074 326.039 143.043C324.789 150.078 323.688 157.14 322.409 164.169C322.414 164.137 322.42 164.106 322.425 164.076C321.849 167.265 321.299 170.46 320.679 173.642C320.062 176.807 319.445 179.973 318.868 183.147C318.132 187.337 317.541 191.549 316.922 195.761C316.321 199.834 315.555 203.879 314.856 207.937C314.44 210.354 314.054 212.776 313.662 215.196C313.264 217.647 312.831 220.09 312.385 222.532C312.39 222.514 312.394 222.495 312.397 222.477C312.148 223.858 311.896 225.241 311.621 226.617C311.322 228.102 311.022 229.585 310.741 231.073C310.746 231.042 310.752 231.01 310.757 230.979C310.71 231.234 310.665 231.49 310.619 231.743C310.624 231.712 310.63 231.681 310.635 231.649C310.384 233.042 310.153 234.438 309.905 235.832C309.647 237.284 309.393 238.738 309.157 240.195C308.94 241.543 308.724 242.889 308.471 244.227C308.218 245.563 307.943 246.895 307.702 248.233C307.398 249.968 307.132 251.711 306.867 253.452C306.592 255.26 306.393 257.079 306.074 258.877C305.782 260.5 305.24 262.076 304.495 263.586C304.304 263.97 304.098 264.352 303.871 264.725ZM278.356 237.63C278.35 237.749 278.389 237.873 278.47 237.987C278.482 238.003 278.494 238.02 278.508 238.037C278.512 238.092 278.512 238.146 278.514 238.201C278.508 239.062 278.461 239.92 278.433 240.78C278.408 241.668 278.406 242.561 278.422 243.452C278.421 243.446 278.422 243.439 278.421 243.433C278.425 243.671 278.428 243.911 278.433 244.149L278.434 244.148C278.446 244.906 278.448 245.662 278.442 246.419C278.427 247.944 278.446 249.477 278.299 250.987C278.15 252.519 277.904 254.034 277.632 255.545C277.637 255.514 277.643 255.482 277.649 255.45C277.264 257.451 276.794 259.434 276.307 261.413C275.951 262.862 275.527 264.296 275.184 265.747C274.836 267.222 274.534 268.711 274.013 270.145C273.845 270.549 273.67 270.949 273.482 271.347C273.303 271.729 273.093 272.097 272.871 272.464C272.642 272.826 272.388 273.17 272.102 273.508C271.881 273.747 271.645 273.975 271.392 274.196C271.171 274.368 270.946 274.535 270.707 274.696C270.585 274.765 270.461 274.83 270.332 274.895C270.09 274.999 269.842 275.092 269.583 275.182C269.244 275.282 268.903 275.372 268.553 275.455C268.052 275.55 267.547 275.633 267.036 275.709C265.823 275.833 264.595 275.884 263.348 275.899C262.681 275.893 262.017 275.866 261.345 275.819C259.28 275.618 257.224 275.313 255.174 274.957C253.731 274.689 252.294 274.4 250.85 274.135C249.391 273.867 247.92 273.658 246.455 273.436C242.126 272.781 237.797 272.115 233.483 271.357C233.494 271.359 233.503 271.361 233.514 271.363C233.477 271.357 233.439 271.349 233.402 271.342C233.424 271.346 233.444 271.35 233.466 271.355C233.387 271.34 233.31 271.326 233.23 271.312C233.276 271.32 233.322 271.328 233.369 271.337C233.275 271.32 233.182 271.304 233.087 271.287C233.133 271.295 233.179 271.303 233.225 271.311C231.155 270.941 229.113 270.481 227.056 270.048C226.058 269.838 225.058 269.631 224.064 269.398C223.071 269.166 222.084 268.916 221.103 268.652C219.912 268.32 218.728 267.959 217.581 267.536C216.826 267.25 216.083 266.952 215.364 266.614C214.671 266.269 214.017 265.892 213.374 265.501C212.837 265.164 212.314 264.824 211.824 264.455C211.617 264.286 211.419 264.114 211.224 263.937C210.936 263.642 210.677 263.337 210.426 263.027C210.309 262.878 210.205 262.729 210.106 262.576C210.037 262.451 209.976 262.325 209.922 262.198C209.85 261.986 209.794 261.775 209.746 261.561C209.653 260.978 209.624 260.398 209.611 259.818C209.612 259.824 209.61 259.831 209.611 259.837C209.611 259.827 209.611 259.815 209.611 259.805C209.611 259.783 209.61 259.76 209.61 259.738C209.611 259.754 209.61 259.769 209.611 259.785C209.607 259.356 209.616 258.928 209.616 258.498C209.616 258.056 209.618 257.612 209.653 257.174C209.684 256.773 209.738 256.374 209.8 255.977C209.829 255.777 209.867 255.577 209.9 255.376L210.73 255.503C210.722 255.614 210.718 255.725 210.718 255.835C210.706 256.394 210.733 256.962 210.809 257.528C210.96 258.684 211.294 259.868 212.197 260.928C212.478 261.257 212.769 261.589 213.109 261.89C213.448 262.193 213.823 262.481 214.225 262.745C214.541 262.953 214.887 263.148 215.279 263.274C215.521 263.353 215.765 263.413 216.012 263.457C216.248 263.498 216.486 263.525 216.731 263.534C217.314 263.56 217.857 263.494 218.356 263.327C218.703 263.21 219.029 263.064 219.329 262.901C219.755 262.67 220.174 262.429 220.511 262.134C220.849 261.842 221.151 261.529 221.399 261.19C221.881 260.538 222.261 259.848 222.542 259.125C223.113 257.662 223.513 256.16 223.787 254.628C224.058 253.111 224.273 251.582 224.544 250.065C224.538 250.097 224.533 250.129 224.527 250.161C224.887 248.196 225.237 246.231 225.575 244.262C225.828 242.772 226.107 241.285 226.337 239.789C226.561 238.333 226.74 236.868 227.001 235.418C226.996 235.449 226.99 235.482 226.984 235.514C227.176 234.479 227.383 233.446 227.593 232.416C227.697 231.906 227.802 231.396 227.925 230.89C228.046 230.406 228.177 229.925 228.296 229.442C228.322 229.339 228.316 229.234 228.28 229.133C228.445 229.104 228.609 229.07 228.775 229.041C229.016 229.001 229.259 228.968 229.507 228.94C230.161 228.874 230.82 228.833 231.488 228.823C231.974 228.826 232.46 228.846 232.951 228.883C234.33 229.004 235.699 229.206 237.072 229.413C238.528 229.632 239.985 229.852 241.444 230.054C245.919 230.677 250.4 231.273 254.858 232.048C254.849 232.047 254.842 232.045 254.832 232.044C255.427 232.152 256.021 232.262 256.616 232.376C258.866 232.812 261.124 233.244 263.359 233.743C265.626 234.251 267.867 234.826 270.098 235.434C270.056 235.421 270.011 235.41 269.967 235.398C271.195 235.737 272.42 236.082 273.655 236.403C274.872 236.716 276.091 237.022 277.302 237.35C277.293 237.347 277.284 237.344 277.275 237.342C277.633 237.434 277.992 237.538 278.356 237.63ZM221.036 256.871C220.856 256.932 220.644 256.954 220.421 256.926C219.665 256.836 218.911 256.709 218.159 256.602C217.163 256.456 216.168 256.313 215.17 256.164C214.395 256.05 213.618 255.933 212.842 255.817C212.838 255.952 212.837 256.085 212.838 256.219C212.859 256.841 212.909 257.464 213.028 258.092C213.106 258.446 213.206 258.797 213.337 259.149C213.421 259.344 213.512 259.537 213.619 259.727C213.706 259.859 213.799 259.99 213.897 260.12C214.126 260.396 214.37 260.662 214.629 260.926C214.779 261.065 214.939 261.201 215.106 261.335C215.301 261.478 215.498 261.618 215.704 261.753C215.766 261.789 215.827 261.823 215.891 261.857C215.942 261.881 215.995 261.902 216.051 261.922C216.036 261.918 216.022 261.914 216.007 261.91C216.029 261.917 216.05 261.923 216.072 261.93C216.081 261.933 216.09 261.935 216.099 261.938C216.092 261.936 216.085 261.933 216.079 261.931C216.137 261.948 216.198 261.961 216.256 261.972C216.303 261.979 216.347 261.985 216.394 261.99C216.522 261.998 216.646 262.005 216.772 262.008C216.809 262.006 216.843 262.005 216.878 262.002C216.932 261.994 216.987 261.986 217.04 261.976C217.092 261.964 217.143 261.951 217.193 261.936C217.311 261.896 217.423 261.852 217.536 261.806C217.816 261.67 218.084 261.527 218.347 261.375C218.391 261.348 218.434 261.32 218.479 261.293C218.475 261.295 218.472 261.297 218.468 261.299C218.549 261.25 218.622 261.192 218.696 261.138C218.89 260.967 219.07 260.792 219.243 260.61C219.481 260.314 219.694 260.011 219.894 259.698C220.157 259.232 220.377 258.755 220.57 258.266C220.744 257.807 220.898 257.34 221.036 256.871ZM122.228 21.5557C121.946 21.5111 121.663 21.4664 121.381 21.4205C121.384 21.3887 121.388 21.3569 121.39 21.3247C121.447 20.6855 121.43 20.0409 121.33 19.3896C121.241 18.8205 121.031 18.2329 120.745 17.6799C120.432 17.074 120.076 16.4853 119.594 15.9212C119.267 15.5375 118.854 15.1672 118.425 14.8305C117.904 14.4231 117.279 14.1091 116.612 13.8459C116.031 13.6163 115.391 13.4254 114.757 13.3345C114.144 13.2471 113.562 13.2718 112.985 13.3583C112.598 13.4174 112.211 13.4803 111.843 13.5739C110.96 13.7987 110.279 14.2358 109.655 14.6958C109.26 14.9872 108.873 15.2839 108.519 15.602C107.844 16.2064 107.338 16.9249 106.906 17.6409C106.47 18.3667 106.051 19.1045 105.764 19.8799C105.487 20.6374 105.229 21.3997 104.994 22.1701C104.508 23.7623 104.137 25.3813 103.761 26.9968C103.029 30.134 102.452 33.301 101.894 36.4687C101.355 39.5256 100.84 42.592 100.077 45.6068C100.085 45.5731 100.095 45.5397 100.102 45.506C99.8182 46.6117 99.4748 47.7083 98.9796 48.7613C98.8565 49.0175 98.7247 49.2696 98.5625 49.5111C98.4933 49.6015 98.4189 49.6897 98.3392 49.7756C98.2889 49.8239 98.237 49.8706 98.1814 49.9166C98.1271 49.9551 98.0712 49.992 98.0137 50.0273C97.9344 50.0679 97.8534 50.1068 97.769 50.1439C97.6594 50.1843 97.5483 50.2219 97.4356 50.2578C97.2902 50.2958 97.1439 50.3285 96.9925 50.3576C96.7551 50.3898 96.517 50.4153 96.2761 50.4352C95.8558 50.4598 95.4361 50.4702 95.0101 50.4626C94.682 50.4489 94.3574 50.4267 94.029 50.3935C93.1795 50.2775 92.3309 50.1356 91.4829 50.0004C90.583 49.8586 89.6797 49.7357 88.7778 49.6156C87.0078 49.3776 85.2336 49.1959 83.4604 48.9871C82.3677 48.8503 81.2808 48.6807 80.2003 48.4642C78.6139 48.1222 77.0363 47.7518 75.454 47.3975C73.8864 47.0457 72.3107 46.7185 70.7381 46.3841C70.7455 46.3854 70.751 46.3864 70.7582 46.3889C70.0223 46.2319 69.2908 46.0718 68.5603 45.9066C66.2715 45.39 63.9877 44.8562 61.7075 44.3126C59.5948 43.8102 57.474 43.3102 55.4061 42.6833C54.8678 42.5156 54.3342 42.3423 53.8171 42.1407C53.7006 42.0903 53.5846 42.0374 53.4729 41.9814C53.4574 41.9721 53.442 41.9629 53.4244 41.9546C53.3738 41.9184 53.3251 41.8826 53.2765 41.8454C53.2224 41.7969 53.1704 41.7475 53.1201 41.6984C53.0585 41.6278 52.999 41.5562 52.9415 41.4837C52.7151 41.1516 52.5295 40.815 52.3488 40.4715C52.3691 40.5075 52.3875 40.5432 52.4059 40.5789C52.2653 40.2879 52.157 39.9974 52.057 39.7031C51.8247 38.931 51.6933 38.1572 51.5769 37.3847C51.4462 36.1656 51.4657 34.9561 51.5276 33.754C51.5897 32.939 51.6757 32.1282 51.7877 31.3206C52.0078 29.7166 52.3164 28.1282 52.6176 26.5385C52.9201 24.9412 53.2229 23.3426 53.5238 21.7437C54.1044 18.6448 54.6086 15.5273 55.384 12.4653C55.8194 10.8902 56.4042 9.35044 57.0954 7.84375C57.0801 7.87613 57.067 7.90758 57.0518 7.93996C57.38 7.242 57.7769 6.57433 58.2231 5.91795C58.55 5.47558 58.9201 5.05645 59.3081 4.64434C59.5611 4.39415 59.8322 4.16013 60.1229 3.93347C60.3692 3.75353 60.6237 3.58151 60.8885 3.41522C61.3208 3.18237 61.7703 2.97072 62.2369 2.76987C62.4991 2.67196 62.7638 2.58226 63.0335 2.49605C63.681 2.32452 64.3374 2.16752 65.0098 2.03803C66.05 1.87989 67.0947 1.74983 68.1644 1.66182C69.3365 1.59577 70.5112 1.56913 71.7034 1.59364C74.5063 1.68267 77.3284 1.89977 80.1376 2.23278C81.7403 2.42837 83.3449 2.65674 84.944 2.90495C87.2421 3.26082 89.5402 3.64915 91.8343 4.03808C94.0951 4.42243 96.3563 4.80426 98.6036 5.27585C98.6877 5.29457 98.772 5.31203 98.8542 5.33042C101.156 5.82971 103.441 6.3743 105.745 6.86761C107.841 7.3176 109.942 7.76982 111.98 8.39034C112.915 8.68771 113.83 9.00734 114.724 9.37289C114.682 9.35502 114.639 9.33715 114.595 9.31895C115.103 9.53057 115.601 9.75221 116.08 9.99772C116.505 10.2259 116.918 10.4622 117.314 10.7152C117.675 10.9699 118.016 11.2351 118.35 11.5082C118.84 11.9259 119.289 12.3635 119.721 12.8086C120.021 13.1341 120.295 13.4655 120.552 13.8057C120.84 14.2097 121.102 14.617 121.331 15.0352C121.514 15.3986 121.668 15.7621 121.796 16.1316C121.95 16.6288 122.054 17.1276 122.129 17.6266C122.284 18.8291 122.312 20.0276 122.251 21.2142C122.252 21.2079 122.251 21.2013 122.252 21.195C122.252 21.2066 122.25 21.218 122.25 21.2309C122.25 21.253 122.247 21.276 122.245 21.2977C122.245 21.2885 122.247 21.281 122.246 21.2718C122.243 21.3635 122.236 21.4596 122.228 21.5557ZM119.156 21.0593L119.16 21.0004C119.178 20.553 119.159 20.1041 119.104 19.6515C119.068 19.4231 119.021 19.1966 118.954 18.9681C118.841 18.652 118.716 18.339 118.56 18.0271C118.386 17.7028 118.193 17.3844 117.971 17.07C117.849 16.9133 117.722 16.7586 117.588 16.605C117.358 16.3696 117.111 16.143 116.852 15.9207C116.75 15.8417 116.647 15.7652 116.541 15.6906C116.473 15.6474 116.404 15.6054 116.331 15.5653C116.164 15.4812 115.989 15.4037 115.813 15.3259C115.609 15.247 115.401 15.174 115.193 15.1049C115.063 15.0689 114.934 15.0345 114.803 15.0035C114.685 14.9815 114.565 14.9604 114.447 14.9421C114.417 14.9394 114.387 14.938 114.357 14.9353C114.292 14.9356 114.228 14.9372 114.162 14.94C113.936 14.9612 113.718 14.9928 113.496 15.0263C113.504 15.0251 113.513 15.023 113.521 15.0217C113.49 15.0266 113.459 15.0328 113.427 15.0376C113.461 15.0318 113.492 15.0257 113.525 15.0199C113.461 15.0306 113.396 15.0425 113.331 15.0532C113.175 15.0814 113.022 15.1143 112.871 15.1526C112.755 15.1892 112.643 15.228 112.533 15.2709C112.408 15.3267 112.285 15.3856 112.166 15.4477C111.833 15.6461 111.53 15.8667 111.229 16.0877C110.926 16.3212 110.633 16.5579 110.354 16.8073C110.074 17.1009 109.818 17.4012 109.576 17.7145C109.162 18.3064 108.795 18.9143 108.463 19.5388C108.908 19.5784 109.355 19.6182 109.801 19.6697C111.223 19.836 112.645 20.0439 114.063 20.2536C115.766 20.5071 117.461 20.7826 119.156 21.0593Z" fill="#594409"/>
</svg>
