<svg width="324" height="236" viewBox="0 0 324 236" fill="none" xmlns="http://www.w3.org/2000/svg">
<path fill-rule="evenodd" clip-rule="evenodd" d="M44.9561 234.519C44.5004 234.549 44.0447 234.577 43.5888 234.604C42.7367 234.653 41.8831 234.686 41.0277 234.712C40.3772 234.732 39.7252 234.734 39.0723 234.726C38.7709 234.739 38.4694 234.751 38.1679 234.762C38.1095 234.795 38.0485 234.827 37.9857 234.853C37.1127 235.218 36.1049 235.195 35.1701 235.204C34.5197 235.21 33.8704 235.215 33.2205 235.211C31.8185 235.205 30.4081 235.205 29.0105 235.088C28.342 235.033 27.6707 234.991 27.0047 234.906C26.2757 234.816 25.5541 234.709 24.8301 234.589C24.1592 234.478 23.4922 234.338 22.8284 234.191C22.1425 234.039 21.3989 233.884 20.8685 233.41C20.6725 233.256 20.4705 233.121 20.2824 232.955C19.9335 232.643 19.6537 232.158 19.6005 231.696C19.5755 231.484 19.5967 231.274 19.6549 231.078C19.546 230.927 19.4428 230.769 19.3419 230.608C19.2542 230.466 19.1746 230.315 19.1125 230.16C19.0215 229.937 18.9953 229.71 19.0165 229.485C18.6586 228.735 18.3473 227.964 18.0809 227.18C17.6061 225.78 17.467 224.306 17.2276 222.854C16.7377 219.88 16.2516 216.906 15.8309 213.922C15.3579 210.558 14.9217 207.191 14.5649 203.813C14.3967 202.211 14.2753 200.605 14.1578 198.999C14.0472 197.458 13.9667 195.911 13.9516 194.366C13.95 194.158 13.9488 193.956 13.9639 193.749C13.9803 193.528 14.0541 193.335 14.1438 193.134C14.147 193.128 14.1504 193.122 14.1523 193.116C14.1234 192.858 14.092 192.602 14.0606 192.344C14.0153 191.957 13.9596 191.569 13.9333 191.181C13.9033 190.721 14.1026 190.285 14.4329 189.991C14.395 189.514 14.3585 189.039 14.3233 188.563C14.3228 188.557 14.322 188.548 14.3199 188.539C14.2054 187.639 14.1035 186.737 14.0055 185.836C13.8341 184.255 13.7118 182.668 13.5834 181.084C13.4559 179.509 13.3463 177.936 13.2214 176.362C13.1634 175.612 13.1065 174.86 13.0485 174.109C12.6539 170.955 12.2556 167.803 11.8735 164.647C11.8818 164.712 11.8901 164.778 11.8984 164.844C11.5716 162.174 11.2663 159.501 10.9673 156.827C10.8749 156.121 10.7888 155.414 10.7077 154.706C10.3365 152.214 9.9804 149.719 9.63051 147.223C9.16961 143.924 8.7542 140.62 8.42228 137.308C8.2677 135.774 8.17139 134.236 8.11583 132.696C8.08865 131.919 8.06907 131.141 8.07009 130.365C8.07054 129.553 8.05502 128.734 8.10416 127.924C7.99511 126.677 7.89125 125.432 7.78612 124.186C7.74493 124.11 7.7109 124.027 7.68679 123.941C7.42338 123.031 7.37766 122.056 7.29279 121.115C7.22299 120.347 7.15929 119.575 7.10849 118.805C7.0708 118.242 7.03586 117.683 7.00197 117.12C6.89208 116.054 6.78356 114.989 6.67748 113.922C6.33704 110.541 6.01054 107.159 5.68161 103.779C5.37804 100.659 5.07723 97.542 4.79784 94.4215C4.66239 92.917 4.55595 91.4087 4.4776 89.9005C4.4376 89.1369 4.40531 88.3739 4.40342 87.6083C4.40362 87.5815 4.40384 87.5546 4.40278 87.5279C4.2743 86.4096 4.14826 85.2898 4.0222 84.1699C3.84752 83.7781 3.8233 83.3118 3.76233 82.8921C3.69921 82.4624 3.64358 82.0307 3.59186 81.6C3.49655 80.817 3.40229 80.0313 3.31205 79.2479C3.12531 77.6241 2.93594 75.9993 2.76809 74.3725C2.41918 71.0118 2.09549 67.6475 1.78711 64.2832C1.55878 61.79 1.34172 59.2946 1.17925 56.7957C1.09178 55.4312 0.992587 54.064 0.944501 52.6974C0.921581 52.0561 0.890962 51.4142 0.879553 50.7732C0.878351 50.6865 0.875762 50.5987 0.874559 50.512C0.783813 49.6061 0.696867 48.6998 0.61741 47.7916C0.571198 47.2634 0.526251 46.7351 0.48384 46.2065C0.352726 46.0355 0.283671 45.8297 0.256567 45.6074C-0.0160086 43.2942 -0.00611946 40.9563 0.00361254 38.6312C0.00705707 37.8536 0.0362782 37.0789 0.0835651 36.3064C0.0918179 35.9776 0.103983 35.6498 0.118569 35.3205C0.117193 35.2172 0.12618 35.1156 0.148269 35.018C0.157311 34.8296 0.166341 34.6411 0.17665 34.4526C0.196257 34.0348 0.263899 33.6115 0.307905 33.1954C0.350042 32.7871 0.433147 32.3803 0.499794 31.975C0.504956 31.9465 0.508747 31.9168 0.515286 31.8894C0.432733 31.792 0.364594 31.6843 0.309843 31.5691C0.132356 31.189 0.139802 30.7927 0.262467 30.4003C0.350107 30.1182 0.524562 29.8656 0.707566 29.6377C0.916933 29.3756 1.13926 29.1302 1.37502 28.8926C1.43821 28.8271 1.50289 28.764 1.56757 28.7009C1.73319 28.4056 1.97015 28.1526 2.20431 27.9113C2.56254 27.5417 2.97296 27.2288 3.40079 26.9399C3.58779 26.7577 3.77616 26.5765 3.97037 26.4038C4.42843 25.9936 4.94145 25.6424 5.47364 25.3355C5.94747 25.0617 6.44081 24.836 6.94916 24.6358C7.57832 24.3868 8.22101 24.2195 8.87759 24.0651C9.96942 23.8087 11.0869 23.6267 12.1932 23.4482C13.4051 23.2516 14.6204 23.0929 15.8411 22.967C15.9119 22.9595 15.9827 22.952 16.0535 22.9446C16.0851 22.9405 16.118 22.9377 16.151 22.9348C16.0801 22.9422 16.0093 22.9497 15.9398 22.9571C17.3132 22.8127 18.6899 22.719 20.0691 22.6686C20.5869 22.6501 21.1046 22.6443 21.6218 22.6476C23.2223 22.4565 24.8273 22.3033 26.4343 22.1729C29.6903 21.9098 32.957 21.7848 36.2213 21.7047C36.5907 21.6954 36.9593 21.6925 37.3292 21.6895C38.6597 21.6382 39.9936 21.6095 41.3269 21.6039C41.5645 21.5768 41.8023 21.5521 42.0398 21.5249C43.1537 21.4033 44.2677 21.2841 45.3818 21.1649C45.6459 20.8725 46.0251 20.6836 46.4461 20.6532C47.2437 20.5923 48.0391 20.5227 48.8338 20.4443C51.552 20.1618 54.2651 19.8351 56.9783 19.5109C59.6423 19.1923 62.3096 18.9117 64.9787 18.6374C67.8477 18.3277 70.7114 17.9431 73.5788 17.6156C76.5967 17.2725 79.623 17.0103 82.6427 16.7027C86.2304 16.3212 89.8109 15.902 93.3889 15.4536C97.1285 14.9848 100.866 14.4906 104.61 14.0456C108.273 13.6115 111.95 13.2516 115.622 12.9073C119.406 12.552 123.195 12.2155 126.984 11.9132C130.729 11.6163 134.476 11.3344 138.228 11.1504C141.828 10.9733 145.427 10.8103 149.024 10.5811C152.732 10.3448 156.435 10.0769 160.141 9.83818C163.85 9.59797 167.562 9.39575 171.268 9.09705C173.098 8.94843 174.928 8.77045 176.755 8.59269C178.584 8.41356 180.414 8.23559 182.246 8.08812C186.002 7.78625 189.763 7.53125 193.526 7.31436C197.233 7.09982 200.944 6.96782 204.647 6.67959C206.435 6.5398 208.218 6.34554 210.005 6.18791C211.583 6.04856 213.166 5.96242 214.749 5.8635C214.968 5.60051 215.273 5.41171 215.63 5.36515C216.834 5.20623 218.05 5.14324 219.265 5.10592C220.493 5.06865 221.722 5.03517 222.949 4.98777C225.436 4.89145 227.914 4.71682 230.389 4.46321C232.528 4.23655 234.667 4.02003 236.809 3.82757C237.511 3.76353 238.214 3.70202 238.919 3.64167C240.215 3.52957 241.513 3.41725 242.81 3.28593C243.045 3.26025 243.282 3.23572 243.518 3.2112C243.546 3.20749 243.576 3.20357 243.604 3.2024C244.75 3.08046 245.895 2.9637 247.043 2.86837C248.59 2.74192 250.138 2.61928 251.687 2.49906C254.751 2.26035 257.815 1.97697 260.886 1.81805C263.923 1.66213 266.95 1.345 269.99 1.24492C271.491 1.19407 272.991 1.15853 274.49 1.08096C276.086 1.00004 277.679 0.883649 279.274 0.784993C282.402 0.590468 285.529 0.384543 288.658 0.225596C290.258 0.144341 291.869 0.0442478 293.472 0.0852576C293.797 0.0938427 294.123 0.103583 294.448 0.113437C294.52 0.0982537 294.59 0.0895111 294.665 0.0842373C294.759 0.0785705 294.852 0.0730163 294.946 0.0711494C295.404 0.0489887 295.861 0.0217582 296.321 0.00961916C296.918 -0.00562238 297.516 -0.000486836 298.113 0.00982848C299.609 0.0345935 301.158 0.173502 302.575 0.67366C302.957 0.808722 303.335 1.00547 303.669 1.24939C304.027 1.29331 304.374 1.46463 304.64 1.74515C305.181 2.31555 305.71 2.90744 306.127 3.5755C306.515 4.19891 306.83 4.8619 307.107 5.53962C307.693 6.96641 308.125 8.43343 308.394 9.95171C308.654 11.4172 308.865 12.9074 308.992 14.3897C309.124 15.9276 309.16 17.4688 309.201 19.0097C309.221 19.7776 309.238 20.5444 309.248 21.312C309.252 21.609 309.26 21.9121 309.259 22.2121C309.448 23.537 309.619 24.8635 309.792 26.1898L309.79 26.1861C310.217 29.401 310.54 32.6274 310.748 35.8627C310.953 39.0535 311.011 42.2509 311.136 45.4449C311.2 47.073 311.279 48.7011 311.361 50.3264C311.401 51.1499 311.436 51.974 311.461 52.7976C311.473 53.2101 311.467 53.6203 311.461 54.0319C311.457 54.35 311.424 54.6886 311.329 55.0032C311.341 55.2906 311.352 55.5794 311.362 55.8682C311.408 57.1763 311.428 58.4854 311.472 59.7936C311.475 59.9184 311.466 60.0405 311.443 60.1574C311.567 61.4331 311.689 62.709 311.806 63.9841C311.864 64.1245 311.904 64.2767 311.922 64.4347C312.281 67.7053 312.64 70.9784 312.958 74.2537C313.036 75.0446 313.108 75.8361 313.177 76.6277C313.227 76.9386 313.275 77.2522 313.323 77.5646C313.568 79.1539 313.797 80.746 313.972 82.3439C314.338 85.6458 314.574 88.9577 314.814 92.2693C314.97 94.4535 315.107 96.6369 315.243 98.8216C315.312 99.9299 315.36 101.039 315.393 102.149C315.406 102.588 315.404 103.028 315.37 103.468C315.34 103.866 315.241 104.263 315.02 104.589C315.097 105.147 315.174 105.706 315.249 106.265C315.347 106.986 315.437 107.709 315.523 108.432C315.77 110.015 315.985 111.599 316.157 113.191C316.438 115.776 316.64 118.371 316.829 120.966C316.871 121.36 316.913 121.752 316.955 122.147C317.069 123.208 317.202 124.267 317.331 125.325C317.449 126.304 317.618 127.289 317.494 128.272C317.479 128.384 317.449 128.492 317.406 128.594C317.469 129.316 317.536 130.039 317.608 130.76C317.659 131.258 317.711 131.757 317.765 132.255C318.156 134.614 318.518 136.976 318.794 139.353C319.031 141.393 319.143 143.45 319.265 145.499C319.398 147.736 319.545 149.98 319.553 152.221C319.554 152.158 319.553 152.094 319.553 152.031C319.555 152.428 319.556 152.822 319.558 153.219C319.66 154.086 319.762 154.955 319.862 155.822C320.218 158.895 320.508 161.977 320.687 165.065C320.787 166.753 320.878 168.443 320.932 170.135C320.932 170.137 320.932 170.141 320.932 170.141C320.98 171.187 321.017 172.233 321.063 173.278C321.086 173.441 321.105 173.604 321.126 173.769C321.22 174.542 321.311 175.317 321.398 176.09C321.579 177.689 321.753 179.288 321.922 180.888C322.241 183.898 322.542 186.907 322.772 189.924C322.782 189.945 322.792 189.966 322.803 189.987C323.087 190.61 323.129 191.306 323.161 191.982C323.184 192.465 323.197 192.95 323.203 193.435C323.213 194.463 323.203 195.494 323.178 196.522C323.154 197.591 323.115 198.658 323.043 199.726C323.008 200.254 322.963 200.781 322.918 201.308C322.854 202.007 322.781 202.77 322.415 203.379C322.397 203.407 322.379 203.437 322.359 203.463C322.35 203.535 322.343 203.606 322.333 203.677C322.627 204.278 322.483 205.067 322.101 205.59C321.893 205.875 321.648 206.111 321.33 206.273C321.163 206.358 320.981 206.407 320.796 206.423C320.447 206.454 320.086 206.367 319.793 206.179C319.613 206.297 319.429 206.407 319.246 206.518C318.575 206.924 317.866 207.279 317.13 207.551C315.721 208.073 314.216 208.274 312.735 208.485C311.86 208.61 310.982 208.701 310.103 208.778C309.489 208.832 308.871 208.878 308.256 208.924C307.344 208.991 306.433 209.065 305.521 209.128C302.602 209.585 299.694 210.07 296.752 210.363C296.396 210.4 296.039 210.433 295.683 210.465C295.382 210.491 295.08 210.516 294.777 210.54C291.732 211.094 288.679 211.589 285.609 211.982C283.486 212.253 281.355 212.479 279.221 212.666C275.715 212.972 272.198 213.173 268.683 213.296C268.422 213.305 268.177 213.231 267.966 213.101C261.524 213.61 255.075 214.005 248.637 214.572C248.393 214.593 248.147 214.615 247.903 214.636C247.596 214.663 247.298 214.597 247.042 214.461C245.69 214.587 244.338 214.708 242.985 214.826C242.849 214.838 242.714 214.85 242.577 214.862C242.349 215.103 242.041 215.27 241.692 215.307C238.372 215.666 235.052 216.032 231.731 216.385C228.324 216.747 224.914 217.08 221.502 217.406C219.397 217.608 217.291 217.797 215.184 217.981C214.615 218.031 214.046 218.08 213.476 218.129C213.446 218.134 213.416 218.139 213.384 218.142C210.119 218.462 206.855 218.791 203.59 219.111C200.304 219.432 197.016 219.717 193.729 220.005C192.98 220.069 192.234 220.136 191.487 220.201C191.239 220.223 190.99 220.244 190.741 220.266C190.514 220.665 190.113 220.959 189.636 221.001C186.257 221.298 182.876 221.599 179.496 221.887C176.141 222.173 172.783 222.422 169.426 222.664C166.689 222.862 163.95 223.07 161.211 223.21C158.042 223.597 154.86 223.917 151.67 224.041C150.09 224.102 148.504 224.177 146.921 224.153C146.05 224.139 145.182 224.124 144.311 224.079C143.925 224.058 143.543 224.024 143.157 223.986C142.75 224.069 142.346 224.153 141.941 224.239C140.496 224.547 139.053 224.86 137.6 225.129C134.485 225.704 131.352 226.212 128.197 226.499C127.156 226.592 126.111 226.676 125.067 226.743C124.738 226.791 124.409 226.839 124.08 226.887C121.767 227.22 119.442 227.534 117.11 227.738C116.34 227.805 115.569 227.86 114.798 227.901C113.948 227.946 113.1 227.983 112.251 228.009C111.871 228.02 111.486 228.026 111.106 228.014C110.535 227.995 109.933 228.023 109.379 227.868C108.572 227.908 107.763 227.942 106.956 227.975C106.523 227.993 106.092 228.009 105.661 228.021C105.541 228.024 105.425 228.011 105.314 227.983C104.559 228.097 103.806 228.211 103.053 228.326C99.9162 228.801 96.7703 229.198 93.6249 229.617C90.3735 230.048 87.1242 230.504 83.8649 230.889C82.2301 231.082 80.5938 231.242 78.9532 231.383C78.1741 231.45 77.3908 231.484 76.6096 231.526C75.8753 231.565 75.14 231.594 74.4032 231.589C74.0456 231.587 73.6873 231.591 73.3312 231.562C70.8827 231.804 68.4338 232.029 65.9836 232.252C65.191 232.325 64.3982 232.396 63.6053 232.466C63.491 232.531 63.3678 232.582 63.2352 232.612C62.8439 232.707 62.4337 232.744 62.0346 232.793C61.6784 232.835 61.3221 232.877 60.9656 232.916C60.4621 232.983 59.9599 233.048 59.4548 233.11C58.274 233.254 57.0909 233.358 55.9055 233.449C55.6051 233.473 55.3043 233.493 55.0022 233.511C54.45 233.561 53.8965 233.609 53.344 233.655C51.2608 233.828 49.1726 233.973 47.0846 234.106C46.8817 234.252 46.6405 234.355 46.3774 234.396C46.1973 234.425 46.0128 234.446 45.8292 234.462C45.5377 234.486 45.2454 234.5 44.9561 234.519ZM42.4325 231.351L42.4388 231.351C42.4325 231.351 42.426 231.35 42.4184 231.351C42.4273 231.35 42.4362 231.35 42.4452 231.35L42.4691 231.347C42.1032 231.366 41.7434 231.382 41.3912 231.398C41.7383 231.383 42.0855 231.367 42.4325 231.351ZM299.344 206.616C299.887 206.518 300.43 206.419 300.973 206.321L300.978 206.319C300.945 206.325 300.913 206.331 300.881 206.336C300.916 206.33 300.952 206.324 300.988 206.317L301.071 206.298C300.482 206.408 299.908 206.513 299.344 206.616ZM13.1035 146.158L13.1156 146.253C13.0294 145.545 12.9441 144.832 12.8612 144.118C12.9375 144.785 13.0163 145.453 13.095 146.12L13.1035 146.158ZM25.9 26.0296C26.2604 25.9917 26.6221 25.9537 26.9827 25.917C26.6373 25.9524 26.2906 25.9865 25.9454 26.0231L25.9353 26.0253C25.9531 26.0237 25.9708 26.0222 25.9884 26.0193C25.9682 26.0211 25.948 26.0242 25.9277 26.0259L25.9 26.0296Z" fill="#DFDDFF"/>
</svg>
