<svg width="132" height="132" viewBox="0 0 132 132" fill="none" xmlns="http://www.w3.org/2000/svg">
<g clip-path="url(#clip0_509_3052)">
<path fill-rule="evenodd" clip-rule="evenodd" d="M22.66 95.92C22.3973 94.069 22.636 92.1813 23.3512 90.454C24.0665 88.7266 25.232 87.2227 26.7263 86.0992C28.2206 84.9757 29.989 84.2736 31.847 84.0662C33.7051 83.8588 35.5847 84.1536 37.29 84.92C42.462 87.3896 47.1402 90.7818 51.095 94.93C53.515 96.965 61.71 103.07 62.095 103.235C66.5792 103.19 71.0098 102.255 75.13 100.485C75.13 99.935 74.745 99.44 74.085 98.56C67.32 89.155 58.52 85.855 64.735 76.56C65.704 75.2047 67.0783 74.1921 68.6599 73.6682C70.2415 73.1443 71.9485 73.1362 73.535 73.645C83.545 75.185 93.5 85.25 103.015 88.99C103.455 88.99 103.895 88.99 104.005 89.265C105.6 78.265 115.83 81.235 119.735 81.18C123.64 81.125 132.385 80.52 130.735 84.315C130.563 84.7421 130.231 85.085 129.81 85.2701C129.388 85.4552 128.911 85.4677 128.48 85.305C125.644 84.9026 122.759 84.9957 119.955 85.58C114.455 86.185 110.605 84.645 110 89.54V121.77C110 125.62 110.33 126.61 116.435 127.27C120.108 127.54 123.801 127.374 127.435 126.775C127.953 126.68 128.487 126.795 128.92 127.094C129.354 127.393 129.65 127.852 129.745 128.37C129.84 128.888 129.725 129.422 129.426 129.855C129.127 130.289 128.668 130.585 128.15 130.68C124.286 131.542 120.339 131.985 116.38 132C110.88 132 107.03 131.12 105.105 126.5L92.18 123.64C71.72 129.14 43.725 130.02 25.795 118.635C18.92 114.18 11.33 108.68 15.125 101.365C15.742 99.8408 16.7763 98.5214 18.1091 97.5583C19.4418 96.5952 21.0192 96.0274 22.66 95.92ZM47.685 99.66C42.185 96.085 34.76 88.66 30.525 90.255C29.3055 90.6714 28.2856 91.5283 27.665 92.6576C27.0443 93.7869 26.8678 95.1073 27.17 96.36C37.84 98.725 43.01 100.98 52.525 102.245C50.765 101.365 49.005 100.43 47.685 99.66ZM29.315 113.08C52.745 129.195 91.08 119.13 92.565 119.515C105.27 122.705 104.17 122.705 104.115 122.21C103.317 112.661 103.188 103.067 103.73 93.5C96.415 93.115 72.545 73.205 68.915 79.2C65.285 85.195 71.885 86.405 78.65 95.15C82.115 99.66 81.29 102.685 79.2 104.83C76.1348 107.026 72.5901 108.459 68.86 109.01C55.935 112.255 33.935 104.94 29.15 104.005C25.355 103.18 22.66 101.42 21.01 104.555C19.36 107.69 26.785 111.375 29.315 113.08Z" fill="#342E84" fill-opacity="0.1"/>
<path fill-rule="evenodd" clip-rule="evenodd" d="M72.0501 59.51C71.5249 59.51 71.0213 59.3014 70.65 58.9301C70.2787 58.5587 70.0701 58.0551 70.0701 57.53C70.0701 57.0049 70.2787 56.5012 70.65 56.1299C71.0213 55.7586 71.5249 55.55 72.0501 55.55C75.6801 55.385 93.5001 40.81 96.2501 38.5C99.0001 36.19 99.0001 37.785 97.0751 35.86C95.1501 33.935 92.7851 32.395 91.9601 31.68C85.3982 25.3614 78.2737 19.6544 70.6751 14.63C70.2666 14.3966 69.9676 14.0105 69.8439 13.5567C69.7201 13.1028 69.7817 12.6184 70.0151 12.21C70.2484 11.8016 70.6345 11.5026 71.0884 11.3788C71.5422 11.255 72.0266 11.3166 72.4351 11.55C84.11 17.4431 94.903 24.9408 104.5 33.825C105.108 34.5881 105.512 35.4928 105.676 36.4546C105.839 37.4164 105.756 38.4039 105.435 39.325C103.95 42.295 77.5501 59.73 72.0501 59.51Z" fill="#342E84" fill-opacity="0.1"/>
<path fill-rule="evenodd" clip-rule="evenodd" d="M61.93 66.605C55.825 47.025 42.625 30.03 38.94 2.09C38.8515 1.85055 38.816 1.5947 38.8362 1.3402C38.8564 1.08569 38.9318 0.838626 39.057 0.616142C39.1822 0.393659 39.3543 0.201083 39.5614 0.0517753C39.7685 -0.0975325 40.0056 -0.199998 40.2563 -0.248511C40.5069 -0.297025 40.7652 -0.290425 41.013 -0.229171C41.2608 -0.167916 41.4924 -0.0534734 41.6916 0.106219C41.8908 0.265911 42.0529 0.467028 42.1666 0.695618C42.2803 0.924208 42.3429 1.1748 42.35 1.43C46.75 19.03 60.445 39.93 65.78 65.615C65.845 65.8678 65.8596 66.1309 65.8229 66.3894C65.7862 66.6478 65.699 66.8964 65.5662 67.1212C65.4334 67.3459 65.2577 67.5422 65.049 67.699C64.8403 67.8558 64.6028 67.97 64.35 68.035C64.0972 68.1 63.8341 68.1146 63.5757 68.0779C63.3173 68.0412 63.0686 67.954 62.8439 67.8212C62.6191 67.6884 62.4228 67.5127 62.266 67.304C62.1092 67.0953 61.995 66.8578 61.93 66.605Z" fill="#342E84" fill-opacity="0.1"/>
<path fill-rule="evenodd" clip-rule="evenodd" d="M28.6 12.76C28.9647 12.4683 29.4303 12.3333 29.8945 12.3849C30.3586 12.4365 30.7833 12.6703 31.075 13.035C31.3668 13.3997 31.5017 13.8653 31.4501 14.3295C31.3986 14.7936 31.1647 15.2183 30.8 15.51C28.435 17.6 9.90003 34.045 8.25003 36.685C14.245 44 36.74 57.585 36.63 58.08C37.1184 58.231 37.532 58.5602 37.7887 59.0022C38.0454 59.4443 38.1264 59.9667 38.0155 60.4657C37.9046 60.9647 37.61 61.4036 37.1903 61.6953C36.7705 61.987 36.2564 62.1101 35.75 62.04C33.66 61.71 3.79502 45.54 1.15503 37.62C-0.439976 32.56 11 25.41 28.6 12.76Z" fill="#342E84" fill-opacity="0.1"/>
</g>
<defs>
<clipPath id="clip0_509_3052">
<rect width="132" height="132" fill="white" transform="matrix(-1 0 0 1 132 0)"/>
</clipPath>
</defs>
</svg>
