<svg width="30" height="28" viewBox="0 0 30 28" fill="none" xmlns="http://www.w3.org/2000/svg">
<path fill-rule="evenodd" clip-rule="evenodd" d="M29.9608 6.90496C29.9269 6.81564 29.8755 6.73404 29.8097 6.66496C29.7439 6.59587 29.6651 6.5407 29.5777 6.50267C29.4558 6.50267 29.1772 6.50267 29.0553 6.39773L28.1671 6.15286L25.5027 5.48821H25.3285C25.4825 5.05319 25.6105 4.60929 25.7117 4.15891C25.8653 3.49834 25.9586 2.82507 25.9903 2.14746C26.032 1.7112 26.032 1.27192 25.9903 0.835655C25.9348 0.611307 25.8206 0.405965 25.6594 0.240967C25.5177 0.118582 25.3444 0.0388794 25.1596 0.0110307C24.9747 -0.016818 24.7858 0.00831946 24.6145 0.0835502C24.0573 0.258458 22.7511 0.870636 22.6292 0.923109C21.6018 1.39536 20.5569 1.85012 19.5817 2.37485C18.8981 2.74942 18.2406 3.17016 17.6138 3.63418C17.1585 3.912 16.7274 4.22796 16.3251 4.57869C16.1173 4.74078 15.9602 4.9593 15.8723 5.20836C15.6883 5.7906 15.6 6.39912 15.6111 7.00991C15.6111 7.98939 15.7678 9.07382 15.8549 9.98334L15.0538 10.648C14.2781 11.3426 13.5398 12.0782 12.8422 12.8518C11.2565 14.6583 9.78501 16.5627 8.43624 18.5538C8.35007 18.6735 8.31288 18.8219 8.33231 18.9683C8.35175 19.1147 8.42634 19.2481 8.54073 19.3409C8.59895 19.3859 8.66547 19.4189 8.73645 19.438C8.80742 19.4571 8.88146 19.4619 8.95429 19.4522C9.02713 19.4424 9.09733 19.4183 9.16084 19.3812C9.22436 19.3441 9.27994 19.2947 9.32439 19.236C10.8946 17.4029 12.5569 15.6515 14.305 13.9887C15.019 13.2891 15.7853 12.6419 16.5515 11.9773H16.7082C17.3352 11.9773 17.9621 12.1872 18.589 12.3271C19.1788 12.4692 19.7602 12.6444 20.3305 12.8518C20.7321 13.0167 21.1454 13.1512 21.5669 13.2541C21.9043 13.3062 22.2495 13.2575 22.5596 13.1142C23.1281 12.8161 23.66 12.4521 24.1443 12.0298C25.0467 11.1098 26.0191 10.2619 27.0526 9.4936C27.4357 9.23124 28.289 8.88142 28.916 8.47914C29.2944 8.26712 29.6168 7.96726 29.8564 7.6046C29.9269 7.50426 29.9731 7.38872 29.9913 7.26723C30.0094 7.14575 29.999 7.02168 29.9608 6.90496ZM17.0043 7.14983C17.1958 5.61064 17.7705 5.64563 18.6064 5.1209C19.1958 4.72611 19.8062 4.36409 20.435 4.03647C21.3928 3.51175 22.368 3.0395 23.3607 2.54975L24.4752 1.93758C24.4796 2.0133 24.4796 2.08923 24.4752 2.16496C24.5253 2.7469 24.5253 3.3321 24.4752 3.91404C24.4034 4.38578 24.3045 4.85298 24.1792 5.3133C24.1792 5.3133 24.1792 5.3133 24.0398 5.3133C21.7406 6.18656 19.5585 7.34403 17.5441 8.75899L16.9346 9.24873C16.9203 8.54835 16.9435 7.8477 17.0043 7.14983ZM26.1644 7.9719C25.7866 8.18017 25.4307 8.42629 25.1021 8.70652C24.4926 9.19626 23.9354 9.77345 23.3607 10.3332C21.3928 12.3096 21.7759 11.68 20.8007 11.4526C20.1397 11.3006 19.4712 11.1838 18.798 11.1028L17.6138 10.9803L17.8576 10.7704C24.7016 5.05094 24.6319 6.20533 27.6099 7.35972C27.0526 7.5871 26.4779 7.79699 26.1644 7.9719Z" fill="#2F2977"/>
<path fill-rule="evenodd" clip-rule="evenodd" d="M6.97345 17.5044C7.10046 17.4766 7.21126 17.3992 7.28148 17.2894C7.3517 17.1795 7.37558 17.0461 7.34787 16.9185C7.32015 16.7909 7.24312 16.6796 7.13371 16.6091C7.02431 16.5386 6.89148 16.5146 6.76447 16.5424C6.2588 16.6524 5.78054 16.864 5.35853 17.1646C4.93651 17.4652 4.57949 17.8486 4.30899 18.2915C4.00834 18.7695 3.82752 19.3136 3.78202 19.8771C3.73653 20.4407 3.82772 21.0069 4.04777 21.5273C4.32627 22.1322 4.7571 22.6537 5.29768 23.0402C5.83827 23.4267 6.4699 23.6649 7.13018 23.7312C7.76382 23.808 8.40657 23.7393 9.00992 23.5303C9.61327 23.3212 10.1615 22.9772 10.6131 22.5243C10.7135 22.4146 10.7692 22.271 10.7692 22.122C10.7692 21.973 10.7135 21.8295 10.6131 21.7197C10.5067 21.6201 10.3667 21.5648 10.2213 21.5648C10.0759 21.5648 9.93585 21.6201 9.82946 21.7197C9.48425 21.9631 9.09125 22.1296 8.67679 22.208C8.26232 22.2864 7.83595 22.275 7.42623 22.1745C7.06031 22.0944 6.71896 21.927 6.431 21.6865C6.14305 21.446 5.91696 21.1395 5.77183 20.7927C5.6219 20.5284 5.53591 20.2324 5.52079 19.9286C5.50566 19.6248 5.56183 19.3216 5.68476 19.0436C5.78822 18.7146 5.9553 18.4092 6.17644 18.1451C6.39757 17.881 6.66841 17.6633 6.97345 17.5044Z" fill="#2F2977"/>
<path fill-rule="evenodd" clip-rule="evenodd" d="M9.62045 14.1287C9.63028 14.0643 9.62722 13.9986 9.61144 13.9354C9.59566 13.8722 9.56748 13.8128 9.52856 13.7606C9.48964 13.7085 9.44075 13.6647 9.38476 13.6318C9.32877 13.5989 9.26681 13.5775 9.2025 13.569C8.54845 13.498 7.88869 13.498 7.23464 13.569C6.56259 13.6174 5.90041 13.7587 5.26677 13.9888C3.86249 14.4923 2.62772 15.3827 1.70378 16.5581C0.779842 17.7335 0.204066 19.1465 0.0423511 20.6353C-0.136029 22.1883 0.252905 23.7536 1.13691 25.0403C2.02091 26.3271 3.33988 27.2479 4.84882 27.6316C6.65965 28.1673 8.59233 28.1178 10.3736 27.49C12.1549 26.8623 13.6947 25.6881 14.7752 24.1334C15.531 23.2409 16.0307 22.1586 16.2206 21.0026C16.2825 20.3698 16.2105 19.7311 16.0094 19.1283C15.8084 18.5254 15.4827 17.972 15.0539 17.5044C15.0094 17.4456 14.9538 17.3963 14.8903 17.3592C14.8268 17.3221 14.7566 17.2979 14.6838 17.2882C14.6109 17.2784 14.5369 17.2832 14.4659 17.3023C14.3949 17.3214 14.3284 17.3544 14.2702 17.3995C14.2122 17.4425 14.1635 17.4968 14.1267 17.5591C14.09 17.6214 14.0661 17.6904 14.0563 17.7621C14.0466 17.8339 14.0512 17.9068 14.07 17.9767C14.0888 18.0466 14.1213 18.112 14.1657 18.1691C14.4816 18.5205 14.7233 18.9327 14.8759 19.3806C15.0286 19.8286 15.0891 20.303 15.0539 20.7752C14.8523 21.6965 14.4209 22.5512 13.8 23.2589C12.8249 24.4727 11.5078 25.3627 10.021 25.8125C8.56023 26.2848 6.98875 26.2848 5.52799 25.8125C4.41868 25.5404 3.44395 24.8763 2.78203 23.9417C2.12012 23.0071 1.81524 21.8645 1.92314 20.7227C1.97644 19.5168 2.35659 18.3484 3.02256 17.3435C3.68852 16.3386 4.61504 15.5355 5.70214 15.0207C6.23245 14.8037 6.78856 14.6567 7.35654 14.5834C7.93419 14.5018 8.52036 14.5018 9.09801 14.5834C9.16208 14.5882 9.22646 14.5802 9.28744 14.5599C9.34842 14.5396 9.4048 14.5074 9.45335 14.4651C9.50189 14.4229 9.54165 14.3714 9.57033 14.3137C9.59901 14.2559 9.61604 14.1931 9.62045 14.1287Z" fill="#2F2977"/>
</svg>
