<svg width="164" height="164" viewBox="0 0 164 164" fill="none" xmlns="http://www.w3.org/2000/svg">
<g clip-path="url(#clip0_509_3061)">
<path fill-rule="evenodd" clip-rule="evenodd" d="M164 97.58C161.613 92.7372 158.728 88.1568 155.39 83.9133C152.857 80.7739 149.496 78.4067 145.687 77.08C143.804 76.6296 141.83 76.7485 140.015 77.4216C137.35 78.2416 134.138 79.8133 131.268 80.8383C128.398 81.8633 127.1 80.4283 126.007 78.9933C123.82 75.9866 122.112 72.16 120.198 69.6316C117.4 65.7696 113.659 62.6879 109.333 60.68C107.927 60.1715 106.425 59.9813 104.936 60.1231C103.447 60.2649 102.009 60.7352 100.723 61.5C98.3459 62.7845 96.5582 64.9395 95.735 67.5133C94.7187 70.8434 94.9123 74.4255 96.2817 77.6266C97.4115 80.1742 98.8332 82.582 100.518 84.8016C104.125 88.9886 107.501 93.3684 110.632 97.9216C111.52 99.3566 112.477 100.792 113.297 102.295C110.684 101.007 107.933 100.021 105.097 99.3566C103.214 99.0159 101.274 99.2052 99.4933 99.9033C98.2979 100.42 97.2587 101.24 96.4794 102.283C95.7 103.326 95.2078 104.556 95.0517 105.848C94.9202 109.978 96.0397 114.051 98.2633 117.533C100.33 120.578 103.095 123.085 106.327 124.845C112.75 128.398 120.403 128.603 127.988 131.678C128.249 131.862 128.546 131.986 128.86 132.042C129.174 132.098 129.496 132.085 129.804 132.004C130.112 131.923 130.398 131.775 130.643 131.572C130.888 131.368 131.086 131.114 131.222 130.826C131.359 130.538 131.431 130.224 131.433 129.905C131.435 129.587 131.368 129.271 131.235 128.982C131.103 128.692 130.909 128.434 130.667 128.227C130.425 128.02 130.14 127.869 129.833 127.783C123.615 124.64 117.192 123.752 111.588 120.95C108.141 119.429 105.252 116.874 103.32 113.638C102.572 112.319 102.042 110.889 101.748 109.402C101.686 108.583 101.686 107.76 101.748 106.942C101.748 106.532 101.748 106.053 102.158 105.917C103.802 105.674 105.479 106.038 106.873 106.942C109.197 107.967 111.657 109.265 113.707 110.085C115.301 110.692 116.989 111.016 118.695 111.042C119.73 111.043 120.725 110.646 121.476 109.934C122.226 109.222 122.674 108.248 122.727 107.215C122.722 105.677 122.562 104.143 122.248 102.637C121.876 101.141 121.325 99.6959 120.608 98.3316C119.72 96.6233 118.695 94.9833 117.807 93.3433C114.541 88.5883 111.005 84.0252 107.215 79.6766C105.919 77.9838 104.819 76.15 103.935 74.21C103.427 73.075 103.238 71.8228 103.388 70.5883C103.425 70.185 103.555 69.7957 103.768 69.4516C103.982 69.1075 104.273 68.8182 104.618 68.6066C105.848 67.855 107.147 68.6066 108.308 69.495C110.301 71.0416 112.092 72.8322 113.638 74.825C115.62 77.285 117.533 80.975 119.788 83.9133C120.973 85.4779 122.404 86.8395 124.025 87.945C125.049 88.5437 126.192 88.9092 127.373 89.0155C128.554 89.1218 129.744 88.9663 130.858 88.56C133.935 87.456 136.946 86.1784 139.878 84.7333C141.45 84.05 142.748 83.1616 143.705 83.435C146.522 84.2492 149.054 85.8351 151.017 88.0133C154.245 91.7708 157.084 95.8461 159.49 100.177C159.873 100.64 160.408 100.952 161 101.056C161.592 101.161 162.201 101.051 162.72 100.747C163.238 100.442 163.631 99.9632 163.828 99.3954C164.025 98.8277 164.013 98.2083 163.795 97.6483L164 97.58Z" fill="#4942A3" fill-opacity="0.07"/>
<path fill-rule="evenodd" clip-rule="evenodd" d="M41.9567 56.3066C42.2055 56.1601 42.4217 55.9642 42.5921 55.7311C42.7624 55.4979 42.8833 55.2324 42.9473 54.9508C43.0113 54.6692 43.0171 54.3775 42.9642 54.0936C42.9114 53.8098 42.801 53.5397 42.64 53.3C42.318 52.8073 41.8161 52.4601 41.2416 52.3324C40.667 52.2047 40.0654 52.3067 39.565 52.6166L32.3217 57.4C30.75 58.5616 27.88 59.9283 25.4883 61.5683C24.2353 62.5808 23.1711 63.8069 22.345 65.19C22.0037 65.917 21.8267 66.7102 21.8267 67.5133C21.8267 68.3164 22.0037 69.1097 22.345 69.8366C23.3828 71.8821 24.7969 73.7135 26.5133 75.235C27.9751 76.3807 29.5559 77.3658 31.2283 78.1733C34.5767 79.8133 38.0617 80.8383 41.5467 82.3416C42.1066 82.5599 42.726 82.5715 43.2938 82.3744C43.8615 82.1774 44.3405 81.7845 44.6449 81.2663C44.9492 80.7481 45.059 80.1384 44.9546 79.5465C44.8502 78.9547 44.5383 78.4194 44.075 78.0366C41.5467 76.1916 38.745 74.62 36.1483 72.8433C34.669 71.8215 33.3357 70.6031 32.185 69.2216C31.7752 68.9563 31.3868 68.6593 31.0233 68.3333L36.7633 62.1833L41.9567 56.3066Z" fill="#4942A3" fill-opacity="0.07"/>
<path fill-rule="evenodd" clip-rule="evenodd" d="M60.68 45.1C58.425 49.4733 55.8967 53.6417 53.8467 58.0833C52.9388 59.972 52.1402 61.9113 51.455 63.8917C50.7033 65.805 50.0883 67.855 49.4733 69.8367C48.1067 74.62 47.15 79.4716 46.1933 84.255C46.0868 84.8595 46.2037 85.4821 46.5224 86.0066C46.841 86.5312 47.3396 86.922 47.9252 87.106C48.5108 87.2901 49.1433 87.2548 49.7047 87.0068C50.2662 86.7588 50.7183 86.3151 50.9767 85.7583C52.89 81.18 55.145 76.8066 57.1267 72.0917C58.425 69.085 59.7233 66.01 60.7483 62.8666C62.525 57.4683 63.55 52.07 64.9167 46.6033C65.1003 46.0493 65.0687 45.4465 64.8281 44.9147C64.5876 44.3829 64.1557 43.9612 63.6183 43.7333C63.3361 43.625 63.0349 43.5746 62.7328 43.585C62.4306 43.5955 62.1337 43.6665 61.8596 43.794C61.5855 43.9215 61.3398 44.1028 61.1371 44.3272C60.9345 44.5515 60.779 44.8143 60.68 45.1Z" fill="#4942A3" fill-opacity="0.07"/>
<path fill-rule="evenodd" clip-rule="evenodd" d="M76.875 68.7433L73.5267 72.6383L67.5817 78.5833C67.0326 78.9578 66.653 79.5334 66.5251 80.1856C66.3972 80.8379 66.5313 81.5142 66.8983 82.0683C67.0721 82.3434 67.2986 82.5813 67.5649 82.7683C67.8312 82.9552 68.132 83.0875 68.4498 83.1574C68.7675 83.2273 69.096 83.2334 69.4162 83.1755C69.7364 83.1176 70.0419 82.9968 70.315 82.82L78.0367 77.695L82.5467 74.2783C84.0677 72.9229 85.442 71.4113 86.6467 69.7683C87.7569 68.3515 88.5072 66.6868 88.8333 64.9166C88.8542 64.2774 88.7368 63.6412 88.4892 63.0515C88.2415 62.4618 87.8694 61.9326 87.3983 61.5C86.2928 60.4415 85.0789 59.5025 83.7767 58.6983C81.5691 57.3631 79.2877 56.1539 76.9433 55.0766C74.7183 54.0388 72.437 53.1262 70.11 52.3433C69.5741 52.1088 68.968 52.0918 68.4197 52.2958C67.8715 52.4998 67.424 52.9089 67.1717 53.4366C66.9372 53.9726 66.9202 54.5786 67.1242 55.1269C67.3282 55.6751 67.7372 56.1227 68.265 56.375C70.1737 57.5725 72 58.8966 73.7317 60.3383C75.4457 61.7584 77.0663 63.2877 78.5833 64.9166C79.4717 65.3266 80.7017 64.37 76.875 68.7433Z" fill="#4942A3" fill-opacity="0.07"/>
<path fill-rule="evenodd" clip-rule="evenodd" d="M88.355 16.9467C90.405 17.3567 93.48 11.4117 93.48 11.275C93.7743 10.7276 93.938 10.1195 93.9583 9.49833C94.0267 8.86238 94.0267 8.22094 93.9583 7.585C93.2067 0.0683288 91.225 0.751663 90.5417 0.341663C89.8583 -0.0683374 88.2867 0.341662 86.1683 6.56C85.8946 7.07176 85.7097 7.62632 85.6217 8.2C85.5521 8.79017 85.5521 9.38649 85.6217 9.97666C85.6217 9.97666 86.3733 16.605 88.355 16.9467Z" fill="#4942A3" fill-opacity="0.07"/>
<path fill-rule="evenodd" clip-rule="evenodd" d="M118.49 26.855C119.164 26.4304 119.783 25.9256 120.335 25.3516C120.892 24.8088 121.395 24.2139 121.838 23.575C126.827 17.22 126.417 16.7416 125.528 15.3066C124.64 13.8716 123 13.6666 116.508 17.6983C115.797 18.1605 115.113 18.6624 114.458 19.2016C113.876 19.8076 113.328 20.4464 112.818 21.115C108.172 27.9483 109.538 29.1783 110.085 29.725C110.632 30.2716 111.657 31.5016 118.49 26.855Z" fill="#4942A3" fill-opacity="0.07"/>
<path fill-rule="evenodd" clip-rule="evenodd" d="M119.857 44.2116C120.267 46.8083 129.697 46.6716 129.902 46.6716C131.266 46.5475 132.616 46.2959 133.933 45.92C142.133 43.87 142.475 43.255 142.475 41.6833C142.475 40.1116 141.177 38.335 133.182 37.925C132.228 37.8242 131.266 37.8242 130.312 37.925C129.387 38.0648 128.474 38.2703 127.578 38.54C119.31 41.82 119.72 43.3233 119.857 44.2116Z" fill="#4942A3" fill-opacity="0.07"/>
<path d="M32.4583 124.982C32.1711 124.99 31.8885 125.056 31.6266 125.174C31.3646 125.292 31.1286 125.461 30.9318 125.67C30.7351 125.88 30.5816 126.126 30.48 126.394C30.3785 126.663 30.3309 126.949 30.34 127.237C30.34 137.828 30.34 138.648 33.2783 140.903C35.266 142.52 37.6073 143.643 40.1117 144.183C39.952 147.696 40.8672 151.174 42.7352 154.153C44.6032 157.132 47.3352 159.47 50.5667 160.857C53.4948 162.231 56.6393 163.086 59.86 163.385C63.0196 163.674 66.2051 163.443 69.29 162.702C73.136 162.103 76.7168 160.373 79.5764 157.732C82.4361 155.091 84.4453 151.659 85.3483 147.873C85.4865 147.538 85.551 147.177 85.5375 146.815C85.524 146.453 85.4328 146.098 85.2701 145.774C85.1073 145.45 84.8768 145.165 84.5943 144.938C84.3117 144.711 83.9836 144.548 83.6323 144.459C83.281 144.369 82.9146 144.357 82.558 144.422C82.2014 144.487 81.863 144.628 81.5656 144.835C81.2682 145.042 81.0189 145.311 80.8344 145.623C80.65 145.935 80.5348 146.283 80.4967 146.643C79.3863 149.075 77.6094 151.143 75.372 152.606C73.1345 154.07 70.5282 154.869 67.855 154.912C65.584 155.16 63.2927 155.16 61.0217 154.912C58.6865 154.68 56.3903 154.151 54.1883 153.34C52.163 152.809 50.3021 151.782 48.7747 150.35C47.2472 148.918 46.1016 147.127 45.4417 145.14L47.355 145.55C54.4955 146.865 61.7675 147.324 69.0167 146.917C74.0174 146.548 78.9291 145.395 83.5717 143.5L89.175 140.083C89.8543 139.562 90.4732 138.966 91.02 138.307C91.6258 137.624 92.1744 136.893 92.66 136.12C94.0107 134.499 94.7504 132.456 94.7504 130.346C94.7504 128.236 94.0107 126.193 92.66 124.572C91.7501 123.579 90.6604 122.767 89.4483 122.18C84.2319 120.694 78.8076 120.07 73.39 120.335L57.6733 121.633C51.7967 122.317 45.92 123.41 39.975 124.162L32.4583 124.982ZM36.49 131.815L37.9933 128.945L58.4933 127.92H73.9367C77.4968 127.8 81.0573 128.145 84.5283 128.945C85.2896 129.101 85.9964 129.455 86.5783 129.97C86.3978 130.503 86.1448 131.009 85.8267 131.473L84.3233 133.25L80.565 135.505C75.6895 137.689 70.4556 138.963 65.1217 139.263C59.3682 139.752 53.5827 139.729 47.8333 139.195C44.0549 139.296 40.3138 138.426 36.9683 136.667C35.875 135.778 35.6017 134.275 36.49 131.952V131.815Z" fill="#4942A3" fill-opacity="0.07"/>
<path d="M91.02 116.85C92.25 110.017 91.43 110.017 90.2683 109.333C89.1067 108.65 87.535 109.948 83.435 115.825C83.3023 116.135 83.1422 116.432 82.9567 116.713C82.9567 118.9 89.79 121.155 90.815 118.9L91.02 116.85Z" fill="#4942A3" fill-opacity="0.07"/>
<path d="M106.327 44.1433C104.664 38.9785 101.781 34.2905 97.9217 30.4767C94.2126 26.8122 89.9743 23.7255 85.3483 21.32C77.9284 17.5639 69.8099 15.3877 61.5061 14.929C53.2023 14.4703 44.8935 15.739 37.105 18.655C29.0978 21.3506 21.7882 25.7887 15.7028 31.6496C9.61748 37.5104 4.90787 44.6481 1.91333 52.5483C-0.510041 60.3364 -0.510041 68.677 1.91333 76.465C4.21654 83.9891 8.02977 90.9645 13.12 96.965C16.195 100.587 19.9533 103.798 23.0967 107.078C24.4347 108.417 25.6683 109.856 26.7867 111.383C28.6109 113.793 30.1474 116.407 31.365 119.173C31.365 119.72 31.775 120.335 32.0483 120.95C32.595 123.41 37.0367 122.522 37.105 120.608C37.1733 118.695 36.3533 118.353 35.875 117.26C34.6187 114.12 33.0385 111.12 31.16 108.308C30.0122 106.465 28.7333 104.707 27.3333 103.047C24.395 99.5617 20.9783 96.2133 18.1767 92.7283C14.0099 87.3114 10.9876 81.1041 9.29333 74.4833C7.64885 68.1669 7.93446 61.5026 10.1133 55.35C12.7223 48.6359 16.764 42.5715 21.9567 37.5794C27.1495 32.5872 33.3684 28.7875 40.18 26.445C46.9455 23.7659 54.1778 22.4645 61.4529 22.617C68.728 22.7696 75.8994 24.373 82.5467 27.3333C86.7143 29.3599 90.5783 31.959 94.0267 35.055C97.3581 37.9897 99.9558 41.664 101.612 45.7833C101.83 46.4018 102.279 46.9114 102.866 47.2046C103.452 47.4978 104.13 47.5518 104.755 47.355C105.075 47.2554 105.37 47.0917 105.625 46.8738C105.879 46.6558 106.086 46.3884 106.233 46.0877C106.38 45.7871 106.464 45.4596 106.48 45.1252C106.496 44.7909 106.444 44.4568 106.327 44.1433Z" fill="#4942A3" fill-opacity="0.07"/>
</g>
<defs>
<clipPath id="clip0_509_3061">
<rect width="164" height="164" fill="white"/>
</clipPath>
</defs>
</svg>
