<svg width="174" height="19" viewBox="0 0 174 19" fill="none" xmlns="http://www.w3.org/2000/svg">
<g clip-path="url(#clip0_509_3167)">
<path d="M5.93342 14.9323C6.39363 14.5802 6.85384 14.228 7.31405 13.8054C7.77426 13.3828 8.30021 13.0306 8.76042 12.608C9.87808 11.6219 10.9957 10.6358 12.1134 9.64968C11.8504 10.0723 11.5217 10.4949 11.2587 10.9175C10.9957 11.3401 10.7328 11.6923 10.404 12.1149C10.2725 12.3262 10.0753 12.5375 9.94382 12.7488C9.74659 12.9601 9.6151 13.2419 9.54936 13.5236C9.41787 13.8054 9.35212 14.0167 9.28638 14.2984C9.15489 14.721 9.28638 15.2845 9.6151 15.5663C9.74659 15.7071 9.94382 15.848 10.1411 15.9184C10.3383 15.9889 10.6013 15.9889 10.7985 15.9184C11.0615 15.848 11.3245 15.848 11.5874 15.7776C11.7847 15.7071 11.9161 15.6367 12.1134 15.5663C12.3106 15.4958 12.5078 15.4254 12.6393 15.2845C13.231 15.0028 13.757 14.5802 14.3487 14.1576C14.9404 13.7349 15.5978 13.3123 16.1895 12.8193C16.847 12.3262 17.4387 11.8332 18.0304 11.3401C18.6221 10.9175 19.148 10.4245 19.674 9.93142C19.6082 10.0019 19.5425 10.0723 19.5425 10.1427C19.0165 10.8471 18.4906 11.6219 17.9646 12.3262C17.6359 12.7488 17.3072 13.1715 17.0442 13.5941C16.9127 13.8054 16.7812 14.0871 16.6497 14.3689C16.584 14.5802 16.5182 14.7915 16.5182 15.0028C16.5182 15.2141 16.4525 15.4254 16.3868 15.6367C16.321 15.9889 16.321 16.2706 16.5182 16.5524C16.6497 16.7637 16.9127 17.0454 17.1757 17.1158C17.5702 17.1863 17.9646 17.2567 18.4248 17.3272C18.6221 17.3272 18.8193 17.3976 19.0165 17.3272C19.2138 17.3272 19.411 17.2567 19.6082 17.2567C20.0027 17.1863 20.3314 17.0454 20.6601 16.9045C21.0546 16.7637 21.3833 16.5524 21.712 16.4115C23.1584 15.6367 24.6048 14.721 25.9854 13.8054C26.6429 13.3828 27.2346 12.8897 27.892 12.4671C27.4975 13.0306 27.0373 13.5941 26.6429 14.1576C26.3799 14.5097 26.1169 14.8619 25.8539 15.2141C25.591 15.5663 25.3937 15.848 25.2622 16.2706C25.1307 16.6228 25.065 16.975 24.9993 17.3272C24.9335 17.8202 24.9993 18.2428 25.328 18.595C25.4595 18.7359 25.6567 18.8767 25.8539 18.9472C26.0512 19.0176 26.3141 19.0176 26.5114 18.9472C26.6429 18.9472 26.7744 18.8767 26.8401 18.8767C27.2346 18.8063 27.629 18.7359 27.9577 18.6654C28.3522 18.595 28.7467 18.4541 29.1411 18.2428C29.9301 17.8906 30.6533 17.468 31.3765 17.0454C32.8228 16.1298 34.2035 15.1437 35.5841 14.1576C35.7813 14.0167 35.9785 13.8758 36.1758 13.6645C36.1758 13.6645 36.1758 13.7349 36.11 13.7349C35.9785 13.9462 35.8471 14.228 35.7813 14.4393C35.6498 14.8619 35.7813 15.2845 35.8471 15.7071C35.9785 16.4115 36.7017 16.7637 37.3592 16.6228C37.7536 16.4819 38.1481 16.4115 38.5426 16.2706C39.0028 16.1298 39.463 15.9184 39.9232 15.6367C40.8436 15.2141 41.6983 14.5802 42.4872 14.0167C43.1447 13.5941 43.7364 13.101 44.3938 12.6784C45.643 11.8332 46.8264 10.988 48.0755 10.0723C48.7329 9.57924 49.4561 9.01576 50.1136 8.52271C49.8506 8.87488 49.5219 9.2975 49.2589 9.64968C49.1274 9.79055 48.9959 10.0019 48.8644 10.1427C48.5357 10.4949 48.2727 10.8471 48.0098 11.1993C47.7468 11.6219 47.681 12.1149 47.681 12.608C47.681 12.8193 47.7468 13.0306 47.7468 13.2419C47.7468 13.3123 47.8125 13.4532 47.8125 13.5236C47.8783 13.7349 47.944 13.8758 48.0098 14.0871C48.0755 14.2984 48.207 14.5097 48.3385 14.721C48.5357 14.9323 48.9302 15.1437 49.2589 15.1437C49.9821 15.0732 50.771 15.0028 51.5599 14.8619C52.2831 14.721 53.0063 14.4393 53.6638 14.0871C55.0444 13.4532 56.3593 12.6784 57.6742 11.8332C58.5946 11.2697 59.515 10.6358 60.4354 10.0019C60.2382 10.2836 59.9752 10.4949 59.778 10.7766C59.3835 11.2697 58.9233 11.7627 58.5288 12.2558C58.2001 12.608 57.9371 12.9601 57.6084 13.3123C57.1482 13.8758 56.7537 14.5097 56.3593 15.1437C56.0306 15.7071 56.2278 16.6932 56.8195 16.975C57.0167 17.0454 57.1482 17.1863 57.3454 17.2567C57.5427 17.3272 57.7399 17.3976 57.9371 17.468C58.3316 17.5385 58.7261 17.468 59.1863 17.3976C59.5807 17.3272 59.9752 17.1158 60.3039 16.9045C60.7641 16.6932 61.2244 16.4115 61.6188 16.1297C62.0133 15.9184 62.342 15.7071 62.7365 15.4958C63.1309 15.2845 63.4597 15.0732 63.8541 14.7915C64.5116 14.3689 65.169 13.9462 65.7607 13.5236C65.9579 13.3828 66.1552 13.2419 66.2867 13.101C66.2209 13.3123 66.0894 13.4532 66.0237 13.6645C65.8265 14.0871 65.7607 14.5802 66.0237 15.0028C66.2867 15.4254 66.6811 15.6367 67.1413 15.6367C67.4701 15.6367 67.733 15.7071 67.996 15.7071C68.1932 15.7071 68.3905 15.6367 68.5877 15.6367C68.7849 15.5663 68.9822 15.5663 69.1137 15.4958C69.5081 15.355 69.8369 15.1437 70.2313 15.0028C70.56 14.7915 70.9545 14.5802 71.2832 14.3689C72.0064 13.9462 72.6639 13.4532 73.387 13.0306C74.1102 12.5375 74.8992 12.0445 75.6223 11.5514C77.1345 10.4949 78.5808 9.36793 80.093 8.3114C80.3559 8.10009 80.5532 7.95922 80.8161 7.74791C80.7504 7.81835 80.6847 7.88879 80.6847 7.95922C80.1587 8.66358 79.567 9.43837 79.0411 10.2132C78.7781 10.5653 78.5151 10.988 78.1864 11.3401C77.8577 11.8332 77.4632 12.2558 77.1345 12.6784C77.003 12.8897 76.8057 13.1715 76.6743 13.4532C76.477 13.8054 76.3455 14.228 76.214 14.6506C76.0826 14.9323 76.214 15.355 76.3455 15.6367C76.5428 15.9889 76.9372 16.2706 77.3974 16.2706C77.5947 16.2706 77.7919 16.2706 77.9234 16.2706C78.1206 16.2706 78.3179 16.2706 78.4493 16.2706C78.9096 16.2706 79.3698 16.1298 79.83 15.9889C80.2244 15.848 80.5532 15.7071 80.9476 15.4958C81.4078 15.2845 81.8023 15.0732 82.2625 14.7915C83.9061 13.8054 85.484 12.8193 87.0619 11.7627C88.574 10.7062 90.0861 9.64968 91.5982 8.52271C92.3214 7.95922 93.0446 7.39574 93.7678 6.90269L93.702 6.97312C93.3076 7.53661 92.8473 8.10009 92.4529 8.66358C92.1899 9.01576 91.9269 9.36793 91.6639 9.72011C91.5325 9.86098 91.4667 10.0019 91.401 10.1427C91.3352 10.2836 91.2695 10.4949 91.2037 10.6358C91.138 10.7766 91.138 10.988 91.2037 11.1993C91.2037 11.481 91.3352 11.6923 91.401 11.9741C91.5982 12.5375 92.1242 12.9601 92.7159 12.7488C93.439 12.5375 94.1622 12.3262 94.8854 12.1149C95.6086 11.9036 96.266 11.5514 96.9235 11.1993C97.7782 10.7766 98.6328 10.2836 99.4218 9.86098C100.474 9.2975 101.46 8.73401 102.512 8.10009C103.498 7.53661 104.418 6.97312 105.404 6.40964C105.142 6.69138 104.813 6.97312 104.55 7.25487C103.761 8.10009 102.906 8.87488 102.117 9.72011C101.197 10.6358 100.342 11.5514 99.4218 12.4671C98.8958 13.0306 98.3699 13.5941 97.8439 14.1576C97.5152 14.5097 97.1207 14.8619 96.792 15.2141C96.6605 15.355 96.5948 15.4958 96.529 15.6367C96.4633 15.7776 96.3975 15.9184 96.3318 16.1297C96.2661 16.2706 96.266 16.4819 96.266 16.6228C96.266 16.9045 96.3318 17.1158 96.3318 17.3976C96.3318 17.6793 96.3975 17.9611 96.6605 18.1724C96.9235 18.4541 97.318 18.5246 97.6467 18.4541C98.2384 18.3133 98.8958 18.1724 99.4875 18.0315C100.079 17.8906 100.671 17.6793 101.263 17.3976C102.512 16.8341 103.761 16.2002 104.944 15.4958C105.47 15.2141 106.062 14.8619 106.588 14.5097C106.982 14.228 107.443 13.9462 107.837 13.7349C108.297 13.4532 108.757 13.1715 109.283 12.8193C109.152 12.9601 108.955 13.101 108.823 13.2419C108.626 13.3828 108.429 13.5236 108.297 13.7349C108.166 13.8758 108.1 14.0167 107.969 14.1576C107.903 14.2984 107.837 14.4393 107.771 14.6506C107.706 14.8619 107.706 15.1437 107.771 15.355C107.771 15.5663 107.837 15.7071 107.903 15.848C108.1 16.2706 108.429 16.6228 108.889 16.8341C109.481 17.0454 110.072 16.975 110.73 16.7637C111.059 16.6932 111.387 16.4819 111.716 16.3411C112.045 16.2002 112.308 16.0593 112.636 15.9184C113.557 15.4958 114.477 15.0732 115.398 14.6506C116.384 14.1576 117.304 13.5941 118.225 13.101C118.816 12.7488 119.408 12.3967 120 12.0445C121.315 11.2697 122.63 10.4245 123.944 9.57924C124.799 9.01576 125.719 8.38183 126.574 7.81835C126.245 8.17053 125.982 8.59314 125.654 8.94532C125.325 9.2975 124.996 9.72011 124.668 10.0723C124.339 10.4949 124.01 10.9175 123.681 11.3401C123.353 11.7627 123.155 12.2558 122.892 12.7488C122.498 13.4532 122.827 14.4393 123.616 14.6506C123.879 14.721 124.142 14.7915 124.47 14.8619C124.668 14.9323 124.865 14.9323 125.062 14.9323C125.259 14.9323 125.457 14.8619 125.654 14.8619C126.048 14.7915 126.377 14.6506 126.771 14.4393C127.1 14.2984 127.495 14.0871 127.823 13.8758C128.481 13.5236 129.072 13.1715 129.73 12.8193C130.519 12.3967 131.242 11.9036 132.031 11.4106C132.688 10.988 133.346 10.5653 134.003 10.1427C133.938 10.2132 133.872 10.2836 133.806 10.354C133.477 10.7062 133.149 11.1288 132.82 11.5514C132.491 11.974 132.228 12.4671 132.228 13.0306C132.228 13.3828 132.36 13.5941 132.491 13.8758C132.557 14.0871 132.886 14.4393 133.083 14.5097C133.149 14.5097 133.214 14.5802 133.214 14.5802C133.412 14.721 133.609 14.7915 133.872 14.7915C134.135 14.7915 134.398 14.7915 134.595 14.721C135.121 14.5802 135.581 14.3689 136.041 14.0871C136.304 13.9462 136.567 13.8054 136.83 13.6645C137.093 13.5236 137.422 13.3123 137.685 13.1715C138.211 12.8193 138.803 12.4671 139.329 12.1149C139.526 11.9741 139.723 11.8332 139.92 11.6923C139.789 11.8332 139.657 12.0445 139.526 12.1854C139.329 12.4671 139.066 12.7488 138.868 13.0306C138.54 13.4532 138.211 13.8054 137.882 14.228C137.553 14.6506 137.29 15.0732 137.027 15.4958C136.83 15.7776 136.83 16.2002 136.896 16.4819C136.962 16.7637 137.159 17.1158 137.422 17.2567C137.553 17.3272 137.685 17.3976 137.882 17.468C138.079 17.5385 138.211 17.6089 138.408 17.6793C138.605 17.7498 138.737 17.7498 138.934 17.7498C139.263 17.7498 139.526 17.6793 139.789 17.6793C140.249 17.6089 140.775 17.3976 141.235 17.1863C141.695 16.975 142.156 16.6932 142.616 16.4819C143.01 16.2706 143.405 16.1298 143.799 15.9184C144.259 15.7071 144.785 15.4254 145.246 15.1437C146.034 14.721 146.823 14.2984 147.547 13.8054C148.138 13.4532 148.664 13.101 149.256 12.7488C149.19 12.8193 149.19 12.8897 149.124 12.9601C148.796 13.4532 148.927 14.228 149.322 14.6506C149.65 15.0028 150.045 15.355 150.505 15.5663C150.768 15.6367 151.031 15.6367 151.294 15.6367C151.688 15.6367 152.017 15.4958 152.412 15.355C152.675 15.2845 152.938 15.1437 153.135 15.0028C153.398 14.8619 153.727 14.7915 153.99 14.6506C154.647 14.3689 155.239 14.0167 155.896 13.5941C156.817 13.0306 157.737 12.3967 158.657 11.7627C158.592 11.9741 158.592 12.1854 158.592 12.3967C158.592 12.608 158.657 12.8897 158.723 13.101C158.789 13.2419 158.789 13.3123 158.855 13.4532C158.92 13.5941 159.052 13.7349 159.118 13.8758C159.315 14.0871 159.644 14.228 159.907 14.2984C160.038 14.2984 160.169 14.2984 160.235 14.3689C160.367 14.3689 160.564 14.3689 160.695 14.3689C161.024 14.2984 161.287 14.2984 161.55 14.1576C162.602 13.8758 163.654 13.3123 164.64 12.7488C165.758 12.1149 166.875 11.4106 167.927 10.7062C168.716 10.2132 169.439 9.64968 170.228 9.15663C170.294 9.08619 170.36 9.08619 170.426 9.01576C170.426 9.08619 170.36 9.15663 170.36 9.15663C169.965 9.86098 170.228 10.8471 170.886 11.2697C171.215 11.481 171.609 11.5514 172.003 11.4106C172.332 11.3401 172.727 11.0584 172.858 10.7062C173.121 10.0019 173.384 9.36793 173.647 8.66358C173.779 8.38183 173.844 8.02966 173.976 7.74791C174.042 7.53661 174.107 7.39574 174.173 7.18443C174.304 6.76182 174.37 6.26877 174.37 5.77572C174.37 5.42354 174.239 5.07136 174.042 4.86006C173.713 4.50788 173.253 4.36701 172.858 4.50788C172.464 4.64875 172.069 4.78962 171.74 4.93049C171.412 5.07136 171.149 5.35311 170.82 5.56441C170.491 5.77572 170.228 5.98702 169.9 6.1279C169.439 6.48007 168.913 6.76182 168.453 7.11399C167.796 7.53661 167.138 7.95922 166.547 8.38183C165.823 8.87488 165.1 9.2975 164.311 9.79055C163.917 10.0019 163.588 10.2132 163.194 10.4245C162.996 10.5653 162.799 10.6358 162.602 10.7766C163.128 10.0723 163.72 9.36793 164.246 8.66358C165.1 7.60704 165.955 6.62095 166.744 5.56441C166.875 5.42354 167.007 5.21223 167.073 5.00093C167.138 4.64875 167.138 4.29657 166.941 4.01483C166.81 3.73309 166.481 3.52178 166.218 3.38091C165.955 3.31047 165.495 3.31047 165.298 3.52178C163.983 4.57831 162.602 5.63485 161.287 6.62094C160.498 7.25487 159.644 7.81835 158.855 8.45227C157.868 9.15663 156.882 9.86098 155.83 10.5653C155.173 10.988 154.515 11.4106 153.858 11.7627C154.121 11.5514 154.318 11.2697 154.581 11.0584C155.107 10.4949 155.633 10.0019 156.159 9.5088C157.408 8.3114 158.592 7.04356 159.841 5.91659C159.906 5.84615 159.972 5.77572 160.038 5.70528C160.498 5.21223 160.498 4.36701 160.038 3.87396C159.841 3.66265 159.512 3.52178 159.183 3.52178C158.855 3.52178 158.592 3.66265 158.329 3.87396C158.263 3.94439 158.197 4.01483 158.131 4.08526C157.474 4.57831 156.751 5.07136 156.093 5.49398C155.567 5.84615 154.976 6.26877 154.45 6.62094C153.266 7.39574 152.149 8.17053 150.965 8.94532C150.637 9.15663 150.242 9.36793 149.913 9.57924C149.059 10.0723 148.27 10.6358 147.415 11.1288C146.758 11.5514 146.1 11.9741 145.377 12.3262C144.522 12.8193 143.668 13.3123 142.813 13.7349C142.419 13.9462 142.024 14.0871 141.695 14.2984C141.432 14.4393 141.104 14.5802 140.841 14.721C141.169 14.2984 141.498 13.8758 141.893 13.4532C142.287 12.9601 142.682 12.4671 143.076 11.9741C143.668 11.2697 144.259 10.6358 144.785 9.93142C145.246 9.43837 145.706 8.87488 146.166 8.38183C146.495 7.95922 146.823 7.53661 147.152 7.11399C147.415 6.76182 147.678 6.3392 147.941 5.91659C148.138 5.56441 148.138 5.07136 147.941 4.71918C147.81 4.50788 147.678 4.36701 147.547 4.29657C147.284 4.1557 146.955 4.08526 146.692 4.1557C146.495 4.22614 146.297 4.29657 146.166 4.36701C145.903 4.50788 145.706 4.64875 145.443 4.78962C145.18 5.00093 144.917 5.21223 144.654 5.3531C144.194 5.70528 143.799 5.98703 143.339 6.3392C142.682 6.83225 141.958 7.3253 141.301 7.81835C140.512 8.38183 139.657 8.94532 138.868 9.5088C138.408 9.79055 138.014 10.0723 137.553 10.354C137.488 10.354 137.488 10.4245 137.422 10.4245C137.948 9.86098 138.408 9.2975 138.934 8.73401C139.394 8.17053 139.92 7.60704 140.38 7.04356C140.775 6.62095 141.104 6.19833 141.498 5.77572C141.893 5.28267 142.287 4.78962 142.747 4.29657C142.879 4.1557 143.01 3.94439 143.076 3.73309C143.142 3.38091 143.142 3.02873 142.944 2.74699C142.682 2.25394 142.09 1.9722 141.564 2.1835C141.367 2.25394 141.104 2.32437 140.906 2.46525C140.578 2.67655 140.249 2.88786 139.986 3.09917C139.789 3.24004 139.526 3.38091 139.329 3.52178C138.868 3.80352 138.408 4.1557 137.948 4.43744C137.093 5.00093 136.239 5.63485 135.384 6.19833C134.332 6.90269 133.214 7.60704 132.162 8.3114C131.308 8.87488 130.453 9.36793 129.598 9.93142C128.941 10.354 128.284 10.7062 127.56 11.0584C127.297 11.1993 127.034 11.3401 126.706 11.5514C126.903 11.3401 127.034 11.1288 127.232 10.9175C127.495 10.5653 127.823 10.2132 128.086 9.86098C128.481 9.36793 128.875 8.87488 129.27 8.38183C129.861 7.60704 130.453 6.90269 131.045 6.1279C131.308 5.77572 131.571 5.42354 131.899 5.1418C132.228 4.78962 132.491 4.43744 132.754 4.01483C133.017 3.66265 133.149 3.24004 133.28 2.81742C133.346 2.39481 133.28 1.90176 132.951 1.62002C132.623 1.26784 131.965 1.12697 131.571 1.40871C128.809 3.24004 126.048 5.1418 123.221 6.97312C122.761 7.3253 122.235 7.60704 121.775 7.88879C120.986 8.38183 120.263 8.80445 119.474 9.2975C117.304 10.6358 115.135 11.9036 112.899 12.9601C113.294 12.608 113.623 12.2558 114.017 11.9741C115.069 10.988 116.121 10.0723 117.173 9.15663C118.422 8.02966 119.671 6.90269 120.92 5.77572C121.512 5.21223 122.104 4.64875 122.761 4.1557C123.155 3.80352 123.55 3.45134 123.944 3.09917C124.339 2.81742 124.733 2.39481 125.128 2.04263C125.522 1.69045 125.522 1.05653 125.325 0.63392C125.194 0.352178 124.931 0.140871 124.668 0.0704356C124.339 0 124.207 0 124.142 0C123.944 0 123.747 0.0704356 123.616 0.140871C123.09 0.563485 122.63 0.915663 122.104 1.33828C121.906 1.54958 121.709 1.69045 121.512 1.90176C120.92 2.32437 120.328 2.74699 119.671 3.1696C118.948 3.66265 118.225 4.1557 117.501 4.71918C115.924 5.84615 114.28 6.90269 112.702 8.02966C112.176 8.38183 111.65 8.73401 111.124 9.08619C110.204 9.64968 109.283 10.2132 108.429 10.7766C107.443 11.4106 106.522 11.974 105.536 12.608C105.076 12.8897 104.616 13.1715 104.155 13.4532C102.972 14.1576 101.854 14.7915 100.605 15.355C100.145 15.5663 99.619 15.7071 99.1588 15.9184L99.2245 15.848C99.4218 15.6367 99.619 15.4254 99.8162 15.2141C100.276 14.721 100.671 14.228 101.131 13.7349C102.052 12.7488 102.972 11.8332 103.892 10.8471C104.747 9.93142 105.602 9.08619 106.456 8.24096C106.851 7.88879 107.18 7.46617 107.574 7.11399C108.166 6.55051 108.757 5.91659 109.283 5.3531C109.546 5.07136 109.809 4.78962 110.007 4.43744C110.27 4.08526 110.467 3.73309 110.664 3.38091C111.124 2.67655 110.401 1.62002 109.612 1.90176C109.02 2.11307 108.494 2.32437 107.903 2.60612C107.508 2.81742 107.114 3.09917 106.719 3.31047C106.128 3.66265 105.536 4.01483 104.879 4.36701C103.958 4.86006 103.103 5.3531 102.183 5.91659C101.394 6.3392 100.605 6.83225 99.7505 7.25487C98.2384 8.10009 96.7263 8.94532 95.2141 9.64968C94.8854 9.79055 94.5567 9.93142 94.1622 10.0723C94.228 9.93142 94.3595 9.79055 94.4252 9.64968C94.8197 9.08619 95.2799 8.52271 95.6744 7.95922C96.1346 7.39574 96.529 6.83225 96.9892 6.19833C97.2522 5.84615 97.5152 5.49398 97.7782 5.07136C98.0411 4.78962 98.2384 4.43744 98.4356 4.08526C98.7643 3.66265 98.9616 3.1696 99.1588 2.67655C99.356 2.32437 99.356 1.90176 99.1588 1.54958C98.9616 1.12697 98.4356 0.845227 97.9754 1.05653C97.6467 1.1974 97.318 1.33828 96.9892 1.54958C96.7263 1.69045 96.529 1.90176 96.266 2.11307C96.0031 2.32437 95.6743 2.53568 95.4114 2.74699C94.8854 3.1696 94.3595 3.52178 93.8335 3.87396C92.7159 4.71918 91.6639 5.49398 90.5463 6.26877C89.4286 7.04356 88.311 7.81835 87.1933 8.59314C86.1414 9.2975 85.0238 10.0019 83.9719 10.7062C83.2487 11.1288 82.5255 11.5514 81.8023 11.9741C81.0791 12.3967 80.2902 12.8897 79.567 13.2419C79.5013 13.2419 79.5013 13.2419 79.4355 13.3123C79.567 13.101 79.7642 12.8897 79.8957 12.6784C80.2902 12.1854 80.6189 11.6219 81.0134 11.1288C81.6051 10.354 82.1968 9.57924 82.7227 8.80445C83.1829 8.17053 83.7089 7.53661 84.1691 6.83225C84.5636 6.3392 84.8923 5.84615 85.2868 5.28267C85.8127 4.57831 86.3387 3.80352 86.7989 3.02873C86.9961 2.74699 86.9961 2.39481 86.9304 2.04263C86.8646 1.76089 86.6674 1.40871 86.4044 1.26784C86.2072 1.1974 86.0757 1.12697 85.8784 1.05653C85.484 0.986098 85.1553 1.05653 84.8265 1.26784C84.3663 1.54958 84.0376 1.90176 83.6432 2.25394C82.0653 3.45134 80.4874 4.64875 78.9096 5.84615C77.9234 6.55051 76.9372 7.25487 75.9511 7.95922C74.7019 8.87488 73.387 9.72011 72.0722 10.5653C71.6119 10.8471 71.1517 11.1288 70.6915 11.4106C70.9545 11.1288 71.2175 10.8471 71.4805 10.4949C72.0722 9.79055 72.6639 9.15663 73.3213 8.45227C73.7158 8.02966 74.1102 7.60704 74.4389 7.18443C74.7677 6.83225 75.0964 6.40964 75.4251 5.98703C75.6881 5.63485 75.8853 5.21223 76.1483 4.86006C76.4113 4.36701 76.3455 3.66265 75.9511 3.24004C75.8196 3.09917 75.6224 2.95829 75.4251 2.88786C75.1621 2.81742 74.7019 2.81742 74.5047 3.02873C73.7158 3.66265 72.9268 4.29657 72.2036 4.93049C71.5462 5.49398 70.823 6.05746 70.0998 6.62094C69.5081 7.04356 68.9822 7.53661 68.3905 7.95922C68.1275 8.17053 67.8645 8.38183 67.6015 8.59314C66.5496 9.36793 65.4977 10.1427 64.4458 10.8471C63.7226 11.3401 62.9994 11.8332 62.2105 12.3262C61.6846 12.6784 61.0929 13.0306 60.5669 13.3123C60.8956 12.8897 61.2244 12.4671 61.6188 12.0445C62.2763 11.1993 62.9994 10.4245 63.7226 9.57924C64.3143 8.87488 64.9718 8.17053 65.5635 7.46617C65.8922 7.04356 66.2867 6.69138 66.6154 6.26877C67.3386 5.42354 68.1932 4.78962 68.7849 3.80352C69.0479 3.31047 68.9822 2.67655 68.5877 2.25394C68.1932 1.83133 67.6015 1.76089 67.1413 2.04263C65.3662 3.31047 63.5254 4.50788 61.7503 5.70528C60.8299 6.3392 59.9095 6.90269 58.989 7.53661C57.9371 8.24096 56.951 8.87488 55.8991 9.5088C55.3074 9.86098 54.7814 10.1427 54.1897 10.4949C53.598 10.8471 53.0063 11.1288 52.3489 11.4106C52.0859 11.5514 51.8229 11.6219 51.5599 11.6923C51.2312 11.8332 50.8368 11.9036 50.508 11.9741C50.4423 11.9741 50.4423 11.9741 50.3765 11.9741C50.5738 11.7627 50.7053 11.5514 50.9025 11.3401C51.1655 10.988 51.4285 10.6358 51.7572 10.2836C52.1516 9.79055 52.5461 9.2975 52.8748 8.80445C53.4008 8.10009 53.9267 7.46617 54.4527 6.76182C54.9129 6.1279 55.4389 5.56441 55.9648 4.93049C56.2935 4.50788 56.6223 4.08526 56.951 3.59222C57.214 3.1696 57.4769 2.74699 57.7399 2.32437C58.0686 1.83133 57.9371 1.12697 57.5427 0.774791C57.1482 0.352178 56.5565 0.281742 56.0963 0.563485C55.7676 0.774791 55.4389 0.986098 55.1101 1.19741C54.9129 1.83133 54.5184 2.11307 54.124 2.46525C53.7952 2.74699 53.4665 2.95829 53.1378 3.24004C52.4146 3.80352 51.6257 4.36701 50.9025 5.00093C49.7191 5.91659 48.5357 6.83225 47.2866 7.74791C46.2347 8.52271 45.117 9.2975 44.0651 10.0723C43.3419 10.5653 42.6845 11.0584 41.9613 11.5514C41.5668 11.8332 41.1723 12.0445 40.8436 12.3262C40.5807 12.5375 40.2519 12.6784 39.989 12.8897C41.8298 10.4245 43.7364 8.02966 45.643 5.63485C45.8402 5.3531 45.9717 5.07136 45.9717 4.71918C45.9717 4.43744 45.8402 4.08526 45.643 3.87396C45.1828 3.38091 44.5253 3.45134 44.0651 3.87396C43.6706 4.22614 43.3419 4.64875 42.9474 4.93049C42.7502 5.1418 42.4872 5.28267 42.29 5.49398C41.8955 5.84615 41.5668 6.1279 41.1723 6.48007C40.3177 7.18443 39.5287 7.88879 38.6741 8.66358C37.6222 9.5088 36.5702 10.354 35.5183 11.1993C34.6637 11.9036 33.809 12.5375 32.8886 13.1715C32.1654 13.6645 31.4422 14.0871 30.719 14.5802C29.9958 15.0732 29.2726 15.4958 28.4837 15.848C28.8782 15.2845 29.3384 14.6506 29.7328 14.0871C30.5875 12.8897 31.5079 11.7627 32.3626 10.5653C33.0201 9.72011 33.7432 8.87488 34.4007 8.02966C34.7294 7.60704 35.1239 7.18443 35.4526 6.76182C35.6498 6.48007 35.9128 6.19833 36.1758 5.98703C36.2415 5.91659 36.373 5.84615 36.4388 5.77572C36.7017 5.56441 36.899 5.35311 37.1619 5.1418C37.4249 4.93049 37.6222 4.64875 37.8194 4.43744C37.9509 4.29657 38.0824 4.08526 38.0824 3.87396C38.1481 3.59222 38.1481 3.24004 37.9509 2.95829C37.8194 2.67655 37.5564 2.46525 37.2934 2.39481C37.0305 2.32437 36.636 2.32437 36.4388 2.53568C36.2415 2.74699 35.9785 2.88786 35.7813 3.02873C35.4526 3.31047 35.1896 3.52178 34.9266 3.80352C34.7294 4.01483 34.5322 4.22614 34.3349 4.50788C33.9405 4.86006 33.546 5.1418 33.2173 5.49398C32.4284 6.1279 31.6394 6.76182 30.8505 7.39574C30.1931 7.88879 29.5356 8.38183 28.8782 8.87488C28.0235 9.50881 27.2346 10.1427 26.3799 10.7062C25.328 11.481 24.2761 12.1854 23.1584 12.8897C22.6325 13.2419 22.1065 13.5236 21.5148 13.8758C20.9231 14.1576 20.3972 14.5097 19.8055 14.7915C19.4767 14.9323 19.148 15.0028 18.885 15.1437C18.9508 15.0732 19.0165 15.0028 19.0165 14.8619C19.4767 14.228 19.8712 13.6645 20.3314 13.0306C20.6601 12.5375 20.9889 12.0445 21.3833 11.5514C22.1065 10.5653 22.764 9.64968 23.4871 8.66358C23.9473 8.02966 24.4733 7.3253 24.9335 6.69138C25.1965 6.3392 25.4595 5.98703 25.7224 5.63485C26.1169 5.07136 26.5114 4.50788 26.8401 3.87396C27.1031 3.45134 26.9716 2.81742 26.6429 2.46525C26.3141 2.11307 25.7224 1.9722 25.328 2.25394C24.9335 2.53568 24.6048 2.74699 24.2761 3.09917C24.0788 3.31047 23.8816 3.45134 23.6186 3.66265C23.2899 3.94439 22.8954 4.29657 22.5667 4.57831C21.7778 5.21223 20.9889 5.91659 20.1999 6.55051C19.2138 7.3253 18.2933 8.10009 17.3072 8.87488C16.5182 9.50881 15.6636 10.1427 14.8746 10.7766C14.6117 10.988 14.2829 11.1993 14.02 11.4106C14.2829 11.0584 14.5459 10.7062 14.7432 10.354C15.2034 9.64968 15.7293 8.94532 16.1895 8.24096C16.4525 7.81835 16.7812 7.39574 17.0442 6.97312C17.3729 6.55051 17.6359 6.05746 17.8989 5.56441C18.2276 5.00093 18.4248 4.36701 18.6221 3.80352C18.6878 3.59222 18.6878 3.38091 18.6221 3.09917C18.5563 2.88786 18.4906 2.67655 18.2933 2.53568C17.8989 2.11307 17.3072 2.04263 16.847 2.32437C16.5182 2.53568 16.1238 2.74699 15.7951 3.02873C15.4006 3.38091 15.0061 3.73309 14.6117 4.08526C14.2829 4.36701 14.02 4.64875 13.6912 4.93049C13.1653 5.3531 12.7051 5.84615 12.1791 6.26877C10.404 7.81835 8.69468 9.43837 6.91958 10.9175C6.32789 11.4106 5.80193 11.8332 5.21023 12.3262C4.94726 12.5375 4.68428 12.7488 4.35556 12.9601C4.61854 12.5375 4.81577 12.1149 5.07874 11.6923C5.53895 10.8471 5.99916 10.0019 6.52512 9.15663C6.98533 8.38183 7.37979 7.60704 7.84 6.83225C8.10298 6.40964 8.30021 5.98703 8.56319 5.49398C8.82617 5.00093 9.15489 4.57831 9.35212 4.01483C9.41787 3.73309 9.54936 3.45134 9.54936 3.1696C9.54936 2.95829 9.48361 2.74699 9.48361 2.53568C9.41787 2.1835 9.08914 1.83133 8.76042 1.76089C8.4317 1.69045 7.97149 1.76089 7.70852 2.04263C6.72235 3.24004 5.73619 4.50788 4.75002 5.70528C4.75002 5.42354 4.61854 5.42354 4.55279 5.42354C4.28981 5.42354 3.96109 5.56441 3.8296 5.77572C3.23791 6.55051 2.64621 7.25487 2.12025 8.02966C1.46281 8.94532 0.805367 9.93142 0.147925 10.8471C-0.0493082 11.1288 -0.0493082 11.6923 0.147925 11.9741C0.345157 12.3262 0.673879 12.5375 1.06834 12.5375C1.19983 12.5375 1.39707 12.5375 1.52855 12.4671C1.72579 12.3967 1.92302 12.3262 2.05451 12.2558C1.85728 12.608 1.5943 12.8897 1.46281 13.3123C1.33132 13.5941 1.26558 13.8758 1.19983 14.1576C1.13409 14.5097 1.13409 14.8619 1.13409 15.1437C1.13409 15.9889 1.92302 16.6228 2.71195 16.4115C3.30365 16.2002 3.89535 16.0593 4.48705 15.7776C4.94726 15.6367 5.40747 15.2845 5.93342 14.9323Z" fill="#FDC31B"/>
</g>
<defs>
<clipPath id="clip0_509_3167">
<rect width="174" height="19" fill="white"/>
</clipPath>
</defs>
</svg>
