<svg width="153" height="23" viewBox="0 0 153 23" fill="none" xmlns="http://www.w3.org/2000/svg">
<path d="M152.682 4.63356C151.186 5.04133 149.615 5.9768 148.211 5.77691C136.81 4.1858 126.48 8.16758 115.973 11.2139C108.083 13.5006 100.586 14.508 92.5369 10.5742C89.2438 8.96712 84.0367 10.0465 79.9746 10.974C73.4468 12.4612 67.0779 14.6919 60.7508 16.8907C54.7747 18.9615 49.5842 17.4504 45.8314 13.1967C41.7108 8.52737 36.8965 8.37545 31.7145 9.75068C22.5455 12.1733 14.4297 16.7228 6.89065 22.2157C4.542 23.9267 0.362906 22.6954 0.011862 19.905C-0.121869 18.8256 0.897836 16.9866 1.92589 16.4909C8.45363 13.3327 15.0566 10.2704 21.7933 7.52793C27.8112 5.0813 34.0965 2.62667 40.7246 4.5456C43.9926 5.49706 47.1687 7.50395 49.743 9.71072C53.0111 12.5171 56.3126 12.2373 59.9567 11.2698C68.1979 9.07106 76.3722 6.60845 84.7137 4.80946C87.6307 4.17782 91.2916 4.44168 93.9829 5.61702C100.001 8.23954 105.81 8.13559 111.878 6.37657C119.108 4.27375 126.287 1.93106 133.634 0.299979C136.844 -0.411622 140.429 0.339971 143.839 0.539859C145.57 0.643801 147.35 0.779711 148.98 1.27543C150.409 1.70719 151.663 2.66667 153 3.39426C152.9 3.80204 152.799 4.21778 152.691 4.62556L152.682 4.63356Z" fill="#FDC31B"/>
</svg>
