<svg width="137" height="10" viewBox="0 0 137 10" fill="none" xmlns="http://www.w3.org/2000/svg">
<path d="M2.9724 5.02618C4.04503 5.02618 5.16874 4.97382 6.24137 4.92147C6.70106 4.92147 7.10968 4.86911 7.56938 4.86911C9.51033 4.7644 11.4513 4.65969 13.3922 4.55497C15.7418 4.45026 18.0403 4.29319 20.3899 4.18848C23.7099 3.97906 27.0299 3.82199 30.35 3.61257C31.1162 3.56021 31.8823 3.56021 32.6485 3.50785C34.5894 3.40314 36.5304 3.29843 38.4713 3.24607C40.4123 3.14136 42.3532 3.03665 44.2942 2.98429C45.0603 2.93194 45.8265 2.87958 46.5927 2.87958C49.6573 2.77487 52.7731 2.67016 55.8377 2.56544C57.7276 2.51309 59.6174 2.46073 61.5584 2.35602C62.3246 2.35602 63.0396 2.30366 63.8058 2.30366C66.7683 2.25131 69.7819 2.19895 72.7444 2.1466C75.7069 2.09424 78.6183 2.04188 81.5808 1.98953C82.347 1.98953 83.1131 1.98953 83.9304 1.98953C85.8713 1.98953 87.7612 1.98953 89.7022 1.98953C92.7157 1.98953 95.6782 1.98953 98.6918 1.93717C99.6623 1.93717 100.633 1.93717 101.603 1.93717C103.646 1.93717 105.689 1.93717 107.733 1.93717C107.886 1.93717 108.09 1.93717 108.243 1.93717C103.646 1.98953 98.9983 2.04188 94.4013 2.1466C92.4603 2.19895 90.5705 2.19895 88.6295 2.25131C87.8123 2.25131 86.944 2.25131 86.1267 2.30366C83.3175 2.35602 80.5593 2.46073 77.75 2.51309C74.5321 2.6178 71.3142 2.67016 68.0963 2.77487C67.5345 2.77487 67.0237 2.82722 66.4618 2.82722C64.7252 2.93194 63.0396 2.98429 61.303 3.08901C57.8297 3.24607 54.3565 3.40314 50.8832 3.56021C50.3724 3.56021 49.8616 3.61257 49.3509 3.66492C47.6653 3.76963 45.9287 3.9267 44.2431 4.03141C41.1784 4.24084 38.1649 4.45026 35.1002 4.65969C34.283 4.71204 33.4146 4.81675 32.5974 4.86911C30.6565 5.02618 28.7155 5.18325 26.7746 5.39267C24.3228 5.60209 21.82 5.81152 19.3683 6.02094C15.9461 6.33508 12.4728 6.64921 9.05063 6.96335C8.23339 7.01571 7.41615 7.12042 6.54783 7.17277C5.06658 7.32984 3.58533 7.48691 2.10408 7.64398C1.95085 7.64398 1.79762 7.74869 1.79762 7.95812C1.79762 8.11518 1.95085 8.27225 2.10408 8.27225C2.66593 8.27225 3.17671 8.32461 3.73856 8.32461C3.63641 8.58639 3.58533 8.74346 3.58533 8.90052C3.58533 9.47644 4.04503 10 4.65796 10C8.8974 9.73822 13.0858 9.42408 17.3252 9.21466C21.0028 9.05759 24.6804 8.84817 28.358 8.6911C32.3931 8.48168 36.4793 8.27225 40.5144 8.11518C41.7914 8.06283 43.0683 8.01047 44.3452 7.90576C44.7028 7.90576 45.0603 7.8534 45.469 7.8534C52.0069 7.69634 58.5448 7.48691 65.0827 7.32984C68.556 7.22513 72.0804 7.12042 75.5537 7.06806C76.8306 7.01571 78.0565 7.01571 79.3334 6.96335C86.0246 6.85864 92.7157 6.75393 99.4069 6.64921C102.267 6.59686 105.128 6.5445 107.988 6.49215C110.44 6.43979 112.891 6.43979 115.343 6.33508C117.386 6.28272 119.378 6.17801 121.421 6.12565C122.443 6.0733 123.464 6.0733 124.435 6.02094C126.733 5.86387 129.032 5.70681 131.33 5.54974C131.177 5.75916 131.177 6.0733 131.228 6.28272C131.279 6.5445 131.433 6.75393 131.688 6.85864C131.892 6.96335 132.199 7.06806 132.403 6.96335C132.914 6.75393 133.425 6.5445 133.884 6.33508C133.884 6.33508 133.884 6.33508 133.833 6.33508C133.884 6.33508 133.884 6.28272 133.935 6.28272C133.986 6.28272 134.037 6.23037 134.037 6.23037H133.986C134.242 6.12565 134.497 6.02094 134.804 5.86387C135.059 5.75916 135.366 5.60209 135.621 5.49738C135.927 5.34031 136.183 5.18325 136.489 5.02618C136.796 4.86911 137 4.45026 137 4.08377C137 3.87435 136.949 3.71728 136.847 3.50785C136.745 3.29843 136.489 3.03665 136.234 2.98429C135.978 2.93194 135.723 2.87958 135.468 2.87958C135.417 2.87958 135.366 2.87958 135.314 2.87958C135.161 2.87958 134.957 2.87958 134.804 2.93194C134.395 2.98429 134.038 3.03665 133.629 3.03665C133.322 3.03665 133.016 3.08901 132.658 3.08901C131.79 3.14136 130.973 3.19372 130.105 3.29843C129.9 3.29843 129.645 3.35079 129.441 3.35079C129.543 3.24607 129.594 3.14136 129.594 3.03665C129.645 2.93194 129.645 2.82723 129.645 2.72251C129.645 2.67016 129.645 2.56544 129.696 2.51309C129.696 2.40838 129.696 2.30366 129.645 2.25131C129.645 2.25131 129.696 2.25131 129.696 2.19895C129.849 2.09424 130.002 1.98953 130.105 1.7801C130.207 1.62304 130.258 1.41361 130.258 1.20419C130.258 0.994764 130.207 0.837696 130.105 0.628272C130.053 0.575916 130.002 0.471204 129.951 0.418848C129.798 0.26178 129.645 0.209424 129.492 0.157068C129.185 0.052356 128.828 0 128.47 0C128.164 0 127.908 0 127.602 0C127.193 0 126.784 0 126.376 0C125.814 0 125.201 0 124.639 0C123.107 0 121.575 0 120.042 0C118.612 0 117.131 0 115.701 0C114.373 0 113.096 0 111.768 0C106.507 0 101.297 0.052356 96.0358 0.104712C92.1028 0.157068 88.1698 0.209424 84.2368 0.209424C82.5002 0.209424 80.7125 0.26178 78.9759 0.314136C75.0429 0.418848 71.1099 0.471204 67.1769 0.575916C66.0532 0.575916 64.9295 0.628272 63.8058 0.628272C63.1418 0.628272 62.5289 0.680628 61.8649 0.680628C57.983 0.837696 54.1011 0.994764 50.2192 1.15183C49.0444 1.20419 47.8696 1.25654 46.6437 1.3089C45.9797 1.3089 45.3157 1.36126 44.6517 1.41361C40.7698 1.62304 36.939 1.83246 33.0571 2.04188C31.0651 2.1466 29.073 2.25131 27.081 2.40838C23.6588 2.6178 20.2366 2.82722 16.8655 3.08901C13.903 3.29843 10.9405 3.4555 7.978 3.61257C7.51831 3.66492 7.05861 3.66492 6.54783 3.71728C5.78167 3.76963 5.0155 3.76963 4.24934 3.82199C3.58533 4.03141 2.87024 4.03141 2.20624 4.03141C2.15516 3.82199 1.95085 3.66492 1.79762 3.71728C1.33792 3.71728 0.929296 3.76963 0.469598 3.82199C0.265288 3.87435 0.0609772 3.97906 0.00989959 4.18848C-0.041178 4.45026 0.112055 4.71204 0.316365 4.7644C0.520676 4.81675 0.724986 4.86911 0.929296 4.92147C1.13361 4.97382 1.28684 4.97382 1.49115 4.97382C2.00193 5.02618 2.46162 5.02618 2.9724 5.02618ZM122.494 3.35079C123.107 3.35079 123.771 3.35079 124.384 3.35079C124.435 3.50785 124.537 3.61257 124.639 3.71728C124.384 3.71728 124.128 3.76963 123.924 3.76963C123.464 3.76963 123.005 3.82199 122.545 3.82199C120.502 3.87435 118.51 3.97906 116.467 4.03141C115.547 4.08377 114.628 4.13613 113.709 4.13613C112.278 4.13613 110.797 4.18848 109.367 4.18848C106.047 4.24084 102.778 4.29319 99.458 4.34555C93.0222 4.45026 86.6375 4.55497 80.2017 4.65969C75.6047 4.71204 71.0078 4.86911 66.4108 5.02618C59.5153 5.2356 52.5687 5.39267 45.6733 5.60209C44.2942 5.65445 42.9151 5.70681 41.536 5.81152C37.603 6.02094 33.67 6.17801 29.7371 6.38743C25.9062 6.59686 22.0243 6.75393 18.1935 6.96335C17.836 6.96335 17.4784 7.01571 17.1209 7.01571C18.1424 6.911 19.2151 6.85864 20.2366 6.75393C23.8631 6.49215 27.4896 6.17801 31.1162 5.91623C32.3931 5.81152 33.67 5.70681 34.8959 5.60209C35.5599 5.54974 36.2239 5.49738 36.8368 5.49738C40.6677 5.28796 44.4474 5.02618 48.2271 4.81675C48.9422 4.7644 49.7084 4.71204 50.4235 4.65969C51.4961 4.60733 52.5687 4.55497 53.5903 4.55497C57.4722 4.39791 61.3541 4.24084 65.236 4.08377C66.1043 4.03141 66.9726 4.03141 67.7899 3.97906C67.9942 3.97906 68.2496 3.97906 68.4539 3.97906C69.0668 3.97906 69.6797 3.97906 70.2416 3.9267C74.1235 3.82199 78.0565 3.76963 81.9384 3.66492C83.7261 3.61257 85.5138 3.56021 87.3015 3.56021C93.0733 3.50785 98.8961 3.4555 104.668 3.40314C110.695 3.40314 116.62 3.35079 122.494 3.35079Z" fill="#FDC31B"/>
</svg>
