<svg width="199" height="14" viewBox="0 0 199 14" fill="none" xmlns="http://www.w3.org/2000/svg">
<path d="M4.31757 6.91698C5.87563 6.91698 7.50787 6.84493 9.06592 6.77287C9.73366 6.77287 10.3272 6.70082 10.9949 6.70082C13.8143 6.55672 16.6336 6.41261 19.4529 6.26851C22.8658 6.12441 26.2045 5.90825 29.6174 5.76415C34.4399 5.47594 39.2625 5.25979 44.085 4.97158C45.1979 4.89953 46.3108 4.89953 47.4237 4.82747C50.243 4.68337 53.0624 4.53927 55.8817 4.46721C58.701 4.32311 61.5204 4.17901 64.3397 4.10696C65.4526 4.0349 66.5655 3.96285 67.6784 3.96285C72.13 3.81875 76.6557 3.67464 81.1073 3.53054C83.8525 3.45849 86.5976 3.38644 89.4169 3.24233C90.5298 3.24233 91.5685 3.17028 92.6814 3.17028C96.9846 3.09823 101.362 3.02618 105.665 2.95413C109.968 2.88207 114.197 2.81002 118.501 2.73797C119.613 2.73797 120.726 2.73797 121.913 2.73797C124.733 2.73797 127.478 2.73797 130.297 2.73797C134.675 2.73797 138.978 2.73797 143.355 2.66592C144.765 2.66592 146.175 2.66592 147.584 2.66592C150.552 2.66592 153.52 2.66592 156.487 2.66592C156.71 2.66592 157.007 2.66592 157.229 2.66592C150.552 2.73797 143.8 2.81002 137.123 2.95413C134.304 3.02618 131.559 3.02618 128.739 3.09823C127.552 3.09823 126.291 3.09823 125.104 3.17028C121.023 3.24233 117.017 3.38644 112.936 3.45849C108.262 3.60259 103.588 3.67464 98.9136 3.81875C98.0975 3.81875 97.3556 3.8908 96.5395 3.8908C94.0169 4.0349 91.5685 4.10696 89.046 4.25106C84.0008 4.46721 78.9557 4.68337 73.9106 4.89953C73.1687 4.89953 72.4267 4.97158 71.6848 5.04363C69.2364 5.18773 66.7139 5.40389 64.2655 5.54799C59.8139 5.8362 55.4365 6.12441 50.985 6.41261C49.7979 6.48467 48.5366 6.62877 47.3495 6.70082C44.5302 6.91698 41.7108 7.13313 38.8915 7.42134C35.3302 7.70955 31.6948 7.99776 28.1335 8.28596C23.1626 8.71827 18.1175 9.15059 13.1465 9.5829C11.9595 9.65495 10.7724 9.79905 9.51108 9.8711C7.35949 10.0873 5.20789 10.3034 3.05629 10.5196C2.83371 10.5196 2.61113 10.6637 2.61113 10.9519C2.61113 11.168 2.83371 11.3842 3.05629 11.3842C3.87242 11.3842 4.61435 11.4562 5.43047 11.4562C5.28208 11.8165 5.20789 12.0327 5.20789 12.2488C5.20789 13.0414 5.87563 13.7619 6.76594 13.7619C12.924 13.4016 19.0078 12.9693 25.1658 12.6811C30.5077 12.465 35.8496 12.1768 41.1915 11.9606C47.0527 11.6724 52.9882 11.3842 58.8494 11.168C60.7043 11.096 62.5591 11.0239 64.4139 10.8798C64.9333 10.8798 65.4526 10.8078 66.0461 10.8078C75.5428 10.5916 85.0396 10.3034 94.5363 10.0873C99.5814 9.94316 104.701 9.79905 109.746 9.727C111.601 9.65495 113.381 9.65495 115.236 9.5829C124.955 9.43879 134.675 9.29469 144.394 9.15059C148.549 9.07853 152.704 9.00648 156.858 8.93443C160.42 8.86238 163.981 8.86238 167.542 8.71827C170.51 8.64622 173.403 8.50212 176.371 8.43007C177.855 8.35802 179.339 8.35802 180.749 8.28596C184.087 8.06981 187.426 7.85365 190.765 7.6375C190.542 7.9257 190.542 8.35802 190.616 8.64622C190.69 9.00648 190.913 9.29469 191.284 9.43879C191.581 9.5829 192.026 9.727 192.323 9.5829C193.065 9.29469 193.806 9.00648 194.474 8.71827C194.474 8.71827 194.474 8.71827 194.4 8.71827C194.474 8.71827 194.474 8.64622 194.548 8.64622C194.623 8.64622 194.697 8.57417 194.697 8.57417H194.623C194.994 8.43007 195.365 8.28596 195.81 8.06981C196.181 7.9257 196.626 7.70955 196.997 7.56544C197.442 7.34929 197.813 7.13313 198.258 6.91698C198.703 6.70082 199 6.12441 199 5.62004C199 5.33184 198.926 5.11568 198.777 4.82747C198.629 4.53927 198.258 4.17901 197.887 4.10696C197.516 4.0349 197.145 3.96285 196.774 3.96285C196.7 3.96285 196.626 3.96285 196.552 3.96285C196.329 3.96285 196.032 3.96285 195.81 4.0349C195.216 4.10696 194.697 4.17901 194.103 4.17901C193.658 4.17901 193.213 4.25106 192.694 4.25106C191.432 4.32311 190.245 4.39516 188.984 4.53927C188.687 4.53927 188.316 4.61132 188.019 4.61132C188.168 4.46721 188.242 4.32311 188.242 4.17901C188.316 4.0349 188.316 3.8908 188.316 3.7467C188.316 3.67464 188.316 3.53054 188.39 3.45849C188.39 3.31438 188.39 3.17028 188.316 3.09823C188.316 3.09823 188.39 3.09823 188.39 3.02618C188.613 2.88207 188.836 2.73797 188.984 2.44976C189.132 2.23361 189.207 1.9454 189.207 1.65719C189.207 1.36899 189.132 1.15283 188.984 0.864622C188.91 0.79257 188.836 0.648467 188.761 0.576415C188.539 0.360259 188.316 0.288207 188.094 0.216156C187.648 0.0720519 187.129 0 186.61 0C186.165 0 185.794 0 185.348 0C184.755 0 184.161 0 183.568 0C182.752 0 181.861 0 181.045 0C178.819 0 176.594 0 174.368 0C172.291 0 170.139 0 168.062 0C166.132 0 164.278 0 162.349 0C154.707 0 147.139 0.0720519 139.497 0.144104C133.784 0.216156 128.071 0.288207 122.359 0.288207C119.836 0.288207 117.239 0.360259 114.717 0.432311C109.004 0.576415 103.291 0.648467 97.5782 0.79257C95.9459 0.79257 94.3137 0.864622 92.6814 0.864622C91.7169 0.864622 90.8266 0.936674 89.8621 0.936674C84.2234 1.15283 78.5848 1.36899 72.9461 1.58514C71.2397 1.65719 69.5332 1.72924 67.7526 1.8013C66.7881 1.8013 65.8236 1.87335 64.8591 1.9454C59.2204 2.23361 53.6559 2.52181 48.0172 2.81002C45.1237 2.95413 42.2302 3.09823 39.3367 3.31439C34.3657 3.60259 29.3948 3.8908 24.4981 4.25106C20.1949 4.53927 15.8917 4.75542 11.5885 4.97158C10.9208 5.04363 10.253 5.04363 9.51108 5.11568C8.39819 5.18773 7.28529 5.18773 6.1724 5.25979C5.20789 5.54799 4.16919 5.54799 3.20468 5.54799C3.13049 5.25979 2.83371 5.04363 2.61113 5.11568C1.9434 5.11568 1.34985 5.18773 0.682117 5.25979C0.385345 5.33184 0.0885727 5.47594 0.0143797 5.76415C-0.0598133 6.12441 0.162766 6.48467 0.459538 6.55672C0.75631 6.62877 1.05308 6.70082 1.34985 6.77287C1.64663 6.84493 1.8692 6.84493 2.16598 6.84493C2.90791 6.91698 3.57564 6.91698 4.31757 6.91698ZM177.929 4.61132C178.82 4.61132 179.784 4.61132 180.674 4.61132C180.749 4.82747 180.897 4.97158 181.045 5.11568C180.674 5.11568 180.303 5.18773 180.007 5.18773C179.339 5.18773 178.671 5.25979 178.003 5.25979C175.036 5.33184 172.142 5.47594 169.174 5.54799C167.839 5.62004 166.503 5.6921 165.168 5.6921C163.091 5.6921 160.939 5.76415 158.862 5.76415C154.039 5.8362 149.291 5.90825 144.468 5.9803C135.12 6.12441 125.846 6.26851 116.497 6.41261C109.82 6.48467 103.143 6.70082 96.4653 6.91698C86.4492 7.20518 76.359 7.42134 66.3429 7.70955C64.3397 7.7816 62.3365 7.85365 60.3333 7.99776C54.6204 8.28596 48.9076 8.50212 43.1947 8.79033C37.6302 9.07853 31.9916 9.29469 26.4271 9.5829C25.9077 9.5829 25.3884 9.65495 24.869 9.65495C26.3529 9.51084 27.9109 9.43879 29.3948 9.29469C34.6625 8.93443 39.9302 8.50212 45.1979 8.14186C47.0527 7.99776 48.9076 7.85365 50.6882 7.70955C51.6527 7.6375 52.6172 7.56544 53.5075 7.56544C59.072 7.27724 64.5623 6.91698 70.0526 6.62877C71.0913 6.55672 72.2042 6.48467 73.2429 6.41261C74.8009 6.34056 76.359 6.26851 77.8428 6.26851C83.4815 6.05236 89.1202 5.8362 94.7588 5.62004C96.0201 5.54799 97.2814 5.54799 98.4685 5.47594C98.7653 5.47594 99.1362 5.47594 99.433 5.47594C100.323 5.47594 101.214 5.47594 102.03 5.40389C107.668 5.25979 113.381 5.18773 119.02 5.04363C121.617 4.97158 124.213 4.89953 126.81 4.89953C135.194 4.82747 143.652 4.75542 152.036 4.68337C160.791 4.68337 169.397 4.61132 177.929 4.61132Z" fill="#6C64CB"/>
</svg>
