<svg width="141" height="56" viewBox="0 0 141 56" fill="none" xmlns="http://www.w3.org/2000/svg">
<path d="M3.46119 10.4436C4.06923 4.95433 9.01207 0.997303 14.5013 1.60534L130.79 14.4863C136.279 15.0944 140.236 20.0372 139.628 25.5265L137.427 45.4049C136.818 50.8942 131.876 54.8512 126.386 54.2432L10.0976 41.3622C4.6083 40.7541 0.651277 35.8113 1.25931 30.322L3.46119 10.4436Z" fill="#32A1DB"/>
<path d="M14.5013 1.60534L14.0044 1.55029L13.9493 2.04725L14.4463 2.1023L14.5013 1.60534ZM14.6007 1.61635L14.8743 1.19782L14.7744 1.13252L14.6558 1.11938L14.6007 1.61635ZM16.3927 2.78759L16.1191 3.20612L16.4021 3.39106L16.6791 3.19741L16.3927 2.78759ZM18.5847 1.25542L18.925 0.889152L18.6292 0.614258L18.2982 0.845612L18.5847 1.25542ZM20.4183 2.95927L20.0779 3.32554L20.2921 3.52459L20.5706 3.43549L20.4183 2.95927ZM22.5148 2.28854L22.4775 1.78994L22.4187 1.79434L22.3625 1.81232L22.5148 2.28854ZM24.554 2.13591L24.7215 1.66478L24.622 1.62942L24.5167 1.6373L24.554 2.13591ZM26.4997 2.8274L26.7752 2.4101L26.7244 2.37662L26.6672 2.35627L26.4997 2.8274ZM28.3843 4.07128L28.1088 4.48857L28.2668 4.59286L28.4543 4.56635L28.3843 4.07128ZM30.4387 3.78074L30.4546 3.281L30.4115 3.27962L30.3687 3.28567L30.4387 3.78074ZM32.4539 3.84486L32.438 4.34461L32.473 4.34572L32.5077 4.34196L32.4539 3.84486ZM34.5007 3.62335L34.7937 3.21815L34.638 3.10558L34.4469 3.12625L34.5007 3.62335ZM36.3731 4.977L36.0802 5.3822L36.2736 5.52207L36.504 5.45956L36.3731 4.977ZM38.458 4.41135L38.3316 3.92758L38.3271 3.92879L38.458 4.41135ZM40.5406 3.86691L40.6217 3.37352L40.5169 3.35631L40.4142 3.38317L40.5406 3.86691ZM42.5268 4.19305L42.789 3.76728L42.7051 3.71562L42.6078 3.69965L42.5268 4.19305ZM44.42 5.35872L44.1578 5.78449L44.3897 5.92724L44.6354 5.80994L44.42 5.35872ZM46.5552 4.33938L46.6965 3.85975L46.5127 3.80561L46.3398 3.88816L46.5552 4.33938ZM48.5136 4.91626L48.3723 5.39588L48.4642 5.42296L48.5596 5.41414L48.5136 4.91626ZM50.5568 4.72741L50.9018 4.36551L50.7372 4.2086L50.5108 4.22953L50.5568 4.72741ZM52.3859 6.47115L52.0409 6.83305L52.2523 7.0345L52.5316 6.94948L52.3859 6.47115ZM54.4788 5.83404L54.4329 5.33616L54.382 5.34085L54.3332 5.35572L54.4788 5.83404ZM56.522 5.64552L56.533 5.14564L56.5044 5.14501L56.476 5.14763L56.522 5.64552ZM58.5394 5.68988L58.6568 5.20386L58.6043 5.19119L58.5504 5.19L58.5394 5.68988ZM60.509 6.16559L60.3916 6.65162L60.4053 6.65494L60.4192 6.65748L60.509 6.16559ZM62.4912 6.52716L62.4015 7.01904L62.4876 7.03475L62.5739 7.02027L62.4912 6.52716ZM64.5518 6.18163L64.7456 5.72074L64.612 5.66455L64.4691 5.68852L64.5518 6.18163ZM66.484 6.99437L66.2902 7.45526L66.3176 7.46678L66.3461 7.47497L66.484 6.99437ZM68.444 7.55689L68.3061 8.03749L68.4309 8.07331L68.5574 8.04387L68.444 7.55689ZM70.5198 7.07368L70.6364 6.58746L70.5215 6.55992L70.4065 6.5867L70.5198 7.07368ZM72.4898 7.54605L72.3732 8.03227L72.467 8.05475L72.5624 8.04076L72.4898 7.54605ZM74.5455 7.24445L74.875 6.86834L74.7013 6.71624L74.4729 6.74975L74.5455 7.24445ZM76.3889 8.85918L76.0595 9.23529L76.3337 9.47544L76.6462 9.28793L76.3889 8.85918ZM78.5552 7.55952L78.8815 7.18067L78.6078 6.9449L78.298 7.13076L78.5552 7.55952ZM80.4014 9.14964L80.0751 9.52848L80.2678 9.69447L80.5154 9.63645L80.4014 9.14964ZM82.4775 8.66323L82.6756 8.20412L82.5241 8.13878L82.3635 8.17641L82.4775 8.66323ZM84.4076 9.49576L84.2096 9.95487L84.3643 10.0216L84.5278 9.9811L84.4076 9.49576ZM86.4869 8.98087L86.6587 8.51129L86.5151 8.45879L86.3668 8.49553L86.4869 8.98087ZM88.4305 9.69164L88.7342 9.29446L88.6737 9.24821L88.6022 9.22205L88.4305 9.69164ZM90.2949 11.1173L89.9911 11.5145L90.2107 11.6824L90.4696 11.5858L90.2949 11.1173ZM92.4043 10.3306L92.6546 9.89771L92.4505 9.77971L92.2296 9.8621L92.4043 10.3306ZM94.3049 11.4294L94.0546 11.8623L94.171 11.9296L94.3054 11.9294L94.3049 11.4294ZM96.3274 11.4274L96.4527 10.9433L96.3908 10.9273L96.3269 10.9274L96.3274 11.4274ZM98.2933 11.9361L98.1681 12.4202L98.278 12.4486L98.3894 12.4268L98.2933 11.9361ZM100.36 11.5314L100.586 11.0852L100.433 11.0077L100.264 11.0407L100.36 11.5314ZM102.275 12.5001L102.05 12.9463L102.158 13.0008L102.278 13.0001L102.275 12.5001ZM104.299 12.4882L104.302 12.9882L104.481 12.9872L104.619 12.8728L104.299 12.4882ZM106.526 10.6379L106.829 10.2399L106.513 9.99928L106.207 10.2533L106.526 10.6379ZM108.391 12.0565L108.089 12.4544L108.197 12.5364L108.331 12.5528L108.391 12.0565ZM110.387 12.3003L110.326 12.7966L110.443 12.8108L110.554 12.7716L110.387 12.3003ZM112.492 11.5556L112.615 11.0712L112.468 11.0335L112.325 11.0842L112.492 11.5556ZM114.458 12.0583L114.334 12.5427L114.404 12.5606L114.476 12.558L114.458 12.0583ZM116.489 11.9852L116.698 11.5311L116.59 11.4812L116.471 11.4855L116.489 11.9852ZM118.413 12.8724L118.73 12.4863L118.68 12.4453L118.622 12.4183L118.413 12.8724ZM120.266 14.3976L119.948 14.7836L120.139 14.941L120.381 14.8842L120.266 14.3976ZM122.342 13.9086L122.432 13.4167L122.329 13.3981L122.228 13.4219L122.342 13.9086ZM124.325 14.2687L124.235 14.7607L124.42 14.7942L124.581 14.6979L124.325 14.2687ZM126.49 12.9747L126.88 12.6613L126.607 12.3224L126.234 12.5455L126.49 12.9747ZM128.268 15.1845L127.878 15.4979L128.199 15.8961L128.59 15.5672L128.268 15.1845ZM130.498 13.3095L130.879 12.986L130.557 12.6065L130.176 12.9268L130.498 13.3095ZM132.204 15.3194L131.822 15.6429L131.987 15.8371L132.241 15.818L132.204 15.3194ZM134.403 15.1533L134.518 14.6667L134.442 14.6489L134.365 14.6547L134.403 15.1533ZM136.637 15.6809L137.136 15.7133L137.163 15.2914L136.752 15.1942L136.637 15.6809ZM136.437 18.7591L135.938 18.7266L135.926 18.9149L136.041 19.0644L136.437 18.7591ZM137.525 20.1711L137.129 20.4764L137.166 20.5243L137.214 20.562L137.525 20.1711ZM139.212 21.516L139.698 21.6359L139.775 21.3248L139.524 21.125L139.212 21.516ZM138.707 23.5603L138.222 23.4403L138.172 23.6431L138.281 23.8213L138.707 23.5603ZM139.898 25.506L140.386 25.6145L140.43 25.4173L140.325 25.2449L139.898 25.506ZM139.459 27.4811L138.971 27.3726L138.936 27.5272L138.997 27.6734L139.459 27.4811ZM140.342 29.6012L140.722 29.9256L140.921 29.6922L140.803 29.409L140.342 29.6012ZM138.766 31.449L138.386 31.1246L138.22 31.3198L138.281 31.5688L138.766 31.449ZM139.28 33.5282L139.774 33.4512L139.77 33.4296L139.765 33.4083L139.28 33.5282ZM139.6 35.5859L140.099 35.6155L140.102 35.562L140.094 35.509L139.6 35.5859ZM139.481 37.5951L139.898 37.8708L139.972 37.7587L139.98 37.6246L139.481 37.5951ZM138.236 39.4794L137.818 39.2037L137.731 39.3366L137.736 39.4959L138.236 39.4794ZM138.303 41.5091L138.768 41.6918L138.806 41.5957L138.803 41.4926L138.303 41.5091ZM137.542 43.4472L137.077 43.2646L137.016 43.4189L137.06 43.5789L137.542 43.4472ZM138.113 45.5365L138.574 45.7301L138.64 45.5711L138.595 45.4048L138.113 45.5365ZM137.283 47.5116L136.822 47.3179L136.79 47.3947L136.784 47.4777L137.283 47.5116ZM137.128 49.7919L137.453 50.1717L137.613 50.0352L137.627 49.8258L137.128 49.7919ZM135.428 51.2472L135.44 51.7471L135.618 51.743L135.753 51.627L135.428 51.2472ZM132.826 51.3069L132.814 50.807L132.672 50.8103L132.553 50.8878L132.826 51.3069ZM131.34 52.2741L131.067 51.855L131.023 51.8836L130.986 51.9207L131.34 52.2741ZM129.887 53.7275L130.218 54.1025L130.23 54.092L130.241 54.0809L129.887 53.7275ZM128.022 55.3723L127.755 55.7945L128.072 55.9956L128.353 55.7473L128.022 55.3723ZM125.979 54.0765L126.247 53.6542L126.166 53.6028L126.072 53.5851L125.979 54.0765ZM123.998 53.7037L124.091 53.2123L123.951 53.186L123.818 53.2376L123.998 53.7037ZM121.885 54.5234L121.662 54.9708L121.86 55.0696L122.066 54.9896L121.885 54.5234ZM119.969 53.5667L120.192 53.1194L120.147 53.0967L120.098 53.0836L119.969 53.5667ZM118.005 53.0427L118.134 52.5596L118.109 52.553L118.084 52.549L118.005 53.0427ZM116.018 52.7236L116.097 52.2299L116.064 52.2246L116.031 52.2237L116.018 52.7236ZM114.001 52.6701L113.801 53.128L113.89 53.1673L113.988 53.1699L114.001 52.6701ZM112.073 51.8248L112.273 51.3669L112.171 51.3219L112.059 51.325L112.073 51.8248ZM110.044 51.8808L110.03 51.381L109.9 51.3846L109.788 51.4516L110.044 51.8808ZM107.879 53.1749L107.851 53.6741L108.004 53.6827L108.135 53.6041L107.879 53.1749ZM105.869 53.0621L105.47 53.3634L105.609 53.5483L105.841 53.5613L105.869 53.0621ZM104.105 50.7266L104.504 50.4253L104.326 50.1887L104.032 50.2319L104.105 50.7266ZM102.049 51.0296L102.028 51.5292L102.076 51.5312L102.122 51.5243L102.049 51.0296ZM100.037 50.9446L100.058 50.445L99.965 50.4411L99.8771 50.4707L100.037 50.9446ZM97.9359 51.6513L97.6758 52.0783L97.8747 52.1995L98.0954 52.1252L97.9359 51.6513ZM96.0415 50.4971L96.3016 50.0701L96.1283 49.9645L95.9304 50.0096L96.0415 50.4971ZM93.9668 50.9701L93.691 51.3872L93.8694 51.5052L94.078 51.4576L93.9668 50.9701ZM92.0825 49.724L92.3583 49.3069L92.2133 49.211L92.0401 49.2258L92.0825 49.724ZM90.041 49.898L89.9985 49.3998L89.9572 49.4033L89.917 49.4136L90.041 49.898ZM87.9597 50.4308L87.7178 50.8684L87.8914 50.9644L88.0837 50.9152L87.9597 50.4308ZM86.054 49.3775L86.2959 48.9399L86.2035 48.8889L86.0984 48.8795L86.054 49.3775ZM84.0515 49.1992L84.0958 48.7012L84.0899 48.7007L84.0515 49.1992ZM82.0463 49.0446L82.0848 48.5461L82.0451 48.543L82.0055 48.5463L82.0463 49.0446ZM80.0055 49.2119L79.7882 49.6622L79.9107 49.7213L80.0464 49.7102L80.0055 49.2119ZM78.0858 48.2854L78.3032 47.8351L78.0396 47.7079L77.7996 47.8755L78.0858 48.2854ZM75.894 49.816L75.6612 50.2584L75.9306 50.4002L76.1803 50.2259L75.894 49.816ZM73.9831 48.8103L73.6326 49.1669L73.6851 49.2185L73.7503 49.2528L73.9831 48.8103ZM72.1594 47.0177L72.5099 46.6611L72.3158 46.4703L72.0501 46.5298L72.1594 47.0177ZM70.0857 47.482L69.9764 46.9941L69.9056 47.01L69.8422 47.0453L70.0857 47.482ZM67.9303 48.6833L67.8212 49.1713L68.0072 49.2129L68.1737 49.1201L67.9303 48.6833ZM65.9569 48.242L65.6026 48.5948L65.7055 48.6981L65.8478 48.7299L65.9569 48.242ZM64.137 46.4148L64.4913 46.0619L64.3366 45.9067L64.1176 45.9151L64.137 46.4148ZM62.106 46.4935L62.0866 45.9939L61.9732 45.9983L61.8727 46.0512L62.106 46.4935ZM59.9582 47.6262L60.0067 48.1238L60.1045 48.1143L60.1915 48.0684L59.9582 47.6262ZM57.9138 47.8256L57.7165 48.285L57.8345 48.3357L57.9624 48.3232L57.9138 47.8256ZM55.9834 46.9964L55.7838 47.4548L55.7861 47.4558L55.9834 46.9964ZM54.0541 46.1564L54.2537 45.698L54.1525 45.6539L54.0421 45.6566L54.0541 46.1564ZM52.0264 46.2053L51.8016 46.6519L51.9133 46.7082L52.0385 46.7051L52.0264 46.2053ZM50.111 45.2407L50.3359 44.7942L50.2539 44.7529L50.1626 44.7434L50.111 45.2407ZM48.1117 45.0332L47.9518 45.507L48.0046 45.5248L48.0601 45.5306L48.1117 45.0332ZM46.1623 44.3752L46.3222 43.9015L46.1225 43.8341L45.9348 43.93L46.1623 44.3752ZM44.0187 45.4702L43.8984 45.9555L44.0797 46.0004L44.2461 45.9154L44.0187 45.4702ZM42.0504 44.9823L42.1707 44.497L42.1001 44.4794L42.0273 44.4828L42.0504 44.9823ZM40.0177 45.0763L39.9423 45.5706L39.9913 45.5781L40.0408 45.5758L40.0177 45.0763ZM38.0291 44.7727L37.7796 45.206L37.8609 45.2528L37.9536 45.267L38.0291 44.7727ZM36.128 43.6782L36.3775 43.2449L36.3251 43.2147L36.2671 43.1979L36.128 43.6782ZM34.1686 43.1106L34.3077 42.6303L34.2638 42.6176L34.2183 42.6131L34.1686 43.1106ZM32.1684 42.9107L32.2181 42.4132L32.0699 42.3984L31.9377 42.4672L32.1684 42.9107ZM30.0225 44.0272L30.1336 44.5147L30.1963 44.5005L30.2532 44.4708L30.0225 44.0272ZM27.9478 44.5003L27.8135 44.9819L27.9355 45.016L28.0589 44.9878L27.9478 44.5003ZM25.9861 43.9533L25.6235 44.2976L25.7187 44.3978L25.8518 44.4349L25.9861 43.9533ZM24.175 42.0466L24.5375 41.7022L24.3675 41.5233L24.1221 41.5494L24.175 42.0466ZM22.1286 42.2644L22.1451 42.7641L22.1633 42.7635L22.1815 42.7616L22.1286 42.2644ZM20.0988 42.3315L19.8802 42.7811L19.9916 42.8353L20.1154 42.8312L20.0988 42.3315ZM18.1799 41.3983L18.3986 40.9487L18.1643 40.8348L17.9367 40.9615L18.1799 41.3983ZM16.0247 42.5985L15.6859 42.9662L15.9519 43.2113L16.2679 43.0353L16.0247 42.5985ZM14.1897 40.9078L14.5285 40.5401L14.4025 40.424L14.2319 40.4096L14.1897 40.9078ZM12.1862 40.7378L12.2285 40.2396L12.1036 40.229L11.9885 40.2785L12.1862 40.7378ZM10.0625 41.652L9.69605 41.9921L9.9361 42.2508L10.2602 42.1112L10.0625 41.652ZM8.45906 39.9242L8.82555 39.5841L8.68857 39.4365L8.48752 39.425L8.45906 39.9242ZM6.47821 39.8113L6.06999 40.1L6.20915 40.2967L6.44975 40.3105L6.47821 39.8113ZM5.33589 38.1962L5.74411 37.9074L5.60158 37.7059L5.35493 37.6965L5.33589 38.1962ZM2.54144 38.0897L2.04712 38.1648L2.10924 38.5736L2.52241 38.5894L2.54144 38.0897ZM2.19788 35.829L1.6979 35.8245L1.69754 35.8645L1.70355 35.9041L2.19788 35.829ZM2.2164 33.7572L2.71638 33.7616L2.71696 33.6959L2.70054 33.6322L2.2164 33.7572ZM1.7444 31.928L2.22854 31.8031L2.22502 31.7894L2.22073 31.776L1.7444 31.928ZM1.10635 29.9286L0.623217 30.0573L0.626334 30.069L0.630012 30.0806L1.10635 29.9286ZM0.550875 27.8447L0.171142 27.5195L-2.38264e-05 27.7193L0.0677456 27.9735L0.550875 27.8447ZM2.13302 25.9977L2.51275 26.323L2.65408 26.158L2.62992 25.9421L2.13302 25.9977ZM1.90387 23.95L1.40689 24.005L1.40697 24.0056L1.90387 23.95ZM1.6775 21.9027L1.23353 21.6727L1.16389 21.8071L1.18053 21.9576L1.6775 21.9027ZM2.66819 19.9901L2.24098 19.7303L2.23209 19.7449L2.22422 19.7601L2.66819 19.9901ZM3.82037 18.0954L4.24758 18.3552L4.37422 18.147L4.28819 17.9189L3.82037 18.0954ZM3.02417 15.9849L2.55283 16.1521L2.55635 16.1614L3.02417 15.9849ZM2.27768 13.88L1.77934 13.9207L1.78466 13.9857L1.80643 14.0471L2.27768 13.88ZM2.11067 11.8392L1.69252 11.565L1.59833 11.7087L1.61234 11.88L2.11067 11.8392ZM3.35179 9.94606L2.98485 9.60642L2.95651 9.63704L2.93364 9.67193L3.35179 9.94606ZM4.84299 8.33501L5.20993 8.67465L5.31343 8.56283L5.33698 8.4123L4.84299 8.33501ZM5.1496 6.37526L4.70513 6.14625L4.6681 6.21811L4.65561 6.29798L5.1496 6.37526ZM6.07743 4.57448L5.65183 4.31205L5.64175 4.3284L5.63295 4.34548L6.07743 4.57448ZM7.23195 2.70214L7.32141 2.21021L6.98554 2.14913L6.80636 2.43971L7.23195 2.70214ZM9.77835 3.16522L9.68889 3.65715L9.9922 3.71231L10.1777 3.46608L9.77835 3.16522ZM11.2337 1.23353L11.3038 0.738478L11.0118 0.697095L10.8343 0.932667L11.2337 1.23353ZM13.3386 1.53182L13.2685 2.02687L13.4281 2.0495L13.5709 1.97457L13.3386 1.53182ZM14.5817 0.87956L15.0787 0.934607L15.1822 -0.000171331L14.3494 0.436806L14.5817 0.87956ZM14.5013 1.60534L14.4463 2.1023L14.5457 2.11331L14.6007 1.61635L14.6558 1.11938L14.5564 1.10838L14.5013 1.60534ZM14.6007 1.61635L14.3272 2.03487L16.1191 3.20612L16.3927 2.78759L16.6662 2.36907L14.8743 1.19782L14.6007 1.61635ZM16.3927 2.78759L16.6791 3.19741L18.8711 1.66524L18.5847 1.25542L18.2982 0.845612L16.1062 2.37778L16.3927 2.78759ZM18.5847 1.25542L18.2443 1.6217L20.0779 3.32554L20.4183 2.95927L20.7586 2.593L18.925 0.889152L18.5847 1.25542ZM20.4183 2.95927L20.5706 3.43549L22.6672 2.76476L22.5148 2.28854L22.3625 1.81232L20.2659 2.48304L20.4183 2.95927ZM22.5148 2.28854L22.5522 2.78715L24.5914 2.63451L24.554 2.13591L24.5167 1.6373L22.4775 1.78994L22.5148 2.28854ZM24.554 2.13591L24.3866 2.60704L26.3323 3.29853L26.4997 2.8274L26.6672 2.35627L24.7215 1.66478L24.554 2.13591ZM26.4997 2.8274L26.2243 3.24469L28.1088 4.48857L28.3843 4.07128L28.6597 3.65398L26.7752 2.4101L26.4997 2.8274ZM28.3843 4.07128L28.4543 4.56635L30.5087 4.27582L30.4387 3.78074L30.3687 3.28567L28.3142 3.5762L28.3843 4.07128ZM30.4387 3.78074L30.4228 4.28049L32.438 4.34461L32.4539 3.84486L32.4698 3.34512L30.4546 3.281L30.4387 3.78074ZM32.4539 3.84486L32.5077 4.34196L34.5545 4.12045L34.5007 3.62335L34.4469 3.12625L32.4001 3.34777L32.4539 3.84486ZM34.5007 3.62335L34.2078 4.02854L36.0802 5.3822L36.3731 4.977L36.666 4.57181L34.7937 3.21815L34.5007 3.62335ZM36.3731 4.977L36.504 5.45956L38.589 4.8939L38.458 4.41135L38.3271 3.92879L36.2422 4.49445L36.3731 4.977ZM38.458 4.41135L38.5845 4.89509L40.6671 4.35065L40.5406 3.86691L40.4142 3.38317L38.3316 3.9276L38.458 4.41135ZM40.5406 3.86691L40.4596 4.3603L42.4458 4.68644L42.5268 4.19305L42.6078 3.69965L40.6217 3.37352L40.5406 3.86691ZM42.5268 4.19305L42.2647 4.61881L44.1578 5.78449L44.42 5.35872L44.6821 4.93296L42.789 3.76728L42.5268 4.19305ZM44.42 5.35872L44.6354 5.80994L46.7706 4.79059L46.5552 4.33938L46.3398 3.88816L44.2046 4.9075L44.42 5.35872ZM46.5552 4.33938L46.4139 4.819L48.3723 5.39588L48.5136 4.91626L48.6549 4.43664L46.6965 3.85975L46.5552 4.33938ZM48.5136 4.91626L48.5596 5.41414L50.6028 5.22529L50.5568 4.72741L50.5108 4.22953L48.4676 4.41838L48.5136 4.91626ZM50.5568 4.72741L50.2118 5.08931L52.0409 6.83305L52.3859 6.47115L52.7309 6.10925L50.9018 4.36551L50.5568 4.72741ZM52.3859 6.47115L52.5316 6.94948L54.6244 6.31237L54.4788 5.83404L54.3332 5.35572L52.2403 5.99282L52.3859 6.47115ZM54.4788 5.83404L54.5247 6.33193L56.5679 6.1434L56.522 5.64552L56.476 5.14763L54.4329 5.33616L54.4788 5.83404ZM56.522 5.64552L56.511 6.1454L58.5284 6.18976L58.5394 5.68988L58.5504 5.19L56.533 5.14564L56.522 5.64552ZM58.5394 5.68988L58.422 6.17591L60.3916 6.65162L60.509 6.16559L60.6263 5.67957L58.6568 5.20386L58.5394 5.68988ZM60.509 6.16559L60.4192 6.65748L62.4015 7.01904L62.4912 6.52716L62.5809 6.03527L60.5987 5.67371L60.509 6.16559ZM62.4912 6.52716L62.5739 7.02027L64.6345 6.67475L64.5518 6.18163L64.4691 5.68852L62.4085 6.03404L62.4912 6.52716ZM64.5518 6.18163L64.3579 6.64252L66.2902 7.45526L66.484 6.99437L66.6779 6.53348L64.7456 5.72074L64.5518 6.18163ZM66.484 6.99437L66.3461 7.47497L68.3061 8.03749L68.444 7.55689L68.582 7.07629L66.622 6.51377L66.484 6.99437ZM68.444 7.55689L68.5574 8.04387L70.6332 7.56066L70.5198 7.07368L70.4065 6.5867L68.3307 7.06991L68.444 7.55689ZM70.5198 7.07368L70.4033 7.5599L72.3732 8.03227L72.4898 7.54605L72.6064 7.05983L70.6364 6.58746L70.5198 7.07368ZM72.4898 7.54605L72.5624 8.04076L74.6181 7.73915L74.5455 7.24445L74.4729 6.74975L72.4172 7.05135L72.4898 7.54605ZM74.5455 7.24445L74.2161 7.62056L76.0595 9.23529L76.3889 8.85918L76.7184 8.48306L74.875 6.86834L74.5455 7.24445ZM76.3889 8.85918L76.6462 9.28793L78.8124 7.98827L78.5552 7.55952L78.298 7.13076L76.1317 8.43042L76.3889 8.85918ZM78.5552 7.55952L78.2289 7.93837L80.0751 9.52848L80.4014 9.14964L80.7277 8.77079L78.8815 7.18067L78.5552 7.55952ZM80.4014 9.14964L80.5154 9.63645L82.5916 9.15005L82.4775 8.66323L82.3635 8.17641L80.2873 8.66282L80.4014 9.14964ZM82.4775 8.66323L82.2795 9.12234L84.2096 9.95487L84.4076 9.49576L84.6056 9.03665L82.6756 8.20412L82.4775 8.66323ZM84.4076 9.49576L84.5278 9.9811L86.6071 9.46621L86.4869 8.98087L86.3668 8.49553L84.2874 9.01042L84.4076 9.49576ZM86.4869 8.98087L86.3152 9.45046L88.2588 10.1612L88.4305 9.69164L88.6022 9.22205L86.6587 8.51129L86.4869 8.98087ZM88.4305 9.69164L88.1268 10.0888L89.9911 11.5145L90.2949 11.1173L90.5986 10.7202L88.7342 9.29446L88.4305 9.69164ZM90.2949 11.1173L90.4696 11.5858L92.579 10.799L92.4043 10.3306L92.2296 9.8621L90.1201 10.6489L90.2949 11.1173ZM92.4043 10.3306L92.154 10.7634L94.0546 11.8623L94.3049 11.4294L94.5551 10.9966L92.6546 9.89771L92.4043 10.3306ZM94.3049 11.4294L94.3054 11.9294L96.3279 11.9274L96.3274 11.4274L96.3269 10.9274L94.3044 10.9294L94.3049 11.4294ZM96.3274 11.4274L96.2021 11.9114L98.1681 12.4202L98.2933 11.9361L98.4186 11.4521L96.4527 10.9433L96.3274 11.4274ZM98.2933 11.9361L98.3894 12.4268L100.457 12.0221L100.36 11.5314L100.264 11.0407L98.1973 11.4455L98.2933 11.9361ZM100.36 11.5314L100.135 11.9776L102.05 12.9463L102.275 12.5001L102.501 12.0539L100.586 11.0852L100.36 11.5314ZM102.275 12.5001L102.278 13.0001L104.302 12.9882L104.299 12.4882L104.296 11.9883L102.273 12.0001L102.275 12.5001ZM104.299 12.4882L104.619 12.8728L106.846 11.0225L106.526 10.6379L106.207 10.2533L103.98 12.1037L104.299 12.4882ZM106.526 10.6379L106.224 11.0359L108.089 12.4544L108.391 12.0565L108.694 11.6585L106.829 10.2399L106.526 10.6379ZM108.391 12.0565L108.331 12.5528L110.326 12.7966L110.387 12.3003L110.447 11.804L108.452 11.5602L108.391 12.0565ZM110.387 12.3003L110.554 12.7716L112.658 12.027L112.492 11.5556L112.325 11.0842L110.22 11.8289L110.387 12.3003ZM112.492 11.5556L112.368 12.04L114.334 12.5427L114.458 12.0583L114.582 11.5739L112.615 11.0712L112.492 11.5556ZM114.458 12.0583L114.476 12.558L116.507 12.4848L116.489 11.9852L116.471 11.4855L114.44 11.5586L114.458 12.0583ZM116.489 11.9852L116.279 12.4392L118.203 13.3264L118.413 12.8724L118.622 12.4183L116.698 11.5311L116.489 11.9852ZM118.413 12.8724L118.095 13.2585L119.948 14.7836L120.266 14.3976L120.584 14.0115L118.73 12.4863L118.413 12.8724ZM120.266 14.3976L120.381 14.8842L122.457 14.3953L122.342 13.9086L122.228 13.4219L120.151 13.9109L120.266 14.3976ZM122.342 13.9086L122.253 14.4006L124.235 14.7607L124.325 14.2687L124.414 13.7768L122.432 13.4167L122.342 13.9086ZM124.325 14.2687L124.581 14.6979L126.747 13.4039L126.49 12.9747L126.234 12.5455L124.068 13.8395L124.325 14.2687ZM126.49 12.9747L126.101 13.2881L127.878 15.4979L128.268 15.1845L128.658 14.8711L126.88 12.6613L126.49 12.9747ZM128.268 15.1845L128.59 15.5672L130.82 13.6922L130.498 13.3095L130.176 12.9268L127.946 14.8018L128.268 15.1845ZM130.498 13.3095L130.117 13.6331L131.822 15.6429L132.204 15.3194L132.585 14.9958L130.879 12.986L130.498 13.3095ZM132.204 15.3194L132.241 15.818L134.441 15.6519L134.403 15.1533L134.365 14.6547L132.166 14.8208L132.204 15.3194ZM134.403 15.1533L134.288 15.6399L136.522 16.1675L136.637 15.6809L136.752 15.1942L134.518 14.6667L134.403 15.1533ZM136.637 15.6809L136.138 15.6484L135.938 18.7266L136.437 18.7591L136.936 18.7916L137.136 15.7133L136.637 15.6809ZM136.437 18.7591L136.041 19.0644L137.129 20.4764L137.525 20.1711L137.921 19.8658L136.833 18.4538L136.437 18.7591ZM137.525 20.1711L137.214 20.562L138.901 21.9069L139.212 21.516L139.524 21.125L137.837 19.7801L137.525 20.1711ZM139.212 21.516L138.727 21.396L138.222 23.4403L138.707 23.5603L139.192 23.6802L139.698 21.6359L139.212 21.516ZM138.707 23.5603L138.281 23.8213L139.472 25.767L139.898 25.506L140.325 25.2449L139.133 23.2992L138.707 23.5603ZM139.898 25.506L139.41 25.3974L138.971 27.3726L139.459 27.4811L139.947 27.5897L140.386 25.6145L139.898 25.506ZM139.459 27.4811L138.997 27.6734L139.88 29.7935L140.342 29.6012L140.803 29.409L139.92 27.2889L139.459 27.4811ZM140.342 29.6012L139.961 29.2768L138.386 31.1246L138.766 31.449L139.147 31.7734L140.722 29.9256L140.342 29.6012ZM138.766 31.449L138.281 31.5688L138.794 33.648L139.28 33.5282L139.765 33.4083L139.252 31.3292L138.766 31.449ZM139.28 33.5282L138.786 33.6051L139.106 35.6629L139.6 35.5859L140.094 35.509L139.774 33.4512L139.28 33.5282ZM139.6 35.5859L139.101 35.5564L138.982 37.5655L139.481 37.5951L139.98 37.6246L140.099 35.6155L139.6 35.5859ZM139.481 37.5951L139.064 37.3194L137.818 39.2037L138.236 39.4794L138.653 39.7551L139.898 37.8708L139.481 37.5951ZM138.236 39.4794L137.736 39.4959L137.803 41.5257L138.303 41.5091L138.803 41.4926L138.735 39.4628L138.236 39.4794ZM138.303 41.5091L137.837 41.3265L137.077 43.2646L137.542 43.4472L138.008 43.6298L138.768 41.6918L138.303 41.5091ZM137.542 43.4472L137.06 43.5789L137.63 45.6681L138.113 45.5365L138.595 45.4048L138.025 43.3155L137.542 43.4472ZM138.113 45.5365L137.652 45.3428L136.822 47.3179L137.283 47.5116L137.744 47.7052L138.574 45.7301L138.113 45.5365ZM137.283 47.5116L136.784 47.4777L136.629 49.758L137.128 49.7919L137.627 49.8258L137.782 47.5455L137.283 47.5116ZM137.128 49.7919L136.803 49.4121L135.103 50.8674L135.428 51.2472L135.753 51.627L137.453 50.1717L137.128 49.7919ZM135.428 51.2472L135.417 50.7473L132.814 50.807L132.826 51.3069L132.837 51.8067L135.44 51.7471L135.428 51.2472ZM132.826 51.3069L132.553 50.8878L131.067 51.855L131.34 52.2741L131.612 52.6932L133.099 51.7259L132.826 51.3069ZM131.34 52.2741L130.986 51.9207L129.534 53.374L129.887 53.7275L130.241 54.0809L131.693 52.6275L131.34 52.2741ZM129.887 53.7275L129.557 53.3525L127.692 54.9973L128.022 55.3723L128.353 55.7473L130.218 54.1025L129.887 53.7275ZM128.022 55.3723L128.29 54.95L126.247 53.6542L125.979 54.0765L125.712 54.4987L127.755 55.7945L128.022 55.3723ZM125.979 54.0765L126.072 53.5851L124.091 53.2123L123.998 53.7037L123.906 54.1951L125.887 54.5678L125.979 54.0765ZM123.998 53.7037L123.818 53.2376L121.704 54.0573L121.885 54.5234L122.066 54.9896L124.179 54.1699L123.998 53.7037ZM121.885 54.5234L122.109 54.0761L120.192 53.1194L119.969 53.5667L119.746 54.0141L121.662 54.9708L121.885 54.5234ZM119.969 53.5667L120.098 53.0836L118.134 52.5596L118.005 53.0427L117.876 53.5258L119.84 54.0498L119.969 53.5667ZM118.005 53.0427L118.084 52.549L116.097 52.2299L116.018 52.7236L115.939 53.2172L117.925 53.5364L118.005 53.0427ZM116.018 52.7236L116.031 52.2237L114.015 52.1703L114.001 52.6701L113.988 53.1699L116.005 53.2234L116.018 52.7236ZM114.001 52.6701L114.202 52.2121L112.273 51.3669L112.073 51.8248L111.872 52.2828L113.801 53.128L114.001 52.6701ZM112.073 51.8248L112.059 51.325L110.03 51.381L110.044 51.8808L110.058 52.3806L112.087 52.3247L112.073 51.8248ZM110.044 51.8808L109.788 51.4516L107.622 52.7457L107.879 53.1749L108.135 53.6041L110.301 52.31L110.044 51.8808ZM107.879 53.1749L107.907 52.6757L105.897 52.5629L105.869 53.0621L105.841 53.5613L107.851 53.6741L107.879 53.1749ZM105.869 53.0621L106.268 52.7608L104.504 50.4253L104.105 50.7266L103.706 51.0279L105.47 53.3634L105.869 53.0621ZM104.105 50.7266L104.032 50.2319L101.976 50.535L102.049 51.0296L102.122 51.5243L104.178 51.2212L104.105 50.7266ZM102.049 51.0296L102.07 50.5301L100.058 50.445L100.037 50.9446L100.015 51.4441L102.028 51.5292L102.049 51.0296ZM100.037 50.9446L99.8771 50.4707L97.7765 51.1774L97.9359 51.6513L98.0954 52.1252L100.196 51.4185L100.037 50.9446ZM97.9359 51.6513L98.1961 51.2243L96.3016 50.0701L96.0415 50.4971L95.7813 50.9241L97.6758 52.0783L97.9359 51.6513ZM96.0415 50.4971L95.9304 50.0096L93.8557 50.4826L93.9668 50.9701L94.078 51.4576L96.1526 50.9846L96.0415 50.4971ZM93.9668 50.9701L94.2426 50.5531L92.3583 49.3069L92.0825 49.724L91.8067 50.141L93.691 51.3872L93.9668 50.9701ZM92.0825 49.724L92.0401 49.2258L89.9985 49.3998L90.041 49.898L90.0834 50.3962L92.125 50.2222L92.0825 49.724ZM90.041 49.898L89.917 49.4136L87.8357 49.9464L87.9597 50.4308L88.0837 50.9152L90.165 50.3824L90.041 49.898ZM87.9597 50.4308L88.2015 49.9932L86.2959 48.9399L86.054 49.3775L85.8122 49.8151L87.7178 50.8684L87.9597 50.4308ZM86.054 49.3775L86.0984 48.8795L84.0958 48.7012L84.0515 49.1992L84.0072 49.6973L86.0097 49.8756L86.054 49.3775ZM84.0515 49.1992L84.0899 48.7007L82.0848 48.5461L82.0463 49.0446L82.0079 49.5431L84.013 49.6978L84.0515 49.1992ZM82.0463 49.0446L82.0055 48.5463L79.9647 48.7136L80.0055 49.2119L80.0464 49.7102L82.0872 49.5429L82.0463 49.0446ZM80.0055 49.2119L80.2228 48.7616L78.3032 47.8351L78.0858 48.2854L77.8685 48.7357L79.7882 49.6622L80.0055 49.2119ZM78.0858 48.2854L77.7996 47.8755L75.6077 49.406L75.894 49.816L76.1803 50.2259L78.3721 48.6954L78.0858 48.2854ZM75.894 49.816L76.1269 49.3735L74.216 48.3678L73.9831 48.8103L73.7503 49.2528L75.6612 50.2584L75.894 49.816ZM73.9831 48.8103L74.3336 48.4537L72.5099 46.6611L72.1594 47.0177L71.8089 47.3743L73.6326 49.1669L73.9831 48.8103ZM72.1594 47.0177L72.0501 46.5298L69.9764 46.9941L70.0857 47.482L70.1949 47.9699L72.2686 47.5056L72.1594 47.0177ZM70.0857 47.482L69.8422 47.0453L67.6869 48.2466L67.9303 48.6833L68.1737 49.1201L70.3291 47.9188L70.0857 47.482ZM67.9303 48.6833L68.0394 48.1954L66.066 47.754L65.9569 48.242L65.8478 48.7299L67.8212 49.1713L67.9303 48.6833ZM65.9569 48.242L66.3112 47.8891L64.4913 46.0619L64.137 46.4148L63.7827 46.7676L65.6026 48.5948L65.9569 48.242ZM64.137 46.4148L64.1176 45.9151L62.0866 45.9939L62.106 46.4935L62.1254 46.9931L64.1564 46.9144L64.137 46.4148ZM62.106 46.4935L61.8727 46.0512L59.725 47.1839L59.9582 47.6262L60.1915 48.0684L62.3392 46.9358L62.106 46.4935ZM59.9582 47.6262L59.9097 47.1285L57.8653 47.3279L57.9138 47.8256L57.9624 48.3232L60.0067 48.1238L59.9582 47.6262ZM57.9138 47.8256L58.1112 47.3661L56.1807 46.537L55.9834 46.9964L55.7861 47.4558L57.7165 48.285L57.9138 47.8256ZM55.9834 46.9964L56.183 46.538L54.2537 45.698L54.0541 46.1564L53.8545 46.6148L55.7838 47.4548L55.9834 46.9964ZM54.0541 46.1564L54.0421 45.6566L52.0144 45.7054L52.0264 46.2053L52.0385 46.7051L54.0662 46.6563L54.0541 46.1564ZM52.0264 46.2053L52.2513 45.7587L50.3359 44.7942L50.111 45.2407L49.8861 45.6873L51.8016 46.6519L52.0264 46.2053ZM50.111 45.2407L50.1626 44.7434L48.1633 44.5359L48.1117 45.0332L48.0601 45.5306L50.0594 45.7381L50.111 45.2407ZM48.1117 45.0332L48.2716 44.5595L46.3222 43.9015L46.1623 44.3752L46.0024 44.849L47.9518 45.507L48.1117 45.0332ZM46.1623 44.3752L45.9348 43.93L43.7912 45.0249L44.0187 45.4702L44.2461 45.9154L46.3897 44.8205L46.1623 44.3752ZM44.0187 45.4702L44.139 44.9848L42.1707 44.497L42.0504 44.9823L41.9301 45.4676L43.8984 45.9555L44.0187 45.4702ZM42.0504 44.9823L42.0273 44.4828L39.9946 44.5769L40.0177 45.0763L40.0408 45.5758L42.0735 45.4817L42.0504 44.9823ZM40.0177 45.0763L40.0932 44.5821L38.1045 44.2785L38.0291 44.7727L37.9536 45.267L39.9423 45.5706L40.0177 45.0763ZM38.0291 44.7727L38.2786 44.3394L36.3775 43.2449L36.128 43.6782L35.8785 44.1115L37.7796 45.206L38.0291 44.7727ZM36.128 43.6782L36.2671 43.1979L34.3077 42.6303L34.1686 43.1106L34.0295 43.5908L35.9889 44.1584L36.128 43.6782ZM34.1686 43.1106L34.2183 42.6131L32.2181 42.4132L32.1684 42.9107L32.1187 43.4083L34.1189 43.6081L34.1686 43.1106ZM32.1684 42.9107L31.9377 42.4672L29.7917 43.5837L30.0225 44.0272L30.2532 44.4708L32.3992 43.3543L32.1684 42.9107ZM30.0225 44.0272L29.9113 43.5398L27.8366 44.0128L27.9478 44.5003L28.0589 44.9878L30.1336 44.5147L30.0225 44.0272ZM27.9478 44.5003L28.0821 44.0187L26.1204 43.4717L25.9861 43.9533L25.8518 44.4349L27.8135 44.9819L27.9478 44.5003ZM25.9861 43.9533L26.3486 43.609L24.5375 41.7022L24.175 42.0466L23.8125 42.3909L25.6235 44.2976L25.9861 43.9533ZM24.175 42.0466L24.1221 41.5494L22.0756 41.7672L22.1286 42.2644L22.1815 42.7616L24.2279 42.5438L24.175 42.0466ZM22.1286 42.2644L22.112 41.7646L20.0823 41.8317L20.0988 42.3315L20.1154 42.8312L22.1451 42.7641L22.1286 42.2644ZM20.0988 42.3315L20.3175 41.8818L18.3986 40.9487L18.1799 41.3983L17.9613 41.848L19.8802 42.7811L20.0988 42.3315ZM18.1799 41.3983L17.9367 40.9615L15.7814 42.1616L16.0247 42.5985L16.2679 43.0353L18.4232 41.8352L18.1799 41.3983ZM16.0247 42.5985L16.3635 42.2308L14.5285 40.5401L14.1897 40.9078L13.8509 41.2755L15.6859 42.9662L16.0247 42.5985ZM14.1897 40.9078L14.2319 40.4096L12.2285 40.2396L12.1862 40.7378L12.1439 41.236L14.1474 41.406L14.1897 40.9078ZM12.1862 40.7378L11.9885 40.2785L9.86484 41.1927L10.0625 41.652L10.2602 42.1112L12.3839 41.197L12.1862 40.7378ZM10.0625 41.652L10.429 41.3119L8.82555 39.5841L8.45906 39.9242L8.09257 40.2643L9.69605 41.9921L10.0625 41.652ZM8.45906 39.9242L8.48752 39.425L6.50667 39.3121L6.47821 39.8113L6.44975 40.3105L8.4306 40.4234L8.45906 39.9242ZM6.47821 39.8113L6.88643 39.5225L5.74411 37.9074L5.33589 38.1962L4.92768 38.4849L6.06999 40.1L6.47821 39.8113ZM5.33589 38.1962L5.35493 37.6965L2.56047 37.5901L2.54144 38.0897L2.52241 38.5894L5.31686 38.6958L5.33589 38.1962ZM2.54144 38.0897L3.03576 38.0146L2.6922 35.7539L2.19788 35.829L1.70355 35.9041L2.04712 38.1648L2.54144 38.0897ZM2.19788 35.829L2.69786 35.8335L2.71638 33.7616L2.2164 33.7572L1.71642 33.7527L1.6979 35.8245L2.19788 35.829ZM2.2164 33.7572L2.70054 33.6322L2.22854 31.8031L1.7444 31.928L1.26026 32.0529L1.73225 33.8821L2.2164 33.7572ZM1.7444 31.928L2.22073 31.776L1.58268 29.7766L1.10635 29.9286L0.630012 30.0806L1.26806 32.08L1.7444 31.928ZM1.10635 29.9286L1.58948 29.7998L1.03401 27.716L0.550875 27.8447L0.0677456 27.9735L0.623217 30.0573L1.10635 29.9286ZM0.550875 27.8447L0.930609 28.17L2.51275 26.323L2.13302 25.9977L1.75329 25.6724L0.171142 27.5195L0.550875 27.8447ZM2.13302 25.9977L2.62992 25.9421L2.40077 23.8944L1.90387 23.95L1.40697 24.0056L1.63612 26.0533L2.13302 25.9977ZM1.90387 23.95L2.40084 23.8951L2.17447 21.8477L1.6775 21.9027L1.18053 21.9576L1.4069 24.005L1.90387 23.95ZM1.6775 21.9027L2.12147 22.1326L3.11216 20.2201L2.66819 19.9901L2.22422 19.7601L1.23353 21.6727L1.6775 21.9027ZM2.66819 19.9901L3.0954 20.2499L4.24758 18.3552L3.82037 18.0954L3.39316 17.8356L2.24098 19.7303L2.66819 19.9901ZM3.82037 18.0954L4.28819 17.9189L3.49198 15.8085L3.02417 15.9849L2.55635 16.1614L3.35256 18.2719L3.82037 18.0954ZM3.02417 15.9849L3.49541 15.8178L2.74892 13.7128L2.27768 13.88L1.80643 14.0471L2.55292 16.1521L3.02417 15.9849ZM2.27768 13.88L2.77601 13.8392L2.60901 11.7984L2.11067 11.8392L1.61234 11.88L1.77934 13.9207L2.27768 13.88ZM2.11067 11.8392L2.52882 12.1133L3.76994 10.2202L3.35179 9.94606L2.93364 9.67193L1.69252 11.565L2.11067 11.8392ZM3.35179 9.94606L3.71873 10.2857L5.20993 8.67465L4.84299 8.33501L4.47605 7.99537L2.98485 9.60642L3.35179 9.94606ZM4.84299 8.33501L5.33698 8.4123L5.64359 6.45255L5.1496 6.37526L4.65561 6.29798L4.349 8.25772L4.84299 8.33501ZM5.1496 6.37526L5.59407 6.60427L6.5219 4.80349L6.07743 4.57448L5.63295 4.34548L4.70513 6.14625L5.1496 6.37526ZM6.07743 4.57448L6.50302 4.83691L7.65755 2.96457L7.23195 2.70214L6.80636 2.43971L5.65183 4.31205L6.07743 4.57448ZM7.23195 2.70214L7.14249 3.19407L9.68889 3.65715L9.77835 3.16522L9.86781 2.67329L7.32141 2.21021L7.23195 2.70214ZM9.77835 3.16522L10.1777 3.46608L11.633 1.5344L11.2337 1.23353L10.8343 0.932667L9.379 2.86435L9.77835 3.16522ZM11.2337 1.23353L11.1635 1.72859L13.2685 2.02687L13.3386 1.53182L13.4088 1.03677L11.3038 0.738478L11.2337 1.23353ZM13.3386 1.53182L13.5709 1.97457L14.814 1.32231L14.5817 0.87956L14.3494 0.436806L13.1063 1.08907L13.3386 1.53182ZM14.5817 0.87956L14.0848 0.824513L14.0044 1.55029L14.5013 1.60534L14.9983 1.66038L15.0787 0.934607L14.5817 0.87956Z" fill="#342E84"/>
<text transform="translate(20.0245 6.2417) rotate(6.32074)" fill="#FDFDFD" xml:space="preserve" style="white-space: pre" font-family="DiodrumArabic-Semibold" font-size="16" letter-spacing="0em"><tspan x="0.046875" y="20.704">&#x627;&#x644;&#x627;&#x633;&#x626;&#x644;&#x629; &#x627;&#x644;&#x634;&#x627;&#x626;&#x639;&#x629;</tspan></text>
</svg>
