<svg width="184" height="61" viewBox="0 0 184 61" fill="none" xmlns="http://www.w3.org/2000/svg">
<path d="M3.8036 10.6179C4.41163 5.12865 9.35448 1.17162 14.8438 1.77965L172.877 19.2846C178.366 19.8927 182.324 24.8355 181.715 30.3248L179.514 50.2032C178.906 55.6925 173.963 59.6495 168.473 59.0415L10.44 41.5365C4.95072 40.9285 0.993684 35.9856 1.60172 30.4963L3.8036 10.6179Z" fill="#32A1DB"/>
<path d="M14.8438 1.77965L14.4376 2.07123L14.5674 2.2521L14.7887 2.27661L14.8438 1.77965ZM14.9431 1.79066L15.2167 1.37213L15.1168 1.30684L14.9982 1.2937L14.9431 1.79066ZM16.7351 2.96191L16.4615 3.38044L16.7445 3.56538L17.0215 3.37172L16.7351 2.96191ZM18.9271 1.42974L19.2675 1.06347L18.9716 0.788575L18.6406 1.01993L18.9271 1.42974ZM20.7607 3.13358L20.4203 3.49986L20.6345 3.69891L20.913 3.60981L20.7607 3.13358ZM22.8572 2.46286L22.8199 1.96425L22.7611 1.96866L22.7049 1.98663L22.8572 2.46286ZM24.8964 2.31022L25.0639 1.83909L24.9644 1.80374L24.8591 1.81162L24.8964 2.31022ZM26.8421 3.00171L27.1176 2.58442L27.0669 2.55094L27.0096 2.53058L26.8421 3.00171ZM28.7267 4.24559L28.4512 4.66289L28.6092 4.76717L28.7967 4.74067L28.7267 4.24559ZM30.7811 3.95506L30.797 3.45531L30.7539 3.45394L30.7111 3.45999L30.7811 3.95506ZM32.7963 4.01918L32.7804 4.51893L32.8154 4.52004L32.8501 4.51628L32.7963 4.01918ZM34.8432 3.79766L35.1361 3.39247L34.9804 3.27989L34.7894 3.30057L34.8432 3.79766ZM36.7155 5.15132L36.4226 5.55652L36.616 5.69638L36.8464 5.63388L36.7155 5.15132ZM38.8005 4.58566L38.674 4.1019L38.6695 4.10311L38.8005 4.58566ZM40.8831 4.04123L40.9641 3.54783L40.8593 3.53063L40.7566 3.55748L40.8831 4.04123ZM42.8692 4.36736L43.1314 3.9416L43.0475 3.88994L42.9502 3.87397L42.8692 4.36736ZM44.7624 5.53304L44.5002 5.9588L44.7321 6.10156L44.9778 5.98426L44.7624 5.53304ZM46.8976 4.51369L47.0389 4.03407L46.8551 3.97993L46.6822 4.06247L46.8976 4.51369ZM48.856 5.09058L48.7147 5.5702L48.8066 5.59727L48.902 5.58846L48.856 5.09058ZM50.8992 4.90173L51.2442 4.53982L51.0796 4.38292L50.8532 4.40385L50.8992 4.90173ZM52.7283 6.64546L52.3833 7.00737L52.5947 7.20882L52.874 7.12379L52.7283 6.64546ZM54.8212 6.00836L54.7753 5.51048L54.7244 5.51517L54.6756 5.53003L54.8212 6.00836ZM56.8644 5.81983L56.8754 5.31996L56.8469 5.31933L56.8184 5.32195L56.8644 5.81983ZM58.8818 5.8642L58.9992 5.37817L58.9467 5.36551L58.8928 5.36432L58.8818 5.8642ZM60.8514 6.33991L60.734 6.82593L60.7477 6.82925L60.7616 6.83179L60.8514 6.33991ZM62.8336 6.70147L62.7439 7.19336L62.83 7.20906L62.9163 7.19459L62.8336 6.70147ZM64.8942 6.35595L65.088 5.89506L64.9544 5.83886L64.8115 5.86283L64.8942 6.35595ZM66.8264 7.16869L66.6326 7.62958L66.66 7.64109L66.6885 7.64928L66.8264 7.16869ZM68.7864 7.73121L68.6485 8.2118L68.7733 8.24763L68.8998 8.21819L68.7864 7.73121ZM70.8622 7.248L70.9788 6.76178L70.8639 6.73423L70.7489 6.76102L70.8622 7.248ZM72.8322 7.72037L72.7156 8.20659L72.8094 8.22907L72.9048 8.21507L72.8322 7.72037ZM74.8879 7.41877L75.2174 7.04265L75.0437 6.89055L74.8153 6.92406L74.8879 7.41877ZM76.7313 9.03349L76.4019 9.40961L76.6761 9.64975L76.9886 9.46225L76.7313 9.03349ZM78.8976 7.73383L79.2239 7.35499L78.9502 7.11921L78.6404 7.30508L78.8976 7.73383ZM80.7438 9.32395L80.4175 9.7028L80.6102 9.86879L80.8578 9.81077L80.7438 9.32395ZM82.8199 8.83755L83.018 8.37844L82.8665 8.3131L82.7059 8.35073L82.8199 8.83755ZM84.75 9.67008L84.552 10.1292L84.7067 10.1959L84.8702 10.1554L84.75 9.67008ZM86.8293 9.15519L87.0011 8.6856L86.8575 8.63311L86.7092 8.66985L86.8293 9.15519ZM88.7729 9.86595L89.0766 9.46878L89.0161 9.42252L88.9446 9.39637L88.7729 9.86595ZM90.6373 11.2917L90.3335 11.6888L90.5531 11.8567L90.812 11.7601L90.6373 11.2917ZM92.7467 10.5049L92.997 10.072L92.7929 9.95402L92.572 10.0364L92.7467 10.5049ZM94.6473 11.6037L94.397 12.0366L94.5134 12.1039L94.6478 12.1037L94.6473 11.6037ZM96.6698 11.6017L96.7951 11.1176L96.7332 11.1016L96.6693 11.1017L96.6698 11.6017ZM98.6357 12.1105L98.5105 12.5945L98.6204 12.623L98.7318 12.6011L98.6357 12.1105ZM100.703 11.7057L100.929 11.2595L100.775 11.182L100.607 11.215L100.703 11.7057ZM102.618 12.6744L102.392 13.1206L102.5 13.1751L102.621 13.1744L102.618 12.6744ZM104.641 12.6626L104.644 13.1626L104.823 13.1615L104.961 13.0472L104.641 12.6626ZM106.869 10.8122L107.171 10.4142L106.855 10.1736L106.549 10.4276L106.869 10.8122ZM108.734 12.2308L108.431 12.6288L108.539 12.7107L108.673 12.7271L108.734 12.2308ZM110.729 12.4746L110.669 12.9709L110.785 12.9851L110.896 12.946L110.729 12.4746ZM112.834 11.7299L112.958 11.2455L112.81 11.2079L112.667 11.2586L112.834 11.7299ZM114.801 12.2326L114.677 12.717L114.747 12.7349L114.819 12.7323L114.801 12.2326ZM116.831 12.1595L117.04 11.7054L116.932 11.6555L116.813 11.6598L116.831 12.1595ZM118.755 13.0467L119.073 12.6606L119.023 12.6197L118.964 12.5927L118.755 13.0467ZM120.608 14.5719L120.291 14.958L120.482 15.1153L120.723 15.0586L120.608 14.5719ZM122.685 14.083L122.774 13.591L122.672 13.5724L122.57 13.5963L122.685 14.083ZM124.667 14.443L124.578 14.935L124.763 14.9685L124.924 14.8723L124.667 14.443ZM126.833 13.149L127.222 12.8356L126.95 12.4967L126.576 12.7198L126.833 13.149ZM128.61 15.3588L128.221 15.6722L128.541 16.0704L128.932 15.7415L128.61 15.3588ZM130.84 13.4838L131.202 13.1391L130.878 12.7986L130.519 13.1011L130.84 13.4838ZM132.652 15.3869L132.29 15.7316L132.511 15.9644L132.815 15.8594L132.652 15.3869ZM134.755 14.6605L134.628 14.1767L134.61 14.1816L134.591 14.1879L134.755 14.6605ZM136.837 14.1179L137.251 13.8373L137.053 13.5451L136.711 13.6341L136.837 14.1179ZM138.575 16.6811L138.162 16.9618L138.3 17.1659L138.546 17.1803L138.575 16.6811ZM140.585 16.7985L140.555 17.2977L140.663 17.304L140.764 17.2653L140.585 16.7985ZM142.697 15.9868L142.95 15.5555L142.742 15.4338L142.517 15.5201L142.697 15.9868ZM144.596 17.1004L144.343 17.5317L144.568 17.6637L144.805 17.5547L144.596 17.1004ZM146.727 16.1203L146.835 15.6322L146.671 15.5956L146.518 15.666L146.727 16.1203ZM148.7 16.5596L148.592 17.0477L148.746 17.0821L148.892 17.0212L148.7 16.5596ZM150.82 15.6766L151.145 15.2961L150.911 15.097L150.628 15.215L150.82 15.6766ZM152.668 17.252L152.344 17.6325L152.539 17.7989L152.788 17.7375L152.668 17.252ZM154.747 16.7389L154.67 16.2448L154.649 16.2482L154.627 16.2534L154.747 16.7389ZM156.805 16.4184L156.835 15.9193L156.781 15.9161L156.728 15.9244L156.805 16.4184ZM158.814 16.5374L159.09 16.1202L158.978 16.0462L158.844 16.0382L158.814 16.5374ZM160.699 17.7829L160.423 18.2L160.556 18.2879L160.715 18.2826L160.699 17.7829ZM162.728 17.7157L162.911 17.2502L162.815 17.2125L162.712 17.216L162.728 17.7157ZM164.666 18.4761L164.484 18.9416L164.638 19.0022L164.798 18.9584L164.666 18.4761ZM166.752 17.9053L166.901 17.428L166.761 17.3844L166.62 17.423L166.752 17.9053ZM168.707 18.5153L168.558 18.9926L168.696 19.0358L168.836 18.9982L168.707 18.5153ZM170.791 17.9561L170.974 17.4907L170.82 17.4304L170.661 17.4731L170.791 17.9561ZM172.729 18.7175L173.127 18.4151L173.042 18.3034L172.912 18.2521L172.729 18.7175ZM174.299 20.7855L173.901 21.0879L173.987 21.2016L174.121 21.2526L174.299 20.7855ZM175.953 21.4173L175.775 21.8844L175.823 21.9029L175.875 21.9111L175.953 21.4173ZM177.982 21.7392L178.091 21.2511L178.076 21.2478L178.06 21.2454L177.982 21.7392ZM180.409 22.2785L180.908 22.2481L180.885 21.8721L180.517 21.7904L180.409 22.2785ZM180.556 24.6921L180.057 24.7225L180.06 24.7825L180.078 24.8398L180.556 24.6921ZM181.139 26.5769L180.661 26.7246L180.687 26.8075L180.739 26.8769L181.139 26.5769ZM182.522 28.4217L182.989 28.6002L183.088 28.3424L182.922 28.1216L182.522 28.4217ZM181.732 30.489L181.265 30.3104L181.255 30.3348L181.249 30.3601L181.732 30.489ZM181.208 32.4532L180.725 32.3243L180.718 32.3489L180.714 32.3739L181.208 32.4532ZM180.889 34.4402L180.395 34.3609L180.39 34.3937L180.389 34.4269L180.889 34.4402ZM180.835 36.4565L181.293 36.6572L181.332 36.5676L181.335 36.4698L180.835 36.4565ZM179.99 38.3852L179.532 38.1845L179.487 38.2871L179.49 38.399L179.99 38.3852ZM180.046 40.4137L179.546 40.4275L179.55 40.558L179.617 40.6702L180.046 40.4137ZM181.34 42.5793L181.839 42.6073L181.848 42.4544L181.769 42.3228L181.34 42.5793ZM181.227 44.5891L181.528 44.9881L181.713 44.8485L181.726 44.6171L181.227 44.5891ZM178.892 46.3527L178.59 45.9537L178.354 46.1323L178.397 46.4256L178.892 46.3527ZM179.195 48.4086L179.694 48.4303L179.696 48.3828L179.689 48.3357L179.195 48.4086ZM179.107 50.4121L178.608 50.3904L178.605 50.4501L178.617 50.5086L179.107 50.4121ZM179.537 52.598L179.86 52.9802L180.085 52.7904L180.028 52.5015L179.537 52.598ZM177.833 54.0352L177.511 53.653L177.4 53.7465L177.356 53.8849L177.833 54.0352ZM177.197 56.0545L177.32 56.539L177.59 56.4702L177.674 56.2048L177.197 56.0545ZM175.047 56.6029L174.924 56.1184L174.804 56.149L174.712 56.2322L175.047 56.6029ZM173.606 57.9075L173.923 58.294L173.932 58.2863L173.941 58.2782L173.606 57.9075ZM171.939 59.2751L171.808 59.7576L172.057 59.8252L172.256 59.6616L171.939 59.2751ZM169.839 58.7041L169.97 58.2216L169.916 58.2069L169.86 58.2046L169.839 58.7041ZM167.883 58.6215L167.845 59.12L167.853 59.1206L167.862 59.121L167.883 58.6215ZM165.878 58.4668L165.917 57.9683L165.877 57.9652L165.837 57.9685L165.878 58.4668ZM163.837 58.6341L163.62 59.0844L163.743 59.1436L163.878 59.1324L163.837 58.6341ZM161.918 57.7077L162.135 57.2574L161.871 57.1301L161.631 57.2977L161.918 57.7077ZM159.726 59.2382L159.493 59.6807L159.762 59.8225L160.012 59.6481L159.726 59.2382ZM157.815 58.2325L157.464 58.5891L157.517 58.6407L157.582 58.675L157.815 58.2325ZM155.991 56.4399L156.342 56.0833L156.148 55.8925L155.882 55.952L155.991 56.4399ZM153.917 56.9042L153.808 56.4163L153.737 56.4322L153.674 56.4675L153.917 56.9042ZM151.762 58.1055L151.653 58.5935L151.839 58.6351L152.006 58.5423L151.762 58.1055ZM149.789 57.6642L149.434 58.017L149.537 58.1203L149.68 58.1522L149.789 57.6642ZM147.969 55.837L148.323 55.4841L148.168 55.3289L147.949 55.3374L147.969 55.837ZM145.938 55.9157L145.918 55.4161L145.805 55.4205L145.705 55.4735L145.938 55.9157ZM143.79 57.0484L143.839 57.546L143.936 57.5365L144.023 57.4907L143.79 57.0484ZM141.746 57.2478L141.548 57.7072L141.666 57.7579L141.794 57.7454L141.746 57.2478ZM139.815 56.4186L139.616 56.8771L139.618 56.878L139.815 56.4186ZM137.886 55.5786L138.086 55.1202L137.984 55.0761L137.874 55.0788L137.886 55.5786ZM135.858 55.6275L135.633 56.0741L135.745 56.1304L135.87 56.1274L135.858 55.6275ZM133.943 54.663L134.168 54.2164L134.086 54.1751L133.994 54.1656L133.943 54.663ZM131.943 54.4555L131.784 54.9292L131.836 54.947L131.892 54.9528L131.943 54.4555ZM129.994 53.7975L130.154 53.3237L129.954 53.2563L129.767 53.3522L129.994 53.7975ZM127.85 54.8924L127.73 55.3777L127.912 55.4227L128.078 55.3377L127.85 54.8924ZM125.882 54.4045L126.003 53.9192L125.932 53.9017L125.859 53.905L125.882 54.4045ZM123.85 54.4985L123.774 54.9928L123.823 55.0003L123.873 54.998L123.85 54.4985ZM121.861 54.195L121.611 54.6283L121.693 54.6751L121.785 54.6892L121.861 54.195ZM119.96 53.1004L120.209 52.6671L120.157 52.6369L120.099 52.6201L119.96 53.1004ZM118 52.5328L118.14 52.0526L118.096 52.0398L118.05 52.0353L118 52.5328ZM116 52.333L116.05 51.8354L115.902 51.8206L115.769 51.8894L116 52.333ZM113.854 53.4495L113.965 53.937L114.028 53.9227L114.085 53.893L113.854 53.4495ZM111.78 53.9225L111.645 54.4042L111.767 54.4382L111.891 54.41L111.78 53.9225ZM109.818 53.3755L109.455 53.7199L109.55 53.82L109.684 53.8571L109.818 53.3755ZM108.007 51.4688L108.369 51.1245L108.199 50.9455L107.954 50.9716L108.007 51.4688ZM105.96 51.6866L105.977 52.1863L105.995 52.1857L106.013 52.1838L105.96 51.6866ZM103.931 51.7537L103.712 52.2033L103.823 52.2575L103.947 52.2534L103.931 51.7537ZM102.012 50.8206L102.23 50.3709L101.996 50.257L101.768 50.3837L102.012 50.8206ZM99.8565 52.0207L99.5177 52.3884L99.7837 52.6335L100.1 52.4575L99.8565 52.0207ZM98.0214 50.33L98.3602 49.9623L98.2343 49.8463L98.0637 49.8318L98.0214 50.33ZM96.018 50.16L96.0603 49.6618L95.9354 49.6512L95.8203 49.7007L96.018 50.16ZM93.8944 51.0742L93.5701 51.4547L93.8066 51.6564L94.0921 51.5335L93.8944 51.0742ZM92.0466 49.499L92.371 49.1185L92.1807 48.9563L91.9367 49.0113L92.0466 49.499ZM89.9725 49.9664L89.7641 50.4209L89.9176 50.4914L90.0825 50.4542L89.9725 49.9664ZM88.048 49.0837L88.2565 48.6292L87.9794 48.5021L87.7395 48.6902L88.048 49.0837ZM85.8334 50.8199L85.5789 51.2503L85.873 51.4242L86.1419 51.2134L85.8334 50.8199ZM83.9355 49.6975L84.19 49.2671L84.1749 49.2582L84.1592 49.2503L83.9355 49.6975ZM82.0194 48.7385L82.2432 48.2914L82.1415 48.2405L82.0278 48.2386L82.0194 48.7385ZM80.0009 48.7044L80.0093 48.2045L79.9453 48.2034L79.8831 48.2184L80.0009 48.7044ZM77.9228 49.2079L77.805 48.7219L77.794 48.7248L77.9228 49.2079ZM75.839 49.7634L75.5137 50.1431L75.7135 50.3143L75.9678 50.2465L75.839 49.7634ZM73.9919 48.1813L74.3172 47.8015L74.1522 47.6602L73.9363 47.6844L73.9919 48.1813ZM71.9443 48.4104L71.9992 48.9074L71.9999 48.9073L71.9443 48.4104ZM69.8969 48.6368L69.6669 49.0808L69.8014 49.1504L69.9519 49.1338L69.8969 48.6368ZM67.9843 47.6461L67.7246 48.0733L67.7392 48.0822L67.7544 48.0901L67.9843 47.6461ZM66.0897 46.4939L66.3495 46.0667L66.1412 45.9401L65.9132 46.0261L66.0897 46.4939ZM63.9792 47.2901L64.1463 47.7615L64.1557 47.7579L63.9792 47.2901ZM61.8742 48.0366L61.915 48.535L61.9799 48.5296L62.0413 48.5079L61.8742 48.0366ZM59.8334 48.2036L59.5604 48.6225L59.7037 48.7159L59.8742 48.702L59.8334 48.2036ZM57.9473 46.9746L57.6704 47.3909L57.6743 47.3935L57.9473 46.9746ZM56.0637 45.722L56.3406 45.3056L56.173 45.1942L55.975 45.2299L56.0637 45.722ZM54.0002 46.094L54.0373 46.5926L54.0633 46.5907L54.0889 46.5861L54.0002 46.094ZM51.9611 46.2456L51.9241 45.747L51.8896 45.7495L51.8558 45.7568L51.9611 46.2456ZM49.8894 46.6922L49.5311 47.0409L49.7241 47.2393L49.9947 47.181L49.8894 46.6922ZM48.0737 44.8267L48.432 44.478L48.1671 44.2058L47.8339 44.388L48.0737 44.8267ZM45.9211 46.0034L45.743 46.4706L45.9585 46.5528L46.1609 46.4422L45.9211 46.0034ZM43.9807 45.2638L44.1588 44.7966L44.015 44.7418L43.8653 44.7773L43.9807 45.2638ZM41.9039 45.7564L41.5449 46.1045L41.7428 46.3084L42.0192 46.2429L41.9039 45.7564ZM40.0888 43.885L40.4478 43.5369L40.2681 43.3517L40.0131 43.3908L40.0888 43.885ZM38.0316 44.2004L38.0739 44.6986L38.0907 44.6972L38.1074 44.6946L38.0316 44.2004ZM35.9902 44.3735L35.6989 44.7799L35.8487 44.8873L36.0324 44.8717L35.9902 44.3735ZM34.1166 43.0306L34.4079 42.6242L34.1248 42.4213L33.8364 42.6165L34.1166 43.0306ZM31.9305 44.5099L31.7208 44.9638L31.977 45.0821L32.2107 44.924L31.9305 44.5099ZM30.0066 43.6215L30.2162 43.1675L30.1111 43.119L29.9953 43.1216L30.0066 43.6215ZM27.9792 43.6671L27.6582 44.0504L27.8024 44.1712L27.9905 44.1669L27.9792 43.6671ZM26.1286 42.117L26.4497 41.7337L26.1859 41.5127L25.8853 41.6802L26.1286 42.117ZM23.9734 43.3176L23.8989 43.812L24.0676 43.8374L24.2167 43.7544L23.9734 43.3176ZM21.9842 43.0179L21.6803 43.415L21.7825 43.4932L21.9098 43.5123L21.9842 43.0179ZM20.12 41.5909L20.4239 41.1939L20.3124 41.1085L20.1728 41.0937L20.12 41.5909ZM18.1212 41.3789L18.174 40.8816L18.0243 40.8658L17.8907 40.9351L18.1212 41.3789ZM15.9755 42.4934L15.9803 42.9934L16.0999 42.9922L16.2059 42.9371L15.9755 42.4934ZM13.951 42.5132L13.6156 42.884L13.7605 43.015L13.9559 43.0131L13.951 42.5132ZM12.1128 40.8508L12.4482 40.48L12.307 40.3523L12.1167 40.3508L12.1128 40.8508ZM10.1193 40.8352L10.1232 40.3352L10.0969 40.335L10.0707 40.3376L10.1193 40.8352ZM8.05648 41.0367L7.77539 41.4502L7.92502 41.552L8.10509 41.5344L8.05648 41.0367ZM6.39411 39.9067L5.95645 40.1485L6.01422 40.2531L6.11302 40.3202L6.39411 39.9067ZM5.40352 38.1135L5.84118 37.8717L5.70325 37.622L5.41813 37.6137L5.40352 38.1135ZM2.4252 38.0265L1.93173 38.107L1.9982 38.5142L2.41059 38.5263L2.4252 38.0265ZM2.05473 35.7572L2.5482 35.6766L2.53112 35.572L2.47306 35.4833L2.05473 35.7572ZM0.841067 33.9032L0.3573 33.7769L0.301234 33.9915L0.422735 34.1771L0.841067 33.9032ZM1.41352 31.7118L1.89729 31.8382L1.93999 31.6747L1.87477 31.5188L1.41352 31.7118ZM0.520566 29.5775L0.0305462 29.4781L-6.25587e-06 29.6287L0.0593091 29.7705L0.520566 29.5775ZM0.921781 27.5996L1.4118 27.6991L1.41982 27.6595L1.4214 27.6192L0.921781 27.5996ZM1.00057 25.5861L0.644477 25.2351L0.508521 25.373L0.500949 25.5665L1.00057 25.5861ZM2.79772 23.7629L3.15381 24.1139L3.23237 24.0341L3.26946 23.9286L2.79772 23.7629ZM3.48144 21.8163L3.95319 21.982L3.98984 21.8776L3.97906 21.7675L3.48144 21.8163ZM3.28116 19.7718L3.77878 19.7231L3.77054 19.639L3.73518 19.5624L3.28116 19.7718ZM2.29809 17.6406L1.81785 17.5014L1.76591 17.6806L1.84406 17.8501L2.29809 17.6406ZM2.866 15.6812L3.34624 15.8204L3.37298 15.7282L3.36363 15.6326L2.866 15.6812ZM2.666 13.6368L2.16603 13.6424L2.16627 13.664L2.16837 13.6855L2.666 13.6368ZM2.64328 11.612L2.17104 11.4477L2.14233 11.5302L2.14331 11.6176L2.64328 11.612ZM3.33871 9.61277L2.96568 9.27983L2.89925 9.35427L2.86647 9.4485L3.33871 9.61277ZM4.82964 7.9423L5.20267 8.27524L5.25685 8.21453L5.28899 8.13977L4.82964 7.9423ZM5.60749 6.13287L5.14911 5.93314L5.14813 5.9354L5.60749 6.13287ZM6.45918 4.17831L6.46825 3.67839L6.13425 3.67233L6.00081 3.97857L6.45918 4.17831ZM8.97036 4.22385L8.96129 4.72377L9.20541 4.72819L9.35902 4.5384L8.97036 4.22385ZM10.2591 2.6315L10.3118 2.13429L10.0415 2.10562L9.87044 2.31695L10.2591 2.6315ZM12.2631 2.84405L12.2104 3.34126L12.4619 3.36794L12.6324 3.18109L12.2631 2.84405ZM14.1352 0.792665L14.5414 0.501089L14.1817 3.04219e-06L13.7659 0.455617L14.1352 0.792665ZM14.8438 1.77965L14.7887 2.27661L14.8881 2.28762L14.9431 1.79066L14.9982 1.2937L14.8988 1.28269L14.8438 1.77965ZM14.9431 1.79066L14.6696 2.20919L16.4615 3.38044L16.7351 2.96191L17.0086 2.54338L15.2167 1.37213L14.9431 1.79066ZM16.7351 2.96191L17.0215 3.37172L19.2135 1.83955L18.9271 1.42974L18.6406 1.01993L16.4486 2.5521L16.7351 2.96191ZM18.9271 1.42974L18.5867 1.79601L20.4203 3.49986L20.7607 3.13358L21.101 2.76731L19.2675 1.06347L18.9271 1.42974ZM20.7607 3.13358L20.913 3.60981L23.0096 2.93908L22.8572 2.46286L22.7049 1.98663L20.6083 2.65736L20.7607 3.13358ZM22.8572 2.46286L22.8946 2.96146L24.9338 2.80883L24.8964 2.31022L24.8591 1.81162L22.8199 1.96425L22.8572 2.46286ZM24.8964 2.31022L24.729 2.78135L26.6747 3.47285L26.8421 3.00171L27.0096 2.53058L25.0639 1.83909L24.8964 2.31022ZM26.8421 3.00171L26.5667 3.41901L28.4512 4.66289L28.7267 4.24559L29.0021 3.8283L27.1176 2.58442L26.8421 3.00171ZM28.7267 4.24559L28.7967 4.74067L30.8511 4.45013L30.7811 3.95506L30.7111 3.45999L28.6566 3.75052L28.7267 4.24559ZM30.7811 3.95506L30.7652 4.45481L32.7804 4.51893L32.7963 4.01918L32.8122 3.51943L30.797 3.45531L30.7811 3.95506ZM32.7963 4.01918L32.8501 4.51628L34.897 4.29476L34.8432 3.79766L34.7894 3.30057L32.7425 3.52208L32.7963 4.01918ZM34.8432 3.79766L34.5502 4.20286L36.4226 5.55652L36.7155 5.15132L37.0085 4.74612L35.1361 3.39247L34.8432 3.79766ZM36.7155 5.15132L36.8464 5.63388L38.9314 5.06822L38.8005 4.58566L38.6695 4.10311L36.5846 4.66876L36.7155 5.15132ZM38.8005 4.58566L38.9269 5.06941L41.0095 4.52497L40.8831 4.04123L40.7566 3.55748L38.674 4.10192L38.8005 4.58566ZM40.8831 4.04123L40.802 4.53462L42.7882 4.86075L42.8692 4.36736L42.9502 3.87397L40.9641 3.54783L40.8831 4.04123ZM42.8692 4.36736L42.6071 4.79313L44.5002 5.9588L44.7624 5.53304L45.0246 5.10727L43.1314 3.9416L42.8692 4.36736ZM44.7624 5.53304L44.9778 5.98426L47.113 4.96491L46.8976 4.51369L46.6822 4.06247L44.547 5.08182L44.7624 5.53304ZM46.8976 4.51369L46.7563 4.99331L48.7147 5.5702L48.856 5.09058L48.9973 4.61095L47.0389 4.03407L46.8976 4.51369ZM48.856 5.09058L48.902 5.58846L50.9452 5.3996L50.8992 4.90173L50.8532 4.40385L48.81 4.5927L48.856 5.09058ZM50.8992 4.90173L50.5542 5.26363L52.3833 7.00737L52.7283 6.64546L53.0734 6.28356L51.2442 4.53982L50.8992 4.90173ZM52.7283 6.64546L52.874 7.12379L54.9668 6.48669L54.8212 6.00836L54.6756 5.53003L52.5827 6.16714L52.7283 6.64546ZM54.8212 6.00836L54.8672 6.50625L56.9103 6.31772L56.8644 5.81983L56.8184 5.32195L54.7753 5.51048L54.8212 6.00836ZM56.8644 5.81983L56.8534 6.31971L58.8708 6.36408L58.8818 5.8642L58.8928 5.36432L56.8754 5.31996L56.8644 5.81983ZM58.8818 5.8642L58.7644 6.35022L60.734 6.82593L60.8514 6.33991L60.9688 5.85388L58.9992 5.37817L58.8818 5.8642ZM60.8514 6.33991L60.7616 6.83179L62.7439 7.19336L62.8336 6.70147L62.9233 6.20959L60.9411 5.84802L60.8514 6.33991ZM62.8336 6.70147L62.9163 7.19459L64.9769 6.84906L64.8942 6.35595L64.8115 5.86283L62.7509 6.20836L62.8336 6.70147ZM64.8942 6.35595L64.7003 6.81684L66.6326 7.62958L66.8264 7.16869L67.0203 6.7078L65.088 5.89506L64.8942 6.35595ZM66.8264 7.16869L66.6885 7.64928L68.6485 8.2118L68.7864 7.73121L68.9244 7.25061L66.9644 6.68809L66.8264 7.16869ZM68.7864 7.73121L68.8998 8.21819L70.9756 7.73498L70.8622 7.248L70.7489 6.76102L68.6731 7.24423L68.7864 7.73121ZM70.8622 7.248L70.7457 7.73421L72.7156 8.20659L72.8322 7.72037L72.9488 7.23415L70.9788 6.76178L70.8622 7.248ZM72.8322 7.72037L72.9048 8.21507L74.9605 7.91347L74.8879 7.41877L74.8153 6.92406L72.7596 7.22566L72.8322 7.72037ZM74.8879 7.41877L74.5585 7.79488L76.4019 9.40961L76.7313 9.03349L77.0608 8.65738L75.2174 7.04265L74.8879 7.41877ZM76.7313 9.03349L76.9886 9.46225L79.1548 8.16259L78.8976 7.73383L78.6404 7.30508L76.4741 8.60474L76.7313 9.03349ZM78.8976 7.73383L78.5713 8.11268L80.4175 9.7028L80.7438 9.32395L81.0701 8.9451L79.2239 7.35499L78.8976 7.73383ZM80.7438 9.32395L80.8578 9.81077L82.934 9.32436L82.8199 8.83755L82.7059 8.35073L80.6297 8.83713L80.7438 9.32395ZM82.8199 8.83755L82.6219 9.29666L84.552 10.1292L84.75 9.67008L84.948 9.21097L83.018 8.37844L82.8199 8.83755ZM84.75 9.67008L84.8702 10.1554L86.9495 9.64053L86.8293 9.15519L86.7092 8.66985L84.6298 9.18474L84.75 9.67008ZM86.8293 9.15519L86.6576 9.62477L88.6012 10.3355L88.7729 9.86595L88.9446 9.39637L87.0011 8.6856L86.8293 9.15519ZM88.7729 9.86595L88.4692 10.2631L90.3335 11.6888L90.6373 11.2917L90.941 10.8945L89.0766 9.46878L88.7729 9.86595ZM90.6373 11.2917L90.812 11.7601L92.9214 10.9734L92.7467 10.5049L92.572 10.0364L90.4625 10.8232L90.6373 11.2917ZM92.7467 10.5049L92.4964 10.9377L94.397 12.0366L94.6473 11.6037L94.8976 11.1709L92.997 10.072L92.7467 10.5049ZM94.6473 11.6037L94.6478 12.1037L96.6703 12.1017L96.6698 11.6017L96.6693 11.1017L94.6468 11.1037L94.6473 11.6037ZM96.6698 11.6017L96.5445 12.0857L98.5105 12.5945L98.6357 12.1105L98.761 11.6264L96.7951 11.1176L96.6698 11.6017ZM98.6357 12.1105L98.7318 12.6011L100.799 12.1964L100.703 11.7057L100.607 11.215L98.5397 11.6198L98.6357 12.1105ZM100.703 11.7057L100.477 12.1519L102.392 13.1206L102.618 12.6744L102.844 12.2282L100.929 11.2595L100.703 11.7057ZM102.618 12.6744L102.621 13.1744L104.644 13.1626L104.641 12.6626L104.639 12.1626L102.615 12.1744L102.618 12.6744ZM104.641 12.6626L104.961 13.0472L107.188 11.1968L106.869 10.8122L106.549 10.4276L104.322 12.278L104.641 12.6626ZM106.869 10.8122L106.566 11.2102L108.431 12.6288L108.734 12.2308L109.037 11.8328L107.171 10.4142L106.869 10.8122ZM108.734 12.2308L108.673 12.7271L110.669 12.9709L110.729 12.4746L110.79 11.9783L108.795 11.7345L108.734 12.2308ZM110.729 12.4746L110.896 12.946L113.001 12.2013L112.834 11.7299L112.667 11.2586L110.562 12.0032L110.729 12.4746ZM112.834 11.7299L112.71 12.2144L114.677 12.717L114.801 12.2326L114.924 11.7482L112.958 11.2455L112.834 11.7299ZM114.801 12.2326L114.819 12.7323L116.849 12.6592L116.831 12.1595L116.813 11.6598L114.783 11.7329L114.801 12.2326ZM116.831 12.1595L116.622 12.6135L118.546 13.5008L118.755 13.0467L118.964 12.5927L117.04 11.7054L116.831 12.1595ZM118.755 13.0467L118.437 13.4328L120.291 14.958L120.608 14.5719L120.926 14.1858L119.073 12.6606L118.755 13.0467ZM120.608 14.5719L120.723 15.0586L122.799 14.5696L122.685 14.083L122.57 13.5963L120.494 14.0852L120.608 14.5719ZM122.685 14.083L122.595 14.5749L124.578 14.935L124.667 14.443L124.757 13.9511L122.774 13.591L122.685 14.083ZM124.667 14.443L124.924 14.8723L127.089 13.5783L126.833 13.149L126.576 12.7198L124.411 14.0138L124.667 14.443ZM126.833 13.149L126.443 13.4624L128.221 15.6722L128.61 15.3588L129 15.0454L127.222 12.8356L126.833 13.149ZM128.61 15.3588L128.932 15.7415L131.162 13.8665L130.84 13.4838L130.519 13.1011L128.289 14.9761L128.61 15.3588ZM130.84 13.4838L130.478 13.8286L132.29 15.7316L132.652 15.3869L133.014 15.0421L131.202 13.1391L130.84 13.4838ZM132.652 15.3869L132.815 15.8594L134.918 15.1331L134.755 14.6605L134.591 14.1879L132.489 14.9143L132.652 15.3869ZM134.755 14.6605L134.881 15.1444L136.963 14.6018L136.837 14.1179L136.711 13.6341L134.628 14.1767L134.755 14.6605ZM136.837 14.1179L136.423 14.3986L138.162 16.9618L138.575 16.6811L138.989 16.4005L137.251 13.8373L136.837 14.1179ZM138.575 16.6811L138.546 17.1803L140.555 17.2977L140.585 16.7985L140.614 16.2994L138.605 16.182L138.575 16.6811ZM140.585 16.7985L140.764 17.2653L142.876 16.4535L142.697 15.9868L142.517 15.5201L140.405 16.3318L140.585 16.7985ZM142.697 15.9868L142.444 16.4181L144.343 17.5317L144.596 17.1004L144.849 16.6691L142.95 15.5555L142.697 15.9868ZM144.596 17.1004L144.805 17.5547L146.936 16.5745L146.727 16.1203L146.518 15.666L144.387 16.6462L144.596 17.1004ZM146.727 16.1203L146.618 16.6083L148.592 17.0477L148.7 16.5596L148.809 16.0716L146.835 15.6322L146.727 16.1203ZM148.7 16.5596L148.892 17.0212L151.013 16.1381L150.82 15.6766L150.628 15.215L148.508 16.098L148.7 16.5596ZM150.82 15.6766L150.496 16.057L152.344 17.6325L152.668 17.252L152.993 16.8716L151.145 15.2961L150.82 15.6766ZM152.668 17.252L152.788 17.7375L154.867 17.2243L154.747 16.7389L154.627 16.2534L152.548 16.7666L152.668 17.252ZM154.747 16.7389L154.824 17.2329L156.882 16.9125L156.805 16.4184L156.728 15.9244L154.67 16.2448L154.747 16.7389ZM156.805 16.4184L156.776 16.9176L158.785 17.0365L158.814 16.5374L158.844 16.0382L156.835 15.9193L156.805 16.4184ZM158.814 16.5374L158.538 16.9545L160.423 18.2L160.699 17.7829L160.974 17.3658L159.09 16.1202L158.814 16.5374ZM160.699 17.7829L160.715 18.2826L162.745 18.2154L162.728 17.7157L162.712 17.216L160.682 17.2832L160.699 17.7829ZM162.728 17.7157L162.546 18.1811L164.484 18.9416L164.666 18.4761L164.849 18.0107L162.911 17.2502L162.728 17.7157ZM164.666 18.4761L164.798 18.9584L166.884 18.3876L166.752 17.9053L166.62 17.423L164.534 17.9939L164.666 18.4761ZM166.752 17.9053L166.603 18.3826L168.558 18.9926L168.707 18.5153L168.856 18.038L166.901 17.428L166.752 17.9053ZM168.707 18.5153L168.836 18.9982L170.92 18.439L170.791 17.9561L170.661 17.4731L168.577 18.0324L168.707 18.5153ZM170.791 17.9561L170.608 18.4214L172.546 19.1828L172.729 18.7175L172.912 18.2521L170.974 17.4907L170.791 17.9561ZM172.729 18.7175L172.331 19.0198L173.901 21.0879L174.299 20.7855L174.697 20.4831L173.127 18.4151L172.729 18.7175ZM174.299 20.7855L174.121 21.2526L175.775 21.8844L175.953 21.4173L176.131 20.9502L174.478 20.3184L174.299 20.7855ZM175.953 21.4173L175.875 21.9111L177.904 22.233L177.982 21.7392L178.06 21.2454L176.031 20.9235L175.953 21.4173ZM177.982 21.7392L177.874 22.2273L180.3 22.7666L180.409 22.2785L180.517 21.7904L178.091 21.2511L177.982 21.7392ZM180.409 22.2785L179.91 22.3088L180.057 24.7225L180.556 24.6921L181.055 24.6618L180.908 22.2481L180.409 22.2785ZM180.556 24.6921L180.078 24.8398L180.661 26.7246L181.139 26.5769L181.616 26.4292L181.034 24.5444L180.556 24.6921ZM181.139 26.5769L180.739 26.8769L182.122 28.7217L182.522 28.4217L182.922 28.1216L181.539 26.2769L181.139 26.5769ZM182.522 28.4217L182.055 28.2431L181.265 30.3104L181.732 30.489L182.199 30.6676L182.989 28.6002L182.522 28.4217ZM181.732 30.489L181.249 30.3601L180.725 32.3243L181.208 32.4532L181.691 32.5821L182.215 30.6178L181.732 30.489ZM181.208 32.4532L180.714 32.3739L180.395 34.3609L180.889 34.4402L181.382 34.5194L181.701 32.5325L181.208 32.4532ZM180.889 34.4402L180.389 34.4269L180.335 36.4433L180.835 36.4565L181.335 36.4698L181.388 34.4534L180.889 34.4402ZM180.835 36.4565L180.377 36.2558L179.532 38.1845L179.99 38.3852L180.448 38.5859L181.293 36.6572L180.835 36.4565ZM179.99 38.3852L179.49 38.399L179.546 40.4275L180.046 40.4137L180.546 40.3999L180.49 38.3714L179.99 38.3852ZM180.046 40.4137L179.617 40.6702L180.911 42.8358L181.34 42.5793L181.769 42.3228L180.475 40.1572L180.046 40.4137ZM181.34 42.5793L180.841 42.5513L180.728 44.5611L181.227 44.5891L181.726 44.6171L181.839 42.6073L181.34 42.5793ZM181.227 44.5891L180.926 44.1901L178.59 45.9537L178.892 46.3527L179.193 46.7517L181.528 44.9881L181.227 44.5891ZM178.892 46.3527L178.397 46.4256L178.7 48.4815L179.195 48.4086L179.689 48.3357L179.386 46.2798L178.892 46.3527ZM179.195 48.4086L178.695 48.3868L178.608 50.3904L179.107 50.4121L179.607 50.4339L179.694 48.4303L179.195 48.4086ZM179.107 50.4121L178.617 50.5086L179.047 52.6945L179.537 52.598L180.028 52.5015L179.598 50.3156L179.107 50.4121ZM179.537 52.598L179.215 52.2158L177.511 53.653L177.833 54.0352L178.156 54.4174L179.86 52.9802L179.537 52.598ZM177.833 54.0352L177.356 53.8849L176.72 55.9042L177.197 56.0545L177.674 56.2048L178.31 54.1855L177.833 54.0352ZM177.197 56.0545L177.073 55.57L174.924 56.1184L175.047 56.6029L175.171 57.0874L177.32 56.539L177.197 56.0545ZM175.047 56.6029L174.712 56.2322L173.27 57.5368L173.606 57.9075L173.941 58.2782L175.383 56.9736L175.047 56.6029ZM173.606 57.9075L173.288 57.521L171.622 58.8886L171.939 59.2751L172.256 59.6616L173.923 58.294L173.606 57.9075ZM171.939 59.2751L172.07 58.7926L169.97 58.2216L169.839 58.7041L169.707 59.1866L171.808 59.7576L171.939 59.2751ZM169.839 58.7041L169.86 58.2046L167.904 58.1219L167.883 58.6215L167.862 59.121L169.817 59.2037L169.839 58.7041ZM167.883 58.6215L167.922 58.1229L165.917 57.9683L165.878 58.4668L165.84 58.9653L167.845 59.12L167.883 58.6215ZM165.878 58.4668L165.837 57.9685L163.796 58.1358L163.837 58.6341L163.878 59.1324L165.919 58.9651L165.878 58.4668ZM163.837 58.6341L164.055 58.1838L162.135 57.2574L161.918 57.7077L161.7 58.158L163.62 59.0844L163.837 58.6341ZM161.918 57.7077L161.631 57.2977L159.44 58.8282L159.726 59.2382L160.012 59.6481L162.204 58.1176L161.918 57.7077ZM159.726 59.2382L159.959 58.7957L158.048 57.7901L157.815 58.2325L157.582 58.675L159.493 59.6807L159.726 59.2382ZM157.815 58.2325L158.165 57.8759L156.342 56.0833L155.991 56.4399L155.641 56.7965L157.464 58.5891L157.815 58.2325ZM155.991 56.4399L155.882 55.952L153.808 56.4163L153.917 56.9042L154.027 57.3922L156.1 56.9279L155.991 56.4399ZM153.917 56.9042L153.674 56.4675L151.519 57.6688L151.762 58.1055L152.006 58.5423L154.161 57.341L153.917 56.9042ZM151.762 58.1055L151.871 57.6176L149.898 57.1763L149.789 57.6642L149.68 58.1522L151.653 58.5935L151.762 58.1055ZM149.789 57.6642L150.143 57.3114L148.323 55.4841L147.969 55.837L147.615 56.1898L149.434 58.017L149.789 57.6642ZM147.969 55.837L147.949 55.3374L145.918 55.4161L145.938 55.9157L145.957 56.4153L147.988 56.3366L147.969 55.837ZM145.938 55.9157L145.705 55.4735L143.557 56.6061L143.79 57.0484L144.023 57.4907L146.171 56.358L145.938 55.9157ZM143.79 57.0484L143.741 56.5508L141.697 56.7501L141.746 57.2478L141.794 57.7454L143.839 57.546L143.79 57.0484ZM141.746 57.2478L141.943 56.7884L140.013 55.9592L139.815 56.4186L139.618 56.878L141.548 57.7072L141.746 57.2478ZM139.815 56.4186L140.015 55.9602L138.086 55.1202L137.886 55.5786L137.686 56.0371L139.616 56.8771L139.815 56.4186ZM137.886 55.5786L137.874 55.0788L135.846 55.1277L135.858 55.6275L135.87 56.1274L137.898 56.0785L137.886 55.5786ZM135.858 55.6275L136.083 55.1809L134.168 54.2164L133.943 54.663L133.718 55.1095L135.633 56.0741L135.858 55.6275ZM133.943 54.663L133.994 54.1656L131.995 53.9581L131.943 54.4555L131.892 54.9528L133.891 55.1603L133.943 54.663ZM131.943 54.4555L132.103 53.9817L130.154 53.3237L129.994 53.7975L129.834 54.2712L131.784 54.9292L131.943 54.4555ZM129.994 53.7975L129.767 53.3522L127.623 54.4471L127.85 54.8924L128.078 55.3377L130.221 54.2427L129.994 53.7975ZM127.85 54.8924L127.971 54.4071L126.003 53.9192L125.882 54.4045L125.762 54.8898L127.73 55.3777L127.85 54.8924ZM125.882 54.4045L125.859 53.905L123.826 53.9991L123.85 54.4985L123.873 54.998L125.905 54.904L125.882 54.4045ZM123.85 54.4985L123.925 54.0043L121.936 53.7007L121.861 54.195L121.785 54.6892L123.774 54.9928L123.85 54.4985ZM121.861 54.195L122.11 53.7616L120.209 52.6671L119.96 53.1004L119.71 53.5337L121.611 54.6283L121.861 54.195ZM119.96 53.1004L120.099 52.6201L118.14 52.0526L118 52.5328L117.861 53.0131L119.821 53.5807L119.96 53.1004ZM118 52.5328L118.05 52.0353L116.05 51.8354L116 52.333L115.951 52.8305L117.951 53.0303L118 52.5328ZM116 52.333L115.769 51.8894L113.623 53.0059L113.854 53.4495L114.085 53.893L116.231 52.7765L116 52.333ZM113.854 53.4495L113.743 52.962L111.668 53.4351L111.78 53.9225L111.891 54.41L113.965 53.937L113.854 53.4495ZM111.78 53.9225L111.914 53.4409L109.952 52.8939L109.818 53.3755L109.684 53.8571L111.645 54.4042L111.78 53.9225ZM109.818 53.3755L110.18 53.0312L108.369 51.1245L108.007 51.4688L107.644 51.8131L109.455 53.7199L109.818 53.3755ZM108.007 51.4688L107.954 50.9716L105.907 51.1894L105.96 51.6866L106.013 52.1838L108.06 51.966L108.007 51.4688ZM105.96 51.6866L105.944 51.1869L103.914 51.2539L103.931 51.7537L103.947 52.2534L105.977 52.1863L105.96 51.6866ZM103.931 51.7537L104.149 51.304L102.23 50.3709L102.012 50.8206L101.793 51.2702L103.712 52.2033L103.931 51.7537ZM102.012 50.8206L101.768 50.3837L99.6132 51.5839L99.8565 52.0207L100.1 52.4575L102.255 51.2574L102.012 50.8206ZM99.8565 52.0207L100.195 51.653L98.3602 49.9623L98.0214 50.33L97.6826 50.6977L99.5177 52.3884L99.8565 52.0207ZM98.0214 50.33L98.0637 49.8318L96.0603 49.6618L96.018 50.16L95.9757 50.6582L97.9792 50.8282L98.0214 50.33ZM96.018 50.16L95.8203 49.7007L93.6967 50.615L93.8944 51.0742L94.0921 51.5335L96.2157 50.6192L96.018 50.16ZM93.8944 51.0742L94.2188 50.6937L92.371 49.1185L92.0466 49.499L91.7222 49.8796L93.5701 51.4547L93.8944 51.0742ZM92.0466 49.499L91.9367 49.0113L89.8626 49.4787L89.9725 49.9664L90.0825 50.4542L92.1565 49.9868L92.0466 49.499ZM89.9725 49.9664L90.181 49.512L88.2565 48.6292L88.048 49.0837L87.8396 49.5382L89.7641 50.4209L89.9725 49.9664ZM88.048 49.0837L87.7395 48.6902L85.5249 50.4264L85.8334 50.8199L86.1419 51.2134L88.3565 49.4772L88.048 49.0837ZM85.8334 50.8199L86.0879 50.3895L84.19 49.2671L83.9355 49.6975L83.681 50.1278L85.5789 51.2503L85.8334 50.8199ZM83.9355 49.6975L84.1592 49.2503L82.2432 48.2914L82.0194 48.7385L81.7956 49.1856L83.7117 50.1446L83.9355 49.6975ZM82.0194 48.7385L82.0278 48.2386L80.0093 48.2045L80.0009 48.7044L79.9924 49.2043L82.0109 49.2384L82.0194 48.7385ZM80.0009 48.7044L79.8831 48.2184L77.805 48.722L77.9228 49.2079L78.0406 49.6939L80.1186 49.1903L80.0009 48.7044ZM77.9228 49.2079L77.794 48.7248L75.7102 49.2803L75.839 49.7634L75.9678 50.2465L78.0516 49.6911L77.9228 49.2079ZM75.839 49.7634L76.1643 49.3837L74.3172 47.8015L73.9919 48.1813L73.6667 48.561L75.5137 50.1431L75.839 49.7634ZM73.9919 48.1813L73.9363 47.6844L71.8886 47.9135L71.9443 48.4104L71.9999 48.9073L74.0475 48.6782L73.9919 48.1813ZM71.9443 48.4104L71.8893 47.9135L69.842 48.1398L69.8969 48.6368L69.9519 49.1338L71.9992 48.9074L71.9443 48.4104ZM69.8969 48.6368L70.1269 48.1928L68.2143 47.2021L67.9843 47.6461L67.7544 48.0901L69.6669 49.0808L69.8969 48.6368ZM67.9843 47.6461L68.2441 47.2189L66.3495 46.0667L66.0897 46.4939L65.8299 46.9211L67.7246 48.0733L67.9843 47.6461ZM66.0897 46.4939L65.9132 46.0261L63.8027 46.8223L63.9792 47.2901L64.1557 47.7579L66.2662 46.9617L66.0897 46.4939ZM63.9792 47.2901L63.8121 46.8189L61.7071 47.5654L61.8742 48.0366L62.0413 48.5079L64.1463 47.7614L63.9792 47.2901ZM61.8742 48.0366L61.8334 47.5383L59.7926 47.7053L59.8334 48.2036L59.8742 48.702L61.915 48.535L61.8742 48.0366ZM59.8334 48.2036L60.1064 47.7847L58.2202 46.5557L57.9473 46.9746L57.6743 47.3935L59.5604 48.6225L59.8334 48.2036ZM57.9473 46.9746L58.2241 46.5582L56.3406 45.3056L56.0637 45.722L55.7868 46.1383L57.6704 47.3909L57.9473 46.9746ZM56.0637 45.722L55.975 45.2299L53.9115 45.602L54.0002 46.094L54.0889 46.5861L56.1524 46.214L56.0637 45.722ZM54.0002 46.094L53.9631 45.5954L51.9241 45.747L51.9611 46.2456L51.9982 46.7442L54.0373 46.5926L54.0002 46.094ZM51.9611 46.2456L51.8558 45.7568L49.784 46.2034L49.8894 46.6922L49.9947 47.181L52.0665 46.7344L51.9611 46.2456ZM49.8894 46.6922L50.2477 46.3435L48.432 44.478L48.0737 44.8267L47.7154 45.1754L49.5311 47.0409L49.8894 46.6922ZM48.0737 44.8267L47.8339 44.388L45.6812 45.5647L45.9211 46.0034L46.1609 46.4422L48.3135 45.2654L48.0737 44.8267ZM45.9211 46.0034L46.0992 45.5362L44.1588 44.7966L43.9807 45.2638L43.8026 45.731L45.743 46.4706L45.9211 46.0034ZM43.9807 45.2638L43.8653 44.7773L41.7885 45.2698L41.9039 45.7564L42.0192 46.2429L44.0961 45.7503L43.9807 45.2638ZM41.9039 45.7564L42.2628 45.4082L40.4478 43.5369L40.0888 43.885L39.7299 44.2331L41.5449 46.1045L41.9039 45.7564ZM40.0888 43.885L40.0131 43.3908L37.9559 43.7062L38.0316 44.2004L38.1074 44.6946L40.1646 44.3793L40.0888 43.885ZM38.0316 44.2004L37.9894 43.7022L35.9479 43.8753L35.9902 44.3735L36.0324 44.8717L38.0739 44.6986L38.0316 44.2004ZM35.9902 44.3735L36.2814 43.9671L34.4079 42.6242L34.1166 43.0306L33.8253 43.437L35.6989 44.7799L35.9902 44.3735ZM34.1166 43.0306L33.8364 42.6165L31.6502 44.0958L31.9305 44.5099L32.2107 44.924L34.3968 43.4447L34.1166 43.0306ZM31.9305 44.5099L32.1401 44.0559L30.2162 43.1675L30.0066 43.6215L29.797 44.0754L31.7208 44.9638L31.9305 44.5099ZM30.0066 43.6215L29.9953 43.1216L27.968 43.1672L27.9792 43.6671L27.9905 44.1669L30.0178 44.1213L30.0066 43.6215ZM27.9792 43.6671L28.3003 43.2838L26.4497 41.7337L26.1286 42.117L25.8076 42.5003L27.6582 44.0504L27.9792 43.6671ZM26.1286 42.117L25.8853 41.6802L23.73 42.8808L23.9734 43.3176L24.2167 43.7544L26.372 42.5538L26.1286 42.117ZM23.9734 43.3176L24.0478 42.8232L22.0587 42.5235L21.9842 43.0179L21.9098 43.5123L23.8989 43.812L23.9734 43.3176ZM21.9842 43.0179L22.2882 42.6209L20.4239 41.1939L20.12 41.5909L19.8161 41.9879L21.6803 43.415L21.9842 43.0179ZM20.12 41.5909L20.1728 41.0937L18.174 40.8816L18.1212 41.3789L18.0685 41.8761L20.0673 42.0881L20.12 41.5909ZM18.1212 41.3789L17.8907 40.9351L15.745 42.0497L15.9755 42.4934L16.2059 42.9371L18.3517 41.8226L18.1212 41.3789ZM15.9755 42.4934L15.9706 41.9934L13.9461 42.0132L13.951 42.5132L13.9559 43.0131L15.9803 42.9934L15.9755 42.4934ZM13.951 42.5132L14.2864 42.1423L12.4482 40.48L12.1128 40.8508L11.7775 41.2217L13.6156 42.884L13.951 42.5132ZM12.1128 40.8508L12.1167 40.3508L10.1232 40.3352L10.1193 40.8352L10.1154 41.3352L12.1089 41.3508L12.1128 40.8508ZM10.1193 40.8352L10.0707 40.3376L8.00786 40.5391L8.05648 41.0367L8.10509 41.5344L10.1679 41.3329L10.1193 40.8352ZM8.05648 41.0367L8.33757 40.6232L6.6752 39.4932L6.39411 39.9067L6.11302 40.3202L7.77539 41.4502L8.05648 41.0367ZM6.39411 39.9067L6.83178 39.6649L5.84118 37.8717L5.40352 38.1135L4.96586 38.3553L5.95645 40.1485L6.39411 39.9067ZM5.40352 38.1135L5.41813 37.6137L2.4398 37.5267L2.4252 38.0265L2.41059 38.5263L5.38892 38.6133L5.40352 38.1135ZM2.4252 38.0265L2.91867 37.9459L2.5482 35.6766L2.05473 35.7572L1.56126 35.8377L1.93173 38.107L2.4252 38.0265ZM2.05473 35.7572L2.47306 35.4833L1.2594 33.6294L0.841067 33.9032L0.422735 34.1771L1.6364 36.031L2.05473 35.7572ZM0.841067 33.9032L1.32483 34.0296L1.89729 31.8382L1.41352 31.7118L0.929751 31.5854L0.3573 33.7769L0.841067 33.9032ZM1.41352 31.7118L1.87477 31.5188L0.981822 29.3845L0.520566 29.5775L0.0593091 29.7705L0.952262 31.9048L1.41352 31.7118ZM0.520566 29.5775L1.01059 29.6769L1.4118 27.6991L0.921781 27.5996L0.431761 27.5002L0.0305462 29.4781L0.520566 29.5775ZM0.921781 27.5996L1.4214 27.6192L1.50018 25.6056L1.00057 25.5861L0.500949 25.5665L0.422163 27.5801L0.921781 27.5996ZM1.00057 25.5861L1.35666 25.9371L3.15381 24.1139L2.79772 23.7629L2.44163 23.4119L0.644477 25.2351L1.00057 25.5861ZM2.79772 23.7629L3.26946 23.9286L3.95319 21.982L3.48144 21.8163L3.0097 21.6506L2.32597 23.5972L2.79772 23.7629ZM3.48144 21.8163L3.97906 21.7675L3.77878 19.7231L3.28116 19.7718L2.78354 19.8206L2.98382 21.865L3.48144 21.8163ZM3.28116 19.7718L3.73518 19.5624L2.75211 17.4312L2.29809 17.6406L1.84406 17.8501L2.82713 19.9812L3.28116 19.7718ZM2.29809 17.6406L2.77832 17.7798L3.34624 15.8204L2.866 15.6812L2.38577 15.5421L1.81785 17.5014L2.29809 17.6406ZM2.866 15.6812L3.36363 15.6326L3.16362 13.5881L2.666 13.6368L2.16837 13.6855L2.36838 15.7299L2.866 15.6812ZM2.666 13.6368L3.16596 13.6312L3.14325 11.6064L2.64328 11.612L2.14331 11.6176L2.16603 13.6424L2.666 13.6368ZM2.64328 11.612L3.11552 11.7763L3.81096 9.77704L3.33871 9.61277L2.86647 9.4485L2.17104 11.4477L2.64328 11.612ZM3.33871 9.61277L3.71174 9.94571L5.20267 8.27524L4.82964 7.9423L4.45661 7.60937L2.96568 9.27983L3.33871 9.61277ZM4.82964 7.9423L5.28899 8.13977L6.06684 6.33034L5.60749 6.13287L5.14813 5.9354L4.37028 7.74483L4.82964 7.9423ZM5.60749 6.13287L6.06586 6.33261L6.91755 4.37804L6.45918 4.17831L6.00081 3.97857L5.14911 5.93314L5.60749 6.13287ZM6.45918 4.17831L6.45011 4.67823L8.96129 4.72377L8.97036 4.22385L8.97942 3.72393L6.46825 3.67839L6.45918 4.17831ZM8.97036 4.22385L9.35902 4.5384L10.6478 2.94606L10.2591 2.6315L9.87044 2.31695L8.5817 3.90929L8.97036 4.22385ZM10.2591 2.6315L10.2064 3.12871L12.2104 3.34126L12.2631 2.84405L12.3159 2.34683L10.3118 2.13429L10.2591 2.6315ZM12.2631 2.84405L12.6324 3.18109L14.5046 1.12971L14.1352 0.792665L13.7659 0.455617L11.8938 2.507L12.2631 2.84405ZM14.1352 0.792665L13.7291 1.08424L14.4376 2.07123L14.8438 1.77965L15.2499 1.48808L14.5414 0.501089L14.1352 0.792665Z" fill="#342E84"/>
<text transform="translate(20.3669 6.41602) rotate(6.32074)" fill="#FDFDFD" xml:space="preserve" style="white-space: pre" font-family="DiodrumArabic-Semibold" font-size="16" letter-spacing="0em"><tspan x="0.75" y="20.704">&#x645;&#x634;&#x627;&#x631;&#x64a;&#x639; &#x623;&#x628;&#x637;&#x627;&#x644; &#x646;&#x64a;&#x646;&#x62c;&#x627;&#x643;&#x648;</tspan></text>
</svg>
