<svg width="198" height="62" viewBox="0 0 198 62" fill="none" xmlns="http://www.w3.org/2000/svg">
<path d="M3.30282 9.93921C3.91086 4.44994 8.8537 0.492908 14.343 1.10094L187.285 20.2573C192.775 20.8654 196.732 25.8082 196.124 31.2975L193.922 51.1759C193.314 56.6652 188.371 60.6222 182.881 60.0142L9.93921 40.8578C4.44994 40.2498 0.492908 35.3069 1.10094 29.8176L3.30282 9.93921Z" fill="#32A1DB"/>
<path d="M130.702 12.4609L132.29 14.1302L134.092 13.5084L134.108 13.5024L134.128 13.4968L136.208 12.9568L136.552 12.8653L136.752 13.1585L138.346 15.5124L140.001 15.6132L142.016 14.8421L142.242 14.7571L142.449 14.8782L144.125 15.8538L146.017 14.9866L146.17 14.9171L146.335 14.955L148.153 15.3607L150.127 14.5378L150.411 14.42L150.644 14.6188L152.292 16.0275L154.127 15.5744L154.147 15.5688L154.171 15.5675L156.226 15.245L156.282 15.2393L156.333 15.241L158.344 15.3577L158.476 15.3684L158.59 15.44L160.337 16.6002L162.21 16.5366L162.313 16.5323L162.411 16.5706L164.192 17.2749L166.117 16.7454L166.259 16.7061L166.4 16.7491L168.219 17.3201L170.16 16.7962L170.318 16.7508L170.473 16.8112L172.412 17.5723L172.518 17.6154L172.595 17.6987L174.269 19.5073L175.986 19.6581L177.926 19.0634L180.046 17.9541L180.326 17.8043L180.579 17.9975L182.348 19.341L184.073 19.6657L186.057 18.895L186.266 18.816L186.467 18.9169L188.37 19.9058L190.176 20.774L190.198 20.7882L190.22 20.7986L191.88 21.8156L191.891 21.8247L191.905 21.8341L193.506 22.9625L193.633 23.0513L193.684 23.1984L194.355 25.0138L195.361 26.4379L197.317 27.9712L197.484 28.0997L197.504 28.3102L197.759 30.5118L197.791 30.7866L197.576 30.9592L195.485 32.6259L195.748 34.4L195.755 34.4479L195.754 34.4949L195.671 36.4154L196.348 38.428L196.425 38.6488L196.301 38.8473L195.251 40.5624L195.683 42.4456L195.731 42.6513L195.612 42.8308L194.461 44.5662L194.614 46.3792L195.141 48.438L195.19 48.6321L195.092 48.8021L194.085 50.6241L193.841 52.4757L193.835 52.5222L193.819 52.5637L193.229 54.4162L193.224 54.4235L193.219 54.4347L192.521 56.3343L192.453 56.5194L192.279 56.6061L190.632 57.4535L190.035 59.8672L189.949 60.2193L189.588 60.2461L187.298 60.413L187.159 60.4251L187.036 60.3643L185.015 59.3465L183.449 59.967L181.323 61.166L181.156 61.2575L180.972 61.2175L178.997 60.7747L178.855 60.7433L178.752 60.6415L177.083 58.967L175.393 59.0315L173.34 60.1166L173.252 60.1619L173.157 60.171L171.111 60.3689L170.983 60.3823L170.864 60.3297L168.935 59.503L168.931 59.5025L167.106 58.703L165.187 58.7498L165.06 58.7554L164.948 58.6998L163.113 57.7734L161.209 57.5782L161.155 57.5722L161.102 57.5545L159.348 56.9594L157.394 57.9613L157.227 58.045L157.048 58.0015L155.151 57.5281L153.191 57.6215L153.14 57.6237L153.089 57.6181L151.103 57.3116L151.01 57.2974L150.929 57.253L149.078 56.1873L147.2 55.6453L145.412 55.4668L143.401 56.5175L143.343 56.5464L143.283 56.5594L141.206 57.0329L141.085 57.0627L140.963 57.0295L139 56.4819L138.866 56.4435L138.771 56.3426L137.132 54.6125L135.33 54.8059L135.314 54.8081L135.294 54.8098L133.263 54.8757L133.14 54.8818L133.029 54.8261L131.343 54.0067L129.416 55.0823L129.102 55.2558L128.834 55.0139L127.126 53.4374L125.421 53.2917L123.411 54.1578L123.122 54.2791L122.885 54.0799L121.226 52.6621L119.4 53.0768L119.234 53.1174L119.081 53.0454L117.428 52.2885L115.46 53.8391L115.189 54.0488L114.894 53.8746L112.998 52.7529L112.994 52.7524L111.219 51.8601L109.375 51.8288L107.364 52.3096L107.368 52.3139L105.286 52.8694L105.031 52.9393L104.83 52.7677L103.147 51.3236L101.316 51.5296L99.2704 51.7589L99.1194 51.7736L98.9856 51.7038L97.0713 50.7136L97.0562 50.708L97.0415 50.6985L95.3515 49.6702L93.4727 50.3818L93.4645 50.3848L91.3579 51.13L91.2962 51.1547L91.2328 51.1594L89.1903 51.3262L89.0199 51.3388L88.8767 51.2482L86.9929 50.0177L86.9856 50.013L85.2687 48.8717L83.4075 49.2118L83.3794 49.2166L83.3557 49.2179L81.3309 49.367L79.3135 49.8038L79.0396 49.8638L78.8493 49.6659L77.2971 48.0673L75.4771 49.0644L75.2761 49.1758L75.0612 49.093L73.2626 48.4065L71.3371 48.8652L71.0585 48.9326L70.8608 48.7299L69.2245 47.0395L67.4249 47.3197L67.4089 47.3218L67.3891 47.3235L65.3501 47.4946L65.1676 47.5098L65.0144 47.4024L63.4236 46.2594L61.5281 47.5468L61.2944 47.7057L61.0364 47.5867L59.2234 46.7453L57.3082 46.7925L57.1192 46.7952L56.9755 46.6731L55.3859 45.3416L53.5339 46.3784L53.3834 46.4599L53.2169 46.4376L51.2264 46.1346L51.0987 46.1165L50.9973 46.0384L49.2399 44.6962L47.5351 44.5113L45.5244 45.5619L45.4161 45.6167L45.2979 45.6194L43.2717 45.6386L43.0789 45.6408L42.9326 45.5067L41.2355 43.9746L39.4604 43.9627L37.4465 44.4392L37.3257 44.4651L37.2071 44.4363L35.2394 43.9275L35.182 43.9133L35.1264 43.8835L33.5253 43.0105L31.548 44.7527L31.2871 44.9792L30.9825 44.8197L29.2235 43.8821L27.3316 44.2149L27.1629 44.2473L27.0072 44.1632L25.3017 43.2394L23.4043 43.9764L23.2684 44.0321L23.1265 44.0006L21.1817 43.6044L19.2129 43.5317L19.021 43.5262L18.8829 43.3891L17.1322 41.6663L15.4035 41.0582L13.5599 41.2392L11.4974 42.1898L11.3274 42.2692L11.1449 42.2136L9.20053 41.6367L7.11393 41.492L7.03973 41.4877L6.972 41.4606L4.90762 40.6895L4.78682 40.6447L4.70353 40.5451L3.26692 38.8611L3.19398 38.7744L3.16246 38.6687L2.58716 36.5888L1.5302 35.0255L0.343321 33.2512L0.153855 32.9747L0.341839 32.6969L1.59952 30.8161L0.998884 29.0714L0.930229 28.8751L1.02593 28.6853L1.83592 27.0497L0.324158 25.0862L0.035442 24.7123L0.392082 24.402L2.29604 22.7539L2.34551 21.1009L1.15251 19.0626L1.03424 18.853L1.11785 18.6304L1.81563 16.8369L1.31329 14.9145L1.24548 14.6397L1.44082 14.4373L2.94579 12.9141L1.60661 11.0601L1.3071 10.6417L1.7319 10.3547L3.81452 8.93868L2.88378 6.87445L2.71024 6.48972L3.05828 6.25709L4.92052 4.98564L6.21722 3.71049L7.09738 1.61889L7.25255 1.247L7.649 1.32235L9.89444 1.73614L11.3905 0.506649L11.5677 0.361216L11.795 0.402119L13.7096 0.751744L14.2117 0.618711L14.3048 0.593659L14.6154 0.628064L14.7143 0.69403L16.2205 1.67834L18.141 0.342592L18.4696 0.107814L18.7652 0.384223L20.3829 1.88787L22.204 1.30749L22.2609 1.29021L22.3204 1.28502L24.3573 1.13335L24.4643 1.12554L24.5627 1.16002L26.5101 1.85128L26.5666 1.87326L26.618 1.90646L28.3395 3.04039L30.2116 2.78007L30.2513 2.7766L30.2944 2.77745L32.2839 2.84062L34.2889 2.62253L34.48 2.60046L34.6366 2.71213L36.3103 3.92329L38.1694 3.42572L38.1737 3.42227L40.254 2.87846L40.3593 2.85082L40.4632 2.87019L42.4511 3.1965L42.5477 3.21113L42.6323 3.26373L44.2913 4.28854L46.1795 3.38547L46.3538 3.30259L46.5367 3.35429L48.3974 3.90625L50.351 3.7257L50.5775 3.70363L50.7449 3.85973L52.3583 5.4022L54.176 4.85288L54.2251 4.83474L54.2726 4.83214L56.3177 4.64207L56.3729 4.64033L58.3917 4.68709L58.4469 4.68535L58.4965 4.6987L60.4366 5.17299L60.4409 5.16953L62.3399 5.51744L64.3103 5.18548L64.4544 5.16213L64.586 5.21601L66.505 6.02203L68.2949 6.53863L70.2476 6.08287L70.3645 6.05652L70.4793 6.08495L72.3516 6.53208L74.3129 6.24628L74.5446 6.21298L74.7163 6.36563L76.2857 7.73816L78.138 6.62674L78.4494 6.44115L78.7221 6.67572L80.3756 8.10473L82.2041 7.67058L82.3654 7.63343L82.5151 7.7011L84.2892 8.46748L86.2086 7.99232L86.3583 7.95388L86.502 8.00516L88.443 8.71929L88.515 8.74299L88.5767 8.78913L90.222 10.0443L92.0706 9.35692L92.2919 9.27532L92.4951 9.39215L94.2792 10.423L96.1694 10.424L96.2324 10.4232L96.2937 10.4378L98.1509 10.9147L100.107 10.5379L100.276 10.5016L100.428 10.5813L102.233 11.4927L103.956 11.483L106.05 9.7499L106.353 9.49658L106.672 9.73632L108.426 11.0743L110.171 11.2872L112.167 10.5808L112.311 10.5299L112.456 10.5656L114.351 11.0546L116.313 10.981L116.431 10.9784L116.54 11.0258L118.465 11.9151L118.521 11.9409L118.572 11.9819L120.232 13.3449L122.068 12.9155L122.173 12.8956L122.273 12.9107L124.068 13.2392L126.075 12.0428L126.45 11.817L126.723 12.1577L128.177 13.9655L130.019 12.4206L130.378 12.1185L130.702 12.4609ZM156.312 16.2448L154.325 16.5552L154.321 16.5548L152.288 17.0606L152.038 17.1194L151.844 16.9525L150.227 15.5787L148.39 16.342L148.246 16.4046L148.092 16.368L146.282 15.9631L144.303 16.8757L144.067 16.9832L143.841 16.8521L142.151 15.8593L140.263 16.5855L140.164 16.6256L140.055 16.6175L138.044 16.5008L137.798 16.4854L137.66 16.2814L136.118 14.0159L134.412 14.4517L134.415 14.456L132.315 15.1823L132.012 15.2864L131.79 15.0535L130.301 13.4894L128.433 15.0629L128.039 15.3926L127.722 14.9919L126.215 13.1272L124.422 14.1941L124.262 14.2904L124.077 14.2581L122.198 13.9123L120.224 14.3815L119.982 14.4372L119.791 14.2785L117.99 12.7978L116.225 11.9853L114.319 12.0532L114.244 12.0567L114.176 12.0373L112.352 11.5759L110.397 12.2672L110.286 12.3061L110.166 12.2927L108.173 12.0484L108.037 12.0333L107.932 11.951L106.381 10.773L104.459 12.368L104.324 12.4828L104.144 12.4824L102.118 12.4939L102 12.4965L101.892 12.4414L100.124 11.5499L98.2319 11.9219L98.1193 11.9448L98.0085 11.9168L96.0982 11.4223L94.1484 11.4264L94.0108 11.4269L93.8964 11.3592L92.1973 10.3771L90.3116 11.08L90.0533 11.1771L89.8319 11.0111L88.024 9.6279L86.2974 9.00041L84.3698 9.47859L84.2046 9.51532L84.0505 9.45109L82.2769 8.68083L80.3562 9.13227L80.1099 9.19145L79.9161 9.02458L78.3446 7.67146L76.4883 8.78244L76.1765 8.97192L75.9008 8.72915L74.227 7.27039L72.4054 7.5363L72.3096 7.54927L72.2139 7.52687L70.3528 7.08492L68.4001 7.54068L68.2711 7.56962L68.1495 7.53257L66.1878 6.96943L66.1611 6.96254L66.1309 6.95133L64.3279 6.19747L62.414 6.51604L62.3299 6.53031L62.2415 6.51265L60.2613 6.15183L60.2342 6.14882L58.32 5.6892L56.3797 5.64327L54.4144 5.82252L52.3725 6.44526L52.096 6.5286L51.8824 6.32809L50.2146 4.74422L48.4003 4.90876L48.305 4.91785L48.2135 4.892L46.4361 4.36891L44.4771 5.30738L44.2326 5.42178L44.0004 5.2821L42.1866 4.16545L40.4071 3.87402L38.4285 4.38587L36.3452 4.95685L36.1144 5.01775L35.9215 4.87848L34.2043 3.63499L32.3503 3.83836L32.3145 3.84226L32.2795 3.83839L30.2939 3.77565L28.2972 4.06146L28.1095 4.08784L27.9521 3.98393L26.1062 2.7655L24.3206 2.13932L22.4463 2.27756L20.4126 2.93265L20.1357 3.01988L19.9178 2.82282L18.3781 1.39463L16.5207 2.69413L16.2438 2.88748L15.9616 2.70294L14.3125 1.62421L13.8708 1.74428L13.7613 1.77538L13.6496 1.75514L11.8467 1.42575L10.3503 2.65912L10.1687 2.80801L9.94138 2.7671L7.85858 2.37526L7.10343 4.18987L7.06162 4.2835L6.99089 4.35427L5.59673 5.72866L5.5618 5.76016L5.52773 5.7839L3.96393 6.84475L4.90201 8.91373L5.07555 9.29845L4.72708 9.53496L2.72166 10.8927L4.00215 12.6734L4.24728 13.015L3.9506 13.3162L2.35593 14.9396L2.82027 16.7439L2.86174 16.9017L2.80571 17.0527L2.14068 18.7633L3.27974 20.721L3.35268 20.843L3.34885 20.9841L3.29432 23.0021L3.28576 23.2212L3.12017 23.3679L1.40769 24.8485L2.81933 26.687L3.01181 26.9363L2.87473 27.2159L2.0117 28.9399L2.70776 30.9585L2.57109 31.1635L1.35695 32.9705L2.3548 34.4644L2.35868 34.4648L3.46312 36.0963L3.50671 36.164L3.52917 36.2451L4.09668 38.2888L5.37967 39.7986L7.25163 40.4972L9.34514 40.6505L9.39993 40.6526L9.45299 40.6703L11.2494 41.1994L13.2084 40.2963L13.2869 40.2618L13.3701 40.2553L15.4165 40.0536L15.5239 40.0419L15.6296 40.0811L17.5741 40.7642L17.6802 40.7995L17.7617 40.8793L19.4447 42.5395L21.2681 42.6118L21.3074 42.6122L21.3457 42.6204L23.1792 42.9925L25.1585 42.2253L25.372 42.1428L25.5761 42.2519L27.3265 43.1964L29.2218 42.8679L29.3901 42.8394L29.5424 42.9191L31.1456 43.7727L33.1307 42.0314L33.392 41.801L33.6957 41.9683L35.5531 42.9758L37.3336 43.4363L39.2944 42.9775L39.3509 42.9641L39.41 42.9628L41.4328 42.9746L41.6252 42.9763L41.7641 43.1057L43.4539 44.633L45.1694 44.6147L47.2082 43.5593L47.3415 43.4916L47.4894 43.504L49.4898 43.7177L49.6295 43.7332L49.7422 43.8164L51.5026 45.1669L53.1881 45.4204L55.2022 44.3033L55.5037 44.1363L55.766 44.3579L57.4748 45.7852L59.3107 45.7449L59.4289 45.7422L59.5333 45.7931L61.1973 46.5591L63.1553 45.2393L63.44 45.0468L63.7243 45.2473L65.4468 46.4796L67.2831 46.3293L69.3303 46.0137L69.5861 45.9752L69.766 46.1602L71.3816 47.8247L73.1812 47.4031L73.3308 47.3647L73.4741 47.4198L75.1972 48.0784L77.1505 47.0135L77.4852 46.8305L77.7497 47.1035L79.3693 48.7685L81.1727 48.3826L81.205 48.3744L81.2408 48.3705L83.2501 48.2197L85.2913 47.8524L85.4914 47.8195L85.6562 47.9282L87.534 49.1777L89.2788 50.3142L91.0794 50.1677L93.1286 49.4436L95.2286 48.6505L95.4581 48.5659L95.6643 48.6909L97.5274 49.8248L97.5313 49.8252L99.3119 50.7456L101.206 50.5387L103.255 50.3098L103.47 50.2826L103.635 50.4266L105.279 51.8349L107.109 51.3499L107.121 51.3473L109.201 50.8427L109.262 50.8259L109.325 50.8289L111.345 50.864L111.459 50.8648L111.559 50.9153L113.477 51.8744L113.491 51.8839L113.507 51.8895L115.107 52.8371L117.056 51.3159L117.297 51.1264L117.574 51.2553L119.339 52.064L121.254 51.6354L121.499 51.5801L121.69 51.7427L123.294 53.1152L125.139 52.3251L125.25 52.2746L125.379 52.2849L127.38 52.4555L127.551 52.4705L127.676 52.5865L129.246 54.0298L131.084 53.0073L131.314 52.8795L131.545 52.9955L133.354 53.8718L135.224 53.8117L137.272 53.5944L137.514 53.5702L137.687 53.7504L139.398 55.5513L141.106 56.0274L142.992 55.5997L145.085 54.5149L145.219 54.4433L145.367 54.4596L147.369 54.6578L147.411 54.6625L147.457 54.6754L149.414 55.2459L149.475 55.2606L149.527 55.2899L151.348 56.3405L153.184 56.6186L155.175 56.5286L155.25 56.5251L155.319 56.5445L157.105 56.9822L159.084 55.9751L159.271 55.8819L159.472 55.9474L161.363 56.5852L163.313 56.7894L163.402 56.7993L163.484 56.8398L165.286 57.7468L167.189 57.7022L167.3 57.6987L167.4 57.7452L169.332 58.584L169.328 58.5836L171.144 59.3586L172.964 59.1828L175.021 58.0981L175.121 58.0463L175.236 58.0393L177.265 57.9614L177.486 57.9545L177.641 58.1093L179.357 59.832L180.998 60.1986L182.977 59.0854L183.006 59.069L183.035 59.0565L184.855 58.3385L185.065 58.2556L185.262 58.356L187.359 59.4057L189.154 59.2705L189.716 56.9983L189.772 56.7765L191.648 55.8053L192.283 54.0874L192.855 52.2879L193.107 50.4019L193.118 50.3087L193.166 50.2276L194.12 48.494L193.638 46.6052L193.627 46.5646L193.623 46.5249L193.449 44.4816L193.437 44.3073L193.531 44.1645L194.656 42.4537L194.233 40.5912L194.188 40.3936L194.294 40.2206L195.324 38.5189L194.694 36.6453L194.665 36.5555L194.671 36.4658L194.753 34.5138L194.455 32.4882L194.416 32.2048L196.736 30.3474L196.533 28.631L194.693 27.1852L194.639 27.14L194.594 27.08L193.503 25.5404L193.462 25.4848L193.441 25.4235L192.797 23.6857L191.335 22.6552L189.719 21.6667L187.936 20.8088L187.921 20.7993L186.204 19.9096L184.306 20.6466L184.171 20.6984L184.032 20.6751L182.049 20.3022L181.934 20.2777L181.84 20.2083L180.23 18.9885L178.365 19.9649L178.323 19.9877L178.278 20.0024L176.183 20.6467L176.089 20.6757L175.992 20.6649L173.991 20.4905L173.797 20.4728L173.667 20.3288L171.929 18.4581L170.26 17.8056L168.337 18.3196L168.195 18.3589L168.058 18.3123L166.246 17.75L164.297 18.2808L164.139 18.3223L163.984 18.2619L162.146 17.5396L160.214 17.6045L160.056 17.6106L159.92 17.5209L158.148 16.3499L156.312 16.2448Z" fill="#342E84"/>
<text transform="translate(19.8661 5.73718) rotate(6.32074)" fill="#FDFDFD" xml:space="preserve" style="white-space: pre" font-family="DiodrumArabic-Semibold" font-size="16" letter-spacing="0em"><tspan x="0.1875" y="20.704">&#x623;&#x643;&#x62a;&#x634;&#x641; &#x645;&#x633;&#x627;&#x631;&#x62a;&#x646;&#x627; &#x627;&#x644;&#x62f;&#x631;&#x627;&#x633;&#x64a;&#x629;</tspan></text>
</svg>
