<svg width="203" height="62" viewBox="0 0 203 62" fill="none" xmlns="http://www.w3.org/2000/svg">
<path d="M3.37489 10.1011C3.98292 4.6118 8.92577 0.654773 14.415 1.26281L192.327 20.9697C197.816 21.5777 201.773 26.5205 201.165 32.0098L198.963 51.8882C198.355 57.3775 193.412 61.3345 187.923 60.7265L10.0113 41.0197C4.522 40.4116 0.564973 35.4688 1.17301 29.9795L3.37489 10.1011Z" fill="#32A1DB"/>
<path d="M14.415 1.26281L14.4701 0.765846L14.3021 0.747236L14.1572 0.834392L14.415 1.26281ZM14.5144 1.27382L14.788 0.855287L14.6881 0.789994L14.5695 0.776855L14.5144 1.27382ZM16.3064 2.44506L16.0328 2.86359L16.3158 3.04853L16.5928 2.85488L16.3064 2.44506ZM18.4984 0.912895L18.8387 0.546623L18.5429 0.271729L18.2119 0.503083L18.4984 0.912895ZM20.3319 2.61674L19.9916 2.98301L20.2058 3.18206L20.4843 3.09296L20.3319 2.61674ZM22.4285 1.94601L22.3912 1.44741L22.3324 1.45181L22.2762 1.46979L22.4285 1.94601ZM24.4677 1.79338L24.6352 1.32225L24.5357 1.28689L24.4304 1.29477L24.4677 1.79338ZM26.4134 2.48487L26.6889 2.06757L26.6381 2.03409L26.5809 2.01374L26.4134 2.48487ZM28.2979 3.72875L28.0225 4.14604L28.1805 4.25033L28.368 4.22382L28.2979 3.72875ZM30.3524 3.43821L30.3683 2.93847L30.3252 2.93709L30.2824 2.94314L30.3524 3.43821ZM32.3676 3.50234L32.3517 4.00208L32.3867 4.00319L32.4214 3.99943L32.3676 3.50234ZM34.4144 3.28082L34.7074 2.87562L34.5517 2.76305L34.3606 2.78372L34.4144 3.28082ZM36.2868 4.63447L35.9939 5.03967L36.1873 5.17954L36.4177 5.11703L36.2868 4.63447ZM38.3717 4.06882L38.2453 3.58505L38.2408 3.58626L38.3717 4.06882ZM40.4543 3.52438L40.5354 3.03099L40.4306 3.01379L40.3279 3.04064L40.4543 3.52438ZM42.4405 3.85052L42.7027 3.42475L42.6188 3.37309L42.5215 3.35712L42.4405 3.85052ZM44.3337 5.01619L44.0715 5.44196L44.3034 5.58471L44.5491 5.46741L44.3337 5.01619ZM46.4689 3.99685L46.6102 3.51722L46.4264 3.46308L46.2535 3.54563L46.4689 3.99685ZM48.4273 4.57373L48.286 5.05336L48.3779 5.08043L48.4733 5.07161L48.4273 4.57373ZM50.4705 4.38488L50.8155 4.02298L50.6509 3.86607L50.4245 3.887L50.4705 4.38488ZM52.2996 6.12862L51.9546 6.49052L52.166 6.69197L52.4452 6.60695L52.2996 6.12862ZM54.3925 5.49151L54.3466 4.99363L54.2957 4.99832L54.2469 5.01319L54.3925 5.49151ZM56.4357 5.30299L56.4467 4.80311L56.4181 4.80248L56.3897 4.8051L56.4357 5.30299ZM58.4531 5.34735L58.5704 4.86133L58.518 4.84866L58.464 4.84747L58.4531 5.34735ZM60.4227 5.82306L60.3053 6.30909L60.319 6.31241L60.3329 6.31495L60.4227 5.82306ZM62.4049 6.18463L62.3152 6.67651L62.4013 6.69222L62.4876 6.67774L62.4049 6.18463ZM64.4655 5.8391L64.6593 5.37821L64.5257 5.32202L64.3828 5.34599L64.4655 5.8391ZM66.3977 6.65184L66.2039 7.11273L66.2313 7.12425L66.2598 7.13244L66.3977 6.65184ZM68.3577 7.21436L68.2198 7.69496L68.3446 7.73078L68.4711 7.70134L68.3577 7.21436ZM70.4335 6.73115L70.5501 6.24493L70.4352 6.21739L70.3202 6.24417L70.4335 6.73115ZM72.4035 7.20352L72.2869 7.68974L72.3807 7.71222L72.4761 7.69823L72.4035 7.20352ZM74.4592 6.90192L74.7887 6.52581L74.615 6.37371L74.3866 6.40722L74.4592 6.90192ZM76.3026 8.51665L75.9732 8.89276L76.2473 9.13291L76.5599 8.9454L76.3026 8.51665ZM78.4689 7.21699L78.7952 6.83814L78.5215 6.60237L78.2117 6.78823L78.4689 7.21699ZM80.3151 8.80711L79.9888 9.18595L80.1815 9.35194L80.4291 9.29392L80.3151 8.80711ZM82.3912 8.3207L82.5893 7.86159L82.4378 7.79625L82.2772 7.83388L82.3912 8.3207ZM84.3213 9.15323L84.1233 9.61234L84.278 9.67907L84.4415 9.63858L84.3213 9.15323ZM86.4006 8.63834L86.5724 8.16876L86.4288 8.11626L86.2804 8.153L86.4006 8.63834ZM88.3442 9.34911L88.6479 8.95193L88.5874 8.90568L88.5159 8.87952L88.3442 9.34911ZM90.2086 10.7748L89.9048 11.172L90.1244 11.3399L90.3833 11.2433L90.2086 10.7748ZM92.318 9.98804L92.5683 9.55518L92.3642 9.43718L92.1433 9.51957L92.318 9.98804ZM94.2186 11.0869L93.9683 11.5198L94.0847 11.587L94.2191 11.5869L94.2186 11.0869ZM96.2411 11.0848L96.3664 10.6008L96.3045 10.5848L96.2406 10.5848L96.2411 11.0848ZM98.207 11.5936L98.0818 12.0777L98.1917 12.1061L98.3031 12.0843L98.207 11.5936ZM100.274 11.1889L100.5 10.7427L100.347 10.6652L100.178 10.6982L100.274 11.1889ZM102.189 12.1576L101.963 12.6037L102.071 12.6583L102.192 12.6576L102.189 12.1576ZM104.213 12.1457L104.216 12.6457L104.395 12.6447L104.532 12.5303L104.213 12.1457ZM106.44 10.2954L106.743 9.8974L106.426 9.65675L106.121 9.91078L106.44 10.2954ZM108.305 11.7139L108.003 12.1119L108.11 12.1938L108.245 12.2102L108.305 11.7139ZM110.3 11.9577L110.24 12.454L110.356 12.4683L110.467 12.4291L110.3 11.9577ZM112.405 11.2131L112.529 10.7287L112.382 10.691L112.238 10.7417L112.405 11.2131ZM114.372 11.7158L114.248 12.2002L114.318 12.218L114.39 12.2155L114.372 11.7158ZM116.402 11.6426L116.612 11.1886L116.503 11.1387L116.384 11.143L116.402 11.6426ZM118.326 12.5299L118.644 12.1438L118.594 12.1028L118.536 12.0758L118.326 12.5299ZM120.18 14.055L119.862 14.4411L120.053 14.5985L120.294 14.5417L120.18 14.055ZM122.256 13.5661L122.345 13.0742L122.243 13.0555L122.141 13.0794L122.256 13.5661ZM124.238 13.9262L124.149 14.4181L124.334 14.4517L124.495 14.3554L124.238 13.9262ZM126.404 12.6322L126.794 12.3188L126.521 11.9799L126.148 12.203L126.404 12.6322ZM128.182 14.842L127.792 15.1554L128.112 15.5535L128.503 15.2247L128.182 14.842ZM130.412 12.967L130.774 12.6223L130.45 12.2818L130.09 12.5843L130.412 12.967ZM132.223 14.87L131.861 15.2147L132.083 15.4475L132.386 15.3426L132.223 14.87ZM134.326 14.1437L134.2 13.6598L134.181 13.6647L134.163 13.6711L134.326 14.1437ZM136.408 13.6011L136.822 13.3204L136.624 13.0282L136.282 13.1172L136.408 13.6011ZM138.147 16.1643L137.733 16.4449L137.871 16.649L138.117 16.6634L138.147 16.1643ZM140.156 16.2817L140.127 16.7809L140.235 16.7872L140.335 16.7484L140.156 16.2817ZM142.268 15.47L142.521 15.0387L142.313 14.9169L142.089 15.0032L142.268 15.47ZM144.167 16.5836L143.914 17.0149L144.139 17.1468L144.376 17.0378L144.167 16.5836ZM146.298 15.6034L146.407 15.1154L146.242 15.0788L146.089 15.1492L146.298 15.6034ZM148.272 16.0428L148.163 16.5308L148.318 16.5652L148.464 16.5043L148.272 16.0428ZM150.392 15.1597L150.716 14.7792L150.483 14.5802L150.199 14.6981L150.392 15.1597ZM152.239 16.7352L151.915 17.1157L152.11 17.2821L152.359 17.2206L152.239 16.7352ZM154.319 16.222L154.242 15.728L154.22 15.7313L154.199 15.7366L154.319 16.222ZM156.376 15.9016L156.406 15.4025L156.352 15.3993L156.299 15.4075L156.376 15.9016ZM158.385 16.0205L158.661 15.6034L158.549 15.5293L158.415 15.5214L158.385 16.0205ZM160.27 17.266L159.994 17.6832L160.127 17.771L160.286 17.7658L160.27 17.266ZM162.3 17.1988L162.482 16.7334L162.386 16.6957L162.283 16.6991L162.3 17.1988ZM164.238 17.9593L164.055 18.4247L164.209 18.4854L164.37 18.4415L164.238 17.9593ZM166.323 17.3884L166.472 16.9111L166.332 16.8675L166.191 16.9062L166.323 17.3884ZM168.278 17.9984L168.129 18.4757L168.267 18.5189L168.407 18.4814L168.278 17.9984ZM170.362 17.4392L170.545 16.9738L170.392 16.9136L170.233 16.9563L170.362 17.4392ZM172.3 18.2006L172.667 17.8611L172.589 17.7771L172.483 17.7352L172.3 18.2006ZM174.106 20.153L173.739 20.4925L173.87 20.6342L174.062 20.6511L174.106 20.153ZM176.109 20.3292L176.065 20.8273L176.162 20.8359L176.256 20.8071L176.109 20.3292ZM178.202 19.6852L178.349 20.1631L178.394 20.1494L178.435 20.1278L178.202 19.6852ZM180.35 18.5566L180.652 18.1582L180.399 17.9661L180.117 18.114L180.35 18.5566ZM182.215 19.9713L181.913 20.3697L182.007 20.4409L182.123 20.4627L182.215 19.9713ZM184.196 20.344L184.104 20.8354L184.244 20.8618L184.377 20.8102L184.196 20.344ZM186.309 19.5243L186.533 19.077L186.335 18.9782L186.129 19.0582L186.309 19.5243ZM188.226 20.481L188.002 20.9284L188.048 20.951L188.097 20.9641L188.226 20.481ZM190.19 21.0051L190.061 21.4882L190.086 21.4947L190.111 21.4987L190.19 21.0051ZM192.177 21.3242L192.098 21.8178L192.109 21.8197L192.12 21.821L192.177 21.3242ZM194.126 21.546L194.455 21.1693L194.338 21.0668L194.183 21.0492L194.126 21.546ZM195.635 22.8628L195.306 23.2395L195.356 23.2829L195.415 23.3119L195.635 22.8628ZM197.331 23.693L197.112 24.1421L197.177 24.1741L197.249 24.1861L197.331 23.693ZM199.846 24.1145L200.254 23.8253L200.134 23.6557L199.929 23.6213L199.846 24.1145ZM201.127 25.9218L201.578 26.1366L201.704 25.8719L201.535 25.6326L201.127 25.9218ZM199.872 28.5576L199.421 28.3427L199.319 28.5567L199.42 28.7711L199.872 28.5576ZM200.693 30.2959L201.193 30.2783L201.189 30.1754L201.145 30.0824L200.693 30.2959ZM200.761 32.2281L200.261 32.2456L200.264 32.3184L200.287 32.3875L200.761 32.2281ZM201.468 34.3286L201.895 34.5888L202.016 34.3899L201.942 34.1692L201.468 34.3286ZM200.314 36.2231L199.887 35.9629L199.781 36.1363L199.826 36.3342L200.314 36.2231ZM200.787 38.2978L201.204 38.5736L201.322 38.3952L201.274 38.1866L200.787 38.2978ZM199.541 40.182L199.123 39.9062L199.028 40.0513L199.042 40.2245L199.541 40.182ZM199.715 42.2236L199.216 42.2661L199.22 42.3074L199.23 42.3476L199.715 42.2236ZM200.247 44.3049L200.685 44.5468L200.781 44.3731L200.732 44.1809L200.247 44.3049ZM199.194 46.2105L198.756 45.9687L198.705 46.061L198.696 46.1662L199.194 46.2105ZM199.016 48.2131L198.518 48.1687L198.517 48.1746L199.016 48.2131ZM198.861 50.2182L198.363 50.1798L198.36 50.2186L198.363 50.2573L198.861 50.2182ZM199.021 52.2626L199.436 52.5417L199.534 52.3972L199.52 52.2235L199.021 52.2626ZM197.861 53.9883L197.446 53.7092L197.32 53.8967L197.377 54.1152L197.861 53.9883ZM198.548 56.6068L198.819 57.0271L199.123 56.8307L199.031 56.4799L198.548 56.6068ZM196.616 57.8517L196.633 58.3514L196.771 58.3466L196.886 58.272L196.616 57.8517ZM194.133 57.9385L194.115 57.4388L193.891 57.4467L193.748 57.6195L194.133 57.9385ZM192.884 59.4459L192.499 59.1269L192.491 59.1363L192.484 59.146L192.884 59.4459ZM191.389 61.4404L191.397 61.9403L191.642 61.9364L191.789 61.7403L191.389 61.4404ZM189.21 61.475L188.872 61.8438L189.019 61.9781L189.218 61.9749L189.21 61.475ZM187.297 59.7239L187.635 59.3551L187.483 59.2163L187.278 59.2243L187.297 59.7239ZM185.266 59.8026L185.247 59.303L185.133 59.3074L185.033 59.3604L185.266 59.8026ZM183.118 60.9353L183.167 61.433L183.264 61.4234L183.351 61.3776L183.118 60.9353ZM181.074 61.1347L180.876 61.5941L180.994 61.6448L181.122 61.6323L181.074 61.1347ZM179.143 60.3055L178.944 60.764L178.946 60.765L179.143 60.3055ZM177.214 59.4656L177.414 59.0071L177.312 58.963L177.202 58.9657L177.214 59.4656ZM175.186 59.5144L174.961 59.961L175.073 60.0173L175.198 60.0143L175.186 59.5144ZM173.271 58.5499L173.496 58.1033L173.414 58.062L173.323 58.0526L173.271 58.5499ZM171.272 58.3424L171.112 58.8161L171.165 58.834L171.22 58.8397L171.272 58.3424ZM169.322 57.6844L169.482 57.2107L169.282 57.1433L169.095 57.2391L169.322 57.6844ZM167.179 58.7793L167.058 59.2646L167.24 59.3096L167.406 59.2246L167.179 58.7793ZM165.21 58.2914L165.331 57.8061L165.26 57.7886L165.187 57.792L165.21 58.2914ZM163.178 58.3855L163.102 58.8797L163.151 58.8872L163.201 58.8849L163.178 58.3855ZM161.189 58.0819L160.94 58.5152L161.021 58.562L161.114 58.5761L161.189 58.0819ZM159.288 56.9873L159.537 56.554L159.485 56.5239L159.427 56.5071L159.288 56.9873ZM157.329 56.4197L157.468 55.9395L157.424 55.9267L157.378 55.9222L157.329 56.4197ZM155.328 56.2199L155.378 55.7224L155.23 55.7076L155.098 55.7763L155.328 56.2199ZM153.182 57.3364L153.294 57.8239L153.356 57.8096L153.413 57.7799L153.182 57.3364ZM151.108 57.8095L150.973 58.2911L151.095 58.3251L151.219 58.2969L151.108 57.8095ZM149.146 57.2624L148.783 57.6068L148.879 57.707L149.012 57.7441L149.146 57.2624ZM147.335 55.3557L147.697 55.0114L147.527 54.8324L147.282 54.8585L147.335 55.3557ZM145.288 55.5735L145.305 56.0732L145.323 56.0726L145.341 56.0707L145.288 55.5735ZM143.259 55.6406L143.04 56.0903L143.151 56.1444L143.275 56.1403L143.259 55.6406ZM141.34 54.7075L141.558 54.2578L141.324 54.1439L141.097 54.2706L141.34 54.7075ZM139.185 55.9076L138.846 56.2753L139.112 56.5204L139.428 56.3445L139.185 55.9076ZM137.35 54.2169L137.688 53.8492L137.562 53.7332L137.392 53.7187L137.35 54.2169ZM135.346 54.0469L135.388 53.5487L135.264 53.5381L135.148 53.5877L135.346 54.0469ZM133.223 54.9611L132.898 55.3416L133.135 55.5433L133.42 55.4204L133.223 54.9611ZM131.375 53.386L131.699 53.0055L131.509 52.8432L131.265 52.8982L131.375 53.386ZM129.301 53.8534L129.092 54.3078L129.246 54.3783L129.411 54.3411L129.301 53.8534ZM127.376 52.9706L127.585 52.5161L127.308 52.389L127.068 52.5771L127.376 52.9706ZM125.162 54.7068L124.907 55.1372L125.201 55.3111L125.47 55.1003L125.162 54.7068ZM123.264 53.5844L123.518 53.154L123.503 53.1451L123.487 53.1373L123.264 53.5844ZM121.348 52.6254L121.571 52.1783L121.47 52.1274L121.356 52.1255L121.348 52.6254ZM119.329 52.5913L119.337 52.0914L119.273 52.0903L119.211 52.1054L119.329 52.5913ZM117.251 53.0949L117.133 52.6088L117.122 52.6117L117.251 53.0949ZM115.167 53.6503L114.842 54.0301L115.042 54.2012L115.296 54.1335L115.167 53.6503ZM113.32 52.0682L113.645 51.6885L113.48 51.5471L113.264 51.5713L113.32 52.0682ZM111.272 52.2973L111.327 52.7943L111.328 52.7942L111.272 52.2973ZM109.225 52.5237L108.995 52.9677L109.129 53.0373L109.28 53.0207L109.225 52.5237ZM107.312 51.533L107.053 51.9602L107.067 51.9691L107.082 51.977L107.312 51.533ZM105.418 50.3808L105.678 49.9536L105.469 49.827L105.241 49.913L105.418 50.3808ZM103.307 51.177L103.474 51.6484L103.484 51.6449L103.307 51.177ZM101.202 51.9235L101.243 52.4219L101.308 52.4166L101.369 52.3948L101.202 51.9235ZM99.1615 52.0905L98.8886 52.5095L99.0319 52.6028L99.2023 52.5889L99.1615 52.0905ZM97.2754 50.8615L96.9985 51.2779L97.0024 51.2804L97.2754 50.8615ZM95.3918 49.6089L95.6687 49.1925L95.5012 49.0811L95.3031 49.1168L95.3918 49.6089ZM93.3283 49.9809L93.3654 50.4796L93.3914 50.4776L93.4171 50.473L93.3283 49.9809ZM91.2893 50.1325L91.2522 49.6339L91.2177 49.6365L91.1839 49.6438L91.2893 50.1325ZM89.2175 50.5791L88.8592 50.9279L89.0522 51.1262L89.3229 51.0679L89.2175 50.5791ZM87.4018 48.7136L87.7601 48.3649L87.4953 48.0927L87.162 48.2749L87.4018 48.7136ZM85.2492 49.8903L85.0711 50.3575L85.2866 50.4397L85.489 50.3291L85.2492 49.8903ZM83.3088 49.1507L83.4869 48.6835L83.3432 48.6287L83.1934 48.6642L83.3088 49.1507ZM81.232 49.6433L80.8731 49.9914L81.0709 50.1953L81.3474 50.1298L81.232 49.6433ZM79.417 47.772L79.7759 47.4238L79.5963 47.2386L79.3412 47.2777L79.417 47.772ZM77.3597 48.0873L77.402 48.5855L77.4188 48.5841L77.4355 48.5815L77.3597 48.0873ZM75.3183 48.2604L75.027 48.6668L75.1768 48.7742L75.3605 48.7586L75.3183 48.2604ZM73.4447 46.9175L73.736 46.5111L73.453 46.3082L73.1645 46.5034L73.4447 46.9175ZM71.2586 48.3968L71.049 48.8507L71.3051 48.969L71.5388 48.8109L71.2586 48.3968ZM69.3347 47.5084L69.5443 47.0544L69.4392 47.0059L69.3234 47.0085L69.3347 47.5084ZM67.3074 47.554L66.9863 47.9373L67.1305 48.0581L67.3186 48.0539L67.3074 47.554ZM65.4568 46.0039L65.7778 45.6206L65.514 45.3996L65.2134 45.5671L65.4568 46.0039ZM63.3015 47.2045L63.227 47.6989L63.3957 47.7243L63.5448 47.6413L63.3015 47.2045ZM61.3124 46.9048L61.0085 47.3019L61.1106 47.3801L61.2379 47.3993L61.3124 46.9048ZM59.4482 45.4778L59.7521 45.0808L59.6406 44.9954L59.5009 44.9806L59.4482 45.4778ZM57.4493 45.2658L57.5021 44.7686L57.3524 44.7527L57.2189 44.8221L57.4493 45.2658ZM55.3036 46.3803L55.3085 46.8803L55.428 46.8791L55.5341 46.824L55.3036 46.3803ZM53.2791 46.4001L52.9437 46.7709L53.0886 46.902L53.284 46.9001L53.2791 46.4001ZM51.441 44.7377L51.7763 44.3669L51.6346 44.2387L51.4435 44.2377L51.441 44.7377ZM49.4198 44.7274L49.4224 44.2274L49.3632 44.2271L49.3055 44.2406L49.4198 44.7274ZM47.3435 45.2149L47.2186 45.6991L47.3379 45.7298L47.4578 45.7017L47.3435 45.2149ZM45.3774 44.7076L45.1385 45.1469L45.1927 45.1763L45.2525 45.1918L45.3774 44.7076ZM43.47 43.6703L43.7089 43.231L43.4022 43.0642L43.1399 43.2947L43.47 43.6703ZM41.2296 45.6394L40.995 46.081L41.3002 46.2431L41.5597 46.015L41.2296 45.6394ZM39.3197 44.6248L39.5543 44.1832L39.4026 44.1027L39.2334 44.1323L39.3197 44.6248ZM37.2574 44.9862L37.0195 45.426L37.1724 45.5087L37.3437 45.4787L37.2574 44.9862ZM35.3494 43.9541L35.5873 43.5143L35.3839 43.4043L35.1683 43.4881L35.3494 43.9541ZM33.2362 44.7751L33.1368 45.2652L33.2805 45.2943L33.4172 45.2412L33.2362 44.7751ZM31.2583 44.3739L31.3577 43.8839L31.3182 43.8759L31.2779 43.8743L31.2583 44.3739ZM29.2448 44.2951L28.8938 44.6512L29.0317 44.7872L29.2252 44.7948L29.2448 44.2951ZM27.4215 42.498L27.7725 42.1419L27.6928 42.0633L27.5872 42.0262L27.4215 42.498ZM25.475 41.8143L25.6407 41.3425L25.5363 41.3059L25.4262 41.3167L25.475 41.8143ZM23.4305 42.0146L23.3817 41.5169L23.2977 41.5252L23.2211 41.5605L23.4305 42.0146ZM21.2993 42.9976L21.1601 43.4779L21.3393 43.5298L21.5087 43.4516L21.2993 42.9976ZM19.3399 42.4297L19.4791 41.9495L19.3868 41.9227L19.2912 41.9321L19.3399 42.4297ZM17.2955 42.6297L17.3011 43.1297L17.3227 43.1294L17.3442 43.1273L17.2955 42.6297ZM15.2707 42.6524L15.113 43.1269L15.1925 43.1533L15.2763 43.1524L15.2707 42.6524ZM13.3201 42.0044L13.0603 42.4316L13.1087 42.4611L13.1625 42.4789L13.3201 42.0044ZM11.4255 40.8519L11.6854 40.4248L11.5715 40.3555L11.4383 40.3521L11.4255 40.8519ZM9.41704 40.8006L9.42982 40.3007L9.41843 40.3005L9.40704 40.3007L9.41704 40.8006ZM7.28517 40.8432L6.82674 41.0428L6.9604 41.3498L7.29517 41.3431L7.28517 40.8432ZM6.28284 38.5411L6.74127 38.3415L6.64397 38.118L6.40798 38.057L6.28284 38.5411ZM4.29977 38.0284L3.82569 38.1873L3.91191 38.4446L4.17463 38.5125L4.29977 38.0284ZM3.65887 36.116L4.13295 35.9571L4.05241 35.7168L3.81094 35.6397L3.65887 36.116ZM1.01246 35.2711L0.562773 35.0525L0.310371 35.5718L0.860387 35.7474L1.01246 35.2711ZM2.20663 32.8142L2.65632 33.0328L2.72799 32.8854L2.69844 32.7241L2.20663 32.8142ZM1.87428 31.0007L2.36609 30.9106L2.3487 30.8157L2.29727 30.7341L1.87428 31.0007ZM0.557165 28.911L0.0909676 28.7302L5.29701e-05 28.9648L0.134172 29.1776L0.557165 28.911ZM1.30883 26.9719L1.77503 27.1527L1.83322 27.0025L1.79288 26.8467L1.30883 26.9719ZM0.769972 24.89L0.413818 24.539L0.214915 24.7409L0.285922 25.0152L0.769972 24.89ZM2.56654 23.0667L2.92269 23.4176L3.21888 23.117L2.97232 22.7745L2.56654 23.0667ZM0.984445 20.8691L0.68869 20.466L0.289132 20.7591L0.578666 21.1613L0.984445 20.8691ZM3.37945 19.1121L3.67521 19.5153L4.07524 19.2218L3.78489 18.8195L3.37945 19.1121ZM1.79306 16.9141L1.37496 16.6399L1.18623 16.9277L1.38763 17.2067L1.79306 16.9141ZM3.02953 15.0288L3.44763 15.303L3.50272 15.219L3.52109 15.1202L3.02953 15.0288ZM3.39814 13.0473L3.88971 13.1388L3.91832 12.985L3.85418 12.8423L3.39814 13.0473ZM2.44129 10.919L2.08887 10.5643L1.84331 10.8083L1.98526 11.1241L2.44129 10.919ZM4.20522 9.16639L4.55764 9.52108L4.73071 9.34912L4.70167 9.10688L4.20522 9.16639ZM3.94681 7.01048L3.58097 6.66965L3.42273 6.8395L3.45036 7.06999L3.94681 7.01048ZM5.35469 5.49932L5.06289 5.0933L5.02264 5.12223L4.98886 5.15849L5.35469 5.49932ZM6.95444 4.3496L7.24624 4.75562L7.3305 4.69506L7.38371 4.60598L6.95444 4.3496ZM8.03658 2.53772L7.95868 2.04382L7.72737 2.0803L7.60731 2.28134L8.03658 2.53772ZM10.0741 2.21634L10.152 2.71023L10.3065 2.68587L10.4196 2.57783L10.0741 2.21634ZM11.7651 0.600405L11.9817 0.149732L11.6698 -0.000114839L11.4197 0.238918L11.7651 0.600405ZM13.8506 1.60247L13.634 2.05314L13.8772 2.16999L14.1084 2.03089L13.8506 1.60247ZM14.415 1.26281L14.36 1.75977L14.4594 1.77078L14.5144 1.27382L14.5695 0.776855L14.4701 0.765846L14.415 1.26281ZM14.5144 1.27382L14.2409 1.69234L16.0328 2.86359L16.3064 2.44506L16.5799 2.02654L14.788 0.855287L14.5144 1.27382ZM16.3064 2.44506L16.5928 2.85488L18.7848 1.32271L18.4984 0.912895L18.2119 0.503083L16.0199 2.03525L16.3064 2.44506ZM18.4984 0.912895L18.158 1.27917L19.9916 2.98301L20.3319 2.61674L20.6723 2.25047L18.8387 0.546623L18.4984 0.912895ZM20.3319 2.61674L20.4843 3.09296L22.5809 2.42224L22.4285 1.94601L22.2762 1.46979L20.1796 2.14052L20.3319 2.61674ZM22.4285 1.94601L22.4659 2.44462L24.5051 2.29198L24.4677 1.79338L24.4304 1.29477L22.3912 1.44741L22.4285 1.94601ZM24.4677 1.79338L24.3003 2.26451L26.246 2.956L26.4134 2.48487L26.5809 2.01374L24.6352 1.32225L24.4677 1.79338ZM26.4134 2.48487L26.138 2.90216L28.0225 4.14604L28.2979 3.72875L28.5734 3.31145L26.6889 2.06757L26.4134 2.48487ZM28.2979 3.72875L28.368 4.22382L30.4224 3.93329L30.3524 3.43821L30.2824 2.94314L28.2279 3.23367L28.2979 3.72875ZM30.3524 3.43821L30.3365 3.93796L32.3517 4.00208L32.3676 3.50234L32.3835 3.00259L30.3683 2.93847L30.3524 3.43821ZM32.3676 3.50234L32.4214 3.99943L34.4682 3.77792L34.4144 3.28082L34.3606 2.78372L32.3138 3.00524L32.3676 3.50234ZM34.4144 3.28082L34.1215 3.68602L35.9939 5.03967L36.2868 4.63447L36.5797 4.22928L34.7074 2.87562L34.4144 3.28082ZM36.2868 4.63447L36.4177 5.11703L38.5027 4.55137L38.3717 4.06882L38.2408 3.58626L36.1559 4.15192L36.2868 4.63447ZM38.3717 4.06882L38.4982 4.55256L40.5808 4.00812L40.4543 3.52438L40.3279 3.04064L38.2453 3.58507L38.3717 4.06882ZM40.4543 3.52438L40.3733 4.01777L42.3595 4.34391L42.4405 3.85052L42.5215 3.35712L40.5354 3.03099L40.4543 3.52438ZM42.4405 3.85052L42.1784 4.27628L44.0715 5.44196L44.3337 5.01619L44.5958 4.59043L42.7027 3.42475L42.4405 3.85052ZM44.3337 5.01619L44.5491 5.46741L46.6843 4.44806L46.4689 3.99685L46.2535 3.54563L44.1183 4.56497L44.3337 5.01619ZM46.4689 3.99685L46.3276 4.47647L48.286 5.05336L48.4273 4.57373L48.5686 4.09411L46.6102 3.51722L46.4689 3.99685ZM48.4273 4.57373L48.4733 5.07161L50.5165 4.88276L50.4705 4.38488L50.4245 3.887L48.3813 4.07585L48.4273 4.57373ZM50.4705 4.38488L50.1255 4.74678L51.9546 6.49052L52.2996 6.12862L52.6446 5.76672L50.8155 4.02298L50.4705 4.38488ZM52.2996 6.12862L52.4452 6.60695L54.5381 5.96984L54.3925 5.49151L54.2469 5.01319L52.154 5.65029L52.2996 6.12862ZM54.3925 5.49151L54.4384 5.9894L56.4816 5.80087L56.4357 5.30299L56.3897 4.8051L54.3466 4.99363L54.3925 5.49151ZM56.4357 5.30299L56.4247 5.80287L58.4421 5.84723L58.4531 5.34735L58.464 4.84747L56.4467 4.80311L56.4357 5.30299ZM58.4531 5.34735L58.3357 5.83338L60.3053 6.30909L60.4227 5.82306L60.54 5.33704L58.5704 4.86133L58.4531 5.34735ZM60.4227 5.82306L60.3329 6.31495L62.3152 6.67651L62.4049 6.18463L62.4946 5.69274L60.5124 5.33118L60.4227 5.82306ZM62.4049 6.18463L62.4876 6.67774L64.5482 6.33222L64.4655 5.8391L64.3828 5.34599L62.3222 5.69151L62.4049 6.18463ZM64.4655 5.8391L64.2716 6.29999L66.2039 7.11273L66.3977 6.65184L66.5916 6.19095L64.6593 5.37821L64.4655 5.8391ZM66.3977 6.65184L66.2598 7.13244L68.2198 7.69496L68.3577 7.21436L68.4957 6.73376L66.5357 6.17124L66.3977 6.65184ZM68.3577 7.21436L68.4711 7.70134L70.5469 7.21813L70.4335 6.73115L70.3202 6.24417L68.2444 6.72738L68.3577 7.21436ZM70.4335 6.73115L70.3169 7.21737L72.2869 7.68974L72.4035 7.20352L72.5201 6.7173L70.5501 6.24493L70.4335 6.73115ZM72.4035 7.20352L72.4761 7.69823L74.5318 7.39663L74.4592 6.90192L74.3866 6.40722L72.3309 6.70882L72.4035 7.20352ZM74.4592 6.90192L74.1298 7.27804L75.9732 8.89276L76.3026 8.51665L76.6321 8.14053L74.7887 6.52581L74.4592 6.90192ZM76.3026 8.51665L76.5599 8.9454L78.7261 7.64574L78.4689 7.21699L78.2117 6.78823L76.0454 8.08789L76.3026 8.51665ZM78.4689 7.21699L78.1426 7.59584L79.9888 9.18595L80.3151 8.80711L80.6414 8.42826L78.7952 6.83814L78.4689 7.21699ZM80.3151 8.80711L80.4291 9.29392L82.5053 8.80752L82.3912 8.3207L82.2772 7.83388L80.201 8.32029L80.3151 8.80711ZM82.3912 8.3207L82.1932 8.77981L84.1233 9.61234L84.3213 9.15323L84.5193 8.69412L82.5893 7.86159L82.3912 8.3207ZM84.3213 9.15323L84.4415 9.63858L86.5208 9.12368L86.4006 8.63834L86.2804 8.153L84.2011 8.66789L84.3213 9.15323ZM86.4006 8.63834L86.2289 9.10793L88.1725 9.81869L88.3442 9.34911L88.5159 8.87952L86.5724 8.16876L86.4006 8.63834ZM88.3442 9.34911L88.0405 9.74629L89.9048 11.172L90.2086 10.7748L90.5123 10.3776L88.6479 8.95193L88.3442 9.34911ZM90.2086 10.7748L90.3833 11.2433L92.4927 10.4565L92.318 9.98804L92.1433 9.51957L90.0338 10.3063L90.2086 10.7748ZM92.318 9.98804L92.0677 10.4209L93.9683 11.5198L94.2186 11.0869L94.4688 10.654L92.5683 9.55518L92.318 9.98804ZM94.2186 11.0869L94.2191 11.5869L96.2416 11.5848L96.2411 11.0848L96.2406 10.5848L94.2181 10.5869L94.2186 11.0869ZM96.2411 11.0848L96.1158 11.5689L98.0818 12.0777L98.207 11.5936L98.3323 11.1096L96.3664 10.6008L96.2411 11.0848ZM98.207 11.5936L98.3031 12.0843L100.37 11.6795L100.274 11.1889L100.178 10.6982L98.111 11.1029L98.207 11.5936ZM100.274 11.1889L100.048 11.635L101.963 12.6037L102.189 12.1576L102.415 11.7114L100.5 10.7427L100.274 11.1889ZM102.189 12.1576L102.192 12.6576L104.216 12.6457L104.213 12.1457L104.21 11.6457L102.186 11.6576L102.189 12.1576ZM104.213 12.1457L104.532 12.5303L106.76 10.68L106.44 10.2954L106.121 9.91078L103.893 11.7611L104.213 12.1457ZM106.44 10.2954L106.137 10.6934L108.003 12.1119L108.305 11.7139L108.608 11.316L106.743 9.8974L106.44 10.2954ZM108.305 11.7139L108.245 12.2102L110.24 12.454L110.3 11.9577L110.361 11.4614L108.366 11.2176L108.305 11.7139ZM110.3 11.9577L110.467 12.4291L112.572 11.6845L112.405 11.2131L112.238 10.7417L110.134 11.4864L110.3 11.9577ZM112.405 11.2131L112.281 11.6975L114.248 12.2002L114.372 11.7158L114.496 11.2314L112.529 10.7287L112.405 11.2131ZM114.372 11.7158L114.39 12.2155L116.42 12.1423L116.402 11.6426L116.384 11.143L114.354 11.2161L114.372 11.7158ZM116.402 11.6426L116.193 12.0967L118.117 12.9839L118.326 12.5299L118.536 12.0758L116.612 11.1886L116.402 11.6426ZM118.326 12.5299L118.009 12.9159L119.862 14.4411L120.18 14.055L120.497 13.6689L118.644 12.1438L118.326 12.5299ZM120.18 14.055L120.294 14.5417L122.371 14.0528L122.256 13.5661L122.141 13.0794L120.065 13.5683L120.18 14.055ZM122.256 13.5661L122.167 14.0581L124.149 14.4181L124.238 13.9262L124.328 13.4342L122.345 13.0742L122.256 13.5661ZM124.238 13.9262L124.495 14.3554L126.661 13.0614L126.404 12.6322L126.148 12.203L123.982 13.497L124.238 13.9262ZM126.404 12.6322L126.014 12.9456L127.792 15.1554L128.182 14.842L128.571 14.5286L126.794 12.3188L126.404 12.6322ZM128.182 14.842L128.503 15.2247L130.733 13.3497L130.412 12.967L130.09 12.5843L127.86 14.4593L128.182 14.842ZM130.412 12.967L130.049 13.3117L131.861 15.2147L132.223 14.87L132.585 14.5253L130.774 12.6223L130.412 12.967ZM132.223 14.87L132.386 15.3426L134.489 14.6163L134.326 14.1437L134.163 13.6711L132.06 14.3974L132.223 14.87ZM134.326 14.1437L134.452 14.6275L136.534 14.0849L136.408 13.6011L136.282 13.1172L134.2 13.6598L134.326 14.1437ZM136.408 13.6011L135.994 13.8817L137.733 16.4449L138.147 16.1643L138.56 15.8836L136.822 13.3204L136.408 13.6011ZM138.147 16.1643L138.117 16.6634L140.127 16.7809L140.156 16.2817L140.185 15.7826L138.176 15.6651L138.147 16.1643ZM140.156 16.2817L140.335 16.7484L142.447 15.9367L142.268 15.47L142.089 15.0032L139.977 15.815L140.156 16.2817ZM142.268 15.47L142.015 15.9013L143.914 17.0149L144.167 16.5836L144.42 16.1523L142.521 15.0387L142.268 15.47ZM144.167 16.5836L144.376 17.0378L146.507 16.0577L146.298 15.6034L146.089 15.1492L143.958 16.1293L144.167 16.5836ZM146.298 15.6034L146.189 16.0915L148.163 16.5308L148.272 16.0428L148.38 15.5547L146.407 15.1154L146.298 15.6034ZM148.272 16.0428L148.464 16.5043L150.584 15.6213L150.392 15.1597L150.199 14.6981L148.079 15.5812L148.272 16.0428ZM150.392 15.1597L150.067 15.5402L151.915 17.1157L152.239 16.7352L152.564 16.3547L150.716 14.7792L150.392 15.1597ZM152.239 16.7352L152.359 17.2206L154.438 16.7075L154.319 16.222L154.199 15.7366L152.12 16.2498L152.239 16.7352ZM154.319 16.222L154.396 16.7161L156.453 16.3956L156.376 15.9016L156.299 15.4075L154.242 15.728L154.319 16.222ZM156.376 15.9016L156.347 16.4007L158.356 16.5196L158.385 16.0205L158.415 15.5214L156.406 15.4025L156.376 15.9016ZM158.385 16.0205L158.11 16.4376L159.994 17.6832L160.27 17.266L160.546 16.8489L158.661 15.6034L158.385 16.0205ZM160.27 17.266L160.286 17.7658L162.316 17.6986L162.3 17.1988L162.283 16.6991L160.253 16.7663L160.27 17.266ZM162.3 17.1988L162.117 17.6643L164.055 18.4247L164.238 17.9593L164.42 17.4938L162.482 16.7334L162.3 17.1988ZM164.238 17.9593L164.37 18.4415L166.455 17.8707L166.323 17.3884L166.191 16.9062L164.106 17.477L164.238 17.9593ZM166.323 17.3884L166.174 17.8657L168.129 18.4757L168.278 17.9984L168.427 17.5211L166.472 16.9111L166.323 17.3884ZM168.278 17.9984L168.407 18.4814L170.492 17.9221L170.362 17.4392L170.233 16.9563L168.148 17.5155L168.278 17.9984ZM170.362 17.4392L170.179 17.9046L172.117 18.666L172.3 18.2006L172.483 17.7352L170.545 16.9738L170.362 17.4392ZM172.3 18.2006L171.933 18.5401L173.739 20.4925L174.106 20.153L174.473 19.8135L172.667 17.8611L172.3 18.2006ZM174.106 20.153L174.062 20.6511L176.065 20.8273L176.109 20.3292L176.153 19.8312L174.15 19.6549L174.106 20.153ZM176.109 20.3292L176.256 20.8071L178.349 20.1631L178.202 19.6852L178.055 19.2073L175.962 19.8513L176.109 20.3292ZM178.202 19.6852L178.435 20.1278L180.582 18.9992L180.35 18.5566L180.117 18.114L177.97 19.2426L178.202 19.6852ZM180.35 18.5566L180.048 18.9551L181.913 20.3697L182.215 19.9713L182.517 19.5729L180.652 18.1582L180.35 18.5566ZM182.215 19.9713L182.123 20.4627L184.104 20.8354L184.196 20.344L184.289 19.8527L182.308 19.4799L182.215 19.9713ZM184.196 20.344L184.377 20.8102L186.49 19.9905L186.309 19.5243L186.129 19.0582L184.016 19.8779L184.196 20.344ZM186.309 19.5243L186.086 19.9717L188.002 20.9284L188.226 20.481L188.449 20.0337L186.533 19.077L186.309 19.5243ZM188.226 20.481L188.097 20.9641L190.061 21.4882L190.19 21.0051L190.319 20.522L188.355 19.9979L188.226 20.481ZM190.19 21.0051L190.111 21.4987L192.098 21.8178L192.177 21.3242L192.256 20.8305L190.269 20.5114L190.19 21.0051ZM192.177 21.3242L192.12 21.821L194.07 22.0428L194.126 21.546L194.183 21.0492L192.234 20.8274L192.177 21.3242ZM194.126 21.546L193.797 21.9226L195.306 23.2395L195.635 22.8628L195.964 22.4861L194.455 21.1693L194.126 21.546ZM195.635 22.8628L195.415 23.3119L197.112 24.1421L197.331 23.693L197.551 23.2439L195.855 22.4137L195.635 22.8628ZM197.331 23.693L197.249 24.1861L199.763 24.6076L199.846 24.1145L199.929 23.6213L197.414 23.1999L197.331 23.693ZM199.846 24.1145L199.438 24.4036L200.719 26.2109L201.127 25.9218L201.535 25.6326L200.254 23.8253L199.846 24.1145ZM201.127 25.9218L200.676 25.7069L199.421 28.3427L199.872 28.5576L200.324 28.7725L201.578 26.1366L201.127 25.9218ZM199.872 28.5576L199.42 28.7711L200.241 30.5093L200.693 30.2959L201.145 30.0824L200.325 28.3441L199.872 28.5576ZM200.693 30.2959L200.193 30.3134L200.261 32.2456L200.761 32.2281L201.261 32.2105L201.193 30.2783L200.693 30.2959ZM200.761 32.2281L200.287 32.3875L200.994 34.4881L201.468 34.3286L201.942 34.1692L201.235 32.0686L200.761 32.2281ZM201.468 34.3286L201.041 34.0685L199.887 35.9629L200.314 36.2231L200.741 36.4832L201.895 34.5888L201.468 34.3286ZM200.314 36.2231L199.826 36.3342L200.299 38.4089L200.787 38.2978L201.274 38.1866L200.801 36.1119L200.314 36.2231ZM200.787 38.2978L200.37 38.022L199.123 39.9062L199.541 40.182L199.958 40.4578L201.204 38.5736L200.787 38.2978ZM199.541 40.182L199.042 40.2245L199.216 42.2661L199.715 42.2236L200.213 42.1811L200.039 40.1396L199.541 40.182ZM199.715 42.2236L199.23 42.3476L199.763 44.4289L200.247 44.3049L200.732 44.1809L200.199 42.0996L199.715 42.2236ZM200.247 44.3049L199.81 44.063L198.756 45.9687L199.194 46.2105L199.632 46.4524L200.685 44.5468L200.247 44.3049ZM199.194 46.2105L198.696 46.1662L198.518 48.1687L199.016 48.2131L199.514 48.2574L199.692 46.2549L199.194 46.2105ZM199.016 48.2131L198.517 48.1746L198.363 50.1798L198.861 50.2182L199.36 50.2567L199.514 48.2515L199.016 48.2131ZM198.861 50.2182L198.363 50.2573L198.523 52.3017L199.021 52.2626L199.52 52.2235L199.36 50.1791L198.861 50.2182ZM199.021 52.2626L198.607 51.9835L197.446 53.7092L197.861 53.9883L198.275 54.2674L199.436 52.5417L199.021 52.2626ZM197.861 53.9883L197.377 54.1152L198.064 56.7337L198.548 56.6068L199.031 56.4799L198.344 53.8614L197.861 53.9883ZM198.548 56.6068L198.277 56.1865L196.345 57.4314L196.616 57.8517L196.886 58.272L198.819 57.0271L198.548 56.6068ZM196.616 57.8517L196.598 57.352L194.115 57.4388L194.133 57.9385L194.15 58.4382L196.633 58.3514L196.616 57.8517ZM194.133 57.9385L193.748 57.6195L192.499 59.1269L192.884 59.4459L193.269 59.7649L194.518 58.2575L194.133 57.9385ZM192.884 59.4459L192.484 59.146L190.989 61.1404L191.389 61.4404L191.789 61.7403L193.284 59.7458L192.884 59.4459ZM191.389 61.4404L191.381 60.9404L189.202 60.975L189.21 61.475L189.218 61.9749L191.397 61.9403L191.389 61.4404ZM189.21 61.475L189.548 61.1061L187.635 59.3551L187.297 59.7239L186.959 60.0927L188.872 61.8438L189.21 61.475ZM187.297 59.7239L187.278 59.2243L185.247 59.303L185.266 59.8026L185.285 60.3023L187.316 60.2235L187.297 59.7239ZM185.266 59.8026L185.033 59.3604L182.885 60.4931L183.118 60.9353L183.351 61.3776L185.499 60.2449L185.266 59.8026ZM183.118 60.9353L183.07 60.4377L181.025 60.6371L181.074 61.1347L181.122 61.6323L183.167 61.433L183.118 60.9353ZM181.074 61.1347L181.271 60.6753L179.341 59.8461L179.143 60.3055L178.946 60.765L180.876 61.5941L181.074 61.1347ZM179.143 60.3055L179.343 59.8471L177.414 59.0071L177.214 59.4656L177.014 59.924L178.944 60.764L179.143 60.3055ZM177.214 59.4656L177.202 58.9657L175.174 59.0146L175.186 59.5144L175.198 60.0143L177.226 59.9654L177.214 59.4656ZM175.186 59.5144L175.411 59.0679L173.496 58.1033L173.271 58.5499L173.046 58.9965L174.961 59.961L175.186 59.5144ZM173.271 58.5499L173.323 58.0526L171.323 57.8451L171.272 58.3424L171.22 58.8397L173.219 59.0472L173.271 58.5499ZM171.272 58.3424L171.431 57.8686L169.482 57.2107L169.322 57.6844L169.162 58.1581L171.112 58.8161L171.272 58.3424ZM169.322 57.6844L169.095 57.2391L166.951 58.334L167.179 58.7793L167.406 59.2246L169.55 58.1297L169.322 57.6844ZM167.179 58.7793L167.299 58.294L165.331 57.8061L165.21 58.2914L165.09 58.7767L167.058 59.2646L167.179 58.7793ZM165.21 58.2914L165.187 57.792L163.155 57.886L163.178 58.3855L163.201 58.8849L165.233 58.7909L165.21 58.2914ZM163.178 58.3855L163.253 57.8912L161.264 57.5876L161.189 58.0819L161.114 58.5761L163.102 58.8797L163.178 58.3855ZM161.189 58.0819L161.438 57.6486L159.537 56.554L159.288 56.9873L159.038 57.4206L160.94 58.5152L161.189 58.0819ZM159.288 56.9873L159.427 56.5071L157.468 55.9395L157.329 56.4197L157.189 56.9L159.149 57.4676L159.288 56.9873ZM157.329 56.4197L157.378 55.9222L155.378 55.7224L155.328 56.2199L155.279 56.7174L157.279 56.9172L157.329 56.4197ZM155.328 56.2199L155.098 55.7763L152.952 56.8928L153.182 57.3364L153.413 57.7799L155.559 56.6634L155.328 56.2199ZM153.182 57.3364L153.071 56.8489L150.997 57.322L151.108 57.8095L151.219 58.2969L153.294 57.8239L153.182 57.3364ZM151.108 57.8095L151.242 57.3278L149.28 56.7808L149.146 57.2624L149.012 57.7441L150.973 58.2911L151.108 57.8095ZM149.146 57.2624L149.509 56.9181L147.697 55.0114L147.335 55.3557L146.972 55.7001L148.783 57.6068L149.146 57.2624ZM147.335 55.3557L147.282 54.8585L145.236 55.0763L145.288 55.5735L145.341 56.0707L147.388 55.8529L147.335 55.3557ZM145.288 55.5735L145.272 55.0738L143.242 55.1409L143.259 55.6406L143.275 56.1403L145.305 56.0732L145.288 55.5735ZM143.259 55.6406L143.477 55.1909L141.558 54.2578L141.34 54.7075L141.121 55.1571L143.04 56.0903L143.259 55.6406ZM141.34 54.7075L141.097 54.2706L138.941 55.4708L139.185 55.9076L139.428 56.3445L141.583 55.1443L141.34 54.7075ZM139.185 55.9076L139.523 55.5399L137.688 53.8492L137.35 54.2169L137.011 54.5846L138.846 56.2753L139.185 55.9076ZM137.35 54.2169L137.392 53.7187L135.388 53.5487L135.346 54.0469L135.304 54.5451L137.307 54.7151L137.35 54.2169ZM135.346 54.0469L135.148 53.5877L133.025 54.5019L133.223 54.9611L133.42 55.4204L135.544 54.5062L135.346 54.0469ZM133.223 54.9611L133.547 54.5806L131.699 53.0055L131.375 53.386L131.05 53.7665L132.898 55.3416L133.223 54.9611ZM131.375 53.386L131.265 52.8982L129.191 53.3656L129.301 53.8534L129.411 54.3411L131.485 53.8737L131.375 53.386ZM129.301 53.8534L129.509 53.3989L127.585 52.5161L127.376 52.9706L127.168 53.4251L129.092 54.3078L129.301 53.8534ZM127.376 52.9706L127.068 52.5771L124.853 54.3133L125.162 54.7068L125.47 55.1003L127.685 53.3641L127.376 52.9706ZM125.162 54.7068L125.416 54.2764L123.518 53.154L123.264 53.5844L123.009 54.0148L124.907 55.1372L125.162 54.7068ZM123.264 53.5844L123.487 53.1373L121.571 52.1783L121.348 52.6254L121.124 53.0726L123.04 54.0315L123.264 53.5844ZM121.348 52.6254L121.356 52.1255L119.337 52.0914L119.329 52.5913L119.321 53.0912L121.339 53.1254L121.348 52.6254ZM119.329 52.5913L119.211 52.1054L117.133 52.6089L117.251 53.0949L117.369 53.5808L119.447 53.0772L119.329 52.5913ZM117.251 53.0949L117.122 52.6117L115.038 53.1672L115.167 53.6503L115.296 54.1335L117.38 53.578L117.251 53.0949ZM115.167 53.6503L115.492 53.2706L113.645 51.6885L113.32 52.0682L112.995 52.4479L114.842 54.0301L115.167 53.6503ZM113.32 52.0682L113.264 51.5713L111.217 51.8004L111.272 52.2973L111.328 52.7942L113.376 52.5651L113.32 52.0682ZM111.272 52.2973L111.217 51.8004L109.17 52.0267L109.225 52.5237L109.28 53.0207L111.327 52.7943L111.272 52.2973ZM109.225 52.5237L109.455 52.0797L107.542 51.089L107.312 51.533L107.082 51.977L108.995 52.9677L109.225 52.5237ZM107.312 51.533L107.572 51.1058L105.678 49.9536L105.418 50.3808L105.158 50.808L107.053 51.9602L107.312 51.533ZM105.418 50.3808L105.241 49.913L103.131 50.7092L103.307 51.177L103.484 51.6449L105.594 50.8487L105.418 50.3808ZM103.307 51.177L103.14 50.7058L101.035 51.4523L101.202 51.9235L101.369 52.3948L103.474 51.6483L103.307 51.177ZM101.202 51.9235L101.162 51.4252L99.1208 51.5922L99.1615 52.0905L99.2023 52.5889L101.243 52.4219L101.202 51.9235ZM99.1615 52.0905L99.4345 51.6716L97.5483 50.4426L97.2754 50.8615L97.0024 51.2804L98.8886 52.5095L99.1615 52.0905ZM97.2754 50.8615L97.5523 50.4452L95.6687 49.1925L95.3918 49.6089L95.115 50.0252L96.9985 51.2778L97.2754 50.8615ZM95.3918 49.6089L95.3031 49.1168L93.2396 49.4889L93.3283 49.9809L93.4171 50.473L95.4806 50.1009L95.3918 49.6089ZM93.3283 49.9809L93.2913 49.4823L91.2522 49.6339L91.2893 50.1325L91.3263 50.6312L93.3654 50.4796L93.3283 49.9809ZM91.2893 50.1325L91.1839 49.6438L89.1121 50.0904L89.2175 50.5791L89.3229 51.0679L91.3946 50.6213L91.2893 50.1325ZM89.2175 50.5791L89.5758 50.2304L87.7601 48.3649L87.4018 48.7136L87.0435 49.0623L88.8592 50.9279L89.2175 50.5791ZM87.4018 48.7136L87.162 48.2749L85.0094 49.4516L85.2492 49.8903L85.489 50.3291L87.6417 49.1523L87.4018 48.7136ZM85.2492 49.8903L85.4273 49.4231L83.4869 48.6835L83.3088 49.1507L83.1307 49.6179L85.0711 50.3575L85.2492 49.8903ZM83.3088 49.1507L83.1934 48.6642L81.1166 49.1568L81.232 49.6433L81.3474 50.1298L83.4242 49.6372L83.3088 49.1507ZM81.232 49.6433L81.5909 49.2952L79.7759 47.4238L79.417 47.772L79.0581 48.1201L80.8731 49.9914L81.232 49.6433ZM79.417 47.772L79.3412 47.2777L77.284 47.5931L77.3597 48.0873L77.4355 48.5815L79.4927 48.2662L79.417 47.772ZM77.3597 48.0873L77.3175 47.5891L75.276 47.7622L75.3183 48.2604L75.3605 48.7586L77.402 48.5855L77.3597 48.0873ZM75.3183 48.2604L75.6096 47.854L73.736 46.5111L73.4447 46.9175L73.1534 47.3239L75.027 48.6668L75.3183 48.2604ZM73.4447 46.9175L73.1645 46.5034L70.9784 47.9827L71.2586 48.3968L71.5388 48.8109L73.7249 47.3316L73.4447 46.9175ZM71.2586 48.3968L71.4682 47.9429L69.5443 47.0544L69.3347 47.5084L69.1251 47.9623L71.049 48.8507L71.2586 48.3968ZM69.3347 47.5084L69.3234 47.0085L67.2961 47.0541L67.3074 47.554L67.3186 48.0539L69.3459 48.0083L69.3347 47.5084ZM67.3074 47.554L67.6284 47.1707L65.7778 45.6206L65.4568 46.0039L65.1357 46.3872L66.9863 47.9373L67.3074 47.554ZM65.4568 46.0039L65.2134 45.5671L63.0582 46.7677L63.3015 47.2045L63.5448 47.6413L65.7001 46.4407L65.4568 46.0039ZM63.3015 47.2045L63.376 46.7101L61.3869 46.4104L61.3124 46.9048L61.2379 47.3993L63.227 47.6989L63.3015 47.2045ZM61.3124 46.9048L61.6163 46.5078L59.7521 45.0808L59.4482 45.4778L59.1442 45.8749L61.0085 47.3019L61.3124 46.9048ZM59.4482 45.4778L59.5009 44.9806L57.5021 44.7686L57.4493 45.2658L57.3966 45.763L59.3954 45.975L59.4482 45.4778ZM57.4493 45.2658L57.2189 44.8221L55.0731 45.9366L55.3036 46.3803L55.5341 46.824L57.6798 45.7095L57.4493 45.2658ZM55.3036 46.3803L55.2987 45.8804L53.2742 45.9001L53.2791 46.4001L53.284 46.9001L55.3085 46.8803L55.3036 46.3803ZM53.2791 46.4001L53.6145 46.0292L51.7763 44.3669L51.441 44.7377L51.1056 45.1086L52.9437 46.7709L53.2791 46.4001ZM51.441 44.7377L51.4435 44.2377L49.4224 44.2274L49.4198 44.7274L49.4173 45.2274L51.4384 45.2377L51.441 44.7377ZM49.4198 44.7274L49.3055 44.2406L47.2292 44.7281L47.3435 45.2149L47.4578 45.7017L49.5341 45.2141L49.4198 44.7274ZM47.3435 45.2149L47.4684 44.7308L45.5023 44.2235L45.3774 44.7076L45.2525 45.1918L47.2186 45.6991L47.3435 45.2149ZM45.3774 44.7076L45.6163 44.2684L43.7089 43.231L43.47 43.6703L43.2311 44.1095L45.1385 45.1469L45.3774 44.7076ZM43.47 43.6703L43.1399 43.2947L40.8995 45.2639L41.2296 45.6394L41.5597 46.015L43.8001 44.0458L43.47 43.6703ZM41.2296 45.6394L41.4642 45.1979L39.5543 44.1832L39.3197 44.6248L39.0851 45.0664L40.995 46.081L41.2296 45.6394ZM39.3197 44.6248L39.2334 44.1323L37.1711 44.4937L37.2574 44.9862L37.3437 45.4787L39.406 45.1173L39.3197 44.6248ZM37.2574 44.9862L37.4953 44.5464L35.5873 43.5143L35.3494 43.9541L35.1115 44.3939L37.0195 45.426L37.2574 44.9862ZM35.3494 43.9541L35.1683 43.4881L33.0551 44.3091L33.2362 44.7751L33.4172 45.2412L35.5305 44.4202L35.3494 43.9541ZM33.2362 44.7751L33.3356 44.2851L31.3577 43.8839L31.2583 44.3739L31.1589 44.8639L33.1368 45.2652L33.2362 44.7751ZM31.2583 44.3739L31.2779 43.8743L29.2643 43.7955L29.2448 44.2951L29.2252 44.7948L31.2388 44.8735L31.2583 44.3739ZM29.2448 44.2951L29.5957 43.9391L27.7725 42.1419L27.4215 42.498L27.0705 42.8541L28.8938 44.6512L29.2448 44.2951ZM27.4215 42.498L27.5872 42.0262L25.6407 41.3425L25.475 41.8143L25.3093 42.286L27.2558 42.9697L27.4215 42.498ZM25.475 41.8143L25.4262 41.3167L23.3817 41.5169L23.4305 42.0146L23.4792 42.5122L25.5237 42.3119L25.475 41.8143ZM23.4305 42.0146L23.2211 41.5605L21.0899 42.5436L21.2993 42.9976L21.5087 43.4516L23.6399 42.4686L23.4305 42.0146ZM21.2993 42.9976L21.4385 42.5174L19.4791 41.9495L19.3399 42.4297L19.2007 42.9099L21.1601 43.4779L21.2993 42.9976ZM19.3399 42.4297L19.2912 41.9321L17.2468 42.1321L17.2955 42.6297L17.3442 43.1273L19.3886 42.9273L19.3399 42.4297ZM17.2955 42.6297L17.2899 42.1297L15.2651 42.1525L15.2707 42.6524L15.2763 43.1524L17.3011 43.1297L17.2955 42.6297ZM15.2707 42.6524L15.4283 42.1779L13.4778 41.5299L13.3201 42.0044L13.1625 42.4789L15.113 43.1269L15.2707 42.6524ZM13.3201 42.0044L13.58 41.5773L11.6854 40.4248L11.4255 40.8519L11.1657 41.2791L13.0603 42.4316L13.3201 42.0044ZM11.4255 40.8519L11.4383 40.3521L9.42982 40.3007L9.41704 40.8006L9.40425 41.3004L11.4127 41.3518L11.4255 40.8519ZM9.41704 40.8006L9.40704 40.3007L7.27517 40.3433L7.28517 40.8432L7.29517 41.3431L9.42703 41.3005L9.41704 40.8006ZM7.28517 40.8432L7.7436 40.6436L6.74127 38.3415L6.28284 38.5411L5.8244 38.7407L6.82674 41.0428L7.28517 40.8432ZM6.28284 38.5411L6.40798 38.057L4.42491 37.5444L4.29977 38.0284L4.17463 38.5125L6.1577 39.0252L6.28284 38.5411ZM4.29977 38.0284L4.77386 37.8696L4.13295 35.9571L3.65887 36.116L3.18478 36.2749L3.82569 38.1873L4.29977 38.0284ZM3.65887 36.116L3.81094 35.6397L1.16454 34.7948L1.01246 35.2711L0.860387 35.7474L3.50679 36.5923L3.65887 36.116ZM1.01246 35.2711L1.46216 35.4896L2.65632 33.0328L2.20663 32.8142L1.75694 32.5957L0.562773 35.0525L1.01246 35.2711ZM2.20663 32.8142L2.69844 32.7241L2.36609 30.9106L1.87428 31.0007L1.38247 31.0908L1.71482 32.9044L2.20663 32.8142ZM1.87428 31.0007L2.29727 30.7341L0.980158 28.6444L0.557165 28.911L0.134172 29.1776L1.45129 31.2673L1.87428 31.0007ZM0.557165 28.911L1.02336 29.0917L1.77503 27.1527L1.30883 26.9719L0.84263 26.7912L0.0909676 28.7302L0.557165 28.911ZM1.30883 26.9719L1.79288 26.8467L1.25402 24.7647L0.769972 24.89L0.285922 25.0152L0.824777 27.0972L1.30883 26.9719ZM0.769972 24.89L1.12613 25.2409L2.92269 23.4176L2.56654 23.0667L2.21038 22.7157L0.413818 24.539L0.769972 24.89ZM2.56654 23.0667L2.97232 22.7745L1.39022 20.577L0.984445 20.8691L0.578666 21.1613L2.16076 23.3588L2.56654 23.0667ZM0.984445 20.8691L1.2802 21.2723L3.67521 19.5153L3.37945 19.1121L3.0837 18.709L0.68869 20.466L0.984445 20.8691ZM3.37945 19.1121L3.78489 18.8195L2.19849 16.6215L1.79306 16.9141L1.38763 17.2067L2.97402 19.4047L3.37945 19.1121ZM1.79306 16.9141L2.21116 17.1883L3.44763 15.303L3.02953 15.0288L2.61142 14.7546L1.37496 16.6399L1.79306 16.9141ZM3.02953 15.0288L3.52109 15.1202L3.88971 13.1388L3.39814 13.0473L2.90658 12.9559L2.53796 14.9373L3.02953 15.0288ZM3.39814 13.0473L3.85418 12.8423L2.89732 10.714L2.44129 10.919L1.98526 11.1241L2.94211 13.2523L3.39814 13.0473ZM2.44129 10.919L2.7937 11.2737L4.55764 9.52108L4.20522 9.16639L3.85281 8.8117L2.08887 10.5643L2.44129 10.919ZM4.20522 9.16639L4.70167 9.10688L4.44325 6.95097L3.94681 7.01048L3.45036 7.06999L3.70878 9.2259L4.20522 9.16639ZM3.94681 7.01048L4.31264 7.35131L5.72052 5.84016L5.35469 5.49932L4.98886 5.15849L3.58097 6.66965L3.94681 7.01048ZM5.35469 5.49932L5.64649 5.90534L7.24624 4.75562L6.95444 4.3496L6.66264 3.94358L5.06289 5.0933L5.35469 5.49932ZM6.95444 4.3496L7.38371 4.60598L8.46584 2.79409L8.03658 2.53772L7.60731 2.28134L6.52517 4.09323L6.95444 4.3496ZM8.03658 2.53772L8.11448 3.03161L10.152 2.71023L10.0741 2.21634L9.99624 1.72245L7.95868 2.04382L8.03658 2.53772ZM10.0741 2.21634L10.4196 2.57783L12.1106 0.961891L11.7651 0.600405L11.4197 0.238918L9.7287 1.85485L10.0741 2.21634ZM11.7651 0.600405L11.5486 1.05108L13.634 2.05314L13.8506 1.60247L14.0671 1.1518L11.9817 0.149732L11.7651 0.600405ZM13.8506 1.60247L14.1084 2.03089L14.6728 1.69122L14.415 1.26281L14.1572 0.834392L13.5928 1.17406L13.8506 1.60247Z" fill="#342E84"/>
<text transform="translate(19.9382 5.89917) rotate(6.32074)" fill="#FDFDFD" xml:space="preserve" style="white-space: pre" font-family="DiodrumArabic-Semibold" font-size="16" letter-spacing="0em"><tspan x="0.78125" y="20.704">&#x645;&#x639;&#x627;&#x64a;&#x64a;&#x631; &#x646;&#x64a;&#x646;&#x62c;&#x627;&#x643;&#x648; &#x627;&#x644;&#x62a;&#x639;&#x644;&#x64a;&#x645;&#x64a;&#x629;</tspan></text>
</svg>
