<svg width="196" height="62" viewBox="0 0 196 62" fill="none" xmlns="http://www.w3.org/2000/svg">
<path d="M3.30282 10.2546C3.91086 4.76537 8.8537 0.808338 14.343 1.41637L185.297 20.3526C190.787 20.9606 194.744 25.9034 194.136 31.3927L191.934 51.2711C191.326 56.7604 186.383 60.7174 180.894 60.1094L9.93921 41.1732C4.44993 40.5652 0.492908 35.6223 1.10094 30.1331L3.30282 10.2546Z" fill="#32A1DB"/>
<path d="M14.343 1.41637L14.398 0.91941L14.1662 0.89373L13.9975 1.05488L14.343 1.41637ZM14.4424 1.42738L14.7159 1.00885L14.616 0.943559L14.4974 0.93042L14.4424 1.42738ZM16.2343 2.59863L15.9608 3.01716L16.2437 3.2021L16.5208 3.00844L16.2343 2.59863ZM18.4263 1.06646L18.7667 0.700187L18.4709 0.425293L18.1399 0.656647L18.4263 1.06646ZM20.2599 2.7703L19.9195 3.13658L20.1337 3.33563L20.4122 3.24653L20.2599 2.7703ZM22.3565 2.09958L22.3192 1.60097L22.2603 1.60537L22.2041 1.62335L22.3565 2.09958ZM24.3957 1.94694L24.5631 1.47581L24.4636 1.44046L24.3584 1.44834L24.3957 1.94694ZM26.3414 2.63843L26.6168 2.22114L26.5661 2.18766L26.5088 2.1673L26.3414 2.63843ZM28.2259 3.88231L27.9504 4.29961L28.1084 4.40389L28.2959 4.37739L28.2259 3.88231ZM30.2804 3.59178L30.2963 3.09203L30.2531 3.09066L30.2103 3.0967L30.2804 3.59178ZM32.2956 3.6559L32.2796 4.15565L32.3146 4.15676L32.3493 4.153L32.2956 3.6559ZM34.3424 3.43438L34.6353 3.02919L34.4796 2.91661L34.2886 2.93729L34.3424 3.43438ZM36.2147 4.78804L35.9218 5.19323L36.1153 5.3331L36.3457 5.27059L36.2147 4.78804ZM38.2997 4.22238L38.1732 3.73862L38.1688 3.73982L38.2997 4.22238ZM40.3823 3.67794L40.4633 3.18455L40.3585 3.16735L40.2558 3.1942L40.3823 3.67794ZM42.3684 4.00408L42.6306 3.57832L42.5467 3.52665L42.4495 3.51069L42.3684 4.00408ZM44.2616 5.16976L43.9995 5.59552L44.2313 5.73828L44.477 5.62097L44.2616 5.16976ZM46.3968 4.15041L46.5381 3.67079L46.3543 3.61665L46.1814 3.69919L46.3968 4.15041ZM48.3552 4.7273L48.2139 5.20692L48.3058 5.23399L48.4012 5.22517L48.3552 4.7273ZM50.3984 4.53844L50.7434 4.17654L50.5788 4.01964L50.3524 4.04057L50.3984 4.53844ZM52.2276 6.28218L51.8826 6.64408L52.0939 6.84553L52.3732 6.76051L52.2276 6.28218ZM54.3204 5.64508L54.2745 5.14719L54.2237 5.15188L54.1748 5.16675L54.3204 5.64508ZM56.3636 5.45655L56.3746 4.95667L56.3461 4.95605L56.3177 4.95867L56.3636 5.45655ZM58.381 5.50092L58.4984 5.01489L58.4459 5.00223L58.392 5.00104L58.381 5.50092ZM60.3506 5.97663L60.2332 6.46265L60.247 6.46597L60.2609 6.46851L60.3506 5.97663ZM62.3328 6.33819L62.2431 6.83008L62.3292 6.84578L62.4155 6.83131L62.3328 6.33819ZM64.3934 5.99267L64.5873 5.53178L64.4537 5.47558L64.3107 5.49955L64.3934 5.99267ZM66.3257 6.80541L66.1318 7.2663L66.1592 7.27781L66.1877 7.286L66.3257 6.80541ZM68.2857 7.36793L68.1477 7.84852L68.2725 7.88435L68.399 7.85491L68.2857 7.36793ZM70.3615 6.88472L70.4781 6.3985L70.3632 6.37095L70.2481 6.39774L70.3615 6.88472ZM72.3314 7.35709L72.2149 7.8433L72.3086 7.86579L72.404 7.85179L72.3314 7.35709ZM74.3871 7.05548L74.7166 6.67937L74.5429 6.52727L74.3146 6.56078L74.3871 7.05548ZM76.2306 8.67021L75.9011 9.04633L76.1753 9.28647L76.4878 9.09897L76.2306 8.67021ZM78.3968 7.37055L78.7231 6.99171L78.4494 6.75593L78.1396 6.9418L78.3968 7.37055ZM80.243 8.96067L79.9167 9.33952L80.1094 9.50551L80.357 9.44749L80.243 8.96067ZM82.3192 8.47426L82.5172 8.01515L82.3657 7.94982L82.2051 7.98745L82.3192 8.47426ZM84.2492 9.3068L84.0512 9.76591L84.2059 9.83263L84.3694 9.79214L84.2492 9.3068ZM86.3286 8.79191L86.5003 8.32232L86.3567 8.26983L86.2084 8.30657L86.3286 8.79191ZM88.2721 9.50267L88.5759 9.1055L88.5154 9.05924L88.4439 9.03309L88.2721 9.50267ZM90.1365 10.9284L89.8328 11.3255L90.0523 11.4934L90.3112 11.3968L90.1365 10.9284ZM92.2459 10.1416L92.4962 9.70875L92.2921 9.59074L92.0712 9.67313L92.2459 10.1416ZM94.1465 11.2405L93.8963 11.6733L94.0126 11.7406L94.147 11.7405L94.1465 11.2405ZM96.169 11.2384L96.2943 10.7544L96.2324 10.7383L96.1685 10.7384L96.169 11.2384ZM98.135 11.7472L98.0097 12.2312L98.1196 12.2597L98.231 12.2379L98.135 11.7472ZM100.202 11.3424L100.428 10.8963L100.275 10.8187L100.106 10.8517L100.202 11.3424ZM102.117 12.3111L101.891 12.7573L101.999 12.8118L102.12 12.8111L102.117 12.3111ZM104.141 12.2993L104.144 12.7993L104.323 12.7982L104.46 12.6839L104.141 12.2993ZM106.368 10.4489L106.671 10.051L106.354 9.81032L106.048 10.0643L106.368 10.4489ZM108.233 11.8675L107.93 12.2655L108.038 12.3474L108.172 12.3638L108.233 11.8675ZM110.228 12.1113L110.168 12.6076L110.284 12.6219L110.395 12.5827L110.228 12.1113ZM112.333 11.3666L112.457 10.8822L112.31 10.8446L112.166 10.8953L112.333 11.3666ZM114.3 11.8693L114.176 12.3538L114.246 12.3716L114.318 12.369L114.3 11.8693ZM116.33 11.7962L116.54 11.3422L116.431 11.2922L116.312 11.2965L116.33 11.7962ZM118.254 12.6834L118.572 12.2973L118.522 12.2564L118.464 12.2294L118.254 12.6834ZM120.108 14.2086L119.79 14.5947L119.981 14.752L120.222 14.6953L120.108 14.2086ZM122.184 13.7197L122.273 13.2277L122.171 13.2091L122.069 13.233L122.184 13.7197ZM124.166 14.0798L124.077 14.5717L124.262 14.6053L124.423 14.509L124.166 14.0798ZM126.332 12.7858L126.722 12.4724L126.449 12.1334L126.076 12.3565L126.332 12.7858ZM128.11 14.9956L127.72 15.3089L128.04 15.7071L128.431 15.3783L128.11 14.9956ZM130.34 13.1206L130.702 12.7758L130.378 12.4353L130.018 12.7379L130.34 13.1206ZM132.151 15.0236L131.789 15.3683L132.01 15.6011L132.314 15.4962L132.151 15.0236ZM134.254 14.2972L134.128 13.8134L134.109 13.8183L134.091 13.8246L134.254 14.2972ZM136.336 13.7547L136.75 13.474L136.552 13.1818L136.21 13.2708L136.336 13.7547ZM138.075 16.3178L137.661 16.5985L137.799 16.8026L138.045 16.817L138.075 16.3178ZM140.084 16.4353L140.055 16.9344L140.162 16.9407L140.263 16.902L140.084 16.4353ZM142.196 15.6235L142.449 15.1922L142.241 15.0705L142.017 15.1568L142.196 15.6235ZM144.095 16.7372L143.842 17.1685L144.067 17.3004L144.304 17.1914L144.095 16.7372ZM146.226 15.757L146.335 15.2689L146.17 15.2323L146.017 15.3027L146.226 15.757ZM148.199 16.1963L148.091 16.6844L148.245 16.7188L148.392 16.6579L148.199 16.1963ZM150.32 15.3133L150.644 14.9328L150.411 14.7337L150.127 14.8517L150.32 15.3133ZM152.167 16.8888L151.843 17.2692L152.038 17.4357L152.287 17.3742L152.167 16.8888ZM154.247 16.3756L154.17 15.8815L154.148 15.8849L154.127 15.8902L154.247 16.3756ZM156.304 16.0551L156.334 15.556L156.28 15.5529L156.227 15.5611L156.304 16.0551ZM158.313 16.1741L158.589 15.757L158.477 15.6829L158.343 15.675L158.313 16.1741ZM160.198 17.4196L159.922 17.8367L160.055 17.9246L160.214 17.9193L160.198 17.4196ZM162.227 17.3524L162.41 16.887L162.314 16.8493L162.211 16.8527L162.227 17.3524ZM164.166 18.1128L163.983 18.5783L164.137 18.6389L164.298 18.5951L164.166 18.1128ZM166.251 17.542L166.4 17.0647L166.26 17.0211L166.119 17.0597L166.251 17.542ZM168.206 18.152L168.057 18.6293L168.195 18.6725L168.335 18.6349L168.206 18.152ZM170.29 17.5928L170.473 17.1274L170.32 17.0672L170.16 17.1099L170.29 17.5928ZM172.228 18.3542L172.595 18.0146L172.517 17.9306L172.411 17.8888L172.228 18.3542ZM174.034 20.3066L173.667 20.6461L173.798 20.7877L173.99 20.8046L174.034 20.3066ZM176.037 20.4828L175.993 20.9809L176.09 20.9894L176.184 20.9607L176.037 20.4828ZM178.13 19.8388L178.277 20.3167L178.322 20.303L178.363 20.2814L178.13 19.8388ZM180.278 18.7102L180.58 18.3118L180.327 18.1197L180.045 18.2676L180.278 18.7102ZM182.143 20.1248L181.841 20.5233L181.935 20.5944L182.051 20.6162L182.143 20.1248ZM184.124 20.4976L184.032 20.989L184.165 21.014L184.292 20.9687L184.124 20.4976ZM186.298 19.7241L186.595 19.3215L186.381 19.1639L186.13 19.253L186.298 19.7241ZM188.08 21.0369L188.383 20.6388L188.377 20.6344L188.08 21.0369ZM189.677 22.2505L190.018 21.8846L190 21.8675L189.98 21.8524L189.677 22.2505ZM191.101 23.5764L191.464 23.233L191.453 23.2214L191.441 23.2105L191.101 23.5764ZM192.445 24.9992L192.939 24.9226L192.915 24.7689L192.808 24.6558L192.445 24.9992ZM192.752 26.979L192.258 27.0556L192.268 27.1209L192.295 27.1814L192.752 26.979ZM193.516 28.7054L193.059 28.9078L193.088 28.974L193.135 29.0291L193.516 28.7054ZM195.167 30.6483L195.667 30.6694L195.675 30.4738L195.548 30.3245L195.167 30.6483ZM195.078 32.7361L195.38 33.1351L195.568 32.9929L195.578 32.7573L195.078 32.7361ZM192.743 34.4997L192.442 34.1007L192.205 34.2793L192.248 34.5726L192.743 34.4997ZM193.046 36.5555L193.546 36.5766L193.548 36.5294L193.541 36.4826L193.046 36.5555ZM192.961 38.5684L192.461 38.5473L192.457 38.64L192.487 38.7279L192.961 38.5684ZM193.668 40.669L194.095 40.9291L194.216 40.7303L194.142 40.5095L193.668 40.669ZM192.513 42.5634L192.086 42.3033L191.981 42.4766L192.026 42.6746L192.513 42.5634ZM192.986 44.6381L193.404 44.9139L193.522 44.7355L193.474 44.527L192.986 44.6381ZM191.74 46.5224L191.323 46.2466L191.227 46.3916L191.242 46.5648L191.74 46.5224ZM191.914 48.564L191.416 48.6064L191.42 48.6478L191.43 48.688L191.914 48.564ZM192.447 50.6453L192.873 50.9069L192.984 50.7264L192.932 50.5213L192.447 50.6453ZM191.316 52.4868L190.89 52.2251L190.86 52.2743L190.842 52.329L191.316 52.4868ZM190.707 54.3196L191.143 54.5643L191.167 54.5226L191.182 54.4774L190.707 54.3196ZM189.756 56.0146L190.182 56.2775L190.187 56.2685L190.192 56.2592L189.756 56.0146ZM188.691 57.7385L188.828 58.2193L189.015 58.1661L189.117 58.0013L188.691 57.7385ZM186.691 58.3093L186.553 57.8285L186.336 57.8907L186.239 58.0953L186.691 58.3093ZM185.531 60.756L185.468 61.252L185.828 61.2978L185.983 60.97L185.531 60.756ZM183.251 60.4655L182.942 60.8587L183.051 60.9441L183.188 60.9615L183.251 60.4655ZM181.297 58.9311L181.606 58.5379L181.418 58.3899L181.184 58.444L181.297 58.9311ZM179.259 59.4034L179.146 58.9163L179.077 58.9323L179.015 58.9667L179.259 59.4034ZM177.103 60.6047L176.994 61.0927L177.18 61.1343L177.347 61.0415L177.103 60.6047ZM175.13 60.1634L174.776 60.5162L174.878 60.6195L175.021 60.6513L175.13 60.1634ZM173.31 58.3362L173.664 57.9833L173.51 57.828L173.291 57.8365L173.31 58.3362ZM171.279 58.4149L171.26 57.9153L171.146 57.9197L171.046 57.9726L171.279 58.4149ZM169.131 59.5476L169.18 60.0452L169.278 60.0357L169.364 59.9898L169.131 59.5476ZM167.087 59.7469L166.889 60.2064L167.007 60.2571L167.135 60.2446L167.087 59.7469ZM165.156 58.9178L164.957 59.3762L164.959 59.3772L165.156 58.9178ZM163.227 58.0778L163.427 57.6194L163.325 57.5753L163.215 57.5779L163.227 58.0778ZM161.199 58.1267L160.975 58.5733L161.086 58.6296L161.211 58.6265L161.199 58.1267ZM159.284 57.1621L159.509 56.7156L159.427 56.6743L159.336 56.6648L159.284 57.1621ZM157.285 56.9546L157.125 57.4284L157.178 57.4462L157.233 57.452L157.285 56.9546ZM155.335 56.2966L155.495 55.8229L155.295 55.7555L155.108 55.8514L155.335 56.2966ZM153.192 57.3916L153.071 57.8769L153.253 57.9218L153.419 57.8368L153.192 57.3916ZM151.223 56.9037L151.344 56.4184L151.273 56.4008L151.2 56.4042L151.223 56.9037ZM149.191 56.9977L149.115 57.492L149.164 57.4995L149.214 57.4972L149.191 56.9977ZM147.202 56.6941L146.953 57.1274L147.034 57.1742L147.127 57.1884L147.202 56.6941ZM145.301 55.5996L145.55 55.1662L145.498 55.1361L145.44 55.1193L145.301 55.5996ZM143.342 55.032L143.481 54.5517L143.437 54.539L143.391 54.5344L143.342 55.032ZM141.341 54.8321L141.391 54.3346L141.243 54.3198L141.111 54.3886L141.341 54.8321ZM139.195 55.9486L139.307 56.4361L139.369 56.4218L139.426 56.3922L139.195 55.9486ZM137.121 56.4217L136.986 56.9033L137.108 56.9373L137.232 56.9092L137.121 56.4217ZM135.159 55.8747L134.797 56.219L134.892 56.3192L135.025 56.3563L135.159 55.8747ZM133.348 53.968L133.71 53.6236L133.54 53.4447L133.295 53.4708L133.348 53.968ZM131.302 54.1858L131.318 54.6855L131.336 54.6849L131.354 54.683L131.302 54.1858ZM129.272 54.2528L129.053 54.7025L129.165 54.7567L129.288 54.7526L129.272 54.2528ZM127.353 53.3197L127.572 52.8701L127.337 52.7561L127.11 52.8829L127.353 53.3197ZM125.198 54.5199L124.859 54.8876L125.125 55.1327L125.441 54.9567L125.198 54.5199ZM123.363 52.8292L123.701 52.4614L123.575 52.3454L123.405 52.331L123.363 52.8292ZM121.359 52.6592L121.401 52.1609L121.277 52.1503L121.161 52.1999L121.359 52.6592ZM119.236 53.5734L118.911 53.9539L119.148 54.1555L119.433 54.0326L119.236 53.5734ZM117.388 51.9982L117.712 51.6177L117.522 51.4555L117.278 51.5104L117.388 51.9982ZM115.314 52.4656L115.105 52.9201L115.259 52.9905L115.424 52.9534L115.314 52.4656ZM113.389 51.5829L113.598 51.1284L113.321 51.0013L113.081 51.1894L113.389 51.5829ZM111.175 53.3191L110.92 53.7494L111.214 53.9234L111.483 53.7126L111.175 53.3191ZM109.277 52.1966L109.531 51.7663L109.516 51.7573L109.5 51.7495L109.277 52.1966ZM107.361 51.2377L107.584 50.7906L107.483 50.7397L107.369 50.7377L107.361 51.2377ZM105.342 51.2036L105.35 50.7036L105.286 50.7025L105.224 50.7176L105.342 51.2036ZM103.264 51.7071L103.146 51.221L103.135 51.224L103.264 51.7071ZM101.18 52.2626L100.855 52.6423L101.055 52.8135L101.309 52.7457L101.18 52.2626ZM99.3331 50.6804L99.6584 50.3007L99.4934 50.1594L99.2775 50.1835L99.3331 50.6804ZM97.2854 50.9096L97.3404 51.4066L97.341 51.4065L97.2854 50.9096ZM95.2381 51.136L95.0081 51.5799L95.1425 51.6496L95.293 51.6329L95.2381 51.136ZM93.3255 50.1453L93.0657 50.5725L93.0803 50.5814L93.0955 50.5892L93.3255 50.1453ZM91.4308 48.9931L91.6906 48.5659L91.4824 48.4392L91.2544 48.5253L91.4308 48.9931ZM89.3203 49.7893L89.4875 50.2606L89.4968 50.2571L89.3203 49.7893ZM87.2154 50.5358L87.2561 51.0341L87.3211 51.0288L87.3825 51.007L87.2154 50.5358ZM85.1746 50.7028L84.9016 51.1217L85.0449 51.2151L85.2154 51.2011L85.1746 50.7028ZM83.2884 49.4738L83.0115 49.8901L83.0155 49.8927L83.2884 49.4738ZM81.4049 48.2211L81.6818 47.8048L81.5142 47.6933L81.3162 47.7291L81.4049 48.2211ZM79.3414 48.5932L79.3784 49.0918L79.4044 49.0899L79.4301 49.0853L79.3414 48.5932ZM77.3023 48.7448L77.2652 48.2462L77.2307 48.2487L77.1969 48.256L77.3023 48.7448ZM75.2305 49.1914L74.8722 49.5401L75.0653 49.7385L75.3359 49.6802L75.2305 49.1914ZM73.4149 47.3259L73.7732 46.9771L73.5083 46.705L73.175 46.8871L73.4149 47.3259ZM71.2622 48.5026L71.0841 48.9698L71.2997 49.052L71.5021 48.9413L71.2622 48.5026ZM69.3219 47.7629L69.5 47.2957L69.3562 47.2409L69.2065 47.2764L69.3219 47.7629ZM67.245 48.2555L66.8861 48.6036L67.0839 48.8076L67.3604 48.742L67.245 48.2555ZM65.43 46.3842L65.7889 46.0361L65.6093 45.8509L65.3542 45.89L65.43 46.3842ZM63.3728 46.6995L63.415 47.1978L63.4319 47.1963L63.4485 47.1938L63.3728 46.6995ZM61.3313 46.8727L61.04 47.2791L61.1899 47.3865L61.3736 47.3709L61.3313 46.8727ZM59.4578 45.5298L59.7491 45.1234L59.466 44.9205L59.1776 45.1157L59.4578 45.5298ZM57.2716 47.009L57.062 47.463L57.3182 47.5813L57.5518 47.4231L57.2716 47.009ZM55.3477 46.1206L55.5574 45.6667L55.4522 45.6182L55.3365 45.6208L55.3477 46.1206ZM53.3204 46.1662L52.9993 46.5495L53.1436 46.6703L53.3316 46.6661L53.3204 46.1662ZM51.4698 44.6161L51.7909 44.2328L51.5271 44.0119L51.2265 44.1793L51.4698 44.6161ZM49.3145 45.8167L49.24 46.3112L49.4088 46.3366L49.5578 46.2535L49.3145 45.8167ZM47.3254 45.5171L47.0215 45.9141L47.1237 45.9923L47.2509 46.0115L47.3254 45.5171ZM45.4612 44.0901L45.7651 43.693L45.6536 43.6077L45.5139 43.5929L45.4612 44.0901ZM43.4624 43.878L43.5151 43.3808L43.3655 43.3649L43.2319 43.4343L43.4624 43.878ZM41.3166 44.9926L41.3215 45.4926L41.441 45.4914L41.5471 45.4363L41.3166 44.9926ZM39.2922 45.0123L38.9568 45.3832L39.1017 45.5142L39.297 45.5123L39.2922 45.0123ZM37.454 43.35L37.7894 42.9791L37.6476 42.851L37.4566 42.85L37.454 43.35ZM35.4329 43.3396L35.4354 42.8396L35.3762 42.8393L35.3186 42.8529L35.4329 43.3396ZM33.3565 43.8272L33.2316 44.3113L33.3509 44.3421L33.4708 44.3139L33.3565 43.8272ZM31.3905 43.3199L31.1516 43.7591L31.2058 43.7886L31.2655 43.804L31.3905 43.3199ZM29.4831 42.2825L29.7219 41.8433L29.4152 41.6765L29.153 41.907L29.4831 42.2825ZM27.2426 44.2517L27.0081 44.6932L27.3132 44.8553L27.5727 44.6272L27.2426 44.2517ZM25.3327 43.2371L25.5673 42.7955L25.4156 42.7149L25.2464 42.7446L25.3327 43.2371ZM23.2704 43.5985L23.0325 44.0382L23.1855 44.121L23.3567 44.091L23.2704 43.5985ZM21.3624 42.5664L21.6003 42.1266L21.3969 42.0166L21.1814 42.1003L21.3624 42.5664ZM19.2492 43.3874L19.1498 43.8774L19.2936 43.9066L19.4303 43.8535L19.2492 43.3874ZM17.2714 42.9862L17.3708 42.4962L17.3312 42.4881L17.2909 42.4866L17.2714 42.9862ZM15.2578 42.9074L14.9068 43.2635L15.0447 43.3994L15.2382 43.407L15.2578 42.9074ZM13.4346 41.1102L13.7856 40.7541L13.7059 40.6756L13.6003 40.6385L13.4346 41.1102ZM11.488 40.4265L11.6537 39.9548L11.5504 39.9185L11.4414 39.9287L11.488 40.4265ZM9.47155 40.6155L9.42489 40.1177L9.38065 40.1218L9.33783 40.1337L9.47155 40.6155ZM7.19598 41.2471L6.90157 41.6512L7.09687 41.7935L7.32969 41.7289L7.19598 41.2471ZM5.46149 39.9835L5.75589 39.5794L5.72418 39.5563L5.68925 39.5384L5.46149 39.9835ZM3.53345 38.997L3.18965 39.36L3.24178 39.4094L3.30569 39.4421L3.53345 38.997ZM1.93306 37.4814L1.45649 37.6327L1.49554 37.7558L1.58926 37.8445L1.93306 37.4814ZM1.26308 35.371L0.767241 35.3066L0.752962 35.4166L0.786516 35.5223L1.26308 35.371ZM1.55142 33.1503L2.04725 33.2147L2.05773 33.134L2.04209 33.0542L1.55142 33.1503ZM1.1728 31.2173L1.6636 31.1212L1.6612 31.1102L1.1728 31.2173ZM0.722038 29.1612L0.367343 28.8088L0.175284 29.0021L0.233637 29.2683L0.722038 29.1612ZM2.53209 27.3394L2.88678 27.6918L3.0956 27.4816L3.01154 27.1976L2.53209 27.3394ZM1.91348 25.2486L1.46569 25.0261L1.3783 25.2021L1.43403 25.3904L1.91348 25.2486ZM2.86568 23.3318L3.31348 23.5542L3.45261 23.2741L3.26164 23.0265L2.86568 23.3318ZM1.16073 21.1206L0.83364 20.7425L0.47617 21.0517L0.764774 21.4259L1.16073 21.1206ZM3.23337 19.3279L3.56046 19.7061L3.72718 19.5619L3.73318 19.3415L3.23337 19.3279ZM3.28828 17.3117L3.78809 17.3253L3.79197 17.1828L3.72011 17.0597L3.28828 17.3117ZM2.02642 15.1496L1.56022 14.9689L1.47313 15.1936L1.59459 15.4017L2.02642 15.1496ZM2.77808 13.2106L3.24428 13.3913L3.30247 13.2412L3.26213 13.0853L2.77808 13.2106ZM2.23923 11.1286L1.89403 10.7669L1.6816 10.9696L1.75518 11.2539L2.23923 11.1286ZM4.07683 9.37496L4.42202 9.73667L4.67349 9.49669L4.53613 9.17738L4.07683 9.37496ZM2.99322 6.85591L2.87667 6.36968L2.2993 6.50808L2.53392 7.05349L2.99322 6.85591ZM5.88477 6.16279L6.00133 6.64902L6.39359 6.55499L6.38465 6.15171L5.88477 6.16279ZM5.82519 3.47438L5.72679 2.98416L5.31603 3.06661L5.32532 3.48546L5.82519 3.47438ZM8.08512 3.02074L8.18353 3.51097L8.228 3.50204L8.27014 3.48525L8.08512 3.02074ZM9.90361 2.29642L10.0886 2.76093L10.1814 2.72396L10.2529 2.65417L9.90361 2.29642ZM11.5997 0.640359L11.8763 0.223881L11.5396 0.000185228L11.2504 0.282613L11.5997 0.640359ZM13.697 2.03365L13.4203 2.45013L13.7534 2.67137L14.0425 2.39514L13.697 2.03365ZM14.343 1.41637L14.2879 1.91333L14.3873 1.92434L14.4424 1.42738L14.4974 0.93042L14.398 0.91941L14.343 1.41637ZM14.4424 1.42738L14.1688 1.84591L15.9608 3.01716L16.2343 2.59863L16.5079 2.1801L14.7159 1.00885L14.4424 1.42738ZM16.2343 2.59863L16.5208 3.00844L18.7128 1.47627L18.4263 1.06646L18.1399 0.656647L15.9479 2.18882L16.2343 2.59863ZM18.4263 1.06646L18.086 1.43273L19.9195 3.13658L20.2599 2.7703L20.6002 2.40403L18.7667 0.700187L18.4263 1.06646ZM20.2599 2.7703L20.4122 3.24653L22.5088 2.5758L22.3565 2.09958L22.2041 1.62335L20.1075 2.29408L20.2599 2.7703ZM22.3565 2.09958L22.3938 2.59818L24.433 2.44555L24.3957 1.94694L24.3584 1.44834L22.3192 1.60097L22.3565 2.09958ZM24.3957 1.94694L24.2282 2.41807L26.1739 3.10956L26.3414 2.63843L26.5088 2.1673L24.5631 1.47581L24.3957 1.94694ZM26.3414 2.63843L26.0659 3.05573L27.9504 4.29961L28.2259 3.88231L28.5013 3.46502L26.6168 2.22114L26.3414 2.63843ZM28.2259 3.88231L28.2959 4.37739L30.3504 4.08685L30.2804 3.59178L30.2103 3.0967L28.1559 3.38724L28.2259 3.88231ZM30.2804 3.59178L30.2645 4.09153L32.2796 4.15565L32.2956 3.6559L32.3115 3.15615L30.2963 3.09203L30.2804 3.59178ZM32.2956 3.6559L32.3493 4.153L34.3962 3.93148L34.3424 3.43438L34.2886 2.93729L32.2418 3.1588L32.2956 3.6559ZM34.3424 3.43438L34.0494 3.83958L35.9218 5.19323L36.2147 4.78804L36.5077 4.38284L34.6353 3.02919L34.3424 3.43438ZM36.2147 4.78804L36.3457 5.27059L38.4306 4.70494L38.2997 4.22238L38.1688 3.73982L36.0838 4.30548L36.2147 4.78804ZM38.2997 4.22238L38.4261 4.70612L40.5087 4.16169L40.3823 3.67794L40.2558 3.1942L38.1732 3.73864L38.2997 4.22238ZM40.3823 3.67794L40.3013 4.17134L42.2874 4.49747L42.3684 4.00408L42.4495 3.51069L40.4633 3.18455L40.3823 3.67794ZM42.3684 4.00408L42.1063 4.42985L43.9995 5.59552L44.2616 5.16976L44.5238 4.74399L42.6306 3.57832L42.3684 4.00408ZM44.2616 5.16976L44.477 5.62097L46.6122 4.60163L46.3968 4.15041L46.1814 3.69919L44.0462 4.71854L44.2616 5.16976ZM46.3968 4.15041L46.2555 4.63003L48.2139 5.20692L48.3552 4.7273L48.4965 4.24767L46.5381 3.67079L46.3968 4.15041ZM48.3552 4.7273L48.4012 5.22517L50.4445 5.03632L50.3984 4.53844L50.3524 4.04057L48.3092 4.22942L48.3552 4.7273ZM50.3984 4.53844L50.0534 4.90035L51.8826 6.64408L52.2276 6.28218L52.5726 5.92028L50.7434 4.17654L50.3984 4.53844ZM52.2276 6.28218L52.3732 6.76051L54.466 6.12341L54.3204 5.64508L54.1748 5.16675L52.082 5.80386L52.2276 6.28218ZM54.3204 5.64508L54.3664 6.14296L56.4096 5.95444L56.3636 5.45655L56.3177 4.95867L54.2745 5.14719L54.3204 5.64508ZM56.3636 5.45655L56.3526 5.95643L58.37 6.0008L58.381 5.50092L58.392 5.00104L56.3746 4.95667L56.3636 5.45655ZM58.381 5.50092L58.2636 5.98694L60.2332 6.46265L60.3506 5.97663L60.468 5.4906L58.4984 5.01489L58.381 5.50092ZM60.3506 5.97663L60.2609 6.46851L62.2431 6.83008L62.3328 6.33819L62.4226 5.84631L60.4403 5.48474L60.3506 5.97663ZM62.3328 6.33819L62.4155 6.83131L64.4761 6.48578L64.3934 5.99267L64.3107 5.49955L62.2501 5.84508L62.3328 6.33819ZM64.3934 5.99267L64.1995 6.45356L66.1318 7.2663L66.3257 6.80541L66.5195 6.34452L64.5873 5.53178L64.3934 5.99267ZM66.3257 6.80541L66.1877 7.286L68.1477 7.84852L68.2857 7.36793L68.4236 6.88733L66.4636 6.32481L66.3257 6.80541ZM68.2857 7.36793L68.399 7.85491L70.4748 7.3717L70.3615 6.88472L70.2481 6.39774L68.1723 6.88095L68.2857 7.36793ZM70.3615 6.88472L70.2449 7.37093L72.2149 7.8433L72.3314 7.35709L72.448 6.87087L70.4781 6.3985L70.3615 6.88472ZM72.3314 7.35709L72.404 7.85179L74.4597 7.55019L74.3871 7.05548L74.3146 6.56078L72.2589 6.86238L72.3314 7.35709ZM74.3871 7.05548L74.0577 7.4316L75.9011 9.04633L76.2306 8.67021L76.56 8.2941L74.7166 6.67937L74.3871 7.05548ZM76.2306 8.67021L76.4878 9.09897L78.6541 7.79931L78.3968 7.37055L78.1396 6.9418L75.9733 8.24146L76.2306 8.67021ZM78.3968 7.37055L78.0705 7.7494L79.9167 9.33952L80.243 8.96067L80.5693 8.58182L78.7231 6.99171L78.3968 7.37055ZM80.243 8.96067L80.357 9.44749L82.4332 8.96108L82.3192 8.47426L82.2051 7.98745L80.1289 8.47385L80.243 8.96067ZM82.3192 8.47426L82.1211 8.93337L84.0512 9.76591L84.2492 9.3068L84.4473 8.84769L82.5172 8.01515L82.3192 8.47426ZM84.2492 9.3068L84.3694 9.79214L86.4487 9.27725L86.3286 8.79191L86.2084 8.30657L84.1291 8.82146L84.2492 9.3068ZM86.3286 8.79191L86.1568 9.26149L88.1004 9.97226L88.2721 9.50267L88.4439 9.03309L86.5003 8.32232L86.3286 8.79191ZM88.2721 9.50267L87.9684 9.89985L89.8328 11.3255L90.1365 10.9284L90.4402 10.5312L88.5759 9.1055L88.2721 9.50267ZM90.1365 10.9284L90.3112 11.3968L92.4207 10.6101L92.2459 10.1416L92.0712 9.67313L89.9618 10.4599L90.1365 10.9284ZM92.2459 10.1416L91.9957 10.5745L93.8963 11.6733L94.1465 11.2405L94.3968 10.8076L92.4962 9.70875L92.2459 10.1416ZM94.1465 11.2405L94.147 11.7405L96.1695 11.7384L96.169 11.2384L96.1685 10.7384L94.146 10.7405L94.1465 11.2405ZM96.169 11.2384L96.0438 11.7225L98.0097 12.2312L98.135 11.7472L98.2602 11.2631L96.2943 10.7544L96.169 11.2384ZM98.135 11.7472L98.231 12.2379L100.298 11.8331L100.202 11.3424L100.106 10.8517L98.0389 11.2565L98.135 11.7472ZM100.202 11.3424L99.9764 11.7886L101.891 12.7573L102.117 12.3111L102.343 11.865L100.428 10.8963L100.202 11.3424ZM102.117 12.3111L102.12 12.8111L104.144 12.7993L104.141 12.2993L104.138 11.7993L102.114 11.8111L102.117 12.3111ZM104.141 12.2993L104.46 12.6839L106.687 10.8335L106.368 10.4489L106.048 10.0643L103.821 11.9147L104.141 12.2993ZM106.368 10.4489L106.065 10.8469L107.93 12.2655L108.233 11.8675L108.536 11.4695L106.671 10.051L106.368 10.4489ZM108.233 11.8675L108.172 12.3638L110.168 12.6076L110.228 12.1113L110.289 11.615L108.294 11.3712L108.233 11.8675ZM110.228 12.1113L110.395 12.5827L112.5 11.838L112.333 11.3666L112.166 10.8953L110.062 11.6399L110.228 12.1113ZM112.333 11.3666L112.209 11.8511L114.176 12.3538L114.3 11.8693L114.424 11.3849L112.457 10.8822L112.333 11.3666ZM114.3 11.8693L114.318 12.369L116.348 12.2959L116.33 11.7962L116.312 11.2965L114.282 11.3697L114.3 11.8693ZM116.33 11.7962L116.121 12.2503L118.045 13.1375L118.254 12.6834L118.464 12.2294L116.54 11.3422L116.33 11.7962ZM118.254 12.6834L117.936 13.0695L119.79 14.5947L120.108 14.2086L120.425 13.8225L118.572 12.2973L118.254 12.6834ZM120.108 14.2086L120.222 14.6953L122.299 14.2064L122.184 13.7197L122.069 13.233L119.993 13.7219L120.108 14.2086ZM122.184 13.7197L122.095 14.2116L124.077 14.5717L124.166 14.0798L124.256 13.5878L122.273 13.2277L122.184 13.7197ZM124.166 14.0798L124.423 14.509L126.589 13.215L126.332 12.7858L126.076 12.3565L123.91 13.6505L124.166 14.0798ZM126.332 12.7858L125.942 13.0991L127.72 15.3089L128.11 14.9956L128.499 14.6822L126.722 12.4724L126.332 12.7858ZM128.11 14.9956L128.431 15.3783L130.661 13.5033L130.34 13.1206L130.018 12.7379L127.788 14.6129L128.11 14.9956ZM130.34 13.1206L129.977 13.4653L131.789 15.3683L132.151 15.0236L132.513 14.6788L130.702 12.7758L130.34 13.1206ZM132.151 15.0236L132.314 15.4962L134.417 14.7698L134.254 14.2972L134.091 13.8246L131.988 14.551L132.151 15.0236ZM134.254 14.2972L134.38 14.7811L136.462 14.2385L136.336 13.7547L136.21 13.2708L134.128 13.8134L134.254 14.2972ZM136.336 13.7547L135.922 14.0353L137.661 16.5985L138.075 16.3178L138.488 16.0372L136.75 13.474L136.336 13.7547ZM138.075 16.3178L138.045 16.817L140.055 16.9344L140.084 16.4353L140.113 15.9361L138.104 15.8187L138.075 16.3178ZM140.084 16.4353L140.263 16.902L142.375 16.0903L142.196 15.6235L142.017 15.1568L139.904 15.9685L140.084 16.4353ZM142.196 15.6235L141.943 16.0548L143.842 17.1685L144.095 16.7372L144.348 16.3059L142.449 15.1922L142.196 15.6235ZM144.095 16.7372L144.304 17.1914L146.435 16.2112L146.226 15.757L146.017 15.3027L143.886 16.2829L144.095 16.7372ZM146.226 15.757L146.117 16.245L148.091 16.6844L148.199 16.1963L148.308 15.7083L146.335 15.2689L146.226 15.757ZM148.199 16.1963L148.392 16.6579L150.512 15.7748L150.32 15.3133L150.127 14.8517L148.007 15.7348L148.199 16.1963ZM150.32 15.3133L149.995 15.6937L151.843 17.2692L152.167 16.8888L152.492 16.5083L150.644 14.9328L150.32 15.3133ZM152.167 16.8888L152.287 17.3742L154.366 16.861L154.247 16.3756L154.127 15.8902L152.048 16.4033L152.167 16.8888ZM154.247 16.3756L154.323 16.8696L156.381 16.5492L156.304 16.0551L156.227 15.5611L154.17 15.8815L154.247 16.3756ZM156.304 16.0551L156.275 16.5543L158.284 16.6732L158.313 16.1741L158.343 15.675L156.334 15.556L156.304 16.0551ZM158.313 16.1741L158.038 16.5912L159.922 17.8367L160.198 17.4196L160.473 17.0025L158.589 15.757L158.313 16.1741ZM160.198 17.4196L160.214 17.9193L162.244 17.8521L162.227 17.3524L162.211 16.8527L160.181 16.9199L160.198 17.4196ZM162.227 17.3524L162.045 17.8179L163.983 18.5783L164.166 18.1128L164.348 17.6474L162.41 16.887L162.227 17.3524ZM164.166 18.1128L164.298 18.5951L166.383 18.0243L166.251 17.542L166.119 17.0597L164.034 17.6306L164.166 18.1128ZM166.251 17.542L166.102 18.0193L168.057 18.6293L168.206 18.152L168.355 17.6747L166.4 17.0647L166.251 17.542ZM168.206 18.152L168.335 18.6349L170.42 18.0757L170.29 17.5928L170.16 17.1099L168.076 17.6691L168.206 18.152ZM170.29 17.5928L170.107 18.0581L172.045 18.8195L172.228 18.3542L172.411 17.8888L170.473 17.1274L170.29 17.5928ZM172.228 18.3542L171.861 18.6937L173.667 20.6461L174.034 20.3066L174.401 19.967L172.595 18.0146L172.228 18.3542ZM174.034 20.3066L173.99 20.8046L175.993 20.9809L176.037 20.4828L176.081 19.9847L174.078 19.8085L174.034 20.3066ZM176.037 20.4828L176.184 20.9607L178.277 20.3167L178.13 19.8388L177.983 19.3609L175.89 20.0049L176.037 20.4828ZM178.13 19.8388L178.363 20.2814L180.51 19.1528L180.278 18.7102L180.045 18.2676L177.898 19.3962L178.13 19.8388ZM180.278 18.7102L179.976 19.1086L181.841 20.5233L182.143 20.1248L182.445 19.7264L180.58 18.3118L180.278 18.7102ZM182.143 20.1248L182.051 20.6162L184.032 20.989L184.124 20.4976L184.217 20.0062L182.236 19.6335L182.143 20.1248ZM184.124 20.4976L184.292 20.9687L186.466 20.1951L186.298 19.7241L186.13 19.253L183.957 20.0265L184.124 20.4976ZM186.298 19.7241L186.001 20.1266L187.784 21.4395L188.08 21.0369L188.377 20.6344L186.595 19.3215L186.298 19.7241ZM188.08 21.0369L187.778 21.4351L189.375 22.6486L189.677 22.2505L189.98 21.8524L188.383 20.6388L188.08 21.0369ZM189.677 22.2505L189.337 22.6163L190.76 23.9422L191.101 23.5764L191.441 23.2105L190.018 21.8846L189.677 22.2505ZM191.101 23.5764L190.737 23.9197L192.081 25.3425L192.445 24.9992L192.808 24.6558L191.464 23.233L191.101 23.5764ZM192.445 24.9992L191.951 25.0758L192.258 27.0556L192.752 26.979L193.246 26.9024L192.939 24.9226L192.445 24.9992ZM192.752 26.979L192.295 27.1814L193.059 28.9078L193.516 28.7054L193.973 28.503L193.209 26.7765L192.752 26.979ZM193.516 28.7054L193.135 29.0291L194.786 30.972L195.167 30.6483L195.548 30.3245L193.897 28.3816L193.516 28.7054ZM195.167 30.6483L194.667 30.6271L194.579 32.7149L195.078 32.7361L195.578 32.7573L195.667 30.6694L195.167 30.6483ZM195.078 32.7361L194.777 32.3371L192.442 34.1007L192.743 34.4997L193.044 34.8987L195.38 33.1351L195.078 32.7361ZM192.743 34.4997L192.248 34.5726L192.551 36.6285L193.046 36.5555L193.541 36.4826L193.238 34.4268L192.743 34.4997ZM193.046 36.5555L192.546 36.5344L192.461 38.5473L192.961 38.5684L193.46 38.5895L193.546 36.5766L193.046 36.5555ZM192.961 38.5684L192.487 38.7279L193.194 40.8284L193.668 40.669L194.142 40.5095L193.435 38.409L192.961 38.5684ZM193.668 40.669L193.241 40.4088L192.086 42.3033L192.513 42.5634L192.94 42.8236L194.095 40.9291L193.668 40.669ZM192.513 42.5634L192.026 42.6746L192.499 44.7493L192.986 44.6381L193.474 44.527L193.001 42.4523L192.513 42.5634ZM192.986 44.6381L192.569 44.3623L191.323 46.2466L191.74 46.5224L192.157 46.7982L193.404 44.9139L192.986 44.6381ZM191.74 46.5224L191.242 46.5648L191.416 48.6064L191.914 48.564L192.413 48.5215L192.239 46.4799L191.74 46.5224ZM191.914 48.564L191.43 48.688L191.963 50.7693L192.447 50.6453L192.932 50.5213L192.399 48.44L191.914 48.564ZM192.447 50.6453L192.021 50.3836L190.89 52.2251L191.316 52.4868L191.743 52.7484L192.873 50.9069L192.447 50.6453ZM191.316 52.4868L190.842 52.329L190.233 54.1619L190.707 54.3196L191.182 54.4774L191.791 52.6445L191.316 52.4868ZM190.707 54.3196L190.271 54.075L189.32 55.77L189.756 56.0146L190.192 56.2592L191.143 54.5643L190.707 54.3196ZM189.756 56.0146L189.331 55.7518L188.266 57.4756L188.691 57.7385L189.117 58.0013L190.182 56.2775L189.756 56.0146ZM188.691 57.7385L188.554 57.2577L186.553 57.8285L186.691 58.3093L186.828 58.7902L188.828 58.2193L188.691 57.7385ZM186.691 58.3093L186.239 58.0953L185.08 60.5419L185.531 60.756L185.983 60.97L187.142 58.5234L186.691 58.3093ZM185.531 60.756L185.595 60.26L183.314 59.9695L183.251 60.4655L183.188 60.9615L185.468 61.252L185.531 60.756ZM183.251 60.4655L183.56 60.0723L181.606 58.5379L181.297 58.9311L180.988 59.3243L182.942 60.8587L183.251 60.4655ZM181.297 58.9311L181.184 58.444L179.146 58.9163L179.259 59.4034L179.371 59.8905L181.41 59.4182L181.297 58.9311ZM179.259 59.4034L179.015 58.9667L176.86 60.168L177.103 60.6047L177.347 61.0415L179.502 59.8402L179.259 59.4034ZM177.103 60.6047L177.212 60.1168L175.239 59.6754L175.13 60.1634L175.021 60.6513L176.994 61.0927L177.103 60.6047ZM175.13 60.1634L175.484 59.8105L173.664 57.9833L173.31 58.3362L172.956 58.689L174.776 60.5162L175.13 60.1634ZM173.31 58.3362L173.291 57.8365L171.26 57.9153L171.279 58.4149L171.298 58.9145L173.329 58.8358L173.31 58.3362ZM171.279 58.4149L171.046 57.9726L168.898 59.1053L169.131 59.5476L169.364 59.9898L171.512 58.8572L171.279 58.4149ZM169.131 59.5476L169.083 59.0499L167.038 59.2493L167.087 59.7469L167.135 60.2446L169.18 60.0452L169.131 59.5476ZM167.087 59.7469L167.284 59.2875L165.354 58.4584L165.156 58.9178L164.959 59.3772L166.889 60.2064L167.087 59.7469ZM165.156 58.9178L165.356 58.4594L163.427 57.6194L163.227 58.0778L163.028 58.5362L164.957 59.3762L165.156 58.9178ZM163.227 58.0778L163.215 57.5779L161.187 57.6268L161.199 58.1267L161.211 58.6265L163.239 58.5777L163.227 58.0778ZM161.199 58.1267L161.424 57.6801L159.509 56.7156L159.284 57.1621L159.059 57.6087L160.975 58.5733L161.199 58.1267ZM159.284 57.1621L159.336 56.6648L157.336 56.4573L157.285 56.9546L157.233 57.452L159.232 57.6595L159.284 57.1621ZM157.285 56.9546L157.445 56.4809L155.495 55.8229L155.335 56.2966L155.175 56.7704L157.125 57.4284L157.285 56.9546ZM155.335 56.2966L155.108 55.8514L152.964 56.9463L153.192 57.3916L153.419 57.8368L155.563 56.7419L155.335 56.2966ZM153.192 57.3916L153.312 56.9062L151.344 56.4184L151.223 56.9037L151.103 57.389L153.071 57.8769L153.192 57.3916ZM151.223 56.9037L151.2 56.4042L149.168 56.4982L149.191 56.9977L149.214 57.4972L151.246 57.4031L151.223 56.9037ZM149.191 56.9977L149.266 56.5034L147.277 56.1998L147.202 56.6941L147.127 57.1884L149.115 57.492L149.191 56.9977ZM147.202 56.6941L147.452 56.2608L145.55 55.1662L145.301 55.5996L145.051 56.0329L146.953 57.1274L147.202 56.6941ZM145.301 55.5996L145.44 55.1193L143.481 54.5517L143.342 55.032L143.202 55.5122L145.162 56.0798L145.301 55.5996ZM143.342 55.032L143.391 54.5344L141.391 54.3346L141.341 54.8321L141.292 55.3297L143.292 55.5295L143.342 55.032ZM141.341 54.8321L141.111 54.3886L138.965 55.5051L139.195 55.9486L139.426 56.3922L141.572 55.2757L141.341 54.8321ZM139.195 55.9486L139.084 55.4611L137.01 55.9342L137.121 56.4217L137.232 56.9092L139.307 56.4361L139.195 55.9486ZM137.121 56.4217L137.255 55.9401L135.293 55.3931L135.159 55.8747L135.025 56.3563L136.986 56.9033L137.121 56.4217ZM135.159 55.8747L135.522 55.5303L133.71 53.6236L133.348 53.968L132.985 54.3123L134.797 56.219L135.159 55.8747ZM133.348 53.968L133.295 53.4708L131.249 53.6886L131.302 54.1858L131.354 54.683L133.401 54.4652L133.348 53.968ZM131.302 54.1858L131.285 53.686L129.255 53.7531L129.272 54.2528L129.288 54.7526L131.318 54.6855L131.302 54.1858ZM129.272 54.2528L129.49 53.8032L127.572 52.8701L127.353 53.3197L127.134 53.7694L129.053 54.7025L129.272 54.2528ZM127.353 53.3197L127.11 52.8829L124.954 54.083L125.198 54.5199L125.441 54.9567L127.596 53.7566L127.353 53.3197ZM125.198 54.5199L125.536 54.1521L123.701 52.4614L123.363 52.8292L123.024 53.1969L124.859 54.8876L125.198 54.5199ZM123.363 52.8292L123.405 52.331L121.401 52.1609L121.359 52.6592L121.317 53.1574L123.32 53.3274L123.363 52.8292ZM121.359 52.6592L121.161 52.1999L119.038 53.1141L119.236 53.5734L119.433 54.0326L121.557 53.1184L121.359 52.6592ZM119.236 53.5734L119.56 53.1929L117.712 51.6177L117.388 51.9982L117.063 52.3787L118.911 53.9539L119.236 53.5734ZM117.388 51.9982L117.278 51.5104L115.204 51.9778L115.314 52.4656L115.424 52.9534L117.498 52.486L117.388 51.9982ZM115.314 52.4656L115.522 52.0111L113.598 51.1284L113.389 51.5829L113.181 52.0373L115.105 52.9201L115.314 52.4656ZM113.389 51.5829L113.081 51.1894L110.866 52.9256L111.175 53.3191L111.483 53.7126L113.698 51.9763L113.389 51.5829ZM111.175 53.3191L111.429 52.8887L109.531 51.7663L109.277 52.1966L109.022 52.627L110.92 53.7494L111.175 53.3191ZM109.277 52.1966L109.5 51.7495L107.584 50.7906L107.361 51.2377L107.137 51.6848L109.053 52.6438L109.277 52.1966ZM107.361 51.2377L107.369 50.7377L105.35 50.7036L105.342 51.2036L105.334 51.7035L107.352 51.7376L107.361 51.2377ZM105.342 51.2036L105.224 50.7176L103.146 51.2212L103.264 51.7071L103.382 52.193L105.46 51.6895L105.342 51.2036ZM103.264 51.7071L103.135 51.224L101.051 51.7795L101.18 52.2626L101.309 52.7457L103.393 52.1902L103.264 51.7071ZM101.18 52.2626L101.505 51.8829L99.6584 50.3007L99.3331 50.6804L99.0078 51.0602L100.855 52.6423L101.18 52.2626ZM99.3331 50.6804L99.2775 50.1835L97.2298 50.4127L97.2854 50.9096L97.341 51.4065L99.3887 51.1773L99.3331 50.6804ZM97.2854 50.9096L97.2305 50.4126L95.1831 50.639L95.2381 51.136L95.293 51.6329L97.3404 51.4066L97.2854 50.9096ZM95.2381 51.136L95.468 50.692L93.5555 49.7013L93.3255 50.1453L93.0955 50.5892L95.0081 51.5799L95.2381 51.136ZM93.3255 50.1453L93.5853 49.7181L91.6906 48.5659L91.4308 48.9931L91.171 49.4203L93.0657 50.5725L93.3255 50.1453ZM91.4308 48.9931L91.2544 48.5253L89.1439 49.3215L89.3203 49.7893L89.4968 50.2571L91.6073 49.4609L91.4308 48.9931ZM89.3203 49.7893L89.1532 49.318L87.0482 50.0645L87.2154 50.5358L87.3825 51.007L89.4875 50.2605L89.3203 49.7893ZM87.2154 50.5358L87.1746 50.0374L85.1338 50.2044L85.1746 50.7028L85.2154 51.2011L87.2561 51.0341L87.2154 50.5358ZM85.1746 50.7028L85.4475 50.2839L83.5614 49.0548L83.2884 49.4738L83.0155 49.8927L84.9016 51.1217L85.1746 50.7028ZM83.2884 49.4738L83.5653 49.0574L81.6818 47.8048L81.4049 48.2211L81.128 48.6375L83.0115 49.8901L83.2884 49.4738ZM81.4049 48.2211L81.3162 47.7291L79.2527 48.1011L79.3414 48.5932L79.4301 49.0853L81.4936 48.7132L81.4049 48.2211ZM79.3414 48.5932L79.3043 48.0946L77.2652 48.2462L77.3023 48.7448L77.3394 49.2434L79.3784 49.0918L79.3414 48.5932ZM77.3023 48.7448L77.1969 48.256L75.1252 48.7026L75.2305 49.1914L75.3359 49.6802L77.4077 49.2335L77.3023 48.7448ZM75.2305 49.1914L75.5888 48.8427L73.7732 46.9771L73.4149 47.3259L73.0566 47.6746L74.8722 49.5401L75.2305 49.1914ZM73.4149 47.3259L73.175 46.8871L71.0224 48.0639L71.2622 48.5026L71.5021 48.9413L73.6547 47.7646L73.4149 47.3259ZM71.2622 48.5026L71.4403 48.0354L69.5 47.2957L69.3219 47.7629L69.1438 48.2301L71.0841 48.9698L71.2622 48.5026ZM69.3219 47.7629L69.2065 47.2764L67.1296 47.769L67.245 48.2555L67.3604 48.742L69.4373 48.2494L69.3219 47.7629ZM67.245 48.2555L67.6039 47.9074L65.7889 46.0361L65.43 46.3842L65.0711 46.7323L66.8861 48.6036L67.245 48.2555ZM65.43 46.3842L65.3542 45.89L63.297 46.2053L63.3728 46.6995L63.4485 47.1938L65.5058 46.8784L65.43 46.3842ZM63.3728 46.6995L63.3305 46.2013L61.2891 46.3745L61.3313 46.8727L61.3736 47.3709L63.415 47.1978L63.3728 46.6995ZM61.3313 46.8727L61.6226 46.4663L59.7491 45.1234L59.4578 45.5298L59.1665 45.9362L61.04 47.2791L61.3313 46.8727ZM59.4578 45.5298L59.1776 45.1157L56.9914 46.5949L57.2716 47.009L57.5518 47.4231L59.738 45.9439L59.4578 45.5298ZM57.2716 47.009L57.4812 46.5551L55.5574 45.6667L55.3477 46.1206L55.1381 46.5746L57.062 47.463L57.2716 47.009ZM55.3477 46.1206L55.3365 45.6208L53.3092 45.6664L53.3204 46.1662L53.3316 46.6661L55.359 46.6205L55.3477 46.1206ZM53.3204 46.1662L53.6415 45.7829L51.7909 44.2328L51.4698 44.6161L51.1487 44.9994L52.9993 46.5495L53.3204 46.1662ZM51.4698 44.6161L51.2265 44.1793L49.0712 45.3799L49.3145 45.8167L49.5578 46.2535L51.7131 45.0529L51.4698 44.6161ZM49.3145 45.8167L49.389 45.3223L47.3999 45.0227L47.3254 45.5171L47.2509 46.0115L49.24 46.3112L49.3145 45.8167ZM47.3254 45.5171L47.6293 45.1201L45.7651 43.693L45.4612 44.0901L45.1573 44.4871L47.0215 45.9141L47.3254 45.5171ZM45.4612 44.0901L45.5139 43.5929L43.5151 43.3808L43.4624 43.878L43.4096 44.3752L45.4084 44.5873L45.4612 44.0901ZM43.4624 43.878L43.2319 43.4343L41.0862 44.5489L41.3166 44.9926L41.5471 45.4363L43.6929 44.3217L43.4624 43.878ZM41.3166 44.9926L41.3118 44.4926L39.2873 44.5124L39.2922 45.0123L39.297 45.5123L41.3215 45.4926L41.3166 44.9926ZM39.2922 45.0123L39.6275 44.6415L37.7894 42.9791L37.454 43.35L37.1186 43.7208L38.9568 45.3832L39.2922 45.0123ZM37.454 43.35L37.4566 42.85L35.4354 42.8396L35.4329 43.3396L35.4303 43.8396L37.4514 43.85L37.454 43.35ZM35.4329 43.3396L35.3186 42.8529L33.2423 43.3404L33.3565 43.8272L33.4708 44.3139L35.5471 43.8264L35.4329 43.3396ZM33.3565 43.8272L33.4815 43.343L31.5154 42.8357L31.3905 43.3199L31.2655 43.804L33.2316 44.3113L33.3565 43.8272ZM31.3905 43.3199L31.6293 42.8806L29.7219 41.8433L29.4831 42.2825L29.2442 42.7218L31.1516 43.7591L31.3905 43.3199ZM29.4831 42.2825L29.153 41.907L26.9126 43.8761L27.2426 44.2517L27.5727 44.6272L29.8131 42.6581L29.4831 42.2825ZM27.2426 44.2517L27.4772 43.8101L25.5673 42.7955L25.3327 43.2371L25.0982 43.6786L27.0081 44.6932L27.2426 44.2517ZM25.3327 43.2371L25.2464 42.7446L23.1841 43.106L23.2704 43.5985L23.3567 44.091L25.419 43.7295L25.3327 43.2371ZM23.2704 43.5985L23.5083 43.1587L21.6003 42.1266L21.3624 42.5664L21.1245 43.0061L23.0325 44.0382L23.2704 43.5985ZM21.3624 42.5664L21.1814 42.1003L19.0681 42.9213L19.2492 43.3874L19.4303 43.8535L21.5435 43.0324L21.3624 42.5664ZM19.2492 43.3874L19.3486 42.8974L17.3708 42.4962L17.2714 42.9862L17.172 43.4762L19.1498 43.8774L19.2492 43.3874ZM17.2714 42.9862L17.2909 42.4866L15.2773 42.4078L15.2578 42.9074L15.2382 43.407L17.2518 43.4858L17.2714 42.9862ZM15.2578 42.9074L15.6088 42.5513L13.7856 40.7541L13.4346 41.1102L13.0836 41.4663L14.9068 43.2635L15.2578 42.9074ZM13.4346 41.1102L13.6003 40.6385L11.6537 39.9548L11.488 40.4265L11.3223 40.8983L13.2689 41.582L13.4346 41.1102ZM11.488 40.4265L11.4414 39.9287L9.42489 40.1177L9.47155 40.6155L9.51821 41.1133L11.5347 40.9243L11.488 40.4265ZM9.47155 40.6155L9.33783 40.1337L7.06226 40.7653L7.19598 41.2471L7.32969 41.7289L9.60527 41.0973L9.47155 40.6155ZM7.19598 41.2471L7.49038 40.843L5.75589 39.5794L5.46149 39.9835L5.16708 40.3877L6.90157 41.6512L7.19598 41.2471ZM5.46149 39.9835L5.68925 39.5384L3.76121 38.5519L3.53345 38.997L3.30569 39.4421L5.23373 40.4286L5.46149 39.9835ZM3.53345 38.997L3.87724 38.6339L2.27685 37.1184L1.93306 37.4814L1.58926 37.8445L3.18965 39.36L3.53345 38.997ZM1.93306 37.4814L2.40962 37.3302L1.73964 35.2197L1.26308 35.371L0.786516 35.5223L1.45649 37.6327L1.93306 37.4814ZM1.26308 35.371L1.75892 35.4354L2.04725 33.2147L1.55142 33.1503L1.05558 33.0859L0.767241 35.3066L1.26308 35.371ZM1.55142 33.1503L2.04209 33.0542L1.66348 31.1212L1.1728 31.2173L0.682124 31.3134L1.06074 33.2464L1.55142 33.1503ZM1.1728 31.2173L1.6612 31.1102L1.21044 29.0541L0.722038 29.1612L0.233637 29.2683L0.684399 31.3244L1.1728 31.2173ZM0.722038 29.1612L1.07673 29.5136L2.88678 27.6918L2.53209 27.3394L2.17739 26.987L0.367343 28.8088L0.722038 29.1612ZM2.53209 27.3394L3.01154 27.1976L2.39294 25.1067L1.91348 25.2486L1.43403 25.3904L2.05263 27.4813L2.53209 27.3394ZM1.91348 25.2486L2.36128 25.471L3.31348 23.5542L2.86568 23.3318L2.41789 23.1093L1.46569 25.0261L1.91348 25.2486ZM2.86568 23.3318L3.26164 23.0265L1.55669 20.8153L1.16073 21.1206L0.764774 21.4259L2.46973 23.6371L2.86568 23.3318ZM1.16073 21.1206L1.48783 21.4988L3.56046 19.7061L3.23337 19.3279L2.90627 18.9497L0.83364 20.7425L1.16073 21.1206ZM3.23337 19.3279L3.73318 19.3415L3.78809 17.3253L3.28828 17.3117L2.78846 17.2981L2.73355 19.3143L3.23337 19.3279ZM3.28828 17.3117L3.72011 17.0597L2.45825 14.8976L2.02642 15.1496L1.59459 15.4017L2.85645 17.5637L3.28828 17.3117ZM2.02642 15.1496L2.49262 15.3304L3.24428 13.3913L2.77808 13.2106L2.31188 13.0299L1.56022 14.9689L2.02642 15.1496ZM2.77808 13.2106L3.26213 13.0853L2.72328 11.0033L2.23923 11.1286L1.75518 11.2539L2.29403 13.3359L2.77808 13.2106ZM2.23923 11.1286L2.58442 11.4903L4.42202 9.73667L4.07683 9.37496L3.73163 9.01324L1.89403 10.7669L2.23923 11.1286ZM4.07683 9.37496L4.53613 9.17738L3.45253 6.65833L2.99322 6.85591L2.53392 7.05349L3.61752 9.57253L4.07683 9.37496ZM2.99322 6.85591L3.10978 7.34213L6.00133 6.64902L5.88477 6.16279L5.76822 5.67656L2.87667 6.36968L2.99322 6.85591ZM5.88477 6.16279L6.38465 6.15171L6.32507 3.4633L5.82519 3.47438L5.32532 3.48546L5.3849 6.17387L5.88477 6.16279ZM5.82519 3.47438L5.9236 3.9646L8.18353 3.51097L8.08512 3.02074L7.98672 2.53052L5.72679 2.98416L5.82519 3.47438ZM8.08512 3.02074L8.27014 3.48525L10.0886 2.76093L9.90361 2.29642L9.7186 1.83191L7.90011 2.55624L8.08512 3.02074ZM9.90361 2.29642L10.2529 2.65417L11.949 0.998105L11.5997 0.640359L11.2504 0.282613L9.5543 1.93868L9.90361 2.29642ZM11.5997 0.640359L11.323 1.05684L13.4203 2.45013L13.697 2.03365L13.9737 1.61717L11.8763 0.223881L11.5997 0.640359ZM13.697 2.03365L14.0425 2.39514L14.6884 1.77786L14.343 1.41637L13.9975 1.05488L13.3516 1.67216L13.697 2.03365Z" fill="#342E84"/>
<text transform="translate(19.8661 6.05273) rotate(6.32074)" fill="#FDFDFD" xml:space="preserve" style="white-space: pre" font-family="DiodrumArabic-Semibold" font-size="16" letter-spacing="0em"><tspan x="0.6875" y="20.704">&#x628;&#x627;&#x642;&#x627;&#x62a; &#x646;&#x64a;&#x646;&#x62c;&#x627;&#x643;&#x648; &#x627;&#x644;&#x62a;&#x639;&#x644;&#x64a;&#x645;&#x64a;&#x629;</tspan></text>
</svg>
