<svg width="232" height="65" viewBox="0 0 232 65" fill="none" xmlns="http://www.w3.org/2000/svg">
<path d="M3.30282 10.02C3.91086 4.53075 8.8537 0.573719 14.343 1.18175L221.079 24.0813C226.568 24.6894 230.525 29.6322 229.917 35.1215L227.715 54.9999C227.107 60.4892 222.164 64.4462 216.675 63.8382L9.93921 40.9386C4.44994 40.3306 0.492908 35.3877 1.10094 29.8984L3.30282 10.02Z" fill="#32A1DB"/>
<path d="M14.343 1.18175L13.8889 1.39107L14.0072 1.64761L14.2879 1.67871L14.343 1.18175ZM14.4424 1.19276L14.7159 0.774233L14.616 0.708939L14.4974 0.695801L14.4424 1.19276ZM16.2343 2.36401L15.9608 2.78254L16.2437 2.96748L16.5208 2.77382L16.2343 2.36401ZM18.4263 0.83184L18.7667 0.465568L18.4709 0.190674L18.1399 0.422028L18.4263 0.83184ZM20.2599 2.53568L19.9195 2.90196L20.1337 3.10101L20.4122 3.01191L20.2599 2.53568ZM22.3565 1.86496L22.3192 1.36635L22.2603 1.37076L22.2041 1.38873L22.3565 1.86496ZM24.3957 1.71232L24.5631 1.24119L24.4636 1.20584L24.3584 1.21372L24.3957 1.71232ZM26.3414 2.40381L26.6168 1.98652L26.5661 1.95304L26.5088 1.93268L26.3414 2.40381ZM28.2259 3.64769L27.9504 4.06499L28.1084 4.16927L28.2959 4.14277L28.2259 3.64769ZM30.2804 3.35716L30.2963 2.85741L30.2531 2.85604L30.2103 2.86208L30.2804 3.35716ZM32.2955 3.42128L32.2796 3.92103L32.3146 3.92214L32.3493 3.91838L32.2955 3.42128ZM34.3424 3.19976L34.6353 2.79457L34.4796 2.68199L34.2886 2.70267L34.3424 3.19976ZM36.2147 4.55342L35.9218 4.95862L36.1153 5.09848L36.3457 5.03597L36.2147 4.55342ZM38.2997 3.98776L38.1732 3.504L38.1688 3.50521L38.2997 3.98776ZM40.3823 3.44333L40.4633 2.94993L40.3585 2.93273L40.2558 2.95958L40.3823 3.44333ZM42.3684 3.76946L42.6306 3.3437L42.5467 3.29204L42.4495 3.27607L42.3684 3.76946ZM44.2616 4.93514L43.9995 5.3609L44.2313 5.50366L44.477 5.38636L44.2616 4.93514ZM46.3968 3.91579L46.5381 3.43617L46.3543 3.38203L46.1814 3.46457L46.3968 3.91579ZM48.3552 4.49268L48.2139 4.9723L48.3058 4.99937L48.4012 4.99055L48.3552 4.49268ZM50.3984 4.30383L50.7434 3.94192L50.5788 3.78502L50.3524 3.80595L50.3984 4.30383ZM52.2276 6.04756L51.8826 6.40946L52.0939 6.61092L52.3732 6.52589L52.2276 6.04756ZM54.3204 5.41046L54.2745 4.91257L54.2237 4.91727L54.1748 4.93213L54.3204 5.41046ZM56.3636 5.22193L56.3746 4.72205L56.3461 4.72143L56.3177 4.72405L56.3636 5.22193ZM58.381 5.2663L58.4984 4.78027L58.4459 4.76761L58.392 4.76642L58.381 5.2663ZM60.3506 5.74201L60.2332 6.22803L60.247 6.23135L60.2609 6.23389L60.3506 5.74201ZM62.3328 6.10357L62.2431 6.59546L62.3292 6.61116L62.4155 6.59669L62.3328 6.10357ZM64.3934 5.75805L64.5873 5.29716L64.4537 5.24096L64.3107 5.26493L64.3934 5.75805ZM66.3257 6.57079L66.1318 7.03168L66.1592 7.04319L66.1877 7.05138L66.3257 6.57079ZM68.2857 7.13331L68.1477 7.6139L68.2725 7.64973L68.399 7.62029L68.2857 7.13331ZM70.3615 6.6501L70.4781 6.16388L70.3632 6.13633L70.2481 6.16312L70.3615 6.6501ZM72.3314 7.12247L72.2149 7.60868L72.3086 7.63117L72.404 7.61717L72.3314 7.12247ZM74.3871 6.82087L74.7166 6.44475L74.543 6.29265L74.3146 6.32616L74.3871 6.82087ZM76.2306 8.43559L75.9011 8.81171L76.1753 9.05185L76.4878 8.86435L76.2306 8.43559ZM78.3968 7.13593L78.7231 6.75709L78.4494 6.52131L78.1396 6.70718L78.3968 7.13593ZM80.243 8.72605L79.9167 9.1049L80.1094 9.27089L80.357 9.21287L80.243 8.72605ZM82.3192 8.23965L82.5172 7.78054L82.3657 7.7152L82.2051 7.75283L82.3192 8.23965ZM84.2492 9.07218L84.0512 9.53129L84.2059 9.59801L84.3694 9.55752L84.2492 9.07218ZM86.3286 8.55729L86.5003 8.0877L86.3567 8.03521L86.2084 8.07195L86.3286 8.55729ZM88.2721 9.26805L88.5758 8.87088L88.5154 8.82462L88.4439 8.79847L88.2721 9.26805ZM90.1365 10.6938L89.8328 11.0909L90.0523 11.2588L90.3112 11.1622L90.1365 10.6938ZM92.2459 9.90699L92.4962 9.47413L92.2921 9.35612L92.0712 9.43851L92.2459 9.90699ZM94.1465 11.0058L93.8963 11.4387L94.0126 11.506L94.147 11.5058L94.1465 11.0058ZM96.169 11.0038L96.2943 10.5197L96.2324 10.5037L96.1685 10.5038L96.169 11.0038ZM98.135 11.5126L98.0097 11.9966L98.1196 12.0251L98.231 12.0032L98.135 11.5126ZM100.202 11.1078L100.428 10.6616L100.275 10.5841L100.106 10.6171L100.202 11.1078ZM102.117 12.0765L101.891 12.5227L101.999 12.5772L102.12 12.5765L102.117 12.0765ZM104.141 12.0647L104.144 12.5647L104.323 12.5636L104.46 12.4493L104.141 12.0647ZM106.368 10.2143L106.671 9.81635L106.354 9.5757L106.048 9.82973L106.368 10.2143ZM108.233 11.6329L107.93 12.0309L108.038 12.1128L108.172 12.1292L108.233 11.6329ZM110.228 11.8767L110.168 12.373L110.284 12.3872L110.395 12.348L110.228 11.8767ZM112.333 11.132L112.457 10.6476L112.31 10.61L112.166 10.6607L112.333 11.132ZM114.3 11.6347L114.176 12.1191L114.246 12.137L114.318 12.1344L114.3 11.6347ZM116.33 11.5616L116.54 11.1075L116.431 11.0576L116.312 11.0619L116.33 11.5616ZM118.254 12.4488L118.572 12.0627L118.522 12.0218L118.464 11.9948L118.254 12.4488ZM120.108 13.974L119.79 14.3601L119.981 14.5174L120.222 14.4607L120.108 13.974ZM122.184 13.4851L122.273 12.9931L122.171 12.9745L122.069 12.9984L122.184 13.4851ZM124.166 13.8451L124.077 14.3371L124.262 14.3706L124.423 14.2744L124.166 13.8451ZM126.332 12.5511L126.722 12.2377L126.449 11.8988L126.076 12.1219L126.332 12.5511ZM128.11 14.7609L127.72 15.0743L128.04 15.4725L128.431 15.1436L128.11 14.7609ZM130.34 12.8859L130.702 12.5412L130.378 12.2007L130.018 12.5032L130.34 12.8859ZM132.151 14.789L131.789 15.1337L132.01 15.3665L132.314 15.2616L132.151 14.789ZM134.254 14.0626L134.128 13.5788L134.109 13.5837L134.091 13.59L134.254 14.0626ZM136.336 13.52L136.75 13.2394L136.552 12.9472L136.21 13.0362L136.336 13.52ZM138.075 16.0832L137.661 16.3639L137.799 16.568L138.045 16.5824L138.075 16.0832ZM140.084 16.2007L140.055 16.6998L140.162 16.7061L140.263 16.6674L140.084 16.2007ZM142.196 15.3889L142.449 14.9576L142.241 14.8359L142.017 14.9222L142.196 15.3889ZM144.095 16.5025L143.842 16.9338L144.067 17.0658L144.304 16.9568L144.095 16.5025ZM146.226 15.5224L146.334 15.0343L146.17 14.9977L146.017 15.0681L146.226 15.5224ZM148.199 15.9617L148.091 16.4498L148.245 16.4842L148.392 16.4233L148.199 15.9617ZM150.32 15.0787L150.644 14.6982L150.411 14.4991L150.127 14.6171L150.32 15.0787ZM152.167 16.6541L151.843 17.0346L152.038 17.201L152.287 17.1396L152.167 16.6541ZM154.247 16.141L154.17 15.6469L154.148 15.6503L154.127 15.6555L154.247 16.141ZM156.304 15.8205L156.334 15.3214L156.28 15.3182L156.227 15.3265L156.304 15.8205ZM158.313 15.9395L158.589 15.5223L158.477 15.4483L158.343 15.4403L158.313 15.9395ZM160.198 17.185L159.922 17.6021L160.055 17.69L160.214 17.6847L160.198 17.185ZM162.227 17.1178L162.41 16.6523L162.314 16.6146L162.211 16.6181L162.227 17.1178ZM164.166 17.8782L163.983 18.3437L164.137 18.4043L164.298 18.3605L164.166 17.8782ZM166.251 17.3074L166.4 16.8301L166.26 16.7865L166.119 16.8251L166.251 17.3074ZM168.206 17.9174L168.057 18.3947L168.195 18.4379L168.335 18.4003L168.206 17.9174ZM170.29 17.3582L170.473 16.8928L170.32 16.8325L170.16 16.8752L170.29 17.3582ZM172.228 18.1196L172.595 17.78L172.517 17.696L172.411 17.6542L172.228 18.1196ZM174.034 20.072L173.667 20.4115L173.798 20.5531L173.99 20.57L174.034 20.072ZM176.037 20.2482L175.993 20.7462L176.09 20.7548L176.184 20.7261L176.037 20.2482ZM178.13 19.6042L178.277 20.0821L178.322 20.0684L178.363 20.0467L178.13 19.6042ZM180.278 18.4756L180.58 18.0772L180.327 17.8851L180.045 18.033L180.278 18.4756ZM182.143 19.8902L181.841 20.2886L181.935 20.3598L182.051 20.3816L182.143 19.8902ZM184.124 20.263L184.032 20.7544L184.172 20.7807L184.305 20.7291L184.124 20.263ZM186.237 19.4433L186.461 18.9959L186.263 18.8971L186.057 18.9771L186.237 19.4433ZM188.154 20.4L187.93 20.8473L187.976 20.87L188.025 20.8831L188.154 20.4ZM190.118 20.924L189.989 21.4071L190.014 21.4137L190.039 21.4177L190.118 20.924ZM192.105 21.2431L192.026 21.7368L192.058 21.7421L192.092 21.7429L192.105 21.2431ZM194.121 21.2966L194.322 20.8387L194.232 20.7994L194.135 20.7968L194.121 21.2966ZM196.05 22.1418L195.849 22.5998L195.952 22.6447L196.064 22.6417L196.05 22.1418ZM198.078 22.0859L198.092 22.5857L198.223 22.5821L198.335 22.5151L198.078 22.0859ZM200.244 20.7918L200.272 20.2926L200.119 20.284L199.988 20.3626L200.244 20.7918ZM202.254 20.9046L202.653 20.6033L202.513 20.4184L202.282 20.4054L202.254 20.9046ZM204.017 23.2401L203.618 23.5414L203.797 23.778L204.09 23.7348L204.017 23.2401ZM206.073 22.9371L206.094 22.4375L206.047 22.4355L206 22.4424L206.073 22.9371ZM208.086 23.0221L208.065 23.5217L208.158 23.5256L208.246 23.496L208.086 23.0221ZM210.187 22.3154L210.447 21.8884L210.248 21.7672L210.027 21.8415L210.187 22.3154ZM212.081 23.4696L211.821 23.8966L211.994 24.0022L212.192 23.9571L212.081 23.4696ZM214.156 22.9966L214.432 22.5795L214.253 22.4615L214.045 22.5091L214.156 22.9966ZM216.04 24.2427L215.764 24.6597L215.909 24.7557L216.083 24.7409L216.04 24.2427ZM218.082 24.0687L218.124 24.5669L218.166 24.5634L218.206 24.5531L218.082 24.0687ZM220.163 23.5359L220.418 23.1056L220.24 23.0002L220.039 23.0515L220.163 23.5359ZM222.021 24.6354L221.766 25.0657L221.819 25.0967L221.877 25.1142L222.021 24.6354ZM223.871 25.1908L224.103 24.7477L224.061 24.7256L224.015 24.7119L223.871 25.1908ZM225.594 26.0915L225.844 25.6587L225.835 25.6534L225.825 25.6485L225.594 26.0915ZM227.348 27.1062L227.824 26.9551L227.766 26.7704L227.598 26.6734L227.348 27.1062ZM227.976 29.0894L227.5 29.2405L227.568 29.4563L227.775 29.5473L227.976 29.0894ZM230.456 30.1767L230.953 30.2253L230.989 29.8645L230.656 29.7188L230.456 30.1767ZM230.232 32.4651L230.634 32.7624L230.716 32.6512L230.73 32.5137L230.232 32.4651ZM228.755 34.4623L228.353 34.1651L228.214 34.3532L228.27 34.5805L228.755 34.4623ZM229.243 36.4669L228.757 36.5851L228.773 36.651L228.806 36.7103L229.243 36.4669ZM230.444 38.6222L230.932 38.7314L230.974 38.5453L230.881 38.3788L230.444 38.6222ZM230.003 40.5956L230.356 40.9499L230.459 40.847L230.491 40.7048L230.003 40.5956ZM228.176 42.4155L227.823 42.0613L227.668 42.2159L227.676 42.4349L228.176 42.4155ZM228.254 44.4466L227.755 44.4659L227.759 44.5794L227.812 44.6798L228.254 44.4466ZM229.387 46.5943L229.885 46.5458L229.875 46.448L229.829 46.3611L229.387 46.5943ZM229.586 48.6387L230.046 48.836L230.097 48.718L230.084 48.5902L229.586 48.6387ZM228.757 50.5691L229.216 50.7687L229.217 50.7665L228.757 50.5691ZM227.917 52.4984L227.459 52.2988L227.415 52.4L227.417 52.5104L227.917 52.4984ZM227.966 54.5261L228.398 54.7782L228.469 54.6558L228.466 54.514L227.966 54.5261ZM226.905 56.3428L226.474 56.0907L226.452 56.1284L226.436 56.1695L226.905 56.3428ZM226.248 58.1222L226.598 58.4792L226.678 58.4007L226.717 58.2955L226.248 58.1222ZM224.888 59.4564L224.537 59.0994L224.422 59.2128L224.395 59.3723L224.888 59.4564ZM224.493 61.7714L224.722 62.2156L224.944 62.1012L224.986 61.8554L224.493 61.7714ZM222.656 62.7198L222.427 62.2756L222.409 62.2849L222.392 62.2957L222.656 62.7198ZM220.893 63.8209L220.975 64.3141L221.073 64.2978L221.158 64.245L220.893 63.8209ZM218.841 64.1607L218.64 64.6185L218.776 64.6782L218.922 64.654L218.841 64.1607ZM216.857 63.2903L217.058 62.8324L217.028 62.8192L216.996 62.81L216.857 63.2903ZM214.904 62.7241L215.043 62.2439L214.999 62.2312L214.954 62.2266L214.904 62.7241ZM212.904 62.5243L212.953 62.0268L212.805 62.012L212.673 62.0807L212.904 62.5243ZM210.758 63.6408L210.869 64.1283L210.932 64.114L210.989 64.0844L210.758 63.6408ZM208.683 64.1139L208.549 64.5955L208.671 64.6295L208.794 64.6013L208.683 64.1139ZM206.721 63.5668L206.359 63.9112L206.454 64.0114L206.587 64.0485L206.721 63.5668ZM204.91 61.6601L205.273 61.3158L205.103 61.1368L204.857 61.1629L204.91 61.6601ZM202.864 61.8779L202.88 62.3776L202.899 62.377L202.917 62.3751L202.864 61.8779ZM200.834 61.945L200.615 62.3947L200.727 62.4488L200.851 62.4447L200.834 61.945ZM198.915 61.0119L199.134 60.5622L198.9 60.4483L198.672 60.5751L198.915 61.0119ZM196.76 62.212L196.421 62.5797L196.687 62.8248L197.003 62.6489L196.76 62.212ZM194.925 60.5213L195.264 60.1536L195.138 60.0376L194.967 60.0231L194.925 60.5213ZM192.921 60.3513L192.964 59.8531L192.839 59.8425L192.724 59.8921L192.921 60.3513ZM190.798 61.2655L190.474 61.646L190.71 61.8477L190.996 61.7248L190.798 61.2655ZM188.95 59.6904L189.274 59.3099L189.084 59.1476L188.84 59.2026L188.95 59.6904ZM186.876 60.1578L186.668 60.6122L186.821 60.6827L186.986 60.6455L186.876 60.1578ZM184.952 59.275L185.16 58.8205L184.883 58.6935L184.643 58.8815L184.952 59.275ZM182.737 61.0112L182.482 61.4416L182.777 61.6155L183.045 61.4047L182.737 61.0112ZM180.839 59.8888L181.093 59.4584L181.078 59.4495L181.063 59.4417L180.839 59.8888ZM178.923 58.9298L179.147 58.4827L179.045 58.4318L178.931 58.4299L178.923 58.9298ZM176.904 58.8957L176.913 58.3958L176.849 58.3947L176.787 58.4098L176.904 58.8957ZM174.826 59.3993L174.709 58.9132L174.698 58.9161L174.826 59.3993ZM172.742 59.9547L172.417 60.3345L172.617 60.5056L172.871 60.4379L172.742 59.9547ZM170.895 58.3726L171.221 57.9929L171.056 57.8515L170.84 57.8757L170.895 58.3726ZM168.848 58.6018L168.903 59.0987L168.903 59.0986L168.848 58.6018ZM166.8 58.8281L166.57 59.2721L166.705 59.3417L166.855 59.3251L166.8 58.8281ZM164.888 57.8374L164.628 58.2646L164.643 58.2735L164.658 58.2814L164.888 57.8374ZM162.993 56.6852L163.253 56.258L163.045 56.1314L162.817 56.2174L162.993 56.6852ZM160.883 57.4814L161.05 57.9528L161.059 57.9493L160.883 57.4814ZM158.778 58.2279L158.818 58.7263L158.883 58.721L158.945 58.6992L158.778 58.2279ZM156.737 58.3949L156.464 58.8139L156.607 58.9072L156.778 58.8933L156.737 58.3949ZM154.851 57.1659L154.574 57.5823L154.578 57.5848L154.851 57.1659ZM152.967 55.9133L153.244 55.4969L153.077 55.3855L152.878 55.4212L152.967 55.9133ZM150.904 56.2853L150.941 56.784L150.967 56.782L150.992 56.7774L150.904 56.2853ZM148.865 56.4369L148.828 55.9383L148.793 55.9409L148.759 55.9482L148.865 56.4369ZM146.793 56.8835L146.435 57.2323L146.628 57.4306L146.898 57.3723L146.793 56.8835ZM144.977 55.018L145.336 54.6693L145.071 54.3971L144.737 54.5793L144.977 55.018ZM142.825 56.1947L142.646 56.662L142.862 56.7441L143.064 56.6335L142.825 56.1947ZM140.884 55.4551L141.062 54.9879L140.919 54.9331L140.769 54.9686L140.884 55.4551ZM138.807 55.9477L138.448 56.2958L138.646 56.4998L138.923 56.4342L138.807 55.9477ZM136.992 54.0764L137.351 53.7282L137.172 53.543L136.917 53.5821L136.992 54.0764ZM134.935 54.3917L134.977 54.8899L134.994 54.8885L135.011 54.8859L134.935 54.3917ZM132.894 54.5648L132.602 54.9712L132.752 55.0786L132.936 55.0631L132.894 54.5648ZM131.02 53.2219L131.311 52.8155L131.028 52.6127L130.74 52.8078L131.02 53.2219ZM128.834 54.7012L128.624 55.1551L128.88 55.2734L129.114 55.1153L128.834 54.7012ZM126.91 53.8128L127.12 53.3589L127.015 53.3103L126.899 53.3129L126.91 53.8128ZM124.883 53.8584L124.562 54.2417L124.706 54.3625L124.894 54.3583L124.883 53.8584ZM123.032 52.3083L123.353 51.925L123.089 51.704L122.789 51.8715L123.032 52.3083ZM120.877 53.5089L120.802 54.0033L120.971 54.0287L121.12 53.9457L120.877 53.5089ZM118.888 53.2093L118.584 53.6063L118.686 53.6845L118.813 53.7037L118.888 53.2093ZM117.024 51.7822L117.327 51.3852L117.216 51.2998L117.076 51.285L117.024 51.7822ZM115.025 51.5702L115.077 51.073L114.928 51.0571L114.794 51.1265L115.025 51.5702ZM112.879 52.6847L112.884 53.1847L113.003 53.1835L113.109 53.1285L112.879 52.6847ZM110.854 52.7045L110.519 53.0753L110.664 53.2064L110.859 53.2045L110.854 52.7045ZM109.016 51.0421L109.352 50.6713L109.21 50.5431L109.019 50.5421L109.016 51.0421ZM106.995 51.0318L106.998 50.5318L106.939 50.5315L106.881 50.545L106.995 51.0318ZM104.919 51.5193L104.794 52.0035L104.913 52.0342L105.033 52.0061L104.919 51.5193ZM102.953 51.012L102.714 51.4513L102.768 51.4807L102.828 51.4962L102.953 51.012ZM101.045 49.9747L101.284 49.5354L100.978 49.3686L100.715 49.5991L101.045 49.9747ZM98.805 51.9438L98.5704 52.3854L98.8755 52.5475L99.1351 52.3194L98.805 51.9438ZM96.8951 50.9292L97.1296 50.4877L96.978 50.4071L96.8088 50.4367L96.8951 50.9292ZM94.8328 51.2906L94.5949 51.7304L94.7478 51.8131L94.9191 51.7831L94.8328 51.2906ZM92.9248 50.2585L93.1627 49.8187L92.9593 49.7087L92.7437 49.7925L92.9248 50.2585ZM90.8115 51.0796L90.7121 51.5696L90.8559 51.5987L90.9926 51.5456L90.8115 51.0796ZM88.8337 50.6783L88.9331 50.1883L88.8936 50.1803L88.8532 50.1787L88.8337 50.6783ZM86.8201 50.5996L86.4691 50.9556L86.607 51.0916L86.8006 51.0992L86.8201 50.5996ZM84.9969 48.8024L85.3479 48.4463L85.2682 48.3677L85.1626 48.3307L84.9969 48.8024ZM83.0503 48.1187L83.216 47.6469L83.1117 47.6103L83.0016 47.6211L83.0503 48.1187ZM81.0059 48.319L80.9571 47.8213L80.8731 47.8296L80.7964 47.8649L81.0059 48.319ZM78.8747 49.302L78.7355 49.7823L78.9147 49.8342L79.0841 49.7561L78.8747 49.302ZM76.9153 48.7341L77.0545 48.2539L76.9622 48.2271L76.8666 48.2365L76.9153 48.7341ZM74.8708 48.9341L74.8764 49.4341L74.898 49.4338L74.9195 49.4317L74.8708 48.9341ZM72.846 48.9568L72.6884 49.4313L72.7679 49.4577L72.8516 49.4568L72.846 48.9568ZM70.8955 48.3088L70.6357 48.736L70.6841 48.7655L70.7379 48.7833L70.8955 48.3088ZM69.0009 47.1564L69.2607 46.7292L69.1448 46.6587L69.0092 46.6564L69.0009 47.1564ZM66.9823 47.1228L66.9906 46.6229L66.9394 46.622L66.8891 46.6316L66.9823 47.1228ZM64.9166 47.5149L64.5642 47.8695L64.751 48.0552L65.0098 48.0061L64.9166 47.5149ZM63.0948 45.7048L63.4472 45.3501L63.237 45.1413L62.9529 45.2254L63.0948 45.7048ZM61.004 46.3234L60.7815 46.7712L60.9575 46.8586L61.1458 46.8029L61.004 46.3234ZM59.0871 45.3712L59.3096 44.9234L59.0295 44.7843L58.7818 44.9752L59.0871 45.3712ZM56.876 47.0762L56.4978 47.4033L56.807 47.7607L57.1813 47.4721L56.876 47.0762ZM55.0833 45.0035L55.4615 44.6764L55.3173 44.5097L55.0969 44.5037L55.0833 45.0035ZM53.0671 44.9486L53.0807 44.4488L52.9382 44.4449L52.815 44.5168L53.0671 44.9486ZM50.905 46.2105L50.7243 46.6767L50.949 46.7638L51.1571 46.6423L50.905 46.2105ZM48.966 45.4588L49.1467 44.9926L48.9966 44.9344L48.8407 44.9748L48.966 45.4588ZM46.884 45.9977L46.5331 46.3538L46.7349 46.5527L47.0093 46.4817L46.884 45.9977ZM45.0607 44.2011L45.4116 43.845L45.1111 43.5488L44.7686 43.7953L45.0607 44.2011ZM42.8632 45.7832L42.46 46.0789L42.7531 46.4785L43.1553 46.189L42.8632 45.7832ZM41.1062 43.3882L41.5093 43.0924L41.2159 42.6924L40.8136 42.9828L41.1062 43.3882ZM38.9082 44.9746L38.6339 45.3927L38.9217 45.5814L39.2008 45.38L38.9082 44.9746ZM37.0228 43.7381L37.297 43.32L37.213 43.2649L37.1143 43.2465L37.0228 43.7381ZM35.0414 43.3695L35.1328 42.8779L34.979 42.8493L34.8363 42.9135L35.0414 43.3695ZM32.9131 44.3264L32.5711 44.6911L32.8142 44.919L33.1181 44.7824L32.9131 44.3264ZM31.081 42.609L31.4229 42.2442L31.2056 42.0405L30.9229 42.1347L31.081 42.609ZM28.9812 43.309L28.8144 43.7804L28.9764 43.8377L29.1393 43.7834L28.9812 43.309ZM27.0351 42.6207L27.2019 42.1493L27.1954 42.1471L27.0351 42.6207ZM25.0859 41.9611L25.2462 41.4874L25.1015 41.4385L24.9541 41.4787L25.0859 41.9611ZM23.0005 42.5308L22.8067 42.9917L22.9658 43.0586L23.1323 43.0132L23.0005 42.5308ZM21.0682 41.7183L21.262 41.2574L21.0639 41.1741L20.8671 41.2605L21.0682 41.7183ZM18.9425 42.652L18.656 43.0618L18.8863 43.2227L19.1436 43.1097L18.9425 42.652ZM17.0655 41.3399L17.352 40.9301L17.0988 40.753L16.8271 40.9004L17.0655 41.3399ZM14.914 42.5069L14.5334 42.8312L14.7962 43.1396L15.1524 42.9464L14.914 42.5069ZM13.1243 40.4066L13.5049 40.0824L13.1899 39.7127L12.8113 40.0168L13.1243 40.4066ZM10.9046 42.189L10.5033 42.4873L10.813 42.9038L11.2177 42.5789L10.9046 42.189ZM9.21594 39.9176L9.6172 39.6193L9.35869 39.2716L8.97774 39.478L9.21594 39.9176ZM6.65056 41.3077L6.30465 41.6687L6.56804 41.9211L6.88877 41.7473L6.65056 41.3077ZM5.01405 39.7397L5.35997 39.3787L5.32528 39.3454L5.28489 39.3194L5.01405 39.7397ZM3.18336 38.56L2.70906 38.7182L2.76471 38.885L2.91253 38.9803L3.18336 38.56ZM2.47372 36.4328L2.94803 36.2745L2.91165 36.1655L2.83128 36.0832L2.47372 36.4328ZM0.930813 34.8543L0.455575 34.6989L0.361359 34.9871L0.57326 35.2038L0.930813 34.8543ZM1.68738 32.5406L2.16262 32.696L2.18329 32.6328L2.18672 32.5663L1.68738 32.5406ZM1.7847 30.6513L2.28415 30.677L2.28447 30.6664L1.7847 30.6513ZM1.84384 28.6886L2.34361 28.7037L2.34427 28.6818L2.34301 28.6599L1.84384 28.6886ZM1.72675 26.6534L1.26262 26.4674L1.22117 26.5709L1.22757 26.6821L1.72675 26.6534ZM2.50261 24.717L2.96674 24.903L3.06537 24.6568L2.91691 24.4371L2.50261 24.717ZM1.02575 22.5312L0.526458 22.5046L0.517556 22.6721L0.611451 22.8111L1.02575 22.5312ZM1.13261 20.5207L0.697261 20.2748L0.639541 20.377L0.633312 20.4942L1.13261 20.5207ZM2.20767 18.6175L2.64302 18.8634L2.65777 18.8373L2.66929 18.8096L2.20767 18.6175ZM3.01216 16.6843L3.47378 16.8764L3.56569 16.6555L3.45139 16.4454L3.01216 16.6843ZM1.84175 14.5324L1.36796 14.3726L1.29821 14.5795L1.40252 14.7713L1.84175 14.5324ZM2.49909 12.5829L2.06008 12.3436L2.03923 12.3818L2.0253 12.4231L2.49909 12.5829ZM3.53869 10.6757L3.9777 10.9151L4.02101 10.8356L4.03373 10.746L3.53869 10.6757ZM3.8155 8.72571L3.38721 8.4677L3.33475 8.55479L3.32046 8.65544L3.8155 8.72571ZM4.8214 7.05594L5.24969 7.31395L5.307 7.21882L5.31865 7.10836L4.8214 7.05594ZM5.05034 4.88413L4.70514 4.52242L4.57234 4.64915L4.5531 4.83171L5.05034 4.88413ZM6.53859 3.46383L6.45384 2.97107L6.30364 2.9969L6.19339 3.10212L6.53859 3.46383ZM8.66917 3.09739L8.75392 3.59015L9.00282 3.54734L9.11607 3.32161L8.66917 3.09739ZM9.84144 0.760935L10.0586 0.310548L9.61526 0.0968038L9.39454 0.536709L9.84144 0.760935ZM12.1631 1.88029L11.946 2.33068L12.1878 2.44725L12.4186 2.31012L12.1631 1.88029ZM14.127 0.713278L14.5811 0.503958L14.3487 -9.27233e-05L13.8716 0.283442L14.127 0.713278ZM14.343 1.18175L14.2879 1.67871L14.3873 1.68972L14.4424 1.19276L14.4974 0.695801L14.398 0.684791L14.343 1.18175ZM14.4424 1.19276L14.1688 1.61129L15.9608 2.78254L16.2343 2.36401L16.5079 1.94548L14.7159 0.774233L14.4424 1.19276ZM16.2343 2.36401L16.5208 2.77382L18.7128 1.24165L18.4263 0.83184L18.1399 0.422028L15.9479 1.9542L16.2343 2.36401ZM18.4263 0.83184L18.086 1.19811L19.9195 2.90196L20.2599 2.53568L20.6002 2.16941L18.7667 0.465568L18.4263 0.83184ZM20.2599 2.53568L20.4122 3.01191L22.5088 2.34118L22.3565 1.86496L22.2041 1.38873L20.1075 2.05946L20.2599 2.53568ZM22.3565 1.86496L22.3938 2.36356L24.433 2.21093L24.3957 1.71232L24.3584 1.21372L22.3192 1.36635L22.3565 1.86496ZM24.3957 1.71232L24.2282 2.18345L26.1739 2.87494L26.3414 2.40381L26.5088 1.93268L24.5631 1.24119L24.3957 1.71232ZM26.3414 2.40381L26.0659 2.82111L27.9504 4.06499L28.2259 3.64769L28.5013 3.2304L26.6168 1.98652L26.3414 2.40381ZM28.2259 3.64769L28.2959 4.14277L30.3504 3.85223L30.2804 3.35716L30.2103 2.86208L28.1559 3.15262L28.2259 3.64769ZM30.2804 3.35716L30.2645 3.85691L32.2796 3.92103L32.2955 3.42128L32.3114 2.92153L30.2963 2.85741L30.2804 3.35716ZM32.2955 3.42128L32.3493 3.91838L34.3962 3.69686L34.3424 3.19976L34.2886 2.70267L32.2418 2.92418L32.2955 3.42128ZM34.3424 3.19976L34.0494 3.60496L35.9218 4.95862L36.2147 4.55342L36.5077 4.14822L34.6353 2.79457L34.3424 3.19976ZM36.2147 4.55342L36.3457 5.03597L38.4306 4.47032L38.2997 3.98776L38.1688 3.50521L36.0838 4.07086L36.2147 4.55342ZM38.2997 3.98776L38.4261 4.4715L40.5087 3.92707L40.3823 3.44333L40.2558 2.95958L38.1732 3.50402L38.2997 3.98776ZM40.3823 3.44333L40.3013 3.93672L42.2874 4.26285L42.3684 3.76946L42.4495 3.27607L40.4633 2.94993L40.3823 3.44333ZM42.3684 3.76946L42.1063 4.19523L43.9995 5.3609L44.2616 4.93514L44.5238 4.50937L42.6306 3.3437L42.3684 3.76946ZM44.2616 4.93514L44.477 5.38636L46.6122 4.36701L46.3968 3.91579L46.1814 3.46457L44.0462 4.48392L44.2616 4.93514ZM46.3968 3.91579L46.2555 4.39542L48.2139 4.9723L48.3552 4.49268L48.4965 4.01305L46.5381 3.43617L46.3968 3.91579ZM48.3552 4.49268L48.4012 4.99055L50.4444 4.8017L50.3984 4.30383L50.3524 3.80595L48.3092 3.9948L48.3552 4.49268ZM50.3984 4.30383L50.0534 4.66573L51.8826 6.40946L52.2276 6.04756L52.5726 5.68566L50.7434 3.94192L50.3984 4.30383ZM52.2276 6.04756L52.3732 6.52589L54.466 5.88879L54.3204 5.41046L54.1748 4.93213L52.082 5.56924L52.2276 6.04756ZM54.3204 5.41046L54.3664 5.90834L56.4096 5.71982L56.3636 5.22193L56.3177 4.72405L54.2745 4.91257L54.3204 5.41046ZM56.3636 5.22193L56.3526 5.72181L58.37 5.76618L58.381 5.2663L58.392 4.76642L56.3746 4.72205L56.3636 5.22193ZM58.381 5.2663L58.2636 5.75232L60.2332 6.22803L60.3506 5.74201L60.468 5.25598L58.4984 4.78027L58.381 5.2663ZM60.3506 5.74201L60.2609 6.23389L62.2431 6.59546L62.3328 6.10357L62.4226 5.61169L60.4403 5.25012L60.3506 5.74201ZM62.3328 6.10357L62.4155 6.59669L64.4761 6.25116L64.3934 5.75805L64.3107 5.26493L62.2501 5.61046L62.3328 6.10357ZM64.3934 5.75805L64.1995 6.21894L66.1318 7.03168L66.3257 6.57079L66.5195 6.1099L64.5873 5.29716L64.3934 5.75805ZM66.3257 6.57079L66.1877 7.05138L68.1477 7.6139L68.2857 7.13331L68.4236 6.65271L66.4636 6.09019L66.3257 6.57079ZM68.2857 7.13331L68.399 7.62029L70.4748 7.13708L70.3615 6.6501L70.2481 6.16312L68.1723 6.64633L68.2857 7.13331ZM70.3615 6.6501L70.2449 7.13631L72.2149 7.60868L72.3314 7.12247L72.448 6.63625L70.4781 6.16388L70.3615 6.6501ZM72.3314 7.12247L72.404 7.61717L74.4597 7.31557L74.3871 6.82087L74.3146 6.32616L72.2589 6.62776L72.3314 7.12247ZM74.3871 6.82087L74.0577 7.19698L75.9011 8.81171L76.2306 8.43559L76.56 8.05948L74.7166 6.44475L74.3871 6.82087ZM76.2306 8.43559L76.4878 8.86435L78.6541 7.56469L78.3968 7.13593L78.1396 6.70718L75.9733 8.00684L76.2306 8.43559ZM78.3968 7.13593L78.0705 7.51478L79.9167 9.1049L80.243 8.72605L80.5693 8.3472L78.7231 6.75709L78.3968 7.13593ZM80.243 8.72605L80.357 9.21287L82.4332 8.72646L82.3192 8.23965L82.2051 7.75283L80.1289 8.23923L80.243 8.72605ZM82.3192 8.23965L82.1211 8.69875L84.0512 9.53129L84.2492 9.07218L84.4473 8.61307L82.5172 7.78054L82.3192 8.23965ZM84.2492 9.07218L84.3694 9.55752L86.4487 9.04263L86.3286 8.55729L86.2084 8.07195L84.129 8.58684L84.2492 9.07218ZM86.3286 8.55729L86.1568 9.02687L88.1004 9.73764L88.2721 9.26805L88.4439 8.79847L86.5003 8.0877L86.3286 8.55729ZM88.2721 9.26805L87.9684 9.66523L89.8328 11.0909L90.1365 10.6938L90.4402 10.2966L88.5758 8.87088L88.2721 9.26805ZM90.1365 10.6938L90.3112 11.1622L92.4207 10.3755L92.2459 9.90699L92.0712 9.43851L89.9618 10.2253L90.1365 10.6938ZM92.2459 9.90699L91.9957 10.3398L93.8963 11.4387L94.1465 11.0058L94.3968 10.573L92.4962 9.47413L92.2459 9.90699ZM94.1465 11.0058L94.147 11.5058L96.1695 11.5038L96.169 11.0038L96.1685 10.5038L94.146 10.5058L94.1465 11.0058ZM96.169 11.0038L96.0438 11.4878L98.0097 11.9966L98.135 11.5126L98.2602 11.0285L96.2943 10.5197L96.169 11.0038ZM98.135 11.5126L98.231 12.0032L100.298 11.5985L100.202 11.1078L100.106 10.6171L98.0389 11.0219L98.135 11.5126ZM100.202 11.1078L99.9764 11.554L101.891 12.5227L102.117 12.0765L102.343 11.6303L100.428 10.6616L100.202 11.1078ZM102.117 12.0765L102.12 12.5765L104.144 12.5647L104.141 12.0647L104.138 11.5647L102.114 11.5765L102.117 12.0765ZM104.141 12.0647L104.46 12.4493L106.687 10.5989L106.368 10.2143L106.048 9.82973L103.821 11.6801L104.141 12.0647ZM106.368 10.2143L106.065 10.6123L107.93 12.0309L108.233 11.6329L108.536 11.2349L106.671 9.81635L106.368 10.2143ZM108.233 11.6329L108.172 12.1292L110.168 12.373L110.228 11.8767L110.289 11.3804L108.294 11.1366L108.233 11.6329ZM110.228 11.8767L110.395 12.348L112.5 11.6034L112.333 11.132L112.166 10.6607L110.062 11.4053L110.228 11.8767ZM112.333 11.132L112.209 11.6165L114.176 12.1191L114.3 11.6347L114.424 11.1503L112.457 10.6476L112.333 11.132ZM114.3 11.6347L114.318 12.1344L116.348 12.0613L116.33 11.5616L116.312 11.0619L114.282 11.135L114.3 11.6347ZM116.33 11.5616L116.121 12.0156L118.045 12.9029L118.254 12.4488L118.464 11.9948L116.54 11.1075L116.33 11.5616ZM118.254 12.4488L117.936 12.8349L119.79 14.3601L120.108 13.974L120.425 13.5879L118.572 12.0627L118.254 12.4488ZM120.108 13.974L120.222 14.4607L122.299 13.9717L122.184 13.4851L122.069 12.9984L119.993 13.4873L120.108 13.974ZM122.184 13.4851L122.095 13.977L124.077 14.3371L124.166 13.8451L124.256 13.3532L122.273 12.9931L122.184 13.4851ZM124.166 13.8451L124.423 14.2744L126.589 12.9804L126.332 12.5511L126.076 12.1219L123.91 13.4159L124.166 13.8451ZM126.332 12.5511L125.942 12.8645L127.72 15.0743L128.11 14.7609L128.499 14.4475L126.722 12.2377L126.332 12.5511ZM128.11 14.7609L128.431 15.1436L130.661 13.2686L130.34 12.8859L130.018 12.5032L127.788 14.3782L128.11 14.7609ZM130.34 12.8859L129.977 13.2307L131.789 15.1337L132.151 14.789L132.513 14.4442L130.702 12.5412L130.34 12.8859ZM132.151 14.789L132.314 15.2616L134.417 14.5352L134.254 14.0626L134.091 13.59L131.988 14.3164L132.151 14.789ZM134.254 14.0626L134.38 14.5465L136.462 14.0039L136.336 13.52L136.21 13.0362L134.128 13.5788L134.254 14.0626ZM136.336 13.52L135.922 13.8007L137.661 16.3639L138.075 16.0832L138.488 15.8026L136.75 13.2394L136.336 13.52ZM138.075 16.0832L138.045 16.5824L140.055 16.6998L140.084 16.2007L140.113 15.7015L138.104 15.5841L138.075 16.0832ZM140.084 16.2007L140.263 16.6674L142.375 15.8556L142.196 15.3889L142.017 14.9222L139.904 15.7339L140.084 16.2007ZM142.196 15.3889L141.943 15.8202L143.842 16.9338L144.095 16.5025L144.348 16.0712L142.449 14.9576L142.196 15.3889ZM144.095 16.5025L144.304 16.9568L146.435 15.9766L146.226 15.5224L146.017 15.0681L143.886 16.0483L144.095 16.5025ZM146.226 15.5224L146.117 16.0104L148.091 16.4498L148.199 15.9617L148.308 15.4737L146.334 15.0343L146.226 15.5224ZM148.199 15.9617L148.392 16.4233L150.512 15.5402L150.32 15.0787L150.127 14.6171L148.007 15.5001L148.199 15.9617ZM150.32 15.0787L149.995 15.4591L151.843 17.0346L152.167 16.6541L152.492 16.2737L150.644 14.6982L150.32 15.0787ZM152.167 16.6541L152.287 17.1396L154.366 16.6264L154.247 16.141L154.127 15.6555L152.048 16.1687L152.167 16.6541ZM154.247 16.141L154.323 16.635L156.381 16.3146L156.304 15.8205L156.227 15.3265L154.17 15.6469L154.247 16.141ZM156.304 15.8205L156.275 16.3197L158.284 16.4386L158.313 15.9395L158.343 15.4403L156.334 15.3214L156.304 15.8205ZM158.313 15.9395L158.038 16.3566L159.922 17.6021L160.198 17.185L160.473 16.7679L158.589 15.5223L158.313 15.9395ZM160.198 17.185L160.214 17.6847L162.244 17.6175L162.227 17.1178L162.211 16.6181L160.181 16.6853L160.198 17.185ZM162.227 17.1178L162.045 17.5832L163.983 18.3437L164.166 17.8782L164.348 17.4128L162.41 16.6523L162.227 17.1178ZM164.166 17.8782L164.298 18.3605L166.383 17.7897L166.251 17.3074L166.119 16.8251L164.034 17.396L164.166 17.8782ZM166.251 17.3074L166.102 17.7847L168.057 18.3947L168.206 17.9174L168.355 17.4401L166.4 16.8301L166.251 17.3074ZM168.206 17.9174L168.335 18.4003L170.42 17.8411L170.29 17.3582L170.16 16.8752L168.076 17.4345L168.206 17.9174ZM170.29 17.3582L170.107 17.8235L172.045 18.5849L172.228 18.1196L172.411 17.6542L170.473 16.8928L170.29 17.3582ZM172.228 18.1196L171.861 18.4591L173.667 20.4115L174.034 20.072L174.401 19.7324L172.595 17.78L172.228 18.1196ZM174.034 20.072L173.99 20.57L175.993 20.7462L176.037 20.2482L176.081 19.7501L174.078 19.5739L174.034 20.072ZM176.037 20.2482L176.184 20.7261L178.277 20.0821L178.13 19.6042L177.983 19.1263L175.89 19.7703L176.037 20.2482ZM178.13 19.6042L178.363 20.0467L180.51 18.9182L180.278 18.4756L180.045 18.033L177.898 19.1616L178.13 19.6042ZM180.278 18.4756L179.976 18.874L181.841 20.2886L182.143 19.8902L182.445 19.4918L180.58 18.0772L180.278 18.4756ZM182.143 19.8902L182.051 20.3816L184.032 20.7544L184.124 20.263L184.217 19.7716L182.236 19.3988L182.143 19.8902ZM184.124 20.263L184.305 20.7291L186.418 19.9094L186.237 19.4433L186.057 18.9771L183.943 19.7968L184.124 20.263ZM186.237 19.4433L186.014 19.8906L187.93 20.8473L188.154 20.4L188.377 19.9526L186.461 18.9959L186.237 19.4433ZM188.154 20.4L188.025 20.8831L189.989 21.4071L190.118 20.924L190.247 20.4409L188.283 19.9169L188.154 20.4ZM190.118 20.924L190.039 21.4177L192.026 21.7368L192.105 21.2431L192.184 20.7494L190.197 20.4303L190.118 20.924ZM192.105 21.2431L192.092 21.7429L194.108 21.7964L194.121 21.2966L194.135 20.7968L192.118 20.7433L192.105 21.2431ZM194.121 21.2966L193.921 21.7546L195.849 22.5998L196.05 22.1418L196.251 21.6839L194.322 20.8387L194.121 21.2966ZM196.05 22.1418L196.064 22.6417L198.092 22.5857L198.078 22.0859L198.065 21.586L196.036 21.642L196.05 22.1418ZM198.078 22.0859L198.335 22.5151L200.501 21.221L200.244 20.7918L199.988 20.3626L197.822 21.6566L198.078 22.0859ZM200.244 20.7918L200.216 21.291L202.226 21.4038L202.254 20.9046L202.282 20.4054L200.272 20.2926L200.244 20.7918ZM202.254 20.9046L201.855 21.2059L203.618 23.5414L204.017 23.2401L204.416 22.9388L202.653 20.6033L202.254 20.9046ZM204.017 23.2401L204.09 23.7348L206.146 23.4317L206.073 22.9371L206 22.4424L203.945 22.7455L204.017 23.2401ZM206.073 22.9371L206.052 23.4366L208.065 23.5217L208.086 23.0221L208.107 22.5226L206.094 22.4375L206.073 22.9371ZM208.086 23.0221L208.246 23.496L210.346 22.7893L210.187 22.3154L210.027 21.8415L207.927 22.5482L208.086 23.0221ZM210.187 22.3154L209.927 22.7424L211.821 23.8966L212.081 23.4696L212.341 23.0426L210.447 21.8884L210.187 22.3154ZM212.081 23.4696L212.192 23.9571L214.267 23.4841L214.156 22.9966L214.045 22.5091L211.97 22.9821L212.081 23.4696ZM214.156 22.9966L213.88 23.4136L215.764 24.6597L216.04 24.2427L216.316 23.8256L214.432 22.5795L214.156 22.9966ZM216.04 24.2427L216.083 24.7409L218.124 24.5669L218.082 24.0687L218.039 23.5705L215.998 23.7445L216.04 24.2427ZM218.082 24.0687L218.206 24.5531L220.287 24.0203L220.163 23.5359L220.039 23.0515L217.958 23.5843L218.082 24.0687ZM220.163 23.5359L219.908 23.9662L221.766 25.0657L222.021 24.6354L222.276 24.2051L220.418 23.1056L220.163 23.5359ZM222.021 24.6354L221.877 25.1142L223.728 25.6697L223.871 25.1908L224.015 24.7119L222.165 24.1565L222.021 24.6354ZM223.871 25.1908L223.64 25.6338L225.362 26.5346L225.594 26.0915L225.825 25.6485L224.103 24.7477L223.871 25.1908ZM225.594 26.0915L225.343 26.5243L227.097 27.539L227.348 27.1062L227.598 26.6734L225.844 25.6587L225.594 26.0915ZM227.348 27.1062L226.871 27.2573L227.5 29.2405L227.976 29.0894L228.453 28.9383L227.824 26.9551L227.348 27.1062ZM227.976 29.0894L227.775 29.5473L230.255 30.6346L230.456 30.1767L230.656 29.7188L228.177 28.6315L227.976 29.0894ZM230.456 30.1767L229.958 30.1282L229.735 32.4165L230.232 32.4651L230.73 32.5137L230.953 30.2253L230.456 30.1767ZM230.232 32.4651L229.83 32.1678L228.353 34.1651L228.755 34.4623L229.157 34.7596L230.634 32.7624L230.232 32.4651ZM228.755 34.4623L228.27 34.5805L228.757 36.5851L229.243 36.4669L229.729 36.3487L229.241 34.3442L228.755 34.4623ZM229.243 36.4669L228.806 36.7103L230.007 38.8657L230.444 38.6222L230.881 38.3788L229.68 36.2235L229.243 36.4669ZM230.444 38.6222L229.956 38.5131L229.515 40.4865L230.003 40.5956L230.491 40.7048L230.932 38.7314L230.444 38.6222ZM230.003 40.5956L229.65 40.2414L227.823 42.0613L228.176 42.4155L228.529 42.7698L230.356 40.9499L230.003 40.5956ZM228.176 42.4155L227.676 42.4349L227.755 44.4659L228.254 44.4466L228.754 44.4272L228.675 42.3962L228.176 42.4155ZM228.254 44.4466L227.812 44.6798L228.945 46.8276L229.387 46.5943L229.829 46.3611L228.697 44.2133L228.254 44.4466ZM229.387 46.5943L228.889 46.6428L229.089 48.6872L229.586 48.6387L230.084 48.5902L229.885 46.5458L229.387 46.5943ZM229.586 48.6387L229.127 48.4414L228.298 50.3718L228.757 50.5691L229.217 50.7665L230.046 48.836L229.586 48.6387ZM228.757 50.5691L228.299 50.3695L227.459 52.2988L227.917 52.4984L228.376 52.698L229.216 50.7687L228.757 50.5691ZM227.917 52.4984L227.417 52.5104L227.466 54.5381L227.966 54.5261L228.466 54.514L228.417 52.4863L227.917 52.4984ZM227.966 54.5261L227.534 54.274L226.474 56.0907L226.905 56.3428L227.337 56.5949L228.398 54.7782L227.966 54.5261ZM226.905 56.3428L226.436 56.1695L225.779 57.9489L226.248 58.1222L226.717 58.2955L227.374 56.5161L226.905 56.3428ZM226.248 58.1222L225.898 57.7652L224.537 59.0994L224.888 59.4564L225.238 59.8133L226.598 58.4792L226.248 58.1222ZM224.888 59.4564L224.395 59.3723L224 61.6873L224.493 61.7714L224.986 61.8554L225.38 59.5404L224.888 59.4564ZM224.493 61.7714L224.263 61.3271L222.427 62.2756L222.656 62.7198L222.886 63.1641L224.722 62.2156L224.493 61.7714ZM222.656 62.7198L222.392 62.2957L220.628 63.3967L220.893 63.8209L221.158 64.245L222.921 63.144L222.656 62.7198ZM220.893 63.8209L220.811 63.3276L218.759 63.6674L218.841 64.1607L218.922 64.654L220.975 64.3141L220.893 63.8209ZM218.841 64.1607L219.042 63.7028L217.058 62.8324L216.857 63.2903L216.656 63.7481L218.64 64.6185L218.841 64.1607ZM216.857 63.2903L216.996 62.81L215.043 62.2439L214.904 62.7241L214.765 63.2044L216.718 63.7705L216.857 63.2903ZM214.904 62.7241L214.954 62.2266L212.953 62.0268L212.904 62.5243L212.854 63.0218L214.854 63.2217L214.904 62.7241ZM212.904 62.5243L212.673 62.0807L210.527 63.1972L210.758 63.6408L210.989 64.0844L213.134 62.9679L212.904 62.5243ZM210.758 63.6408L210.647 63.1533L208.572 63.6264L208.683 64.1139L208.794 64.6013L210.869 64.1283L210.758 63.6408ZM208.683 64.1139L208.817 63.6322L206.856 63.0852L206.721 63.5668L206.587 64.0485L208.549 64.5955L208.683 64.1139ZM206.721 63.5668L207.084 63.2225L205.273 61.3158L204.91 61.6601L204.548 62.0045L206.359 63.9112L206.721 63.5668ZM204.91 61.6601L204.857 61.1629L202.811 61.3807L202.864 61.8779L202.917 62.3751L204.963 62.1573L204.91 61.6601ZM202.864 61.8779L202.847 61.3782L200.818 61.4453L200.834 61.945L200.851 62.4447L202.88 62.3776L202.864 61.8779ZM200.834 61.945L201.053 61.4953L199.134 60.5622L198.915 61.0119L198.697 61.4615L200.615 62.3947L200.834 61.945ZM198.915 61.0119L198.672 60.5751L196.517 61.7752L196.76 62.212L197.003 62.6489L199.158 61.4487L198.915 61.0119ZM196.76 62.212L197.099 61.8443L195.264 60.1536L194.925 60.5213L194.586 60.889L196.421 62.5797L196.76 62.212ZM194.925 60.5213L194.967 60.0231L192.964 59.8531L192.921 60.3513L192.879 60.8495L194.883 61.0195L194.925 60.5213ZM192.921 60.3513L192.724 59.8921L190.6 60.8063L190.798 61.2655L190.996 61.7248L193.119 60.8106L192.921 60.3513ZM190.798 61.2655L191.122 60.885L189.274 59.3099L188.95 59.6904L188.626 60.0709L190.474 61.646L190.798 61.2655ZM188.95 59.6904L188.84 59.2026L186.766 59.67L186.876 60.1578L186.986 60.6455L189.06 60.1781L188.95 59.6904ZM186.876 60.1578L187.085 59.7033L185.16 58.8205L184.952 59.275L184.743 59.7295L186.668 60.6122L186.876 60.1578ZM184.952 59.275L184.643 58.8815L182.428 60.6177L182.737 61.0112L183.045 61.4047L185.26 59.6685L184.952 59.275ZM182.737 61.0112L182.991 60.5808L181.093 59.4584L180.839 59.8888L180.584 60.3192L182.482 61.4416L182.737 61.0112ZM180.839 59.8888L181.063 59.4417L179.147 58.4827L178.923 58.9298L178.699 59.377L180.615 60.3359L180.839 59.8888ZM178.923 58.9298L178.931 58.4299L176.913 58.3958L176.904 58.8957L176.896 59.3956L178.914 59.4298L178.923 58.9298ZM176.904 58.8957L176.787 58.4098L174.709 58.9133L174.826 59.3993L174.944 59.8852L177.022 59.3816L176.904 58.8957ZM174.826 59.3993L174.698 58.9161L172.614 59.4716L172.742 59.9547L172.871 60.4379L174.955 59.8824L174.826 59.3993ZM172.742 59.9547L173.068 59.575L171.221 57.9929L170.895 58.3726L170.57 58.7523L172.417 60.3345L172.742 59.9547ZM170.895 58.3726L170.84 57.8757L168.792 58.1049L168.848 58.6018L168.903 59.0986L170.951 58.8695L170.895 58.3726ZM168.848 58.6018L168.793 58.1048L166.745 58.3311L166.8 58.8281L166.855 59.3251L168.903 59.0987L168.848 58.6018ZM166.8 58.8281L167.03 58.3841L165.118 57.3935L164.888 57.8374L164.658 58.2814L166.57 59.2721L166.8 58.8281ZM164.888 57.8374L165.148 57.4102L163.253 56.258L162.993 56.6852L162.733 57.1125L164.628 58.2646L164.888 57.8374ZM162.993 56.6852L162.817 56.2174L160.706 57.0136L160.883 57.4814L161.059 57.9493L163.17 57.1531L162.993 56.6852ZM160.883 57.4814L160.716 57.0102L158.611 57.7567L158.778 58.2279L158.945 58.6992L161.05 57.9527L160.883 57.4814ZM158.778 58.2279L158.737 57.7296L156.696 57.8966L156.737 58.3949L156.778 58.8933L158.818 58.7263L158.778 58.2279ZM156.737 58.3949L157.01 57.976L155.124 56.747L154.851 57.1659L154.578 57.5848L156.464 58.8139L156.737 58.3949ZM154.851 57.1659L155.128 56.7496L153.244 55.4969L152.967 55.9133L152.69 56.3296L154.574 57.5822L154.851 57.1659ZM152.967 55.9133L152.878 55.4212L150.815 55.7933L150.904 56.2853L150.992 56.7774L153.056 56.4053L152.967 55.9133ZM150.904 56.2853L150.867 55.7867L148.828 55.9383L148.865 56.4369L148.902 56.9356L150.941 56.784L150.904 56.2853ZM148.865 56.4369L148.759 55.9482L146.687 56.3948L146.793 56.8835L146.898 57.3723L148.97 56.9257L148.865 56.4369ZM146.793 56.8835L147.151 56.5348L145.336 54.6693L144.977 55.018L144.619 55.3668L146.435 57.2323L146.793 56.8835ZM144.977 55.018L144.737 54.5793L142.585 55.756L142.825 56.1947L143.064 56.6335L145.217 55.4567L144.977 55.018ZM142.825 56.1947L143.003 55.7275L141.062 54.9879L140.884 55.4551L140.706 55.9223L142.646 56.662L142.825 56.1947ZM140.884 55.4551L140.769 54.9686L138.692 55.4612L138.807 55.9477L138.923 56.4342L141 55.9416L140.884 55.4551ZM138.807 55.9477L139.166 55.5996L137.351 53.7282L136.992 54.0764L136.633 54.4245L138.448 56.2958L138.807 55.9477ZM136.992 54.0764L136.917 53.5821L134.859 53.8975L134.935 54.3917L135.011 54.8859L137.068 54.5706L136.992 54.0764ZM134.935 54.3917L134.893 53.8935L132.851 54.0666L132.894 54.5648L132.936 55.0631L134.977 54.8899L134.935 54.3917ZM132.894 54.5648L133.185 54.1585L131.311 52.8155L131.02 53.2219L130.729 53.6283L132.602 54.9712L132.894 54.5648ZM131.02 53.2219L130.74 52.8078L128.554 54.2871L128.834 54.7012L129.114 55.1153L131.3 53.636L131.02 53.2219ZM128.834 54.7012L129.044 54.2473L127.12 53.3589L126.91 53.8128L126.7 54.2667L128.624 55.1551L128.834 54.7012ZM126.91 53.8128L126.899 53.3129L124.871 53.3585L124.883 53.8584L124.894 54.3583L126.921 54.3127L126.91 53.8128ZM124.883 53.8584L125.204 53.4751L123.353 51.925L123.032 52.3083L122.711 52.6916L124.562 54.2417L124.883 53.8584ZM123.032 52.3083L122.789 51.8715L120.634 53.0721L120.877 53.5089L121.12 53.9457L123.275 52.7451L123.032 52.3083ZM120.877 53.5089L120.951 53.0145L118.962 52.7148L118.888 53.2093L118.813 53.7037L120.802 54.0033L120.877 53.5089ZM118.888 53.2093L119.192 52.8122L117.327 51.3852L117.024 51.7822L116.72 52.1793L118.584 53.6063L118.888 53.2093ZM117.024 51.7822L117.076 51.285L115.077 51.073L115.025 51.5702L114.972 52.0674L116.971 52.2794L117.024 51.7822ZM115.025 51.5702L114.794 51.1265L112.648 52.241L112.879 52.6847L113.109 53.1285L115.255 52.0139L115.025 51.5702ZM112.879 52.6847L112.874 52.1848L110.85 52.2045L110.854 52.7045L110.859 53.2045L112.884 53.1847L112.879 52.6847ZM110.854 52.7045L111.19 52.3336L109.352 50.6713L109.016 51.0421L108.681 51.413L110.519 53.0753L110.854 52.7045ZM109.016 51.0421L109.019 50.5421L106.998 50.5318L106.995 51.0318L106.993 51.5318L109.014 51.5421L109.016 51.0421ZM106.995 51.0318L106.881 50.545L104.805 51.0326L104.919 51.5193L105.033 52.0061L107.109 51.5185L106.995 51.0318ZM104.919 51.5193L105.044 51.0352L103.078 50.5279L102.953 51.012L102.828 51.4962L104.794 52.0035L104.919 51.5193ZM102.953 51.012L103.192 50.5728L101.284 49.5354L101.045 49.9747L100.807 50.4139L102.714 51.4513L102.953 51.012ZM101.045 49.9747L100.715 49.5991L98.4749 51.5683L98.805 51.9438L99.1351 52.3194L101.375 50.3502L101.045 49.9747ZM98.805 51.9438L99.0396 51.5023L97.1296 50.4877L96.8951 50.9292L96.6605 51.3708L98.5704 52.3854L98.805 51.9438ZM96.8951 50.9292L96.8088 50.4367L94.7464 50.7981L94.8328 51.2906L94.9191 51.7831L96.9814 51.4217L96.8951 50.9292ZM94.8328 51.2906L95.0706 50.8508L93.1627 49.8187L92.9248 50.2585L92.6869 50.6983L94.5949 51.7304L94.8328 51.2906ZM92.9248 50.2585L92.7437 49.7925L90.6305 50.6135L90.8115 51.0796L90.9926 51.5456L93.1058 50.7246L92.9248 50.2585ZM90.8115 51.0796L90.9109 50.5895L88.9331 50.1883L88.8337 50.6783L88.7343 51.1684L90.7121 51.5696L90.8115 51.0796ZM88.8337 50.6783L88.8532 50.1787L86.8397 50.0999L86.8201 50.5996L86.8006 51.0992L88.8142 51.178L88.8337 50.6783ZM86.8201 50.5996L87.1711 50.2435L85.3479 48.4463L84.9969 48.8024L84.6459 49.1585L86.4691 50.9556L86.8201 50.5996ZM84.9969 48.8024L85.1626 48.3307L83.216 47.6469L83.0503 48.1187L82.8846 48.5904L84.8312 49.2741L84.9969 48.8024ZM83.0503 48.1187L83.0016 47.6211L80.9571 47.8213L81.0059 48.319L81.0546 48.8166L83.0991 48.6163L83.0503 48.1187ZM81.0059 48.319L80.7964 47.8649L78.6652 48.848L78.8747 49.302L79.0841 49.7561L81.2153 48.773L81.0059 48.319ZM78.8747 49.302L79.0139 48.8218L77.0545 48.2539L76.9153 48.7341L76.7761 49.2144L78.7355 49.7823L78.8747 49.302ZM76.9153 48.7341L76.8666 48.2365L74.8222 48.4365L74.8708 48.9341L74.9195 49.4317L76.964 49.2317L76.9153 48.7341ZM74.8708 48.9341L74.8652 48.4342L72.8404 48.4569L72.846 48.9568L72.8516 49.4568L74.8764 49.4341L74.8708 48.9341ZM72.846 48.9568L73.0037 48.4823L71.0531 47.8343L70.8955 48.3088L70.7379 48.7833L72.6884 49.4313L72.846 48.9568ZM70.8955 48.3088L71.1554 47.8817L69.2607 46.7292L69.0009 47.1564L68.741 47.5835L70.6357 48.736L70.8955 48.3088ZM69.0009 47.1564L69.0092 46.6564L66.9906 46.6229L66.9823 47.1228L66.974 47.6227L68.9926 47.6563L69.0009 47.1564ZM66.9823 47.1228L66.8891 46.6316L64.8233 47.0236L64.9166 47.5149L65.0098 48.0061L67.0755 47.6141L66.9823 47.1228ZM64.9166 47.5149L65.269 47.1602L63.4472 45.3501L63.0948 45.7048L62.7424 46.0595L64.5642 47.8695L64.9166 47.5149ZM63.0948 45.7048L62.9529 45.2254L60.8621 45.844L61.004 46.3234L61.1458 46.8029L63.2366 46.1843L63.0948 45.7048ZM61.004 46.3234L61.2264 45.8756L59.3096 44.9234L59.0871 45.3712L58.8647 45.819L60.7815 46.7712L61.004 46.3234ZM59.0871 45.3712L58.7818 44.9752L56.5707 46.6802L56.876 47.0762L57.1813 47.4721L59.3925 45.7672L59.0871 45.3712ZM56.876 47.0762L57.2542 46.7491L55.4615 44.6764L55.0833 45.0035L54.7051 45.3306L56.4978 47.4033L56.876 47.0762ZM55.0833 45.0035L55.0969 44.5037L53.0807 44.4488L53.0671 44.9486L53.0535 45.4484L55.0697 45.5033L55.0833 45.0035ZM53.0671 44.9486L52.815 44.5168L50.653 45.7786L50.905 46.2105L51.1571 46.6423L53.3191 45.3804L53.0671 44.9486ZM50.905 46.2105L51.0857 45.7443L49.1467 44.9926L48.966 45.4588L48.7853 45.925L50.7243 46.6767L50.905 46.2105ZM48.966 45.4588L48.8407 44.9748L46.7587 45.5136L46.884 45.9977L47.0093 46.4817L49.0913 45.9429L48.966 45.4588ZM46.884 45.9977L47.2349 45.6415L45.4116 43.845L45.0607 44.2011L44.7098 44.5573L46.5331 46.3538L46.884 45.9977ZM45.0607 44.2011L44.7686 43.7953L42.571 45.3774L42.8632 45.7832L43.1553 46.189L45.3528 44.6069L45.0607 44.2011ZM42.8632 45.7832L43.2663 45.4874L41.5093 43.0924L41.1062 43.3882L40.703 43.6839L42.46 46.0789L42.8632 45.7832ZM41.1062 43.3882L40.8136 42.9828L38.6155 44.5691L38.9082 44.9746L39.2008 45.38L41.3988 43.7936L41.1062 43.3882ZM38.9082 44.9746L39.1824 44.5565L37.297 43.32L37.0228 43.7381L36.7486 44.1562L38.6339 45.3927L38.9082 44.9746ZM37.0228 43.7381L37.1143 43.2465L35.1328 42.8779L35.0414 43.3695L34.9499 43.8611L36.9314 44.2297L37.0228 43.7381ZM35.0414 43.3695L34.8363 42.9135L32.708 43.8703L32.9131 44.3264L33.1181 44.7824L35.2464 43.8255L35.0414 43.3695ZM32.9131 44.3264L33.255 43.9616L31.4229 42.2442L31.081 42.609L30.7391 42.9738L32.5711 44.6911L32.9131 44.3264ZM31.081 42.609L30.9229 42.1347L28.823 42.8347L28.9812 43.309L29.1393 43.7834L31.2391 43.0834L31.081 42.609ZM28.9812 43.309L29.1479 42.8377L27.2019 42.1493L27.0351 42.6207L26.8684 43.0921L28.8144 43.7804L28.9812 43.309ZM27.0351 42.6207L27.1954 42.1471L25.2462 41.4874L25.0859 41.9611L24.9256 42.4347L26.8749 43.0943L27.0351 42.6207ZM25.0859 41.9611L24.9541 41.4787L22.8687 42.0485L23.0005 42.5308L23.1323 43.0132L25.2177 42.4434L25.0859 41.9611ZM23.0005 42.5308L23.1943 42.0699L21.262 41.2574L21.0682 41.7183L20.8744 42.1792L22.8067 42.9917L23.0005 42.5308ZM21.0682 41.7183L20.8671 41.2605L18.7414 42.1942L18.9425 42.652L19.1436 43.1097L21.2693 42.1761L21.0682 41.7183ZM18.9425 42.652L19.229 42.2422L17.352 40.9301L17.0655 41.3399L16.7791 41.7497L18.656 43.0618L18.9425 42.652ZM17.0655 41.3399L16.8271 40.9004L14.6756 42.0674L14.914 42.5069L15.1524 42.9464L17.3039 41.7794L17.0655 41.3399ZM14.914 42.5069L15.2945 42.1826L13.5049 40.0824L13.1243 40.4066L12.7437 40.7309L14.5334 42.8312L14.914 42.5069ZM13.1243 40.4066L12.8113 40.0168L10.5916 41.7991L10.9046 42.189L11.2177 42.5789L13.4374 40.7965L13.1243 40.4066ZM10.9046 42.189L11.3059 41.8907L9.6172 39.6193L9.21594 39.9176L8.81469 40.216L10.5033 42.4873L10.9046 42.189ZM9.21594 39.9176L8.97774 39.478L6.41236 40.8681L6.65056 41.3077L6.88877 41.7473L9.45415 40.3572L9.21594 39.9176ZM6.65056 41.3077L6.99648 40.9467L5.35997 39.3787L5.01405 39.7397L4.66814 40.1007L6.30465 41.6687L6.65056 41.3077ZM5.01405 39.7397L5.28489 39.3194L3.4542 38.1397L3.18336 38.56L2.91253 38.9803L4.74322 40.16L5.01405 39.7397ZM3.18336 38.56L3.65767 38.4018L2.94803 36.2745L2.47372 36.4328L1.99942 36.591L2.70906 38.7182L3.18336 38.56ZM2.47372 36.4328L2.83128 36.0832L1.28837 34.5048L0.930813 34.8543L0.57326 35.2038L2.11617 36.7823L2.47372 36.4328ZM0.930813 34.8543L1.40605 35.0097L2.16262 32.696L1.68738 32.5406L1.21214 32.3852L0.455575 34.6989L0.930813 34.8543ZM1.68738 32.5406L2.18672 32.5663L2.28404 30.677L1.7847 30.6513L1.28536 30.6256L1.18804 32.5149L1.68738 32.5406ZM1.7847 30.6513L2.28447 30.6664L2.34361 28.7037L1.84384 28.6886L1.34406 28.6736L1.28493 30.6363L1.7847 30.6513ZM1.84384 28.6886L2.34301 28.6599L2.22592 26.6247L1.72675 26.6534L1.22757 26.6821L1.34466 28.7174L1.84384 28.6886ZM1.72675 26.6534L2.19088 26.8394L2.96674 24.903L2.50261 24.717L2.03848 24.5311L1.26262 26.4674L1.72675 26.6534ZM2.50261 24.717L2.91691 24.4371L1.44006 22.2512L1.02575 22.5312L0.611451 22.8111L2.0883 24.9969L2.50261 24.717ZM1.02575 22.5312L1.52505 22.5577L1.6319 20.5472L1.13261 20.5207L0.633312 20.4942L0.526458 22.5046L1.02575 22.5312ZM1.13261 20.5207L1.56795 20.7666L2.64302 18.8634L2.20767 18.6175L1.77232 18.3716L0.697261 20.2748L1.13261 20.5207ZM2.20767 18.6175L2.66929 18.8096L3.47378 16.8764L3.01216 16.6843L2.55053 16.4922L1.74604 18.4254L2.20767 18.6175ZM3.01216 16.6843L3.45139 16.4454L2.28099 14.2935L1.84175 14.5324L1.40252 14.7713L2.57292 16.9232L3.01216 16.6843ZM1.84175 14.5324L2.31555 14.6921L2.97288 12.7426L2.49909 12.5829L2.0253 12.4231L1.36796 14.3726L1.84175 14.5324ZM2.49909 12.5829L2.9381 12.8222L3.9777 10.9151L3.53869 10.6757L3.09968 10.4364L2.06008 12.3436L2.49909 12.5829ZM3.53869 10.6757L4.03373 10.746L4.31053 8.79598L3.8155 8.72571L3.32046 8.65544L3.04366 10.6055L3.53869 10.6757ZM3.8155 8.72571L4.24379 8.98372L5.24969 7.31395L4.8214 7.05594L4.39311 6.79793L3.38721 8.4677L3.8155 8.72571ZM4.8214 7.05594L5.31865 7.10836L5.54759 4.93655L5.05034 4.88413L4.5531 4.83171L4.32416 7.00353L4.8214 7.05594ZM5.05034 4.88413L5.39554 5.24585L6.88379 3.82555L6.53859 3.46383L6.19339 3.10212L4.70514 4.52242L5.05034 4.88413ZM6.53859 3.46383L6.62334 3.9566L8.75392 3.59015L8.66917 3.09739L8.58442 2.60462L6.45384 2.97107L6.53859 3.46383ZM8.66917 3.09739L9.11607 3.32161L10.2883 0.985161L9.84144 0.760935L9.39454 0.536709L8.22227 2.87316L8.66917 3.09739ZM9.84144 0.760935L9.6243 1.21132L11.946 2.33068L12.1631 1.88029L12.3803 1.4299L10.0586 0.310548L9.84144 0.760935ZM12.1631 1.88029L12.4186 2.31012L14.3824 1.14311L14.127 0.713278L13.8716 0.283442L11.9077 1.45045L12.1631 1.88029ZM14.127 0.713278L13.6729 0.922598L13.8889 1.39107L14.343 1.18175L14.7971 0.972432L14.5811 0.503958L14.127 0.713278Z" fill="#342E84"/>
<text transform="translate(19.8662 5.81812) rotate(6.32074)" fill="#FDFDFD" xml:space="preserve" style="white-space: pre" font-family="DiodrumArabic-Semibold" font-size="16" letter-spacing="0em"><tspan x="0.4375" y="20.704">&#x622;&#x631;&#x627;&#x621; &#x62d;&#x642;&#x64a;&#x642;&#x64a;&#x629; &#x645;&#x646; &#x623;&#x628;&#x637;&#x627;&#x644; &#x646;&#x64a;&#x646;&#x62c;&#x627;&#x643;&#x648;</tspan></text>
</svg>
