<svg width="188" height="66" viewBox="0 0 188 66" fill="none" xmlns="http://www.w3.org/2000/svg">
<path d="M103.953 43.0173C99.5063 41.2869 97.4024 37.8668 96.8621 33.4047C96.4601 30.0844 97.1192 26.939 99.1654 24.1997C100.941 21.8227 103.365 20.5481 106.292 20.2438C109.076 19.9543 111.633 20.4269 113.639 22.8611C113.875 22.1684 114.07 21.6496 114.226 21.1194C114.377 20.6089 114.66 20.404 115.204 20.5139C117.02 20.8804 118.837 21.2444 120.662 21.5676C121.464 21.7097 121.634 22.1386 121.556 22.8874C121.282 25.5446 120.921 28.2034 120.85 30.8684C120.777 33.5667 121.011 36.2731 121.108 38.976C121.14 39.8881 121.17 40.8004 121.188 41.7129C121.204 42.492 120.919 42.9407 120.032 42.9492C118.144 42.9672 116.255 43.028 114.37 43.1341C113.712 43.1712 113.456 42.909 113.355 42.3247C113.26 41.7739 113.132 41.2287 112.969 40.4392C110.433 43.1564 107.496 44.1217 103.953 43.0173ZM105.52 34.3056C105.601 34.4024 105.677 34.5032 105.762 34.5954C107.217 36.1735 109.315 36.5432 111.16 35.5482C112.9 34.6097 113.762 32.4102 113.2 30.3446C112.674 28.4124 111.002 27.2022 108.897 27.2296C105.299 27.2765 103.504 30.886 105.52 34.3056Z" fill="#342E84"/>
<path d="M73.8196 42.9228C72.8425 42.8783 72.6962 42.2953 72.6987 41.5499C72.7103 38.0526 72.7038 34.5552 72.7038 31.0579C72.7037 30.8058 72.7093 30.5536 72.7024 30.3017C72.6528 28.5004 72.0564 27.6341 70.6685 27.3419C69.3854 27.0717 67.445 27.9817 66.9048 29.1606C66.756 29.4852 66.736 29.8897 66.7348 30.2578C66.7232 34.0072 66.7295 37.7566 66.7267 41.506C66.7257 42.7708 66.6051 42.9277 65.3288 42.9239C63.4097 42.9182 61.4909 42.831 59.5718 42.8182C58.6842 42.8123 58.4529 42.3572 58.4566 41.563C58.4738 37.7822 58.5536 33.9983 58.4319 30.2214C58.3542 27.8104 58.0081 25.4039 57.6974 23.0064C57.5154 21.6019 57.505 21.5446 58.9011 21.3317C61.0156 21.0091 63.1295 20.6788 65.235 20.3036C65.9288 20.18 66.2138 20.3311 66.2372 21.0727C66.2596 21.7856 66.4179 22.4941 66.5425 23.3913C66.9733 23.0967 67.2694 22.8993 67.5602 22.6943C69.3778 21.4129 71.2741 20.3658 73.5676 20.1651C76.7419 19.8872 79.9223 21.6976 80.624 24.3317C80.7916 24.9607 80.839 25.6362 80.846 26.2913C80.9009 31.4877 80.9208 36.6845 80.9845 41.8808C80.9941 42.6658 80.786 43.0647 79.9383 43.0408C77.9264 42.9839 75.9135 42.9633 73.8196 42.9228Z" fill="#363085"/>
<path d="M29.5295 36.2828C27.9806 34.4209 26.4718 32.613 24.963 30.8051C24.8816 30.8248 24.8002 30.8446 24.7188 30.8643C24.6846 31.175 24.6108 31.4871 24.622 31.7961C24.7437 35.1298 24.8506 38.4644 25.0303 41.7951C25.0742 42.609 24.9155 42.9622 24.0415 42.941C22.3094 42.8989 20.5751 42.9069 18.8425 42.9389C18.1459 42.9518 17.8952 42.7073 17.924 42.0026C18.0502 38.9204 18.2189 35.8368 18.2198 32.7536C18.2207 29.5154 18.0456 26.2773 17.953 23.0389C17.9341 22.3777 17.9709 21.7137 17.9251 21.0549C17.8845 20.47 18.1462 20.2925 18.6848 20.2528C20.1271 20.1464 21.5715 20.0393 23.0046 19.8522C23.824 19.7453 24.334 20.0152 24.8356 20.6582C27.6831 24.3088 30.57 27.9288 33.4532 31.5515C33.7124 31.8771 34.0407 32.1476 34.337 32.4437C34.4441 32.4116 34.5511 32.3795 34.6582 32.3474C34.6582 31.7775 34.6753 31.2071 34.6554 30.638C34.5473 27.5549 34.4472 24.4713 34.3043 21.3898C34.2676 20.599 34.4508 20.2702 35.332 20.3005C37.307 20.3685 39.286 20.3218 41.3296 20.3218C41.3296 21.5863 41.3444 22.8334 41.3271 24.0801C41.2458 29.937 41.1524 35.7937 41.0712 41.6506C41.053 42.9583 41.0675 42.959 39.7943 42.9596C38.4708 42.9603 37.1463 42.9301 35.8241 42.9722C35.1537 42.9935 34.7112 42.7479 34.3039 42.2307C32.7446 40.2512 31.1506 38.2991 29.5295 36.2828Z" fill="#342E83"/>
<path d="M141.059 21.0041C142.442 21.6734 142.469 21.6808 142.098 23.0886C141.737 24.4556 141.281 25.7977 140.925 27.1658C140.754 27.8217 140.428 27.9255 139.826 27.7763C138.914 27.5501 137.992 27.3081 137.06 27.2282C135.289 27.0763 133.817 27.6909 132.955 29.3234C132.078 30.9842 132.098 32.6967 133.181 34.2403C134.227 35.7319 135.799 36.2887 137.576 36.0147C138.615 35.8544 139.619 35.466 140.87 35.1153C141.184 36.4071 141.527 37.725 141.818 39.0544C141.959 39.6971 141.955 40.3718 142.101 41.0128C142.258 41.7034 141.993 42.1316 141.392 42.3574C136.725 44.1108 131.638 44.2352 127.738 40.3997C124.078 36.8006 123.25 32.3535 124.856 27.6056C126.39 23.0677 129.743 20.4453 134.548 19.9213C136.759 19.6801 138.947 19.997 141.059 21.0041Z" fill="#352F84"/>
<path d="M144.886 33.4003C144.622 30.4181 145 27.6509 146.62 25.1651C149.092 21.3712 152.737 19.9666 157.092 20.2932C162.647 20.7098 166.521 24.459 167.274 29.9634C167.963 35.0029 165.789 39.7059 161.718 41.9789C154.925 45.7727 146.612 41.9545 145.048 34.3214C144.991 34.0442 144.942 33.7654 144.886 33.4003ZM161.269 27.7105C159.611 25.672 157.473 24.8914 154.898 25.3208C151.892 25.8219 149.611 28.5688 149.593 31.6697C149.576 34.6641 151.791 37.162 154.939 37.6993C158.09 38.2373 161.342 36.4893 162.21 33.6518C162.539 32.5783 162.526 31.4006 162.679 30.1975C163.342 30.1975 164.111 30.1975 164.929 30.1975C164.929 29.6464 164.929 29.1547 164.929 28.6295C164.384 28.6779 163.855 28.7248 163.327 28.7717C163.316 28.7199 163.306 28.6681 163.295 28.6163C163.955 28.2906 164.615 27.9649 165.412 27.5718C164.643 27.0902 163.998 26.6854 163.343 26.2749C162.822 26.8403 162.368 27.3633 161.871 27.843C161.784 27.9274 161.521 27.83 161.269 27.7105Z" fill="#352F83"/>
<path d="M85.7536 31.9223C85.5103 28.6646 85.296 25.4948 85.0035 22.3322C84.9299 21.5371 85.0729 21.1551 85.9233 21.0946C88.1822 20.9337 90.4388 20.7369 92.6941 20.5303C93.3431 20.4708 93.6512 20.7119 93.6409 21.3608C93.6399 21.4238 93.6416 21.4868 93.6421 21.5498C93.6948 27.5643 93.8708 33.5809 93.7673 39.5927C93.6513 46.3259 89.1074 49.0965 83.2219 48.952C82.9619 48.9456 82.5093 48.5435 82.4905 48.2992C82.3701 46.7402 82.2998 45.1728 82.3325 43.6107C82.3385 43.3234 82.8435 42.912 83.1984 42.7889C85.1613 42.1077 85.6668 41.6315 85.7437 39.5662C85.8373 37.0518 85.758 34.5309 85.7536 31.9223Z" fill="#352F84"/>
<path d="M53.8972 38.7679C53.8972 39.8705 53.8565 40.8808 53.9102 41.886C53.9525 42.6769 53.622 42.9667 52.8709 42.9614C50.8603 42.947 48.8489 42.9286 46.8389 42.9688C45.8981 42.9877 45.7042 42.5706 45.7152 41.7098C45.759 38.2765 45.796 34.8408 45.7141 31.4089C45.6443 28.4858 45.4311 25.5651 45.2354 22.6465C45.1431 21.2698 45.2605 21.1167 46.6454 21.1636C48.8765 21.2391 51.1087 21.3314 53.34 21.3203C54.1651 21.3162 54.3451 21.5892 54.3186 22.3446C54.1582 26.9363 54.0299 31.529 53.9007 36.1217C53.8767 36.9716 53.8972 37.8227 53.8972 38.7679Z" fill="#342E84"/>
<path d="M87.889 19.3682C84.6845 18.6823 83.2943 15.7505 84.9475 13.312C86.1136 11.5921 88.7948 10.9319 90.8884 11.8492C92.8935 12.7278 93.758 14.5454 93.2317 16.726C92.8898 18.1423 91.9491 18.9597 90.5874 19.2304C89.7373 19.3994 88.8423 19.3424 87.889 19.3682Z" fill="#FDC31D"/>
<path d="M52.4333 19.0059C51.0985 19.118 49.8056 19.386 48.5655 19.2313C46.8493 19.0172 45.6299 17.5995 45.4232 16.0259C45.1989 14.3183 46.0545 12.7152 47.6895 11.9428C49.3356 11.1651 51.0016 11.2133 52.5702 12.1505C55.2075 13.7261 55.1532 17.471 52.4333 19.0059Z" fill="#FDC31D"/>
<path d="M161.304 27.7636C161.521 27.83 161.784 27.9274 161.871 27.843C162.368 27.3633 162.822 26.8403 163.343 26.2749C163.998 26.6854 164.644 27.0902 165.412 27.5718C164.615 27.9648 163.955 28.2906 163.295 28.6163C163.306 28.6681 163.316 28.7199 163.327 28.7717C163.855 28.7248 164.384 28.6779 164.929 28.6295C164.929 29.1547 164.929 29.6464 164.929 30.1975C164.111 30.1975 163.342 30.1975 162.679 30.1975C162.526 31.4006 162.539 32.5783 162.21 33.6518C161.342 36.4893 158.09 38.2373 154.939 37.6993C151.791 37.162 149.576 34.6641 149.593 31.6697C149.611 28.5688 151.892 25.8219 154.898 25.3207C157.473 24.8914 159.611 25.672 161.304 27.7636ZM152.043 29.7467C151.076 30.6801 150.839 31.8044 151.378 32.8996C151.864 33.888 152.842 34.3399 154.173 34.0152C155.424 33.7101 156.636 33.5903 157.874 34.0183C158.074 34.0876 158.31 34.0688 158.529 34.0672C159.971 34.0572 160.968 33.0624 160.963 31.6476C160.958 30.2119 160.08 29.3565 158.573 29.3414C156.915 29.3247 155.257 29.2978 153.601 29.3323C153.12 29.3423 152.643 29.5477 152.043 29.7467Z" fill="#FAC01D"/>
<path d="M152.103 29.7051C152.643 29.5477 153.12 29.3423 153.601 29.3323C155.257 29.2978 156.915 29.3247 158.573 29.3414C160.08 29.3565 160.958 30.2119 160.963 31.6476C160.968 33.0624 159.971 34.0572 158.529 34.0672C158.31 34.0688 158.074 34.0876 157.874 34.0183C156.636 33.5903 155.424 33.7101 154.173 34.0152C152.842 34.3399 151.864 33.888 151.378 32.8996C150.839 31.8044 151.076 30.6801 152.103 29.7051ZM153.491 32.0681C153.343 31.9557 153.195 31.8433 153.079 31.7553C153.27 31.4593 153.447 31.1861 153.624 30.9128C153.504 30.8114 153.384 30.7099 153.264 30.6084C152.992 30.9631 152.466 31.3555 152.512 31.6629C152.569 32.0437 153.099 32.354 153.559 32.8347C153.559 32.4505 153.559 32.3065 153.491 32.0681ZM158.804 31.3713C158.933 31.4572 159.062 31.5431 159.161 31.6091C158.955 31.9135 158.759 32.2023 158.563 32.4912C158.667 32.583 158.77 32.6749 158.874 32.7667C159.175 32.4024 159.695 32.0459 159.708 31.6715C159.719 31.3653 159.125 31.0379 158.8 30.7198C158.739 30.769 158.678 30.8181 158.617 30.8672C158.647 31.0087 158.678 31.1501 158.804 31.3713Z" fill="#FDFCF9"/>
<path d="M153.525 32.1153C153.559 32.3065 153.559 32.4505 153.559 32.8347C153.099 32.354 152.569 32.0437 152.512 31.6629C152.466 31.3555 152.992 30.9631 153.264 30.6085C153.384 30.7099 153.504 30.8114 153.624 30.9128C153.447 31.1861 153.27 31.4593 153.079 31.7553C153.195 31.8433 153.343 31.9557 153.525 32.1153Z" fill="#4C4792"/>
<path d="M158.756 31.3314C158.678 31.1501 158.647 31.0087 158.617 30.8672C158.678 30.8181 158.739 30.769 158.8 30.7198C159.125 31.0379 159.719 31.3653 159.708 31.6715C159.695 32.0459 159.175 32.4024 158.874 32.7667C158.77 32.6749 158.667 32.583 158.563 32.4912C158.759 32.2023 158.955 31.9135 159.161 31.6091C159.062 31.5431 158.933 31.4572 158.756 31.3314Z" fill="#4D4893"/>
</svg>
