<svg width="157" height="57" viewBox="0 0 157 57" fill="none" xmlns="http://www.w3.org/2000/svg">
<path d="M3.34718 9.93921C3.95521 4.44994 8.89806 0.492908 14.3873 1.10094L146.579 15.7435C152.068 16.3515 156.025 21.2943 155.417 26.7836L153.215 46.662C152.607 52.1513 147.664 56.1083 142.175 55.5003L9.98357 40.8578C4.49429 40.2498 0.537263 35.3069 1.1453 29.8176L3.34718 9.93921Z" fill="#32A1DB"/>
<path d="M14.3873 1.10094L14.4424 0.603981L14.2375 0.581286L14.0761 0.709582L14.3873 1.10094ZM14.4867 1.11195L14.7603 0.693422L14.6604 0.628129L14.5418 0.61499L14.4867 1.11195ZM16.2787 2.2832L16.0051 2.70173L16.2881 2.88667L16.5651 2.69301L16.2787 2.2832ZM18.4707 0.75103L18.811 0.384758L18.5152 0.109864L18.1842 0.341218L18.4707 0.75103ZM20.3042 2.45487L19.9639 2.82115L20.1781 3.0202L20.4566 2.9311L20.3042 2.45487ZM22.4008 1.78415L22.3635 1.28554L22.3047 1.28994L22.2485 1.30792L22.4008 1.78415ZM24.44 1.63151L24.6075 1.16038L24.508 1.12503L24.4027 1.13291L24.44 1.63151ZM26.3857 2.323L26.6612 1.90571L26.6104 1.87223L26.5532 1.85187L26.3857 2.323ZM28.2702 3.56688L27.9948 3.98418L28.1528 4.08846L28.3402 4.06196L28.2702 3.56688ZM30.3247 3.27635L30.3406 2.7766L30.2975 2.77523L30.2547 2.78127L30.3247 3.27635ZM32.3399 3.34047L32.324 3.84022L32.3589 3.84133L32.3937 3.83757L32.3399 3.34047ZM34.3867 3.11895L34.6797 2.71376L34.524 2.60118L34.3329 2.62186L34.3867 3.11895ZM36.2591 4.47261L35.9661 4.8778L36.1596 5.01767L36.39 4.95516L36.2591 4.47261ZM38.344 3.90695L38.2176 3.42319L38.2131 3.4244L38.344 3.90695ZM40.4266 3.36252L40.5077 2.86912L40.4029 2.85192L40.3002 2.87877L40.4266 3.36252ZM42.4128 3.68865L42.675 3.26289L42.5911 3.21122L42.4938 3.19526L42.4128 3.68865ZM44.306 4.85433L44.0438 5.28009L44.2757 5.42285L44.5214 5.30554L44.306 4.85433ZM46.4412 3.83498L46.5825 3.35536L46.3987 3.30122L46.2258 3.38376L46.4412 3.83498ZM48.3996 4.41187L48.2583 4.89149L48.3502 4.91856L48.4456 4.90974L48.3996 4.41187ZM50.4428 4.22301L50.7878 3.86111L50.6232 3.70421L50.3968 3.72514L50.4428 4.22301ZM52.2719 5.96675L51.9269 6.32865L52.1382 6.5301L52.4175 6.44508L52.2719 5.96675ZM54.3648 5.32965L54.3189 4.83176L54.268 4.83645L54.2192 4.85132L54.3648 5.32965ZM56.408 5.14112L56.419 4.64124L56.3904 4.64062L56.362 4.64324L56.408 5.14112ZM58.4253 5.18549L58.5427 4.69946L58.4903 4.6868L58.4363 4.68561L58.4253 5.18549ZM60.395 5.6612L60.2776 6.14722L60.2913 6.15054L60.3052 6.15308L60.395 5.6612ZM62.3772 6.02276L62.2875 6.51465L62.3736 6.53035L62.4599 6.51588L62.3772 6.02276ZM64.4378 5.67724L64.6316 5.21635L64.498 5.16015L64.3551 5.18412L64.4378 5.67724ZM66.37 6.48998L66.1762 6.95087L66.2035 6.96238L66.2321 6.97057L66.37 6.48998ZM68.33 7.0525L68.1921 7.53309L68.3169 7.56892L68.4434 7.53948L68.33 7.0525ZM70.4058 6.56929L70.5224 6.08307L70.4075 6.05552L70.2925 6.08231L70.4058 6.56929ZM72.3758 7.04166L72.2592 7.52787L72.353 7.55036L72.4484 7.53636L72.3758 7.04166ZM74.4315 6.74006L74.7609 6.36394L74.5873 6.21184L74.3589 6.24535L74.4315 6.74006ZM76.2749 8.35478L75.9455 8.7309L76.2196 8.97104L76.5322 8.78354L76.2749 8.35478ZM78.4412 7.05512L78.7675 6.67628L78.4938 6.4405L78.184 6.62637L78.4412 7.05512ZM80.2873 8.64524L79.961 9.02409L80.1538 9.19008L80.4014 9.13206L80.2873 8.64524ZM82.3635 8.15883L82.5615 7.69972L82.4101 7.63439L82.2495 7.67202L82.3635 8.15883ZM84.2936 8.99137L84.0956 9.45048L84.2502 9.5172L84.4138 9.47671L84.2936 8.99137ZM86.3729 8.47648L86.5446 8.00689L86.4011 7.9544L86.2527 7.99114L86.3729 8.47648ZM88.3165 9.18724L88.6202 8.79006L88.5597 8.74381L88.4882 8.71766L88.3165 9.18724ZM90.1808 10.6129L89.8771 11.0101L90.0966 11.178L90.3556 11.0814L90.1808 10.6129ZM92.2903 9.82618L92.5406 9.39332L92.3365 9.27531L92.1156 9.3577L92.2903 9.82618ZM94.1909 10.925L93.9406 11.3579L94.057 11.4252L94.1914 11.425L94.1909 10.925ZM96.2134 10.923L96.3387 10.4389L96.2768 10.4229L96.2129 10.423L96.2134 10.923ZM98.1793 11.4317L98.0541 11.9158L98.164 11.9442L98.2754 11.9224L98.1793 11.4317ZM100.246 11.027L100.472 10.5808L100.319 10.5033L100.15 10.5363L100.246 11.027ZM102.161 11.9957L101.936 12.4419L102.044 12.4964L102.164 12.4957L102.161 11.9957ZM104.185 11.9839L104.188 12.4838L104.367 12.4828L104.505 12.3684L104.185 11.9839ZM106.412 10.1335L106.715 9.73554L106.399 9.49489L106.093 9.74892L106.412 10.1335ZM108.277 11.5521L107.975 11.95L108.082 12.032L108.217 12.0484L108.277 11.5521ZM110.273 11.7959L110.212 12.2922L110.329 12.3064L110.44 12.2672L110.273 11.7959ZM112.378 11.0512L112.501 10.5668L112.354 10.5291L112.211 10.5798L112.378 11.0512ZM114.344 11.5539L114.22 12.0383L114.29 12.0562L114.362 12.0536L114.344 11.5539ZM116.375 11.4808L116.584 11.0267L116.476 10.9768L116.357 10.9811L116.375 11.4808ZM118.299 12.368L118.616 11.9819L118.566 11.9409L118.508 11.914L118.299 12.368ZM120.152 13.8932L119.834 14.2792L120.025 14.4366L120.267 14.3799L120.152 13.8932ZM122.228 13.4042L122.318 12.9123L122.215 12.8937L122.114 12.9176L122.228 13.4042ZM124.211 13.7643L124.121 14.2563L124.306 14.2898L124.467 14.1935L124.211 13.7643ZM126.376 12.4703L126.766 12.1569L126.493 11.818L126.12 12.0411L126.376 12.4703ZM128.154 14.6801L127.764 14.9935L128.085 15.3917L128.476 15.0628L128.154 14.6801ZM130.384 12.8051L130.746 12.4604L130.422 12.1199L130.062 12.4224L130.384 12.8051ZM132.195 14.7081L131.833 15.0529L132.055 15.2857L132.359 15.1807L132.195 14.7081ZM134.298 13.9818L134.172 13.498L134.153 13.5029L134.135 13.5092L134.298 13.9818ZM136.381 13.4392L136.794 13.1586L136.596 12.8664L136.254 12.9554L136.381 13.4392ZM138.119 16.0024L137.705 16.2831L137.844 16.4872L138.09 16.5016L138.119 16.0024ZM140.128 16.1198L140.099 16.619L140.207 16.6253L140.308 16.5866L140.128 16.1198ZM142.24 15.3081L142.493 14.8768L142.286 14.755L142.061 14.8414L142.24 15.3081ZM144.139 16.4217L143.886 16.853L144.111 16.985L144.348 16.876L144.139 16.4217ZM146.27 15.4416L146.411 14.9619L146.232 14.909L146.061 14.9873L146.27 15.4416ZM148.229 16.0184L148.088 16.4981L148.182 16.5258L148.28 16.5158L148.229 16.0184ZM150.615 15.7749L151.072 15.5716L150.925 15.2407L150.564 15.2774L150.615 15.7749ZM151.632 18.0606L151.176 18.2639L151.252 18.4353L151.422 18.5142L151.632 18.0606ZM153.599 18.9731L153.934 18.6023L153.878 18.5514L153.809 18.5195L153.599 18.9731ZM155.257 20.472L155.71 20.261L155.667 20.1691L155.592 20.1012L155.257 20.472ZM156.2 22.4997L156.684 22.6277L156.73 22.4528L156.654 22.2887L156.2 22.4997ZM155.593 24.7949L155.109 24.6669L155.085 24.7609L155.097 24.8573L155.593 24.7949ZM155.853 26.8635L156.318 27.0461L156.365 26.9275L156.349 26.8011L155.853 26.8635ZM155.093 28.8016L154.627 28.6189L154.567 28.7735L154.61 28.9336L155.093 28.8016ZM155.663 30.8871L156.141 31.036L156.184 30.8963L156.146 30.7551L155.663 30.8871ZM155.053 32.8418L154.576 32.6929L154.533 32.8313L154.571 32.9714L155.053 32.8418ZM155.613 34.926L156.078 35.1089L156.138 34.9556L156.096 34.7965L155.613 34.926ZM154.851 36.864L155.191 37.231L155.275 37.1533L155.317 37.0468L154.851 36.864ZM152.899 38.67L152.559 38.303L152.418 38.434L152.401 38.6262L152.899 38.67ZM152.723 40.6728L152.225 40.629L152.216 40.7264L152.245 40.8198L152.723 40.6728ZM153.367 42.7664L152.889 42.9134L152.902 42.9579L152.924 42.9991L153.367 42.7664ZM154.495 44.9137L154.893 45.2161L155.086 44.9627L154.938 44.6811L154.495 44.9137ZM153.08 46.7783L152.682 46.4759L152.628 46.5462L152.602 46.6305L153.08 46.7783ZM152.497 48.6632L152.019 48.5155L151.994 48.5984L151.997 48.6852L152.497 48.6632ZM152.599 50.967L152.883 51.3783L153.11 51.2211L153.098 50.945L152.599 50.967ZM150.778 52.2264L151.057 52.6413L151.062 52.6376L150.778 52.2264ZM149.113 53.3456L149.349 53.786L149.371 53.7743L149.392 53.7605L149.113 53.3456ZM147.399 54.2666L147.607 54.7214L147.622 54.7146L147.636 54.707L147.399 54.2666ZM145.619 55.0796L145.531 55.5718L145.685 55.5993L145.827 55.5344L145.619 55.0796ZM143.648 54.7271L143.736 54.2349L143.67 54.2231L143.603 54.2291L143.648 54.7271ZM141.736 54.8994L141.691 54.4015L141.577 54.4117L141.479 54.4702L141.736 54.8994ZM139.57 56.1935L139.542 56.6927L139.695 56.7013L139.827 56.6227L139.57 56.1935ZM137.56 56.0807L137.161 56.382L137.301 56.5669L137.532 56.5799L137.56 56.0807ZM135.797 53.7452L136.196 53.4439L136.017 53.2073L135.724 53.2505L135.797 53.7452ZM133.741 54.0482L133.72 54.5478L133.767 54.5498L133.814 54.5429L133.741 54.0482ZM131.728 53.9632L131.749 53.4636L131.656 53.4597L131.569 53.4893L131.728 53.9632ZM129.627 54.6699L129.367 55.0969L129.566 55.2181L129.787 55.1438L129.627 54.6699ZM127.733 53.5157L127.993 53.0887L127.82 52.9831L127.622 53.0282L127.733 53.5157ZM125.658 53.9887L125.382 54.4058L125.561 54.5238L125.769 54.4762L125.658 53.9887ZM123.774 52.7426L124.05 52.3256L123.905 52.2296L123.732 52.2444L123.774 52.7426ZM121.732 52.9166L121.69 52.4184L121.649 52.422L121.608 52.4322L121.732 52.9166ZM119.651 53.4494L119.409 53.887L119.583 53.983L119.775 53.9338L119.651 53.4494ZM117.746 52.3962L117.987 51.9585L117.895 51.9075L117.79 51.8981L117.746 52.3962ZM115.743 52.2178L115.787 51.7198L115.781 51.7193L115.743 52.2178ZM113.738 52.0632L113.776 51.5647L113.737 51.5616L113.697 51.5649L113.738 52.0632ZM111.697 52.2305L111.48 52.6808L111.602 52.7399L111.738 52.7288L111.697 52.2305ZM109.777 51.3041L109.995 50.8537L109.731 50.7265L109.491 50.8941L109.777 51.3041ZM107.585 52.8346L107.353 53.2771L107.622 53.4189L107.872 53.2445L107.585 52.8346ZM105.675 51.8289L105.324 52.1855L105.377 52.2371L105.442 52.2714L105.675 51.8289ZM103.851 50.0363L104.201 49.6797L104.007 49.4889L103.742 49.5484L103.851 50.0363ZM101.777 50.5006L101.668 50.0127L101.597 50.0286L101.534 50.0639L101.777 50.5006ZM99.6218 51.7019L99.5126 52.1899L99.6987 52.2315L99.8652 52.1387L99.6218 51.7019ZM97.6484 51.2606L97.2941 51.6134L97.397 51.7167L97.5392 51.7485L97.6484 51.2606ZM95.8285 49.4334L96.1827 49.0805L96.0281 48.9253L95.8091 48.9338L95.8285 49.4334ZM93.7974 49.5121L93.7781 49.0125L93.6646 49.0169L93.5642 49.0698L93.7974 49.5121ZM91.6497 50.6448L91.6982 51.1424L91.796 51.1329L91.8829 51.0871L91.6497 50.6448ZM89.6053 50.8442L89.408 51.3036L89.526 51.3543L89.6538 51.3418L89.6053 50.8442ZM87.6749 50.015L87.4753 50.4735L87.4775 50.4744L87.6749 50.015ZM85.7456 49.175L85.9452 48.7166L85.844 48.6725L85.7336 48.6752L85.7456 49.175ZM83.7179 49.2239L83.493 49.6705L83.6048 49.7268L83.7299 49.7238L83.7179 49.2239ZM81.8024 48.2594L82.0273 47.8128L81.9454 47.7715L81.8541 47.762L81.8024 48.2594ZM79.8031 48.0519L79.6432 48.5256L79.6961 48.5434L79.7515 48.5492L79.8031 48.0519ZM77.8537 47.3939L78.0136 46.9201L77.814 46.8527L77.6263 46.9486L77.8537 47.3939ZM75.7102 48.4888L75.5899 48.9741L75.7712 49.019L75.9376 48.9341L75.7102 48.4888ZM73.7419 48.0009L73.8622 47.5156L73.7915 47.4981L73.7188 47.5014L73.7419 48.0009ZM71.7092 48.0949L71.6337 48.5892L71.6828 48.5967L71.7323 48.5944L71.7092 48.0949ZM69.7205 47.7913L69.471 48.2247L69.5523 48.2715L69.6451 48.2856L69.7205 47.7913ZM67.8195 46.6968L68.069 46.2635L68.0166 46.2333L67.9586 46.2165L67.8195 46.6968ZM65.8601 46.1292L65.9992 45.6489L65.9553 45.6362L65.9098 45.6317L65.8601 46.1292ZM63.8599 45.9294L63.9096 45.4318L63.7613 45.417L63.6291 45.4858L63.8599 45.9294ZM61.7139 47.0459L61.8251 47.5334L61.8877 47.5191L61.9447 47.4894L61.7139 47.0459ZM59.6392 47.5189L59.5049 48.0006L59.6269 48.0346L59.7504 48.0064L59.6392 47.5189ZM57.6775 46.9719L57.315 47.3163L57.4102 47.4164L57.5432 47.4535L57.6775 46.9719ZM55.8664 45.0652L56.229 44.7208L56.059 44.5419L55.8135 44.568L55.8664 45.0652ZM53.82 45.283L53.8365 45.7827L53.8548 45.7821L53.8729 45.7802L53.82 45.283ZM51.7903 45.3501L51.5717 45.7997L51.683 45.8539L51.8068 45.8498L51.7903 45.3501ZM49.8714 44.417L50.09 43.9673L49.8557 43.8534L49.6281 43.9801L49.8714 44.417ZM47.7161 45.6171L47.3773 45.9848L47.6434 46.2299L47.9594 46.0539L47.7161 45.6171ZM45.8811 43.9264L46.2199 43.5587L46.094 43.4427L45.9234 43.4282L45.8811 43.9264ZM43.8777 43.7564L43.9199 43.2582L43.7951 43.2476L43.68 43.2971L43.8777 43.7564ZM41.7541 44.6706L41.4297 45.0511L41.6663 45.2528L41.9518 45.1299L41.7541 44.6706ZM39.9063 43.0954L40.2307 42.7149L40.0403 42.5527L39.7964 42.6077L39.9063 43.0954ZM37.8322 43.5628L37.6238 44.0173L37.7773 44.0878L37.9421 44.0506L37.8322 43.5628ZM35.9077 42.6801L36.1162 42.2256L35.8391 42.0985L35.5992 42.2866L35.9077 42.6801ZM33.6931 44.4163L33.4386 44.8467L33.7327 45.0206L34.0016 44.8098L33.6931 44.4163ZM31.7951 43.2939L32.0497 42.8635L32.0346 42.8546L32.0189 42.8467L31.7951 43.2939ZM29.8791 42.3349L30.1028 41.8878L30.0012 41.8369L29.8875 41.835L29.8791 42.3349ZM27.8605 42.3008L27.869 41.8008L27.805 41.7998L27.7428 41.8148L27.8605 42.3008ZM25.7825 42.8043L25.6647 42.3183L25.6537 42.3212L25.7825 42.8043ZM23.6987 43.3598L23.3734 43.7395L23.5732 43.9107L23.8274 43.8429L23.6987 43.3598ZM21.8516 41.7777L22.1769 41.3979L22.0119 41.2566L21.796 41.2808L21.8516 41.7777ZM19.8039 42.0068L19.8589 42.5038L19.8595 42.5037L19.8039 42.0068ZM17.7566 42.2332L17.5266 42.6772L17.661 42.7468L17.8115 42.7302L17.7566 42.2332ZM15.844 41.2425L15.5842 41.6697L15.5988 41.6786L15.614 41.6865L15.844 41.2425ZM13.9493 40.0903L14.2091 39.6631L14.0009 39.5365L13.7729 39.6225L13.9493 40.0903ZM11.8389 40.8865L12.0045 41.3584L12.0154 41.3543L11.8389 40.8865ZM9.72069 41.6301L9.69486 42.1295L9.7933 42.1346L9.88631 42.1019L9.72069 41.6301ZM7.48429 41.5144L7.10289 41.8378L7.24264 42.0026L7.45846 42.0138L7.48429 41.5144ZM5.95184 39.7068L5.5019 39.9248L5.52951 39.9818L5.57044 40.0301L5.95184 39.7068ZM4.99422 37.731L5.44415 37.5129L5.37754 37.3755L5.24549 37.2988L4.99422 37.731ZM3.27808 36.7335L2.90407 37.0653L2.95737 37.1254L3.0268 37.1657L3.27808 36.7335ZM1.93355 35.2181L1.53493 35.5199L1.54665 35.5354L1.55954 35.5499L1.93355 35.2181ZM0.605178 33.4636L0.179463 33.2014L2.99635e-05 33.4927L0.206551 33.7655L0.605178 33.4636ZM1.96261 31.26L2.38833 31.5222L2.55224 31.2561L2.38485 30.9922L1.96261 31.26ZM0.673847 29.2279L0.206641 29.0498L0.117359 29.284L0.251607 29.4957L0.673847 29.2279ZM1.4135 27.2875L1.88071 27.4656L1.93552 27.3219L1.90001 27.1722L1.4135 27.2875ZM0.920915 25.2107L0.572802 24.8518L0.368838 25.0496L0.434412 25.3261L0.920915 25.2107ZM2.79223 23.3957L3.14035 23.7546L3.32555 23.575L3.28646 23.3199L2.79223 23.3957ZM2.47689 21.3385L1.97868 21.3807L1.9801 21.3975L1.98266 21.4142L2.47689 21.3385ZM2.30375 19.297L1.89736 19.0057L1.78996 19.1555L1.80554 19.3392L2.30375 19.297ZM3.64666 17.4234L4.05305 17.7147L4.25594 17.4317L4.06077 17.1432L3.64666 17.4234ZM2.16739 15.2373L1.71345 15.0277L1.59517 15.2838L1.75329 15.5175L2.16739 15.2373ZM3.0558 13.3134L3.50974 13.523L3.55827 13.4179L3.55567 13.3022L3.0558 13.3134ZM3.0102 11.2861L2.63438 10.9563L2.50595 11.1026L2.51033 11.2973L3.0102 11.2861ZM4.56985 9.50871L4.94567 9.8385L5.14449 9.61192L5.03694 9.33032L4.56985 9.50871ZM3.71722 7.27624L3.28172 7.03061L3.16632 7.2352L3.25013 7.45464L3.71722 7.27624ZM4.72768 5.48472L4.56386 5.01232L4.38512 5.07431L4.29218 5.23909L4.72768 5.48472ZM6.87488 4.74009L7.03871 5.21249L7.12584 5.18227L7.19645 5.12296L6.87488 4.74009ZM8.25772 3.57866L8.57929 3.96153L8.65653 3.89666L8.70258 3.80691L8.25772 3.57866ZM9.33367 1.48166L9.13603 1.02238L8.97089 1.09345L8.88881 1.25341L9.33367 1.48166ZM11.2756 0.646005L11.5328 0.217222L11.3132 0.0855025L11.078 0.186724L11.2756 0.646005ZM13.3755 1.90552L13.1183 2.3343L13.4154 2.51254L13.6867 2.29688L13.3755 1.90552ZM14.3873 1.10094L14.3323 1.5979L14.4317 1.60891L14.4867 1.11195L14.5418 0.61499L14.4424 0.603981L14.3873 1.10094ZM14.4867 1.11195L14.2132 1.53048L16.0051 2.70173L16.2787 2.2832L16.5522 1.86467L14.7603 0.693422L14.4867 1.11195ZM16.2787 2.2832L16.5651 2.69301L18.7571 1.16084L18.4707 0.75103L18.1842 0.341218L15.9922 1.87339L16.2787 2.2832ZM18.4707 0.75103L18.1303 1.1173L19.9639 2.82115L20.3042 2.45487L20.6446 2.0886L18.811 0.384758L18.4707 0.75103ZM20.3042 2.45487L20.4566 2.9311L22.5532 2.26037L22.4008 1.78415L22.2485 1.30792L20.1519 1.97865L20.3042 2.45487ZM22.4008 1.78415L22.4381 2.28275L24.4773 2.13012L24.44 1.63151L24.4027 1.13291L22.3635 1.28554L22.4008 1.78415ZM24.44 1.63151L24.2726 2.10264L26.2183 2.79413L26.3857 2.323L26.5532 1.85187L24.6075 1.16038L24.44 1.63151ZM26.3857 2.323L26.1103 2.7403L27.9948 3.98418L28.2702 3.56688L28.5457 3.14959L26.6612 1.90571L26.3857 2.323ZM28.2702 3.56688L28.3402 4.06196L30.3947 3.77142L30.3247 3.27635L30.2547 2.78127L28.2002 3.07181L28.2702 3.56688ZM30.3247 3.27635L30.3088 3.7761L32.324 3.84022L32.3399 3.34047L32.3558 2.84072L30.3406 2.7766L30.3247 3.27635ZM32.3399 3.34047L32.3937 3.83757L34.4405 3.61605L34.3867 3.11895L34.3329 2.62186L32.2861 2.84337L32.3399 3.34047ZM34.3867 3.11895L34.0938 3.52415L35.9661 4.8778L36.2591 4.47261L36.552 4.06741L34.6797 2.71376L34.3867 3.11895ZM36.2591 4.47261L36.39 4.95516L38.475 4.38951L38.344 3.90695L38.2131 3.4244L36.1282 3.99005L36.2591 4.47261ZM38.344 3.90695L38.4705 4.39069L40.5531 3.84626L40.4266 3.36252L40.3002 2.87877L38.2176 3.42321L38.344 3.90695ZM40.4266 3.36252L40.3456 3.85591L42.3318 4.18204L42.4128 3.68865L42.4938 3.19526L40.5077 2.86912L40.4266 3.36252ZM42.4128 3.68865L42.1506 4.11442L44.0438 5.28009L44.306 4.85433L44.5681 4.42856L42.675 3.26289L42.4128 3.68865ZM44.306 4.85433L44.5214 5.30554L46.6566 4.2862L46.4412 3.83498L46.2258 3.38376L44.0906 4.40311L44.306 4.85433ZM46.4412 3.83498L46.2999 4.3146L48.2583 4.89149L48.3996 4.41187L48.5409 3.93224L46.5825 3.35536L46.4412 3.83498ZM48.3996 4.41187L48.4456 4.90974L50.4888 4.72089L50.4428 4.22301L50.3968 3.72514L48.3536 3.91399L48.3996 4.41187ZM50.4428 4.22301L50.0978 4.58492L51.9269 6.32865L52.2719 5.96675L52.6169 5.60485L50.7878 3.86111L50.4428 4.22301ZM52.2719 5.96675L52.4175 6.44508L54.5104 5.80798L54.3648 5.32965L54.2192 4.85132L52.1263 5.48843L52.2719 5.96675ZM54.3648 5.32965L54.4107 5.82753L56.4539 5.63901L56.408 5.14112L56.362 4.64324L54.3189 4.83176L54.3648 5.32965ZM56.408 5.14112L56.397 5.641L58.4144 5.68537L58.4253 5.18549L58.4363 4.68561L56.419 4.64124L56.408 5.14112ZM58.4253 5.18549L58.308 5.67151L60.2776 6.14722L60.395 5.6612L60.5123 5.17517L58.5427 4.69946L58.4253 5.18549ZM60.395 5.6612L60.3052 6.15308L62.2875 6.51465L62.3772 6.02276L62.4669 5.53088L60.4847 5.16931L60.395 5.6612ZM62.3772 6.02276L62.4599 6.51588L64.5204 6.17035L64.4378 5.67724L64.3551 5.18412L62.2945 5.52965L62.3772 6.02276ZM64.4378 5.67724L64.2439 6.13813L66.1762 6.95087L66.37 6.48998L66.5639 6.02909L64.6316 5.21635L64.4378 5.67724ZM66.37 6.48998L66.2321 6.97057L68.1921 7.53309L68.33 7.0525L68.4679 6.5719L66.508 6.00938L66.37 6.48998ZM68.33 7.0525L68.4434 7.53948L70.5192 7.05627L70.4058 6.56929L70.2925 6.08231L68.2166 6.56552L68.33 7.0525ZM70.4058 6.56929L70.2892 7.0555L72.2592 7.52787L72.3758 7.04166L72.4924 6.55544L70.5224 6.08307L70.4058 6.56929ZM72.3758 7.04166L72.4484 7.53636L74.5041 7.23476L74.4315 6.74006L74.3589 6.24535L72.3032 6.54695L72.3758 7.04166ZM74.4315 6.74006L74.102 7.11617L75.9455 8.7309L76.2749 8.35478L76.6044 7.97867L74.7609 6.36394L74.4315 6.74006ZM76.2749 8.35478L76.5322 8.78354L78.6984 7.48388L78.4412 7.05512L78.184 6.62637L76.0177 7.92603L76.2749 8.35478ZM78.4412 7.05512L78.1149 7.43397L79.961 9.02409L80.2873 8.64524L80.6136 8.26639L78.7675 6.67628L78.4412 7.05512ZM80.2873 8.64524L80.4014 9.13206L82.4776 8.64565L82.3635 8.15883L82.2495 7.67202L80.1733 8.15842L80.2873 8.64524ZM82.3635 8.15883L82.1655 8.61794L84.0956 9.45048L84.2936 8.99137L84.4916 8.53226L82.5615 7.69972L82.3635 8.15883ZM84.2936 8.99137L84.4138 9.47671L86.4931 8.96182L86.3729 8.47648L86.2527 7.99114L84.1734 8.50603L84.2936 8.99137ZM86.3729 8.47648L86.2012 8.94606L88.1448 9.65683L88.3165 9.18724L88.4882 8.71766L86.5446 8.00689L86.3729 8.47648ZM88.3165 9.18724L88.0128 9.58442L89.8771 11.0101L90.1808 10.6129L90.4846 10.2158L88.6202 8.79006L88.3165 9.18724ZM90.1808 10.6129L90.3556 11.0814L92.465 10.2947L92.2903 9.82618L92.1156 9.3577L90.0061 10.1445L90.1808 10.6129ZM92.2903 9.82618L92.04 10.259L93.9406 11.3579L94.1909 10.925L94.4411 10.4922L92.5406 9.39332L92.2903 9.82618ZM94.1909 10.925L94.1914 11.425L96.2139 11.423L96.2134 10.923L96.2129 10.423L94.1904 10.425L94.1909 10.925ZM96.2134 10.923L96.0881 11.407L98.0541 11.9158L98.1793 11.4317L98.3046 10.9477L96.3387 10.4389L96.2134 10.923ZM98.1793 11.4317L98.2754 11.9224L100.343 11.5177L100.246 11.027L100.15 10.5363L98.0833 10.9411L98.1793 11.4317ZM100.246 11.027L100.021 11.4732L101.936 12.4419L102.161 11.9957L102.387 11.5495L100.472 10.5808L100.246 11.027ZM102.161 11.9957L102.164 12.4957L104.188 12.4838L104.185 11.9839L104.182 11.4839L102.159 11.4957L102.161 11.9957ZM104.185 11.9839L104.505 12.3684L106.732 10.5181L106.412 10.1335L106.093 9.74892L103.866 11.5993L104.185 11.9839ZM106.412 10.1335L106.11 10.5315L107.975 11.95L108.277 11.5521L108.58 11.1541L106.715 9.73554L106.412 10.1335ZM108.277 11.5521L108.217 12.0484L110.212 12.2922L110.273 11.7959L110.333 11.2996L108.338 11.0558L108.277 11.5521ZM110.273 11.7959L110.44 12.2672L112.544 11.5226L112.378 11.0512L112.211 10.5798L110.106 11.3245L110.273 11.7959ZM112.378 11.0512L112.254 11.5356L114.22 12.0383L114.344 11.5539L114.468 11.0695L112.501 10.5668L112.378 11.0512ZM114.344 11.5539L114.362 12.0536L116.393 11.9805L116.375 11.4808L116.357 10.9811L114.326 11.0542L114.344 11.5539ZM116.375 11.4808L116.165 11.9348L118.089 12.8221L118.299 12.368L118.508 11.914L116.584 11.0267L116.375 11.4808ZM118.299 12.368L117.981 12.7541L119.834 14.2792L120.152 13.8932L120.47 13.5071L118.616 11.9819L118.299 12.368ZM120.152 13.8932L120.267 14.3799L122.343 13.8909L122.228 13.4042L122.114 12.9176L120.037 13.4065L120.152 13.8932ZM122.228 13.4042L122.139 13.8962L124.121 14.2563L124.211 13.7643L124.3 13.2724L122.318 12.9123L122.228 13.4042ZM124.211 13.7643L124.467 14.1935L126.633 12.8995L126.376 12.4703L126.12 12.0411L123.954 13.3351L124.211 13.7643ZM126.376 12.4703L125.987 12.7837L127.764 14.9935L128.154 14.6801L128.544 14.3667L126.766 12.1569L126.376 12.4703ZM128.154 14.6801L128.476 15.0628L130.706 13.1878L130.384 12.8051L130.062 12.4224L127.832 14.2974L128.154 14.6801ZM130.384 12.8051L130.022 13.1499L131.833 15.0529L132.195 14.7081L132.558 14.3634L130.746 12.4604L130.384 12.8051ZM132.195 14.7081L132.359 15.1807L134.461 14.4544L134.298 13.9818L134.135 13.5092L132.032 14.2355L132.195 14.7081ZM134.298 13.9818L134.424 14.4656L136.507 13.9231L136.381 13.4392L136.254 12.9554L134.172 13.498L134.298 13.9818ZM136.381 13.4392L135.967 13.7199L137.705 16.2831L138.119 16.0024L138.533 15.7218L136.794 13.1586L136.381 13.4392ZM138.119 16.0024L138.09 16.5016L140.099 16.619L140.128 16.1198L140.157 15.6207L138.148 15.5033L138.119 16.0024ZM140.128 16.1198L140.308 16.5866L142.42 15.7748L142.24 15.3081L142.061 14.8414L139.949 15.6531L140.128 16.1198ZM142.24 15.3081L141.987 15.7394L143.886 16.853L144.139 16.4217L144.392 15.9904L142.493 14.8768L142.24 15.3081ZM144.139 16.4217L144.348 16.876L146.479 15.8958L146.27 15.4416L146.061 14.9873L143.93 15.9675L144.139 16.4217ZM146.27 15.4416L146.129 15.9212L148.088 16.4981L148.229 16.0184L148.371 15.5388L146.411 14.9619L146.27 15.4416ZM148.229 16.0184L148.28 16.5158L150.666 16.2723L150.615 15.7749L150.564 15.2774L148.179 15.521L148.229 16.0184ZM150.615 15.7749L150.158 15.9781L151.176 18.2639L151.632 18.0606L152.089 17.8574L151.072 15.5716L150.615 15.7749ZM151.632 18.0606L151.422 18.5142L153.389 19.4267L153.599 18.9731L153.809 18.5195L151.843 17.6071L151.632 18.0606ZM153.599 18.9731L153.264 19.344L154.921 20.8429L155.257 20.472L155.592 20.1012L153.934 18.6023L153.599 18.9731ZM155.257 20.472L154.803 20.683L155.747 22.7107L156.2 22.4997L156.654 22.2887L155.71 20.261L155.257 20.472ZM156.2 22.4997L155.717 22.3718L155.109 24.6669L155.593 24.7949L156.076 24.9228L156.684 22.6277L156.2 22.4997ZM155.593 24.7949L155.097 24.8573L155.357 26.9259L155.853 26.8635L156.349 26.8011L156.089 24.7325L155.593 24.7949ZM155.853 26.8635L155.388 26.6809L154.627 28.6189L155.093 28.8016L155.558 28.9842L156.318 27.0461L155.853 26.8635ZM155.093 28.8016L154.61 28.9336L155.181 31.0191L155.663 30.8871L156.146 30.7551L155.575 28.6696L155.093 28.8016ZM155.663 30.8871L155.186 30.7381L154.576 32.6929L155.053 32.8418L155.531 32.9908L156.141 31.036L155.663 30.8871ZM155.053 32.8418L154.571 32.9714L155.13 35.0556L155.613 34.926L156.096 34.7965L155.536 32.7122L155.053 32.8418ZM155.613 34.926L155.147 34.7432L154.386 36.6812L154.851 36.864L155.317 37.0468L156.078 35.1089L155.613 34.926ZM154.851 36.864L154.512 36.497L152.559 38.303L152.899 38.67L153.238 39.0371L155.191 37.231L154.851 36.864ZM152.899 38.67L152.401 38.6262L152.225 40.629L152.723 40.6728L153.221 40.7166L153.397 38.7139L152.899 38.67ZM152.723 40.6728L152.245 40.8198L152.889 42.9134L153.367 42.7664L153.845 42.6194L153.201 40.5258L152.723 40.6728ZM153.367 42.7664L152.924 42.9991L154.053 45.1464L154.495 44.9137L154.938 44.6811L153.809 42.5338L153.367 42.7664ZM154.495 44.9137L154.097 44.6114L152.682 46.4759L153.08 46.7783L153.478 47.0806L154.893 45.2161L154.495 44.9137ZM153.08 46.7783L152.602 46.6305L152.019 48.5155L152.497 48.6632L152.975 48.8109L153.558 46.926L153.08 46.7783ZM152.497 48.6632L151.997 48.6852L152.099 50.989L152.599 50.967L153.098 50.945L152.997 48.6411L152.497 48.6632ZM152.599 50.967L152.314 50.5558L150.493 51.8151L150.778 52.2264L151.062 52.6376L152.883 51.3783L152.599 50.967ZM150.778 52.2264L150.499 51.8114L148.834 52.9306L149.113 53.3456L149.392 53.7605L151.057 52.6413L150.778 52.2264ZM149.113 53.3456L148.876 52.9052L147.162 53.8261L147.399 54.2666L147.636 54.707L149.349 53.786L149.113 53.3456ZM147.399 54.2666L147.191 53.8118L145.412 54.6248L145.619 55.0796L145.827 55.5344L147.607 54.7214L147.399 54.2666ZM145.619 55.0796L145.707 54.5874L143.736 54.2349L143.648 54.7271L143.56 55.2193L145.531 55.5718L145.619 55.0796ZM143.648 54.7271L143.603 54.2291L141.691 54.4015L141.736 54.8994L141.781 55.3974L143.693 55.2251L143.648 54.7271ZM141.736 54.8994L141.479 54.4702L139.314 55.7643L139.57 56.1935L139.827 56.6227L141.992 55.3287L141.736 54.8994ZM139.57 56.1935L139.598 55.6943L137.588 55.5815L137.56 56.0807L137.532 56.5799L139.542 56.6927L139.57 56.1935ZM137.56 56.0807L137.959 55.7794L136.196 53.4439L135.797 53.7452L135.398 54.0465L137.161 56.382L137.56 56.0807ZM135.797 53.7452L135.724 53.2505L133.668 53.5536L133.741 54.0482L133.814 54.5429L135.87 54.2398L135.797 53.7452ZM133.741 54.0482L133.762 53.5487L131.749 53.4636L131.728 53.9632L131.707 54.4627L133.72 54.5478L133.741 54.0482ZM131.728 53.9632L131.569 53.4893L129.468 54.196L129.627 54.6699L129.787 55.1438L131.887 54.4371L131.728 53.9632ZM129.627 54.6699L129.888 54.243L127.993 53.0887L127.733 53.5157L127.473 53.9427L129.367 55.0969L129.627 54.6699ZM127.733 53.5157L127.622 53.0282L125.547 53.5012L125.658 53.9887L125.769 54.4762L127.844 54.0032L127.733 53.5157ZM125.658 53.9887L125.934 53.5717L124.05 52.3256L123.774 52.7426L123.498 53.1597L125.382 54.4058L125.658 53.9887ZM123.774 52.7426L123.732 52.2444L121.69 52.4184L121.732 52.9166L121.775 53.4148L123.816 53.2408L123.774 52.7426ZM121.732 52.9166L121.608 52.4322L119.527 52.965L119.651 53.4494L119.775 53.9338L121.856 53.401L121.732 52.9166ZM119.651 53.4494L119.893 53.0118L117.987 51.9585L117.746 52.3962L117.504 52.8338L119.409 53.887L119.651 53.4494ZM117.746 52.3962L117.79 51.8981L115.787 51.7198L115.743 52.2178L115.699 52.7159L117.701 52.8942L117.746 52.3962ZM115.743 52.2178L115.781 51.7193L113.776 51.5647L113.738 52.0632L113.699 52.5617L115.705 52.7164L115.743 52.2178ZM113.738 52.0632L113.697 51.5649L111.656 51.7322L111.697 52.2305L111.738 52.7288L113.779 52.5615L113.738 52.0632ZM111.697 52.2305L111.914 51.7802L109.995 50.8537L109.777 51.3041L109.56 51.7544L111.48 52.6808L111.697 52.2305ZM109.777 51.3041L109.491 50.8941L107.299 52.4246L107.585 52.8346L107.872 53.2445L110.064 51.714L109.777 51.3041ZM107.585 52.8346L107.818 52.3921L105.907 51.3865L105.675 51.8289L105.442 52.2714L107.353 53.2771L107.585 52.8346ZM105.675 51.8289L106.025 51.4723L104.201 49.6797L103.851 50.0363L103.5 50.3929L105.324 52.1855L105.675 51.8289ZM103.851 50.0363L103.742 49.5484L101.668 50.0127L101.777 50.5006L101.886 50.9886L103.96 50.5242L103.851 50.0363ZM101.777 50.5006L101.534 50.0639L99.3783 51.2652L99.6218 51.7019L99.8652 52.1387L102.021 50.9374L101.777 50.5006ZM99.6218 51.7019L99.7309 51.214L97.7575 50.7727L97.6484 51.2606L97.5392 51.7485L99.5126 52.1899L99.6218 51.7019ZM97.6484 51.2606L98.0026 50.9078L96.1827 49.0805L95.8285 49.4334L95.4742 49.7862L97.2941 51.6134L97.6484 51.2606ZM95.8285 49.4334L95.8091 48.9338L93.7781 49.0125L93.7974 49.5121L93.8168 50.0117L95.8478 49.933L95.8285 49.4334ZM93.7974 49.5121L93.5642 49.0698L91.4164 50.2025L91.6497 50.6448L91.8829 51.0871L94.0307 49.9544L93.7974 49.5121ZM91.6497 50.6448L91.6012 50.1472L89.5568 50.3465L89.6053 50.8442L89.6538 51.3418L91.6982 51.1424L91.6497 50.6448ZM89.6053 50.8442L89.8026 50.3848L87.8722 49.5556L87.6749 50.015L87.4775 50.4744L89.408 51.3036L89.6053 50.8442ZM87.6749 50.015L87.8745 49.5566L85.9452 48.7166L85.7456 49.175L85.546 49.6335L87.4753 50.4734L87.6749 50.015ZM85.7456 49.175L85.7336 48.6752L83.7058 48.7241L83.7179 49.2239L83.7299 49.7238L85.7577 49.6749L85.7456 49.175ZM83.7179 49.2239L83.9428 48.7773L82.0273 47.8128L81.8024 48.2594L81.5776 48.7059L83.493 49.6705L83.7179 49.2239ZM81.8024 48.2594L81.8541 47.762L79.8548 47.5545L79.8031 48.0519L79.7515 48.5492L81.7508 48.7567L81.8024 48.2594ZM79.8031 48.0519L79.963 47.5781L78.0136 46.9201L77.8537 47.3939L77.6938 47.8676L79.6432 48.5256L79.8031 48.0519ZM77.8537 47.3939L77.6263 46.9486L75.4827 48.0435L75.7102 48.4888L75.9376 48.9341L78.0812 47.8391L77.8537 47.3939ZM75.7102 48.4888L75.8304 48.0035L73.8622 47.5156L73.7419 48.0009L73.6216 48.4862L75.5899 48.9741L75.7102 48.4888ZM73.7419 48.0009L73.7188 47.5014L71.6861 47.5955L71.7092 48.0949L71.7323 48.5944L73.765 48.5004L73.7419 48.0009ZM71.7092 48.0949L71.7847 47.6007L69.796 47.2971L69.7205 47.7913L69.6451 48.2856L71.6337 48.5892L71.7092 48.0949ZM69.7205 47.7913L69.97 47.358L68.069 46.2635L67.8195 46.6968L67.57 47.1301L69.471 48.2247L69.7205 47.7913ZM67.8195 46.6968L67.9586 46.2165L65.9992 45.6489L65.8601 46.1292L65.7209 46.6095L67.6804 47.177L67.8195 46.6968ZM65.8601 46.1292L65.9098 45.6317L63.9096 45.4318L63.8599 45.9294L63.8102 46.4269L65.8104 46.6267L65.8601 46.1292ZM63.8599 45.9294L63.6291 45.4858L61.4832 46.6023L61.7139 47.0459L61.9447 47.4894L64.0907 46.3729L63.8599 45.9294ZM61.7139 47.0459L61.6028 46.5584L59.5281 47.0314L59.6392 47.5189L59.7504 48.0064L61.8251 47.5334L61.7139 47.0459ZM59.6392 47.5189L59.7735 47.0373L57.8118 46.4903L57.6775 46.9719L57.5432 47.4535L59.5049 48.0006L59.6392 47.5189ZM57.6775 46.9719L58.0401 46.6276L56.229 44.7208L55.8664 45.0652L55.5039 45.4095L57.315 47.3163L57.6775 46.9719ZM55.8664 45.0652L55.8135 44.568L53.7671 44.7858L53.82 45.283L53.8729 45.7802L55.9194 45.5624L55.8664 45.0652ZM53.82 45.283L53.8035 44.7833L51.7738 44.8503L51.7903 45.3501L51.8068 45.8498L53.8365 45.7827L53.82 45.283ZM51.7903 45.3501L52.009 44.9004L50.09 43.9673L49.8714 44.417L49.6527 44.8666L51.5717 45.7997L51.7903 45.3501ZM49.8714 44.417L49.6281 43.9801L47.4729 45.1802L47.7161 45.6171L47.9594 46.0539L50.1146 44.8538L49.8714 44.417ZM47.7161 45.6171L48.0549 45.2494L46.2199 43.5587L45.8811 43.9264L45.5423 44.2941L47.3773 45.9848L47.7161 45.6171ZM45.8811 43.9264L45.9234 43.4282L43.9199 43.2582L43.8777 43.7564L43.8354 44.2546L45.8388 44.4246L45.8811 43.9264ZM43.8777 43.7564L43.68 43.2971L41.5564 44.2114L41.7541 44.6706L41.9518 45.1299L44.0754 44.2156L43.8777 43.7564ZM41.7541 44.6706L42.0785 44.2901L40.2307 42.7149L39.9063 43.0954L39.5819 43.476L41.4297 45.0511L41.7541 44.6706ZM39.9063 43.0954L39.7964 42.6077L37.7223 43.0751L37.8322 43.5628L37.9421 44.0506L40.0162 43.5832L39.9063 43.0954ZM37.8322 43.5628L38.0407 43.1084L36.1162 42.2256L35.9077 42.6801L35.6992 43.1346L37.6238 44.0173L37.8322 43.5628ZM35.9077 42.6801L35.5992 42.2866L33.3846 44.0228L33.6931 44.4163L34.0016 44.8098L36.2162 43.0736L35.9077 42.6801ZM33.6931 44.4163L33.9476 43.9859L32.0497 42.8635L31.7951 43.2939L31.5406 43.7242L33.4386 44.8467L33.6931 44.4163ZM31.7951 43.2939L32.0189 42.8467L30.1028 41.8878L29.8791 42.3349L29.6553 42.782L31.5714 43.741L31.7951 43.2939ZM29.8791 42.3349L29.8875 41.835L27.869 41.8008L27.8605 42.3008L27.8521 42.8007L29.8706 42.8348L29.8791 42.3349ZM27.8605 42.3008L27.7428 41.8148L25.6647 42.3184L25.7825 42.8043L25.9002 43.2903L27.9783 42.7867L27.8605 42.3008ZM25.7825 42.8043L25.6537 42.3212L23.5699 42.8767L23.6987 43.3598L23.8274 43.8429L25.9113 43.2875L25.7825 42.8043ZM23.6987 43.3598L24.0239 42.9801L22.1769 41.3979L21.8516 41.7777L21.5263 42.1574L23.3734 43.7395L23.6987 43.3598ZM21.8516 41.7777L21.796 41.2808L19.7483 41.5099L19.8039 42.0068L19.8595 42.5037L21.9072 42.2746L21.8516 41.7777ZM19.8039 42.0068L19.749 41.5098L17.7016 41.7362L17.7566 42.2332L17.8115 42.7302L19.8589 42.5038L19.8039 42.0068ZM17.7566 42.2332L17.9865 41.7892L16.074 40.7985L15.844 41.2425L15.614 41.6865L17.5266 42.6772L17.7566 42.2332ZM15.844 41.2425L16.1038 40.8153L14.2091 39.6631L13.9493 40.0903L13.6896 40.5175L15.5842 41.6697L15.844 41.2425ZM13.9493 40.0903L13.7729 39.6225L11.6624 40.4187L11.8389 40.8865L12.0154 41.3543L14.1258 40.5581L13.9493 40.0903ZM11.8389 40.8865L11.6732 40.4147L9.55507 41.1584L9.72069 41.6301L9.88631 42.1019L12.0045 41.3583L11.8389 40.8865ZM9.72069 41.6301L9.74652 41.1308L7.51012 41.0151L7.48429 41.5144L7.45846 42.0138L9.69486 42.1295L9.72069 41.6301ZM7.48429 41.5144L7.86568 41.1911L6.33323 39.3834L5.95184 39.7068L5.57044 40.0301L7.10289 41.8378L7.48429 41.5144ZM5.95184 39.7068L6.40177 39.4887L5.44415 37.5129L4.99422 37.731L4.54428 37.9491L5.5019 39.9248L5.95184 39.7068ZM4.99422 37.731L5.24549 37.2988L3.52935 36.3012L3.27808 36.7335L3.0268 37.1657L4.74295 38.1633L4.99422 37.731ZM3.27808 36.7335L3.65209 36.4016L2.30756 34.8862L1.93355 35.2181L1.55954 35.5499L2.90407 37.0653L3.27808 36.7335ZM1.93355 35.2181L2.33218 34.9163L1.00381 33.1618L0.605178 33.4636L0.206551 33.7655L1.53493 35.5199L1.93355 35.2181ZM0.605178 33.4636L1.03089 33.7259L2.38833 31.5222L1.96261 31.26L1.53689 30.9977L0.179463 33.2014L0.605178 33.4636ZM1.96261 31.26L2.38485 30.9922L1.09609 28.9601L0.673847 29.2279L0.251607 29.4957L1.54037 31.5277L1.96261 31.26ZM0.673847 29.2279L1.14105 29.406L1.88071 27.4656L1.4135 27.2875L0.946297 27.1095L0.206641 29.0498L0.673847 29.2279ZM1.4135 27.2875L1.90001 27.1722L1.40742 25.0953L0.920915 25.2107L0.434412 25.3261L0.927 27.4029L1.4135 27.2875ZM0.920915 25.2107L1.26903 25.5696L3.14035 23.7546L2.79223 23.3957L2.44412 23.0368L0.572802 24.8518L0.920915 25.2107ZM2.79223 23.3957L3.28646 23.3199L2.97112 21.2627L2.47689 21.3385L1.98266 21.4142L2.29801 23.4714L2.79223 23.3957ZM2.47689 21.3385L2.9751 21.2962L2.80196 19.2547L2.30375 19.297L1.80554 19.3392L1.97868 21.3807L2.47689 21.3385ZM2.30375 19.297L2.71014 19.5883L4.05305 17.7147L3.64666 17.4234L3.24027 17.1322L1.89736 19.0057L2.30375 19.297ZM3.64666 17.4234L4.06077 17.1432L2.5815 14.9571L2.16739 15.2373L1.75329 15.5175L3.23255 17.7036L3.64666 17.4234ZM2.16739 15.2373L2.62133 15.4469L3.50974 13.523L3.0558 13.3134L2.60186 13.1038L1.71345 15.0277L2.16739 15.2373ZM3.0558 13.3134L3.55567 13.3022L3.51008 11.2748L3.0102 11.2861L2.51033 11.2973L2.55592 13.3247L3.0558 13.3134ZM3.0102 11.2861L3.38602 11.6159L4.94567 9.8385L4.56985 9.50871L4.19403 9.17893L2.63438 10.9563L3.0102 11.2861ZM4.56985 9.50871L5.03694 9.33032L4.18431 7.09785L3.71722 7.27624L3.25013 7.45464L4.10275 9.68711L4.56985 9.50871ZM3.71722 7.27624L4.15273 7.52188L5.16318 5.73036L4.72768 5.48472L4.29218 5.23909L3.28172 7.03061L3.71722 7.27624ZM4.72768 5.48472L4.8915 5.95712L7.03871 5.21249L6.87488 4.74009L6.71106 4.26769L4.56386 5.01232L4.72768 5.48472ZM6.87488 4.74009L7.19645 5.12296L8.57929 3.96153L8.25772 3.57866L7.93614 3.19578L6.55331 4.35721L6.87488 4.74009ZM8.25772 3.57866L8.70258 3.80691L9.77853 1.70992L9.33367 1.48166L8.88881 1.25341L7.81286 3.3504L8.25772 3.57866ZM9.33367 1.48166L9.53131 1.94094L11.4732 1.10529L11.2756 0.646005L11.078 0.186724L9.13603 1.02238L9.33367 1.48166ZM11.2756 0.646005L11.0184 1.07479L13.1183 2.3343L13.3755 1.90552L13.6327 1.47674L11.5328 0.217222L11.2756 0.646005ZM13.3755 1.90552L13.6867 2.29688L14.6985 1.4923L14.3873 1.10094L14.0761 0.709582L13.0643 1.51416L13.3755 1.90552Z" fill="#342E84"/>
<text transform="translate(19.9105 5.73718) rotate(6.32074)" fill="#FDFDFD" xml:space="preserve" style="white-space: pre" font-family="DiodrumArabic-Semibold" font-size="16" letter-spacing="0em"><tspan x="0.75" y="20.704">&#x62a;&#x639;&#x631;&#x651;&#x641; &#x639;&#x644;&#x649; &#x646;&#x64a;&#x646;&#x62c;&#x627;&#x643;&#x648;</tspan></text>
</svg>
