<svg width="114" height="114" viewBox="0 0 114 114" fill="none" xmlns="http://www.w3.org/2000/svg">
<g clip-path="url(#clip0_509_3035)">
<path d="M67.9725 93.195C64.5864 95.2557 60.5965 96.0939 56.6675 95.57C55.0537 95.404 53.4617 95.0696 51.9175 94.5725C50.3832 94.0927 48.9151 93.4225 47.5475 92.5775C45.8564 91.6788 44.3761 90.4304 43.2049 88.9152C42.0337 87.4001 41.1986 85.6529 40.755 83.79C40.755 82.4125 40.375 81.13 40.375 79.705C40.6053 76.1042 40.446 72.4891 39.9 68.9225C39.5015 66.9185 38.5083 65.0811 37.05 63.65C36.3753 63.065 35.52 62.7296 34.6275 62.7C33.6535 62.7546 32.685 62.8816 31.73 63.08H22.515H18.62C17.8044 61.7583 17.0899 60.3769 16.4825 58.9475C15.9457 57.5753 15.5943 56.1376 15.4375 54.6725C15.2954 53.5528 15.2954 52.4197 15.4375 51.3C15.5988 50.1891 15.9021 49.1036 16.34 48.07C17.3606 44.914 19.4857 42.2323 22.325 40.5175C24.4745 39.4283 26.8503 38.8607 29.26 38.8607C31.6697 38.8607 34.0455 39.4283 36.195 40.5175C38.6175 41.61 52.5825 49.02 43.2725 62.1775C43.0397 62.5366 42.959 62.9734 43.048 63.392C43.1371 63.8106 43.3887 64.1768 43.7475 64.41C45.3441 65.816 46.7637 67.411 47.975 69.16C49.1674 70.8929 50.1556 72.7578 50.92 74.7175C51.6716 76.6804 52.275 78.6969 52.725 80.75C53.2096 82.4783 54.0331 84.0929 55.1475 85.5C56.2116 86.7538 57.6219 87.6659 59.2019 88.1221C60.7818 88.5784 62.4613 88.5585 64.03 88.065C64.7553 87.8869 65.4691 87.6648 66.1675 87.4L68.0675 86.4975C68.2858 86.3977 68.4823 86.2559 68.6458 86.0801C68.8093 85.9044 68.9366 85.6981 69.0204 85.4732C69.1042 85.2482 69.1429 85.009 69.1343 84.7691C69.1256 84.5292 69.0698 84.2933 68.97 84.075C68.8702 83.8567 68.7283 83.6601 68.5526 83.4966C68.3768 83.3331 68.1706 83.2058 67.9456 83.122C67.7207 83.0382 67.4814 82.9995 67.2415 83.0082C67.0016 83.0169 66.7658 83.0727 66.5475 83.1725L63.46 83.79C62.7313 83.9194 61.9807 83.8358 61.2983 83.5494C60.6158 83.2629 60.0305 82.7857 59.6125 82.175C58.9443 80.9139 58.4946 79.5488 58.2825 78.1375C57.8478 76.2319 57.1943 74.383 56.335 72.6275C55.0178 70.435 53.4211 68.4231 51.585 66.6425C50.2445 65.4307 48.7797 64.3639 47.215 63.46C47.215 63.46 47.595 63.46 47.7375 63.1275C55.4325 52.2025 48.735 40.6125 38.8075 35.625C36.3167 34.2862 33.5807 33.4655 30.7643 33.2124C27.9479 32.9594 25.1095 33.2791 22.42 34.1525C19.7761 35.1691 17.4136 36.8033 15.5297 38.9186C13.6458 41.0339 12.295 43.569 11.59 46.3125C11.2032 47.7392 10.9801 49.2053 10.925 50.6825C10.8209 52.1791 10.9329 53.6828 11.2575 55.1475C11.6529 56.9297 12.2755 58.6538 13.11 60.2775C13.6398 61.2456 14.2267 62.1814 14.8675 63.08C13.2784 63.1209 11.6928 63.2478 10.1175 63.46C8.75441 63.6168 7.41494 63.9357 6.12747 64.41C5.2088 64.7545 4.40328 65.3463 3.79997 66.12C2.91796 67.3406 2.25865 68.7074 1.85247 70.1575C1.21111 72.8716 0.813692 75.6376 0.664975 78.4225C-0.0853761 85.3404 0.154538 92.3299 1.37747 99.18C2.1991 103.872 4.03053 108.329 6.74497 112.243C7.00149 112.589 7.38271 112.823 7.80813 112.894C8.23355 112.964 8.66987 112.867 9.02497 112.623C9.36844 112.375 9.60075 112.002 9.67183 111.584C9.74291 111.166 9.64708 110.738 9.40497 110.39C7.20045 106.781 5.83673 102.723 5.41497 98.515C4.68159 92.075 4.8896 85.5626 6.03247 79.1825C6.31747 77.425 6.64997 75.0025 7.21997 72.8175C7.44783 71.8284 7.83271 70.8823 8.35997 70.015C7.93247 69.255 10.26 69.635 10.9725 69.54C12.4364 69.3349 13.9119 69.2238 15.39 69.2075H22.5625C35.4825 68.7325 34.295 67.735 34.9125 71.2975C35.2694 74.0544 35.4597 76.8302 35.4825 79.61C35.6691 84.3396 36.3537 89.0364 37.525 93.6225C38.6223 98.1659 40.0837 102.614 41.895 106.923C42.065 107.376 42.4083 107.743 42.8492 107.944C43.2902 108.144 43.7927 108.161 44.2462 107.991C44.6997 107.821 45.0671 107.478 45.2676 107.037C45.468 106.596 45.485 106.094 45.315 105.64C44.1835 102.309 43.2477 98.9151 42.5125 95.475C43.0822 96.1239 43.7015 96.7274 44.365 97.28C46.1348 98.6198 48.1293 99.6331 50.255 100.273C52.3242 100.946 54.4919 101.267 56.6675 101.223C61.7568 101.202 66.6605 99.3082 70.4425 95.9025C70.6354 95.7579 70.7974 95.5761 70.9189 95.3679C71.0404 95.1597 71.119 94.9293 71.15 94.6902C71.181 94.4511 71.1638 94.2082 71.0994 93.9759C71.0349 93.7436 70.9246 93.5265 70.775 93.3375C70.6115 93.1272 70.4047 92.9546 70.1685 92.8315C69.9323 92.7084 69.6724 92.6377 69.4064 92.6242C69.1404 92.6107 68.8746 92.6547 68.6271 92.7532C68.3797 92.8517 68.1564 93.0024 67.9725 93.195Z" fill="#342E84" fill-opacity="0.06"/>
<path d="M67.4024 20.33C67.7963 20.0443 68.0619 19.6151 68.1419 19.1351C68.2219 18.6552 68.1098 18.163 67.8299 17.765C67.5285 17.3776 67.0919 17.1184 66.6075 17.0391C66.1231 16.9599 65.6266 17.0664 65.2174 17.3375L53.105 23.1325C51.4407 23.9771 49.8515 24.9624 48.355 26.0775C47.6568 26.6981 47.2304 27.568 47.1675 28.5C47.1013 28.9864 47.1436 29.4815 47.2914 29.9496C47.4393 30.4177 47.6889 30.8473 48.0224 31.2075C48.6399 31.92 50.5399 33.4875 50.6824 33.63L61.3224 42.37C61.6252 42.6717 62.0351 42.841 62.4624 42.841C62.8898 42.841 63.2997 42.6717 63.6024 42.37C63.9041 42.0673 64.0735 41.6574 64.0735 41.23C64.0735 40.8026 63.9041 40.3927 63.6024 40.09L54.91 29.2125L54.4349 28.9275L56.1924 28.1675L67.4024 20.33Z" fill="#342E84" fill-opacity="0.06"/>
<path d="M81.3674 39.5675C81.174 39.7047 81.0095 39.8786 80.8833 40.0794C80.7571 40.2802 80.6717 40.5039 80.632 40.7377C80.5923 40.9715 80.5991 41.2108 80.6519 41.442C80.7048 41.6732 80.8026 41.8917 80.9399 42.085C81.233 42.469 81.6614 42.7269 82.1379 42.8063C82.6143 42.8857 83.1032 42.7806 83.5049 42.5125L95.6174 36.7175C97.2915 35.9089 98.8824 34.9384 100.367 33.82C101.026 33.2287 101.448 32.4187 101.555 31.54C101.621 31.0609 101.578 30.5732 101.43 30.1128C101.282 29.6524 101.032 29.2311 100.7 28.88C99.8613 28.0213 98.9731 27.2124 98.0399 26.4575L87.3999 17.67C87.2537 17.5055 87.0755 17.3726 86.876 17.2795C86.6766 17.1864 86.4603 17.135 86.2403 17.1285C86.0203 17.122 85.8013 17.1606 85.5968 17.2418C85.3922 17.323 85.2064 17.4452 85.0508 17.6008C84.8952 17.7565 84.773 17.9423 84.6918 18.1468C84.6105 18.3514 84.572 18.5704 84.5785 18.7903C84.5849 19.0103 84.6363 19.2267 84.7294 19.4261C84.8225 19.6255 84.9554 19.8038 85.1199 19.95L93.8124 30.6375L94.2874 30.97C93.6833 31.1787 93.0958 31.4327 92.5299 31.73L81.3674 39.5675Z" fill="#342E84" fill-opacity="0.06"/>
<path d="M82.1275 11.21C81.9317 11.126 81.7208 11.0829 81.5077 11.0831C81.2947 11.0834 81.0839 11.1271 80.8883 11.2116C80.6927 11.296 80.5164 11.4195 80.3701 11.5744C80.2238 11.7293 80.1106 11.9124 80.0375 12.1125C78.2325 15.2 76.4275 18.1925 74.9075 21.6125C74.2425 22.99 73.72 24.415 73.1975 25.84C72.675 27.265 72.2475 28.69 71.8675 30.1625C70.965 33.63 70.3475 37.05 69.6825 40.565C69.6099 40.7957 69.5844 41.0387 69.6075 41.2794C69.6306 41.5202 69.7019 41.7539 69.8171 41.9666C69.9323 42.1792 70.0891 42.3666 70.2781 42.5175C70.4672 42.6684 70.6846 42.7798 70.9175 42.845C71.3836 42.9784 71.8833 42.9238 72.3096 42.6929C72.7359 42.462 73.0546 42.0732 73.1975 41.61C74.5275 38.38 76 35.245 77.33 32.11C77.9 30.7325 78.47 29.355 78.9925 27.9775C79.5228 26.5925 79.9825 25.1815 80.37 23.75C81.3675 20.3775 82.08 17.005 83.03 13.6325C83.1561 13.4192 83.233 13.1804 83.255 12.9335C83.2769 12.6867 83.2434 12.4381 83.1569 12.2059C83.0704 11.9736 82.933 11.7637 82.7549 11.5914C82.5768 11.4191 82.3625 11.2888 82.1275 11.21Z" fill="#342E84" fill-opacity="0.06"/>
<path d="M113.525 23.75C110.722 -1.805 117.372 6.4125 93.765 3.04C86.305 1.94657 78.7868 1.29626 71.25 1.0925C67.45 1.0925 63.6975 1.0925 59.945 1.425C56.1925 1.7575 52.25 2.2325 48.5924 2.8025C44.9349 3.3725 41.6575 3.61 38 4.18C28.8325 5.7475 28.5 2.66 28.1675 14.25C28.0962 15.2779 28.0962 16.3096 28.1675 17.3375C28.2141 18.2782 28.3252 19.2145 28.5 20.14C28.975 22.515 29.83 24.89 30.305 27.0275C30.322 27.2489 30.3846 27.4645 30.4888 27.6606C30.5929 27.8568 30.7364 28.0293 30.9102 28.1675C31.0841 28.3057 31.2846 28.4066 31.4992 28.4638C31.7138 28.521 31.9379 28.5333 32.1575 28.5C32.3675 28.494 32.5742 28.4459 32.7653 28.3584C32.9564 28.2709 33.1279 28.1459 33.2697 27.9908C33.4115 27.8357 33.5207 27.6537 33.5907 27.4556C33.6608 27.2575 33.6903 27.0473 33.6775 26.8375C34.1814 24.1096 34.4673 21.3458 34.5325 18.5725C34.4994 16.9768 34.3245 15.3872 34.01 13.8225C33.7725 12.1125 33.25 10.45 33.25 8.74C35.0692 8.38328 36.9098 8.14527 38.76 8.0275C42.275 7.79 45.7899 7.79 49.2099 7.6475C52.63 7.505 56.5725 7.41 60.2775 7.3625C63.9824 7.315 67.64 7.3625 71.2975 7.3625C78.66 7.3625 85.975 7.3625 93.3849 7.9325C97.4225 8.2175 101.697 7.9325 105.83 7.9325H106.495C106.78 10.165 107.112 12.3975 107.255 14.6775C107.397 16.9575 107.255 19.4275 107.54 22.0875C107.825 24.7475 107.777 26.8375 107.92 29.4975C108.442 37.0975 109.012 44.65 109.202 52.0125C109.239 52.3295 109.372 52.6278 109.582 52.8675C102.678 53.8593 95.6861 54.0982 88.73 53.58L80.085 53.295H74.2425C68.9295 53.4041 63.6297 53.8643 58.3775 54.6725C58.1451 54.6538 57.9114 54.6856 57.6924 54.7658C57.4735 54.846 57.2745 54.9726 57.1092 55.137C56.9438 55.3013 56.816 55.4996 56.7346 55.718C56.6531 55.9365 56.6199 56.17 56.6373 56.4025C56.6546 56.635 56.7221 56.861 56.8351 57.0649C56.9481 57.2689 57.1039 57.4459 57.2918 57.5839C57.4797 57.7219 57.6953 57.8176 57.9237 57.8644C58.1521 57.9112 58.3879 57.908 58.615 57.855C62.1775 57.855 65.6925 57.855 69.16 58.425C68.8131 59.6418 68.5434 60.8792 68.3525 62.13C68.2817 62.9994 68.2817 63.8731 68.3525 64.7425V67.355C68.3525 69.445 68.875 71.3925 69.065 73.435C69.0252 73.9191 69.1772 74.3994 69.4881 74.7726C69.7991 75.1457 70.2441 75.3818 70.7275 75.43C70.9659 75.4562 71.2072 75.4333 71.4365 75.3628C71.6657 75.2922 71.8781 75.1755 72.0606 75.0197C72.243 74.864 72.3916 74.6725 72.4973 74.4572C72.603 74.2418 72.6634 74.0071 72.675 73.7675C73.245 71.6775 73.7675 69.6825 74.1474 67.545C74.22 66.6598 74.22 65.7702 74.1474 64.885C74.2421 64.0009 74.2421 63.1091 74.1474 62.225C73.9832 61.071 73.7452 59.9286 73.435 58.805L77.0924 59.1375C81.2624 59.4934 85.4479 59.6361 89.6325 59.565C96.7958 59.4956 103.913 58.4081 110.77 56.335C111.005 56.2846 111.228 56.1877 111.425 56.0499C111.623 55.9121 111.791 55.7362 111.919 55.5326C112.047 55.329 112.134 55.1018 112.173 54.8644C112.212 54.627 112.203 54.3841 112.147 54.15C112.147 53.865 111.862 53.7225 111.72 53.5325C112.034 53.4181 112.306 53.212 112.5 52.9409C112.695 52.6698 112.804 52.3463 112.812 52.0125C113.335 46.455 113.952 40.7075 114.047 34.9125C114.12 31.1842 113.945 27.4552 113.525 23.75Z" fill="#342E84" fill-opacity="0.06"/>
<path d="M107.113 84.7875C106.776 83.1629 105.844 81.7228 104.5 80.75C103.415 80.0724 102.169 79.6954 100.89 79.6575C98.9657 79.6863 97.0455 79.845 95.1425 80.1325L78.185 82.5075C77.9739 82.5306 77.7698 82.5963 77.5849 82.7007C77.4 82.8051 77.2382 82.946 77.1094 83.1148C76.9806 83.2836 76.8874 83.4768 76.8355 83.6827C76.7836 83.8885 76.7741 84.1028 76.8075 84.3125C76.8306 84.5236 76.8963 84.7278 77.0007 84.9127C77.1051 85.0976 77.246 85.2593 77.4148 85.3882C77.5835 85.517 77.7768 85.6101 77.9826 85.662C78.1885 85.7139 78.4028 85.7234 78.6125 85.69L95.8075 85.5H99.3225C103.455 85.5 101.08 84.93 101.555 91.6275C101.983 96.3775 105.735 96.3775 97.09 96.6625L78.85 98.04C78.367 98.0646 77.9128 98.2772 77.5844 98.6322C77.256 98.9872 77.0795 99.4566 77.0925 99.94C77.0985 100.181 77.1528 100.419 77.2523 100.639C77.3517 100.859 77.4941 101.056 77.6713 101.22C77.8484 101.384 78.0566 101.511 78.2835 101.593C78.5105 101.675 78.7516 101.71 78.9925 101.698L96.995 101.983C99.1258 102.221 101.277 102.221 103.408 101.983C104.811 101.741 106.115 101.097 107.16 100.13C107.889 99.1586 108.273 97.9719 108.253 96.7575C108.165 94.896 107.974 93.0407 107.683 91.2C107.679 89.05 107.489 86.9044 107.113 84.7875Z" fill="#342E84" fill-opacity="0.06"/>
</g>
<defs>
<clipPath id="clip0_509_3035">
<rect width="114" height="114" fill="white"/>
</clipPath>
</defs>
</svg>
