<svg width="110" height="58" viewBox="0 0 110 58" fill="none" xmlns="http://www.w3.org/2000/svg">
<path d="M43.1622 50.1627C43.8116 49.8839 44.4541 49.4326 45.107 49.3529C50.8789 48.6892 56.6681 48.3772 62.4226 47.3882C66.9304 46.6116 71.4103 45.1579 75.8833 43.764C81.0162 42.1644 87.0346 40.8637 92.0841 38.5604C96.6891 36.4563 100.492 34.1793 104.684 29.6192C105.201 29.055 105.712 28.4709 106.208 27.847C108.91 24.4352 108.233 20.2336 106.26 17.094C103.715 13.045 100.575 11.3923 97.4184 9.94527C91.4173 7.19065 85.3156 5.77019 79.1686 4.90066C68.7189 3.4271 58.2726 3.23461 47.8054 4.25681C38.658 5.14625 29.6043 7.3234 20.627 10.6621C15.956 12.4012 11.3267 14.6115 7.04471 18.7069C5.62432 20.0677 4.29769 21.966 3.11346 24.0104C1.64792 26.546 1.7521 29.7918 3.10998 32.5929C5.37775 37.2724 8.37828 39.6686 11.3337 42.1378C16.8346 46.731 22.5891 49.8706 28.4513 52.2071C31.8095 53.5413 35.2233 54.3511 38.6059 55.4396C39.4289 55.7051 40.2381 56.1233 41.1167 56.5016C37.0743 59.4156 33.1084 57.3911 29.1806 56.183C23.6449 54.4772 18.2238 51.7956 13.018 47.7267C9.07632 44.6468 5.20758 41.2616 1.98826 35.7856C-1.11994 30.4954 -0.303818 23.6586 2.50571 19.4304C6.60019 13.2641 11.5386 10.6024 16.5499 8.52481C19.2517 7.40305 21.9571 6.3012 24.6798 5.39185C27.3955 4.48913 30.1287 3.79218 32.8618 3.12841C33.5286 2.96247 34.2266 3.2678 34.6052 3.31427C35.4421 2.97575 36.0255 2.74343 36.6055 2.49784C37.4876 2.13277 38.4808 2.16596 39.2796 2.14604C40.4604 2.11286 41.6585 0.406985 42.9573 1.96019C43.447 2.5443 44.4055 1.60839 45.1556 1.48892C47.0727 1.17695 48.9931 0.911437 50.9136 0.665845C52.973 0.406977 55.0359 0.0684574 57.0987 0.00208099C58.3385 -0.0377448 59.5783 0.506545 60.8216 0.566284C61.7558 0.612748 62.6935 0.161394 63.6277 0.187944C65.1523 0.22777 66.6734 0.553007 68.1979 0.606108C69.1703 0.639297 70.2191 -0.110753 71.1047 0.360519C73.428 1.58848 75.7687 0.898171 78.0921 1.18359C80.9294 1.52875 83.7701 2.00665 86.5901 2.71688C92.9072 4.30328 99.259 5.77019 105.097 11.1467C106.226 12.1888 107.319 13.6292 108.205 15.3151C111.039 20.7248 110.431 27.9465 106.99 31.8694C102.364 37.1397 97.3003 40.1067 92.0841 42.0913C85.392 44.6402 78.6512 46.7377 71.9451 49.1671C65.6662 51.4438 59.3352 52.539 52.9556 52.4593C50.0107 52.4195 47.0692 51.769 44.1242 51.3508C43.8082 51.3044 43.506 50.9659 43.197 50.7601C43.1865 50.561 43.1761 50.3618 43.1657 50.1627H43.1622Z" fill="#FEECB8"/>
</svg>
