<svg width="181" height="91" viewBox="0 0 181 91" fill="none" xmlns="http://www.w3.org/2000/svg">
<path d="M71.0215 78.7036C72.0901 78.2662 73.1472 77.558 74.2216 77.433C83.7189 76.3916 93.2448 75.9021 102.714 74.3504C110.131 73.1319 117.502 70.8512 124.863 68.6642C133.308 66.1544 143.211 64.1137 151.52 60.5C159.098 57.1987 165.355 53.6261 172.252 46.4715C173.104 45.5863 173.944 44.6699 174.761 43.6909C179.206 38.338 178.092 31.7458 174.846 26.8199C170.658 20.4672 165.492 17.8741 160.298 15.6038C150.423 11.2819 140.383 9.05323 130.268 7.68897C113.074 5.37701 95.8848 5.075 78.6616 6.67879C63.6099 8.07429 48.7125 11.4902 33.9408 16.7285C26.2549 19.457 18.6376 22.925 11.5917 29.3506C9.25456 31.4855 7.07166 34.4639 5.12305 37.6715C2.71157 41.6498 2.883 46.7423 5.11733 51.1371C8.84884 58.4791 13.7861 62.2387 18.649 66.1128C27.7006 73.3194 37.1694 78.2453 46.8153 81.9111C52.3411 84.0044 57.9584 85.2749 63.5242 86.9829C64.8785 87.3994 66.21 88.0555 67.6557 88.6491C61.0041 93.221 54.4783 90.0446 48.0153 88.1492C38.9066 85.4728 29.9864 81.2655 21.4205 74.8815C14.9347 70.0493 8.56883 64.7381 3.27158 56.1463C-1.8428 47.8462 -0.499919 37.1196 4.12303 30.4857C10.8603 20.8109 18.9862 16.6348 27.2321 13.3751C31.6779 11.6151 36.1294 9.88637 40.6095 8.45962C45.0781 7.04329 49.5754 5.94979 54.0726 4.90837C55.1698 4.64802 56.3183 5.12707 56.9412 5.19997C58.3184 4.66884 59.2784 4.30435 60.2327 3.91902C61.6842 3.34624 63.3185 3.39831 64.6328 3.36707C66.5757 3.315 68.5471 0.638546 70.6843 3.07547C71.4901 3.99193 73.0672 2.52351 74.3016 2.33606C77.4559 1.84659 80.616 1.43001 83.776 1.04469C87.1647 0.638533 90.559 0.107407 93.9534 0.003265C95.9934 -0.0592203 98.0335 0.794752 100.079 0.88848C101.616 0.96138 103.159 0.253221 104.696 0.294878C107.205 0.357363 109.708 0.867649 112.217 0.950963C113.817 1.00303 115.542 -0.173768 117 0.565642C120.822 2.49227 124.674 1.4092 128.497 1.85701C133.166 2.39855 137.84 3.14837 142.48 4.26269C152.875 6.75169 163.326 9.05323 172.932 17.4888C174.789 19.1238 176.589 21.3837 178.046 24.0289C182.709 32.5165 181.709 43.8472 176.046 50.002C168.435 58.2709 160.103 62.926 151.52 66.0399C140.509 70.0389 129.417 73.3298 118.382 77.1414C108.051 80.7135 97.6334 82.4319 87.1361 82.3069C82.2903 82.2444 77.4502 81.2238 72.6044 80.5677C72.0844 80.4948 71.5872 79.9637 71.0786 79.6408C71.0615 79.3284 71.0443 79.016 71.0272 78.7036H71.0215Z" fill="#AAA4F8"/>
</svg>
