<svg width="153" height="28" viewBox="0 0 153 28" fill="none" xmlns="http://www.w3.org/2000/svg">
<path d="M151.774 28C122.898 9.08646 90.131 3.83327 54.9595 7.37838C40.4022 8.84575 29.8218 12.1509 19.4385 17.9527C20.1387 18.456 20.7544 18.8093 21.2404 19.2631C23.7843 21.6382 23.6601 23.5303 20.3897 24.1324C15.5356 25.0261 10.4946 25.2175 5.51944 25.5681C4.69328 25.6263 3.31112 25.1616 3.02009 24.6161C1.87013 22.4615 0.3584 20.1959 0.279164 17.9384C0.168652 14.7912 -1.30393 11.0277 3.82315 7.99632C5.48993 10.9136 6.9634 13.492 8.64626 16.4372C9.2097 16.1554 10.2292 15.8177 10.9925 15.2364C17.1635 10.5374 24.2998 7.2014 32.152 5.22761C69.8305 -4.24342 105.867 -0.937472 139.951 15.8988C143.624 17.7129 146.836 20.2542 150.049 22.664C151.331 23.6254 152.034 25.1458 153 26.4116C152.591 26.9411 152.182 27.4705 151.774 28Z" fill="url(#paint0_linear_509_3085)"/>
<defs>
<linearGradient id="paint0_linear_509_3085" x1="99.5" y1="14" x2="5.33203e-07" y2="14" gradientUnits="userSpaceOnUse">
<stop stop-color="#342E84" stop-opacity="0.1"/>
<stop offset="1" stop-color="#6A62CF" stop-opacity="0.6"/>
</linearGradient>
</defs>
</svg>
