<svg width="138" height="247" viewBox="0 0 138 247" fill="none" xmlns="http://www.w3.org/2000/svg">
<path fill-rule="evenodd" clip-rule="evenodd" d="M142.57 92.6683L117.619 0L92.6683 92.6683L0 117.619L92.6683 142.57L117.619 235.238L121.917 219.277L123.143 223.833L126.929 222.814L123.947 211.737L142.57 142.57L211.737 123.947L222.814 126.929L223.833 123.143L219.277 121.917L235.238 117.619L142.57 92.6683ZM219.277 121.917L208.388 118.985L207.369 122.771L211.737 123.947L219.277 121.917ZM123.947 211.737L122.771 207.369L118.985 208.388L121.917 219.277L123.947 211.737ZM131.46 19.4843L131.354 19.5128L131.088 20.5036L129.381 20.0441L127.674 20.5036L127.408 19.5128L127.302 19.4843L129.381 11.7619L131.46 19.4843ZM135.619 34.929L139.777 50.3737L135.991 51.393L131.833 35.9483L135.619 34.929ZM143.936 65.8184L148.094 81.2631L144.308 82.2824L140.15 66.8377L143.936 65.8184ZM152.252 96.7078L154.332 104.43L162.054 106.509L161.035 110.295L151.133 107.629L148.467 97.7272L152.252 96.7078ZM177.499 110.668L192.943 114.826L191.924 118.612L176.479 114.454L177.499 110.668ZM239.249 127.408L239.278 127.302L247 129.381L239.278 131.46L239.249 131.354L238.258 131.088L238.718 129.381L238.258 127.674L239.249 127.408ZM223.833 135.619L208.388 139.777L207.369 135.991L222.814 131.833L223.833 135.619ZM192.944 143.936L177.499 148.094L176.479 144.308L191.924 140.15L192.944 143.936ZM162.054 152.252L154.332 154.332L152.252 162.054L148.467 161.035L151.133 151.133L161.035 148.467L162.054 152.252ZM148.094 177.499L143.936 192.943L140.15 191.924L144.308 176.479L148.094 177.499ZM139.777 208.388L135.619 223.833L131.833 222.814L135.991 207.369L139.777 208.388ZM131.354 239.249L131.46 239.278L129.381 247L127.302 239.278L127.408 239.249L127.674 238.258L129.381 238.718L131.088 238.258L131.354 239.249ZM114.826 192.944L110.668 177.499L114.454 176.479L118.612 191.924L114.826 192.944ZM106.509 162.054L104.43 154.332L96.7078 152.252L97.7272 148.467L107.629 151.133L110.295 161.035L106.509 162.054ZM81.2631 148.094L65.8184 143.936L66.8377 140.15L82.2824 144.308L81.2631 148.094ZM50.3737 139.777L34.929 135.619L35.9483 131.833L51.393 135.991L50.3737 139.777ZM19.5128 131.354L19.4843 131.46L11.7619 129.381L19.4843 127.302L19.5128 127.408L20.5036 127.674L20.0441 129.381L20.5036 131.088L19.5128 131.354ZM34.929 123.143L50.3737 118.985L51.393 122.771L35.9483 126.929L34.929 123.143ZM65.8184 114.826L81.2631 110.668L82.2824 114.454L66.8377 118.612L65.8184 114.826ZM96.7078 106.509L104.43 104.43L106.509 96.7078L110.295 97.7272L107.629 107.629L97.7272 110.295L96.7078 106.509ZM110.668 81.2631L114.826 65.8184L118.612 66.8377L114.454 82.2824L110.668 81.2631ZM118.985 50.3737L123.143 34.929L126.929 35.9483L122.771 51.393L118.985 50.3737Z" fill="#342E84" fill-opacity="0.1"/>
</svg>
