<svg width="27" height="27" viewBox="0 0 27 27" fill="none" xmlns="http://www.w3.org/2000/svg">
<path d="M11.3451 1.54067C11.8298 -0.513566 14.7534 -0.513565 15.2382 1.54067L16.8261 8.26991C17.0001 9.00734 17.5759 9.58312 18.3133 9.75713L25.0425 11.345C27.0968 11.8298 27.0968 14.7534 25.0425 15.2381L18.3133 16.826C17.5759 17 17.0001 17.5758 16.8261 18.3132L15.2382 25.0425C14.7534 27.0967 11.8298 27.0967 11.3451 25.0425L9.75719 18.3132C9.58318 17.5758 9.0074 17 8.26997 16.826L1.54073 15.2381C-0.513505 14.7534 -0.513504 11.8298 1.54073 11.345L8.26997 9.75713C9.0074 9.58311 9.58318 9.00734 9.75719 8.26991L11.3451 1.54067Z" fill="url(#paint0_linear_509_3014)"/>
<defs>
<linearGradient id="paint0_linear_509_3014" x1="13.2916" y1="-6.70844" x2="13.2916" y2="33.2916" gradientUnits="userSpaceOnUse">
<stop stop-color="#453E9C"/>
<stop offset="1" stop-color="#6E67D0"/>
</linearGradient>
</defs>
</svg>
