<svg width="35" height="35" viewBox="0 0 35 35" fill="none" xmlns="http://www.w3.org/2000/svg">
<path d="M19.9492 9.10059L20.6172 11.5811H20.6182C20.3515 11.6529 20.1938 11.9277 20.2656 12.1943L20.7295 13.918L20.8047 14.1953L21.082 14.2705L22.8057 14.7344C23.0722 14.8061 23.3461 14.6483 23.418 14.3818L25.8984 15.0498C25.8269 15.3163 25.9864 15.5913 26.2529 15.6631L29.6992 16.5908C29.9657 16.6626 30.2406 16.5047 30.3125 16.2383V16.2373L32.7939 16.9053V16.9062C32.7269 17.1558 32.8616 17.4094 33.0977 17.5C32.8931 17.5786 32.7641 17.779 32.7773 17.9941L32.7939 18.0938L30.3125 18.7617L30.2764 18.667C30.172 18.4594 29.9324 18.3464 29.6992 18.4092L26.2529 19.3369C25.9867 19.4086 25.8275 19.683 25.8984 19.9492L23.418 20.6172C23.3457 20.3512 23.0719 20.1939 22.8057 20.2656L21.082 20.7295L20.8047 20.8047L20.7295 21.082L20.2656 22.8057C20.1939 23.0719 20.3512 23.3457 20.6172 23.418L19.9492 25.8984C19.683 25.8275 19.4086 25.9867 19.3369 26.2529L18.4092 29.6992C18.3374 29.9657 18.4953 30.2406 18.7617 30.3125L18.0938 32.7939C17.8442 32.7269 17.5906 32.8616 17.5 33.0977C17.4093 32.8616 17.1548 32.7267 16.9053 32.7939L16.2373 30.3125C16.504 30.2407 16.6626 29.9659 16.5908 29.6992L15.6631 26.2529L15.627 26.1582C15.5228 25.9503 15.2831 25.8358 15.0498 25.8984L14.3818 23.418C14.6483 23.3461 14.8061 23.0722 14.7344 22.8057L14.2705 21.082L14.1953 20.8047L13.918 20.7295L12.1943 20.2656L12.0947 20.249C11.8627 20.2346 11.6442 20.3843 11.5811 20.6172L9.10059 19.9492C9.1717 19.6829 9.01338 19.4086 8.74707 19.3369L5.30078 18.4092L5.2002 18.3926C4.96828 18.3785 4.75042 18.5287 4.6875 18.7617H4.68652L2.20508 18.0938H2.20605C2.2732 17.8439 2.13791 17.5904 1.90137 17.5C2.13791 17.4096 2.2732 17.1561 2.20605 16.9062L2.20508 16.9053L4.68652 16.2373L4.6875 16.2383C4.75042 16.4713 4.96828 16.6215 5.2002 16.6074L5.30078 16.5908L8.74707 15.6631C9.01368 15.5913 9.1723 15.3164 9.10059 15.0498L11.5811 14.3818C11.6439 14.6153 11.8624 14.7654 12.0947 14.751L12.1943 14.7344L13.918 14.2705L14.1953 14.1953L14.2705 13.918L14.7344 12.1943C14.7972 11.961 14.6844 11.7215 14.4766 11.6172L14.3818 11.5811L15.0498 9.10059C15.2832 9.16337 15.5228 9.04982 15.627 8.8418L15.6631 8.74707L16.5908 5.30078C16.6626 5.03425 16.5047 4.75944 16.2383 4.6875L16.2373 4.68652L16.9053 2.20508L16.9062 2.20605C17.1561 2.2732 17.4096 2.13791 17.5 1.90137C17.5904 2.13791 17.8439 2.2732 18.0938 2.20605V2.20508L18.7617 4.68652V4.6875C18.4953 4.75944 18.3374 5.03425 18.4092 5.30078L19.3369 8.74707C19.4086 9.01338 19.6829 9.1717 19.9492 9.10059Z" fill="#342E84" fill-opacity="0.1" stroke="#FEECB8" stroke-linecap="round" stroke-dasharray="4 4"/>
</svg>
