<svg width="171" height="171" viewBox="0 0 171 171" fill="none" xmlns="http://www.w3.org/2000/svg">
<path fill-rule="evenodd" clip-rule="evenodd" d="M98.7022 64.155L81.4286 0L64.155 64.155L0 81.4286L64.155 98.7022L81.4286 162.857L84.4038 151.807L85.253 154.961L87.874 154.256L85.8092 146.587L98.7022 98.7022L146.587 85.8092L154.256 87.874L154.961 85.253L151.807 84.4038L162.857 81.4286L98.7022 64.155ZM151.807 84.4038L144.269 82.3741L143.563 84.995L146.587 85.8092L151.807 84.4038ZM85.8092 146.587L84.995 143.563L82.3741 144.269L84.4038 151.807L85.8092 146.587ZM91.0109 13.4891L90.9376 13.5088L90.7529 14.1948L89.5714 13.8767L88.39 14.1948L88.2053 13.5088L88.132 13.4891L89.5714 8.14286L91.0109 13.4891ZM93.8898 24.1816L96.7688 34.8741L94.1478 35.5798L91.2689 24.8873L93.8898 24.1816ZM99.6477 45.5666L102.527 56.2591L99.9057 56.9648L97.0267 46.2723L99.6477 45.5666ZM105.406 66.9516L106.845 72.2978L112.191 73.7373L111.486 76.3582L104.63 74.5125L102.785 67.6573L105.406 66.9516ZM122.884 76.6162L133.576 79.4952L132.871 82.1161L122.178 79.2372L122.884 76.6162ZM165.634 88.2053L165.654 88.132L171 89.5714L165.654 91.0109L165.634 90.9376L164.948 90.7529L165.266 89.5714L164.948 88.39L165.634 88.2053ZM154.961 93.8898L144.269 96.7688L143.563 94.1478L154.256 91.2689L154.961 93.8898ZM133.576 99.6477L122.884 102.527L122.178 99.9057L132.871 97.0267L133.576 99.6477ZM112.191 105.406L106.845 106.845L105.406 112.191L102.785 111.486L104.63 104.63L111.486 102.785L112.191 105.406ZM102.527 122.884L99.6477 133.576L97.0268 132.871L99.9057 122.178L102.527 122.884ZM96.7688 144.269L93.8898 154.961L91.2689 154.256L94.1478 143.563L96.7688 144.269ZM90.9376 165.634L91.0109 165.654L89.5714 171L88.132 165.654L88.2053 165.634L88.39 164.948L89.5714 165.266L90.7529 164.948L90.9376 165.634ZM79.4952 133.576L76.6162 122.884L79.2372 122.178L82.1161 132.871L79.4952 133.576ZM73.7373 112.191L72.2978 106.845L66.9516 105.406L67.6573 102.785L74.5125 104.63L76.3582 111.486L73.7373 112.191ZM56.2591 102.527L45.5666 99.6477L46.2723 97.0268L56.9648 99.9057L56.2591 102.527ZM34.8741 96.7688L24.1816 93.8898L24.8873 91.2689L35.5798 94.1478L34.8741 96.7688ZM13.5088 90.9376L13.4891 91.0109L8.14286 89.5714L13.4891 88.132L13.5088 88.2053L14.1948 88.39L13.8767 89.5714L14.1948 90.7529L13.5088 90.9376ZM24.1816 85.253L34.8741 82.3741L35.5798 84.995L24.8873 87.874L24.1816 85.253ZM45.5666 79.4952L56.2591 76.6162L56.9648 79.2372L46.2723 82.1161L45.5666 79.4952ZM66.9516 73.7373L72.2978 72.2978L73.7373 66.9516L76.3582 67.6573L74.5125 74.5125L67.6573 76.3582L66.9516 73.7373ZM76.6162 56.2591L79.4952 45.5666L82.1161 46.2723L79.2372 56.9648L76.6162 56.2591ZM82.3741 34.8741L85.253 24.1816L87.874 24.8873L84.995 35.5798L82.3741 34.8741Z" fill="#342E84" fill-opacity="0.1"/>
</svg>
