<svg width="137" height="129" viewBox="0 0 137 129" fill="none" xmlns="http://www.w3.org/2000/svg">
<path d="M63.0776 1.4861C63.2517 4.12784 63.213 6.78886 62.9616 9.41132C62.9229 9.73913 62.9035 10.0669 62.8455 10.3755C62.8262 10.5297 62.8069 10.684 62.7875 10.8383C62.7682 11.0697 62.8455 10.4719 62.7875 10.819C62.7682 10.9154 62.7681 11.0311 62.7488 11.1275C62.6521 11.7831 62.5361 12.4387 62.4201 13.0943C62.1686 14.4056 61.8398 15.7168 61.453 16.9895C61.2596 17.5872 61.0661 18.185 60.8534 18.7828C60.7373 19.072 60.6406 19.3612 60.5052 19.6505C60.4859 19.7083 60.4085 19.8048 60.4085 19.8819C60.4085 19.6891 60.5246 19.6312 60.4472 19.7662C60.3698 19.9205 60.3118 20.0747 60.2344 20.229C59.7702 21.251 59.2093 22.2344 58.5904 23.16C58.455 23.3721 58.3003 23.5842 58.1456 23.7963C58.0682 23.912 57.9715 24.0277 57.8941 24.1434C57.8554 24.182 57.8168 24.2398 57.7974 24.2784C57.9908 23.9313 57.8748 24.182 57.8168 24.2591C57.4686 24.7026 57.0818 25.1461 56.695 25.5703C56.3082 25.9753 55.9213 26.3609 55.4958 26.7466C55.3024 26.9201 55.0897 27.0937 54.877 27.2672C54.7803 27.3443 54.6835 27.4215 54.5868 27.4986C54.4321 27.6143 54.8769 27.2672 54.6448 27.46C54.5675 27.5179 54.5094 27.5564 54.4321 27.6143C53.9292 27.9807 53.4069 28.3278 52.8654 28.6363C52.3238 28.9448 51.763 29.1762 51.2021 29.4654C51.2215 29.4462 51.5308 29.3305 51.3181 29.4076C51.2407 29.4462 51.1634 29.4655 51.086 29.504C50.9313 29.5619 50.7766 29.6197 50.6025 29.6775C50.3124 29.774 50.0223 29.8704 49.7128 29.9475C49.1132 30.1211 48.4943 30.2368 47.8754 30.3139C47.5466 30.3525 47.1597 30.6996 47.005 30.9695C46.8503 31.2588 46.7923 31.5673 46.831 31.8951C46.9277 32.5893 47.5272 33.1485 48.2622 33.1485C49.6741 33.1292 51.086 33.1292 52.4979 33.2256C52.8267 33.2449 53.1362 33.2834 53.465 33.322C53.4843 33.322 53.8325 33.3798 53.6004 33.3413C53.349 33.3027 53.6971 33.3606 53.7357 33.3606C53.9098 33.3799 54.0839 33.4184 54.258 33.457C54.9543 33.592 55.6312 33.7655 56.2888 33.9776C56.4049 34.0162 56.5403 34.074 56.6563 34.1126C56.7143 34.1319 56.7917 34.1704 56.8497 34.1897C56.9658 34.2283 57.0818 34.344 56.7724 34.1512C57.0045 34.3054 57.2946 34.3826 57.546 34.5176C58.0295 34.7682 58.4938 35.0382 58.9193 35.3467C59.0353 35.4238 59.1513 35.501 59.2674 35.5974C59.3061 35.6359 59.3641 35.6745 59.4028 35.6938C59.5962 35.8288 59.3254 35.6359 59.3061 35.6167C59.4995 35.8095 59.7509 35.983 59.9637 36.1566C60.3892 36.5422 60.7953 36.9279 61.1821 37.3521C61.3562 37.5449 61.5303 37.7378 61.685 37.9306C61.7624 38.027 61.8398 38.1234 61.9365 38.2391C62.0526 38.3934 61.7237 37.9499 61.8978 38.1813C61.9558 38.2584 61.9945 38.3163 62.0525 38.3934C62.3813 38.8369 62.6715 39.2997 62.9616 39.7625C63.2517 40.2445 63.5225 40.7459 63.7739 41.2472C63.89 41.4979 64.006 41.7486 64.1221 41.9993C64.1414 42.0571 64.1607 42.115 64.1994 42.1535C64.0447 41.7872 64.1414 41.9993 64.18 42.0957C64.2381 42.2499 64.2962 42.3849 64.3542 42.5392C64.799 43.6962 65.1278 44.8724 65.3792 46.0679C65.4566 46.415 65.5146 46.7428 65.5726 47.0899C65.592 47.2249 65.6113 47.3792 65.65 47.5141C65.6693 47.6298 65.6887 47.7263 65.6887 47.842C65.6887 47.7841 65.6694 47.7263 65.6694 47.6684C65.6694 47.7455 65.6887 47.8034 65.6887 47.8805C65.7661 48.5747 65.8434 49.2496 65.8821 49.9438C66.0949 53.1255 65.9015 56.3264 65.6887 59.4888C65.65 60.2022 66.269 60.8193 66.9459 60.9157C67.6615 61.0121 68.3191 60.5686 68.5318 59.8744C70.0598 55.0345 70.2533 49.9245 71.3944 45.0074C71.6458 43.9083 71.9359 42.8091 72.3227 41.7293C72.4001 41.4979 72.4969 41.2665 72.5742 41.0544C72.6129 40.9387 72.6902 40.823 72.7289 40.688C72.7289 40.7073 72.5935 41.0159 72.6902 40.8037C72.7095 40.7459 72.7483 40.6688 72.7676 40.6109C72.9804 40.1481 73.1931 39.7046 73.4252 39.2611C73.8894 38.3741 74.4309 37.5257 75.0305 36.7351C75.0692 36.6965 75.1079 36.6386 75.1272 36.6001C74.9338 36.8893 74.9919 36.7736 75.0499 36.6965C75.1272 36.6001 75.2046 36.5037 75.282 36.4072C75.4367 36.2144 75.6107 36.0216 75.7848 35.8288C76.1136 35.4624 76.4618 35.1153 76.81 34.8068C77.0227 34.614 77.2161 34.4404 77.4482 34.2669C77.4869 34.2283 77.5256 34.209 77.5836 34.1704C77.2355 34.4404 77.4869 34.2476 77.5449 34.1897C77.6609 34.1126 77.7577 34.0355 77.8737 33.9583C78.2992 33.6691 78.7441 33.3991 79.2083 33.1678C79.3243 33.1099 79.4597 33.0521 79.5757 32.9942C79.6337 32.9749 79.6725 32.9556 79.7305 32.9363C80.0013 32.8206 79.4403 33.052 79.6918 32.9556C79.9432 32.8592 80.1947 32.7628 80.4654 32.6857C80.7362 32.6086 80.9877 32.5314 81.2584 32.4736C81.3745 32.4543 81.5099 32.4157 81.6259 32.3964C81.742 32.3772 82.2835 32.3 81.7806 32.3579C82.1674 32.3 82.535 32.2422 82.8057 31.9336C83.0185 31.7023 83.1539 31.4323 83.2119 31.1045C83.3086 30.4489 82.8831 29.6583 82.1674 29.5233C81.6065 29.4076 81.0457 29.2726 80.4848 29.0991C80.2334 29.0219 80.0012 28.9255 79.7498 28.8484C79.6144 28.7906 79.4791 28.7327 79.3437 28.6941C79.7885 28.8677 79.2856 28.6556 79.1695 28.617C78.1444 28.1349 77.1581 27.5564 76.2491 26.8815C76.2104 26.843 76.1523 26.8044 76.1136 26.7851C75.9202 26.6309 76.191 26.843 76.2104 26.8623C76.1136 26.7658 75.9783 26.6887 75.8622 26.5923C75.6302 26.3995 75.4173 26.2259 75.2046 26.0331C74.7791 25.6475 74.3536 25.2425 73.9667 24.799C73.5799 24.3748 73.2125 23.9506 72.845 23.507C72.8063 23.4492 72.7676 23.3914 72.7096 23.3335C72.7289 23.3528 72.9224 23.6035 72.7676 23.4106C72.6709 23.2949 72.5935 23.1793 72.4968 23.0636C72.3227 22.8322 72.1487 22.5815 71.994 22.3501C71.3557 21.4052 70.7948 20.4025 70.2919 19.3805C70.1759 19.1299 70.0598 18.8985 69.9438 18.6478C69.9051 18.5899 69.8858 18.5128 69.8665 18.455C69.7697 18.2429 69.9051 18.5321 69.9051 18.5514C69.8471 18.3778 69.7697 18.2236 69.7117 18.0693C69.4989 17.5487 69.3055 17.0087 69.1121 16.4688C68.2997 14.097 67.7002 11.6481 67.2167 9.17994C66.9459 7.81086 66.6945 6.4225 66.4817 5.03414C66.385 4.37852 66.2883 3.74219 66.1916 3.08658C66.1529 2.75877 66.0949 2.45025 66.0562 2.12244C66.0368 2.00674 65.9595 1.46682 66.0368 1.94889C66.0175 1.77534 65.9982 1.62109 65.9788 1.44754C65.9208 1.0426 65.8434 0.714784 65.5533 0.425542C65.3019 0.174865 64.8957 -0.0179531 64.5282 0.00132965C64.1608 0.0206125 63.7545 0.1363 63.5031 0.425542C63.2517 0.734067 63.0196 1.11972 63.0776 1.4861C63.7546 6.55747 64.5283 11.6867 66.0949 16.5652C67.6035 21.2124 70.0598 25.6475 73.9088 28.752C76.0943 30.5067 78.6087 31.8565 81.3745 32.3771C81.5099 31.4323 81.6259 30.4874 81.7613 29.5426C80.5622 29.6968 79.4597 30.0054 78.3379 30.4874C77.3515 30.9117 76.4424 31.4901 75.5914 32.165C73.928 33.457 72.5549 35.1346 71.4717 36.9279C70.3306 38.7983 69.4989 40.8616 68.938 42.9827C68.2611 45.4894 67.8742 48.0734 67.4874 50.638C67.0619 53.5304 66.617 56.4228 65.7273 59.2188C66.6751 59.3538 67.6228 59.4695 68.5705 59.6045C68.938 53.8968 69.2669 47.9191 67.3327 42.4235C65.7274 37.8342 62.5747 33.5341 57.9908 31.6058C54.9156 30.3139 51.5502 30.2753 48.2622 30.3139C48.3976 31.2587 48.5136 32.2036 48.649 33.1485C53.523 32.4736 57.6814 29.3305 60.5246 25.4739C63.6772 21.1931 65.0505 15.8132 65.7081 10.6069C66.0949 7.57947 66.1722 4.53277 65.9595 1.50537C65.9015 0.753345 65.3212 0.0205983 64.5089 0.0591639C63.7739 0.0784467 63.0196 0.676218 63.0776 1.4861Z" fill="#342E84" fill-opacity="0.1"/>
<path d="M9.36664 40.688C9.69544 42.1342 9.98556 43.5997 10.237 45.0652C10.3724 45.7787 10.4885 46.4921 10.5852 47.2056C10.6432 47.572 10.7012 47.9191 10.7399 48.2854C10.7592 48.4397 10.7785 48.6132 10.7979 48.7675C10.8366 49.0375 10.7979 48.7868 10.7979 48.7482C10.8172 48.8639 10.8366 48.9796 10.8366 49.1146C11.2234 52.0263 11.4555 54.938 11.5715 57.869C11.6295 59.1224 11.6296 60.3565 11.5523 61.6099C11.5329 61.8991 11.5135 62.1884 11.4748 62.4776C11.4555 62.6319 11.4362 62.7861 11.4168 62.9404C11.3975 63.0946 11.4555 63.2103 11.4168 62.9018C11.4362 62.9982 11.3781 63.1139 11.3781 63.2103C11.2814 63.8081 11.1654 64.3866 10.9913 64.9651C10.9139 65.2543 10.8172 65.5243 10.7205 65.8135C10.6818 65.9292 10.6045 66.0642 10.5852 66.1799C10.6626 65.8906 10.6625 66.0256 10.6238 66.1027C10.5851 66.1992 10.5464 66.2763 10.5078 66.3727C10.237 66.9319 9.92753 67.4525 9.56005 67.9539C9.46334 68.0696 9.386 68.2046 9.28929 68.3203C9.30863 68.2817 9.48274 68.0696 9.32801 68.2624C9.28933 68.3203 9.25061 68.3781 9.19258 68.4167C8.99917 68.6674 8.78638 68.918 8.57362 69.1687C8.16746 69.6315 7.72266 70.0943 7.27782 70.5378C6.79428 71.0199 6.29135 71.4634 5.76914 71.9069C5.49836 72.1383 5.22762 72.3697 4.9375 72.5818C4.87948 72.6396 4.80211 72.6975 4.74409 72.736C4.70541 72.7553 4.47331 72.9482 4.64738 72.8132C4.8408 72.6782 4.57002 72.871 4.55068 72.8903C4.47331 72.9482 4.37664 73.006 4.29928 73.0831C3.1388 73.9316 1.93964 74.7222 0.72114 75.4742C0.198926 75.802 -0.149293 76.4962 0.0634612 77.1132C0.256874 77.6917 0.817809 78.2123 1.45607 78.1738C2.67457 78.0966 3.89307 78.0388 5.13091 78.0967C5.94325 78.1352 6.75558 78.2124 7.54857 78.3088C7.99342 78.3473 8.41889 78.3859 8.86374 78.4245C8.99913 78.4245 9.13454 78.4437 9.26993 78.463C9.30861 78.463 9.32795 78.463 9.36664 78.4823C9.52137 78.5016 9.48266 78.5016 9.25057 78.463C9.28925 78.4823 9.38603 78.4823 9.42472 78.4823C9.73418 78.5402 10.0436 78.598 10.3531 78.6944C10.6238 78.7716 10.8946 78.868 11.1461 78.9644C11.2234 78.9837 11.2815 79.0222 11.3588 79.0415C11.5523 79.1186 11.0106 78.8872 11.3008 79.0222C11.4555 79.0994 11.5909 79.1572 11.7457 79.2343C12.2872 79.5043 12.7901 79.8128 13.2736 80.1599C13.3316 80.1985 13.3896 80.2563 13.4477 80.2949C13.6604 80.4492 13.3897 80.2563 13.3703 80.2371C13.4283 80.3335 13.6411 80.4492 13.7184 80.5263C13.9699 80.7384 14.202 80.9505 14.4341 81.1626C14.8789 81.5868 15.3238 82.0496 15.7106 82.5124C15.904 82.7438 16.0974 82.9752 16.2715 83.2066C16.0781 82.9366 16.4843 83.4766 16.2715 83.2066C16.3102 83.2645 16.3489 83.303 16.3876 83.3609C16.5036 83.5151 16.6196 83.6694 16.7163 83.8237C17.0838 84.3443 17.4319 84.8649 17.7607 85.4048C18.4764 86.5811 19.134 87.8152 19.7336 89.0493C20.0624 89.7242 20.3912 90.4184 20.7006 91.0933C20.778 91.2475 20.8361 91.4018 20.9134 91.5561C20.9521 91.6332 20.9908 91.7296 21.0295 91.8067C21.1262 92.0574 21.0295 91.826 21.0101 91.7682C21.1842 92.1538 21.3196 92.5395 21.4743 92.9251C22.7315 96.0875 23.6985 99.3463 24.3755 102.682C24.5109 103.396 25.3039 103.801 25.9615 103.723C26.7352 103.627 27.1413 103.029 27.2187 102.297C27.8956 96.4925 26.4256 90.7269 26.7738 84.9035C26.7931 84.4407 26.8512 83.9779 26.8899 83.5344C26.9092 83.4187 26.9286 83.303 26.9286 83.1873C26.9479 82.9945 26.8705 83.5923 26.9092 83.303C26.9092 83.2452 26.9286 83.2066 26.9286 83.1488C26.9673 82.8981 27.0059 82.6474 27.0445 82.3967C27.2186 81.4133 27.4507 80.4299 27.7215 79.485C27.8762 78.9837 28.031 78.4823 28.205 77.981C28.2824 77.7496 28.3598 77.5375 28.4565 77.3254C28.4952 77.2097 28.5532 77.094 28.5918 76.9783C28.6886 76.7661 28.5532 77.0747 28.5339 77.0939C28.5725 77.0168 28.5919 76.9397 28.6306 76.8626C29.0367 75.9563 29.5009 75.0693 30.0618 74.2401C30.1972 74.028 30.352 73.8159 30.5067 73.6038C30.5261 73.5652 30.7 73.3531 30.526 73.5652C30.3712 73.7773 30.5454 73.5459 30.5841 73.5074C30.6614 73.4109 30.7387 73.3145 30.8355 73.2181C31.1643 72.8325 31.5318 72.4661 31.9186 72.1383C32.0153 72.0419 32.1314 71.9647 32.2281 71.8876C32.3635 71.7719 31.9573 72.0804 32.112 71.984C32.17 71.9454 32.228 71.9069 32.2861 71.849C32.4988 71.7141 32.6923 71.5791 32.9244 71.4441C33.1371 71.3284 33.3498 71.2127 33.5626 71.1163C33.6013 71.097 33.8334 71.0006 33.582 71.097C33.3499 71.1934 33.5433 71.1163 33.6013 71.097C33.7367 71.0392 33.872 71.0006 34.0074 70.962C34.5876 70.7692 35.1099 70.21 35.0712 69.5737C35.0325 68.918 34.6457 68.3974 34.0074 68.1853C31.5317 67.3561 28.9401 67.009 26.445 66.2184C26.1549 66.122 25.8648 66.0256 25.5747 65.9099C25.5167 65.8906 25.4586 65.8714 25.4005 65.8521C25.3619 65.8328 25.1104 65.6978 25.3232 65.8135C25.5359 65.9292 25.2845 65.7942 25.2458 65.775C25.1685 65.7364 25.0718 65.6978 24.9944 65.6593C24.4335 65.4086 23.9113 65.1 23.4084 64.753C23.3311 64.6951 23.2537 64.6373 23.1763 64.5987C23.0022 64.483 23.215 64.6565 23.2537 64.6565C23.1957 64.6758 22.9442 64.4059 22.8862 64.348C22.6347 64.1166 22.3833 63.8852 22.1512 63.6346C21.9578 63.4225 21.7644 63.1911 21.571 62.9597C21.4743 62.844 21.3776 62.7283 21.2809 62.6126C21.5323 62.9018 21.3776 62.7283 21.3196 62.6511C21.2616 62.574 21.2036 62.4776 21.1262 62.4005C20.4299 61.4556 19.8496 60.4529 19.3274 59.4116C19.192 59.1417 19.076 58.891 18.9599 58.621C18.9019 58.5053 18.8439 58.3896 18.8052 58.2547C18.7666 58.1968 18.7472 58.1197 18.7085 58.0618C18.5925 57.7919 18.8246 58.3318 18.7085 58.0811C18.4764 57.5219 18.2636 56.9434 18.0509 56.3842C17.1805 53.9931 16.5036 51.525 15.7493 49.0953C14.7048 45.8173 13.4863 42.597 11.9004 39.5503C11.5522 38.8754 10.5465 38.6248 9.90825 39.0297C9.21196 39.4732 9.01851 40.2831 9.386 41.0158C9.77282 41.7486 10.1403 42.5006 10.4885 43.2526C10.6432 43.5997 10.8173 43.9468 10.9527 44.2939C10.9333 44.2553 10.8366 44.0047 10.9333 44.2553C10.972 44.3325 11.0107 44.4289 11.0494 44.506C11.1267 44.6988 11.204 44.8917 11.2814 45.0652C11.823 46.415 12.3065 47.7841 12.7514 49.1725C13.5637 51.6599 14.26 54.186 15.111 56.6542C15.9234 59.0067 16.9098 61.3399 18.3217 63.4032C19.076 64.5023 19.927 65.6207 20.9714 66.4691C22.0932 67.414 23.3311 68.0889 24.7043 68.6095C27.4508 69.6701 30.4293 69.9786 33.2145 70.9042C33.2145 69.9786 33.2145 69.053 33.2145 68.1082C28.9981 69.458 26.5804 73.6423 25.2458 77.576C24.5496 79.6007 24.1241 81.7218 23.9113 83.8429C23.6405 86.5811 23.8339 89.3578 24.066 92.096C24.3368 95.4705 24.6656 98.845 24.2788 102.219C25.2265 102.084 26.1743 101.969 27.122 101.834C26.5031 98.8064 25.6327 95.8175 24.5495 92.9251C23.4471 90.0134 22.1512 87.1403 20.5846 84.4407C19.25 82.1653 17.6447 79.9478 15.5946 78.2702C14.4728 77.3639 13.3122 76.6312 11.9583 76.1105C10.7592 75.6285 9.50204 75.4935 8.22552 75.3778C7.29714 75.3006 6.38813 75.185 5.45975 75.1271C4.08652 75.05 2.7326 75.1078 1.35936 75.1849C1.6108 76.0912 1.84286 76.9782 2.0943 77.8845C4.37657 76.4769 6.60083 74.9343 8.59298 73.1024C10.5658 71.2705 12.4033 69.1687 13.3897 66.6427C14.3374 64.213 14.4921 61.4942 14.4341 58.891C14.3761 55.9407 14.1439 52.9904 13.7958 50.0787C13.3896 46.6464 12.8094 43.2141 12.0551 39.8396C11.881 39.1068 10.9913 38.6055 10.2757 38.8369C9.59877 39.1647 9.17322 39.8974 9.36664 40.688Z" fill="#342E84" fill-opacity="0.1"/>
<path d="M85.4554 79.5236C85.7261 80.5841 85.9389 81.6447 86.0937 82.7438C86.0743 82.6089 86.0549 82.4932 86.0356 82.3582C86.3257 84.4986 86.3644 86.6968 86.0743 88.8372C86.0937 88.7022 86.113 88.5865 86.1323 88.4515C85.9002 90.187 85.4554 91.8839 84.7784 93.4843C84.8364 93.3686 84.8752 93.253 84.9332 93.1373C84.6044 93.9086 84.2369 94.6606 83.7921 95.3741C83.5793 95.7404 83.3279 96.1068 83.0764 96.4539C82.9604 96.6082 82.8444 96.7624 82.7283 96.9167C83.0378 96.5118 82.7863 96.8396 82.709 96.936C82.6316 97.0324 82.5542 97.1288 82.4768 97.2059C81.9353 97.8615 81.3164 98.4593 80.6781 99.0185C80.5234 99.1535 80.3493 99.2885 80.1946 99.4235C80.0979 99.5006 79.7691 99.7513 80.1752 99.4427C80.0785 99.5006 80.0012 99.5777 79.9045 99.6548C79.537 99.9248 79.1502 100.175 78.7633 100.426C78.0284 100.87 77.2934 101.255 76.5004 101.583C76.6164 101.525 76.7324 101.487 76.8485 101.429C76.2876 101.66 75.7267 101.892 75.1658 102.142C74.779 102.316 74.4116 102.47 74.1214 102.759C73.4638 103.376 73.5798 104.437 74.2568 104.958C74.6049 105.228 75.0692 105.305 75.4753 105.42C76.1716 105.633 76.8678 105.883 77.5448 106.172C77.4287 106.115 77.3127 106.076 77.1967 106.018C79.0341 106.809 80.8135 107.792 82.3995 108.988C82.4382 109.026 82.4769 109.046 82.5155 109.084C82.1867 108.833 82.3221 108.949 82.3995 108.988C82.4962 109.065 82.5735 109.123 82.6702 109.2C82.8443 109.335 83.0184 109.489 83.1731 109.624C83.4632 109.894 83.7533 110.164 84.0241 110.472C84.1595 110.607 84.2756 110.762 84.4109 110.916C84.469 110.993 84.527 111.07 84.585 111.147C84.643 111.225 84.7398 111.36 84.469 111.012C84.5077 111.07 84.5463 111.109 84.585 111.167C84.8171 111.475 85.0493 111.803 85.2427 112.15C85.7456 112.941 86.1517 113.789 86.5385 114.657C86.4805 114.541 86.4418 114.425 86.3838 114.31C87.7764 117.626 88.4146 121.194 89.0335 124.722C89.1882 125.667 89.3623 126.612 89.5364 127.557C89.5944 127.885 89.9232 128.271 90.194 128.425C90.4841 128.579 90.7936 128.637 91.1224 128.598C91.838 128.502 92.3603 127.904 92.3796 127.171C92.4376 125.571 92.4956 123.97 92.5536 122.351C92.6117 120.808 92.6117 119.246 92.8244 117.704C92.8051 117.839 92.7858 117.954 92.7664 118.089C92.9598 116.759 93.2499 115.428 93.5981 114.136C93.7721 113.5 93.9655 112.864 94.1589 112.227C94.333 111.707 94.4878 111.167 94.7005 110.646C94.6425 110.762 94.6038 110.877 94.5458 110.993C94.8165 110.376 95.1647 109.798 95.5709 109.258C95.6289 109.181 95.6869 109.103 95.745 109.007C95.8803 108.833 95.4935 109.316 95.7062 109.046C95.8416 108.872 95.977 108.718 96.1124 108.544C96.3639 108.236 96.6347 107.946 96.9054 107.657C97.4857 107.059 98.1046 106.481 98.7429 105.922C98.8976 105.787 99.0523 105.671 99.207 105.536C99.2844 105.478 99.3618 105.42 99.4392 105.343C99.4778 105.305 99.5165 105.266 99.5745 105.247C99.5165 105.285 99.2845 105.478 99.4585 105.324C99.768 105.093 100.097 104.861 100.406 104.63C101.044 104.206 101.702 103.801 102.418 103.511C102.302 103.569 102.186 103.608 102.07 103.666C102.128 103.646 102.186 103.627 102.244 103.589C102.592 103.454 102.921 103.261 103.114 102.933C103.269 102.644 103.327 102.335 103.288 102.007C103.191 101.294 102.592 100.754 101.857 100.754C101.528 100.754 101.199 100.735 100.89 100.696C101.025 100.715 101.141 100.735 101.277 100.754C100.638 100.658 100 100.484 99.4004 100.233C99.5165 100.291 99.6326 100.33 99.7486 100.388C99.3812 100.233 99.0329 100.06 98.7041 99.8477C98.5301 99.7513 98.3754 99.6356 98.2013 99.5391C98.124 99.4813 98.0272 99.4234 97.9498 99.3656C97.9112 99.3463 97.8725 99.3077 97.8338 99.2885C97.8144 99.2692 97.7951 99.2499 97.7758 99.2499C97.6404 99.1342 97.9692 99.4042 97.9498 99.3849C97.2922 98.845 96.6733 98.2665 96.0931 97.6301C95.9577 97.4566 95.803 97.3023 95.6676 97.1288C95.6096 97.0517 95.5322 96.9552 95.4742 96.8781C95.3195 96.6853 95.6289 97.071 95.5709 96.9938C95.5322 96.936 95.4935 96.8974 95.4548 96.8396C95.1647 96.4732 94.9132 96.0875 94.6425 95.7019C94.1009 94.892 93.6175 94.0435 93.1726 93.1758C92.6504 92.1731 92.1669 91.1318 91.722 90.0906C91.78 90.2063 91.8187 90.322 91.8767 90.4377C90.5808 87.3717 89.5751 84.1708 88.7434 80.9312C88.55 80.1792 88.3759 79.4465 88.2019 78.6944C88.0278 77.9617 87.138 77.4603 86.4224 77.6917C85.6875 78.0002 85.2619 78.733 85.4554 79.5236C85.8615 81.2783 86.3064 83.0331 86.8286 84.7685C87.4282 86.7932 88.1245 88.8179 88.9175 90.7847C89.7685 92.848 90.7163 94.892 91.9154 96.7817C92.9792 98.4786 94.2557 100.137 95.8223 101.39C96.5766 101.988 97.3696 102.547 98.2593 102.933C99.2457 103.357 100.213 103.627 101.296 103.724C101.509 103.743 101.721 103.743 101.915 103.743C101.779 102.798 101.663 101.853 101.528 100.908C99.942 101.525 98.5687 102.489 97.2535 103.55C95.9383 104.611 94.7006 105.806 93.6561 107.137C93.1339 107.792 92.6504 108.448 92.2635 109.2C91.8187 110.087 91.5286 111.051 91.2385 111.996C90.5422 114.29 89.9812 116.624 89.8071 119.015C89.7104 120.365 89.6911 121.734 89.6525 123.083C89.6138 124.472 89.5557 125.841 89.517 127.229C90.4648 127.094 91.4125 126.979 92.3602 126.844C91.6639 123.006 91.1417 119.111 89.9039 115.409C89.2656 113.538 88.4726 111.668 87.3121 110.048C86.7319 109.219 86.0744 108.448 85.3394 107.754C84.4884 106.982 83.5406 106.288 82.5735 105.671C81.5098 104.977 80.388 104.36 79.2275 103.839C78.5699 103.531 77.893 103.261 77.1967 103.01C76.6358 102.817 76.0749 102.663 75.514 102.489C75.63 102.547 75.7461 102.586 75.8622 102.644C76.0362 102.817 76.1909 102.971 76.365 103.145C76.423 103.261 76.4617 103.376 76.5197 103.492C76.5391 103.627 76.5584 103.743 76.5777 103.878C76.5584 104.013 76.5391 104.128 76.5197 104.263C76.4617 104.379 76.423 104.495 76.365 104.611C76.2489 104.784 76.0942 104.996 75.9201 105.073C75.9588 105.054 75.9782 105.035 76.0168 105.015C76.1136 104.958 76.2103 104.919 76.307 104.861C76.5777 104.726 76.8678 104.611 77.158 104.495C77.0419 104.553 76.9259 104.591 76.8099 104.649C77.6029 104.321 78.4151 103.993 79.1888 103.589C80.0785 103.126 80.9102 102.586 81.7032 101.988C83.3859 100.696 84.8365 99.1728 85.9776 97.3988C88.1825 94.0243 89.1496 89.9363 89.1689 85.9448C89.1689 83.5537 88.8401 81.1433 88.2598 78.8294C88.0664 78.0967 87.2155 77.576 86.4805 77.8267C85.7069 78.0003 85.2426 78.733 85.4554 79.5236Z" fill="#342E84" fill-opacity="0.1"/>
<path d="M105.048 28.3663C105.203 29.0797 105.339 29.7932 105.455 30.5066C105.513 30.8537 105.571 31.2201 105.629 31.5865C105.648 31.7022 105.745 32.2421 105.667 31.8179C105.706 32.03 105.725 32.2421 105.745 32.4349C105.919 33.9004 106.054 35.3852 106.132 36.87C106.286 39.8588 106.267 42.8669 106.054 45.8365C105.996 46.5692 105.938 47.302 105.88 48.054C105.841 48.3818 105.822 48.7289 105.783 49.0567C105.764 49.211 105.745 49.3652 105.725 49.5388C105.725 49.6159 105.706 49.693 105.706 49.7509C105.687 49.8666 105.706 49.8087 105.725 49.5773C105.725 49.6352 105.706 49.693 105.706 49.7509C105.532 50.985 105.261 52.1998 104.932 53.3953C104.758 53.9931 104.565 54.5909 104.352 55.1694C104.236 55.4586 104.139 55.7478 104.023 56.0371C104.004 56.1142 103.965 56.1721 103.946 56.2492C104.062 55.8828 104.004 56.0949 103.965 56.1913C103.888 56.3456 103.83 56.5191 103.753 56.6734C103.23 57.8111 102.631 58.8909 101.915 59.9322C101.722 60.2214 101.509 60.5107 101.296 60.7806C101.238 60.8578 101.122 60.9542 101.354 60.7035C101.296 60.7806 101.219 60.8578 101.161 60.9349C101.045 61.0699 100.948 61.2049 100.832 61.3399C100.387 61.8605 99.923 62.3425 99.4201 62.8246C99.1687 63.056 98.9172 63.2874 98.6465 63.5188C98.5111 63.6345 98.3563 63.7309 98.2403 63.8466C98.4917 63.5959 98.3951 63.7309 98.2984 63.808C98.221 63.8659 98.1436 63.9237 98.0469 63.9816C97.486 64.3865 96.8864 64.7722 96.2675 65.1C95.726 65.3892 95.4164 66.1413 95.6098 66.739C95.6872 66.9704 95.8033 67.2018 95.9774 67.3754C96.1902 67.6067 96.6736 67.8382 97.0025 67.7996C98.2983 67.6453 99.5942 67.5682 100.89 67.6068C101.528 67.626 102.147 67.6646 102.785 67.7225C102.94 67.7417 103.114 67.761 103.269 67.7803C103.385 67.7996 103.965 67.8767 103.462 67.7996C103.791 67.8574 104.12 67.896 104.449 67.9538C105.706 68.166 106.963 68.4745 108.182 68.8601C108.801 69.053 109.42 69.2651 110.019 69.5158C110.154 69.5736 110.271 69.6122 110.406 69.67C110.483 69.7086 110.561 69.7279 110.638 69.7664C110.232 69.6122 110.503 69.7086 110.599 69.7471C110.909 69.8821 111.199 70.0171 111.508 70.1521C112.688 70.7113 113.829 71.3283 114.912 72.0225C115.454 72.3696 115.976 72.7167 116.479 73.1024C116.615 73.1988 116.75 73.2952 116.885 73.3916C116.943 73.4495 117.021 73.488 117.079 73.5459C116.769 73.3145 116.905 73.4109 116.982 73.4687C117.272 73.7001 117.543 73.9122 117.814 74.1436C118.781 74.9535 119.709 75.8405 120.56 76.7661C121.005 77.2482 121.43 77.7495 121.856 78.2701C121.933 78.3858 122.03 78.4823 122.107 78.598C121.798 78.2316 122.165 78.6751 122.223 78.7715C122.417 79.0415 122.61 79.3114 122.804 79.5814C123.616 80.7576 124.351 81.9917 124.97 83.2644C125.125 83.5922 125.279 83.92 125.415 84.2285C125.531 84.4985 125.279 83.9007 125.395 84.19C125.434 84.2864 125.473 84.4021 125.511 84.4985C125.57 84.6528 125.628 84.807 125.686 84.9613C125.956 85.6555 126.188 86.3689 126.382 87.0824C126.595 87.8151 127.426 88.3358 128.161 88.0851C128.509 87.9694 128.858 87.7573 129.032 87.4295C129.225 87.0631 129.244 86.716 129.186 86.3111C129.186 86.2918 129.128 85.9254 129.167 86.1568C129.206 86.3882 129.148 86.0411 129.148 86.0218C129.128 85.8869 129.109 85.7519 129.09 85.6169C129.051 85.3084 129.012 84.9998 128.993 84.6913C128.954 84.2092 128.916 83.7272 128.896 83.2451C128.877 82.4931 128.896 81.7218 128.877 80.9697C128.877 80.0249 128.819 79.0993 128.722 78.1544C128.645 77.441 128.548 76.7275 128.451 76.0141C128.393 75.5898 128.335 75.1656 128.277 74.7221C128.258 74.645 128.258 74.5678 128.239 74.4907C128.181 74.1243 128.277 74.7221 128.239 74.4907C128.219 74.2786 128.181 74.0858 128.161 73.8737C127.987 72.5046 127.832 71.1162 127.794 69.7279C127.774 69.0144 127.774 68.3202 127.832 67.6068C127.852 67.279 127.871 66.9319 127.929 66.604C127.852 67.009 127.968 66.4112 127.968 66.3341C128.007 66.1413 128.026 65.9677 128.065 65.7749C128.181 65.1771 128.355 64.5986 128.548 64.0394C128.625 63.7888 128.722 63.5381 128.819 63.2874C128.858 63.1717 128.896 63.056 128.954 62.9596C128.974 62.8825 129.012 62.8246 129.032 62.7475C129.167 62.439 128.974 62.9018 129.032 62.7668C129.496 61.7448 130.018 60.7614 130.637 59.8358C130.811 59.5851 131.062 59.3152 131.217 59.0452C131.198 59.0645 131.004 59.3152 131.159 59.1223C131.217 59.0452 131.275 58.9874 131.333 58.9102C131.43 58.7945 131.527 58.6788 131.623 58.5631C132.03 58.1003 132.455 57.6568 132.919 57.2326C133.151 57.0205 133.403 56.8084 133.654 56.5963C133.848 56.442 133.596 56.6541 133.577 56.6541C133.654 56.6156 133.712 56.5384 133.79 56.4999C133.925 56.4035 134.06 56.307 134.176 56.2106C134.699 55.8443 135.24 55.5357 135.82 55.2465C136.362 54.9765 136.671 54.1859 136.478 53.6075C136.265 52.9711 135.743 52.5855 135.085 52.5469C134.408 52.5083 133.732 52.4505 133.055 52.3733C132.9 52.3541 132.745 52.3348 132.59 52.3155C132.513 52.3155 132.436 52.2769 132.358 52.2769C132.745 52.2577 132.494 52.2962 132.378 52.2769C132.029 52.2191 131.681 52.1805 131.353 52.1227C130.037 51.8913 128.742 51.602 127.484 51.2357C126.846 51.0428 126.227 50.85 125.608 50.6186C125.318 50.5029 125.028 50.4065 124.718 50.2908C124.68 50.2715 124.274 50.1172 124.274 50.1172C124.332 50.1365 124.39 50.1751 124.448 50.1944C124.39 50.1751 124.332 50.1365 124.274 50.1172C124.196 50.0787 124.1 50.0401 124.022 50.0016C122.804 49.4616 121.643 48.8446 120.521 48.1311C119.961 47.7648 119.4 47.3984 118.877 46.9934C118.819 46.9549 118.781 46.9163 118.723 46.8777C118.781 46.9356 119.051 47.1091 118.723 46.8777C118.607 46.7813 118.471 46.6849 118.355 46.5885C118.084 46.3764 117.833 46.145 117.582 45.9136C117.098 45.4701 116.615 45.0073 116.17 44.5252C115.705 44.0239 115.299 43.484 114.854 42.9826C115.125 43.2911 114.796 42.9055 114.738 42.8091C114.642 42.6741 114.545 42.5584 114.448 42.4234C114.236 42.1342 114.042 41.8449 113.849 41.5557C113.462 40.9772 113.114 40.3794 112.766 39.7817C112.089 38.5861 111.489 37.352 110.928 36.0794C110.909 36.0215 110.87 35.9637 110.851 35.9058C110.831 35.848 110.793 35.7901 110.773 35.7323C110.851 35.9251 110.87 35.9444 110.812 35.8094C110.735 35.6359 110.657 35.443 110.58 35.2695C110.445 34.9224 110.309 34.5753 110.174 34.2282C109.903 33.5148 109.632 32.782 109.381 32.0685C108.859 30.5838 108.375 29.099 107.892 27.6142C107.659 26.9008 106.867 26.3609 106.112 26.6115C105.339 26.8236 104.797 27.5949 105.048 28.3663C106.789 33.7847 108.607 39.3767 111.992 44.0239C113.713 46.3957 115.783 48.4396 118.22 50.1172C120.521 51.6984 123.094 52.894 125.744 53.7617C128.761 54.7451 131.913 55.2851 135.085 55.4586C134.834 54.5523 134.602 53.6653 134.35 52.759C129.96 54.938 126.904 59.2766 125.57 63.9238C124.757 66.7583 124.796 69.7086 125.125 72.601C125.221 73.4109 125.318 74.2015 125.434 75.0114C125.453 75.2042 125.492 75.3777 125.511 75.5705C125.531 75.6477 125.531 75.7248 125.55 75.802C125.608 76.1683 125.512 75.5706 125.55 75.8212C125.608 76.1876 125.647 76.5733 125.705 76.9396C125.84 78.0773 125.976 79.215 125.995 80.3527C126.014 81.2204 125.995 82.0881 126.014 82.9559C126.053 84.3249 126.208 85.694 126.401 87.0631C127.33 86.8124 128.258 86.5425 129.206 86.2918C127.716 81.0469 124.622 76.3033 120.56 72.6974C116.498 69.0723 111.47 66.4305 106.132 65.3314C103.153 64.7143 100.058 64.5215 97.0412 64.9072C97.2926 65.8135 97.5247 66.7005 97.7761 67.6068C102.534 65.0036 105.745 60.3179 107.427 55.2658C108.298 52.6433 108.685 49.9244 108.897 47.167C109.149 44.1203 109.226 41.0736 109.11 38.0269C108.975 34.5367 108.607 31.0466 107.892 27.6335C107.737 26.9008 106.828 26.3994 106.112 26.6308C105.281 26.8429 104.894 27.5757 105.048 28.3663Z" fill="#342E84" fill-opacity="0.1"/>
</svg>
