<svg width="91" height="95" viewBox="0 0 91 95" fill="none" xmlns="http://www.w3.org/2000/svg">
<path d="M70.8984 42.0879L73.6768 42.835V42.8359C73.6051 43.1025 73.7628 43.3764 74.0293 43.4482L77.7715 44.4561C78.0381 44.5278 78.3129 44.3701 78.3848 44.1035V44.1025L81.1602 44.8506C81.0884 45.1171 81.2472 45.3919 81.5137 45.4639L85.2568 46.4717C85.5233 46.5432 85.7964 46.3847 85.8682 46.1182L88.6455 46.8662H88.6465C88.5747 47.1329 88.7324 47.4067 88.999 47.4785L89.0781 47.5L88.999 47.5215C88.7327 47.5932 88.5744 47.8665 88.6455 48.1328L85.8682 48.8809C85.7961 48.6149 85.5231 48.4569 85.2568 48.5283L81.5137 49.5361C81.2475 49.608 81.089 49.8822 81.1602 50.1484L78.3848 50.8965C78.3219 50.6634 78.104 50.5133 77.8721 50.5273L77.7715 50.5439L74.0293 51.5518C73.7628 51.6236 73.6051 51.8975 73.6768 52.1641L70.8984 52.9111C70.8262 52.6452 70.5534 52.4879 70.2871 52.5596L66.5449 53.5664C66.2787 53.6381 66.1194 53.9124 66.1904 54.1787L63.415 54.9268L63.3789 54.833C63.2747 54.6249 63.0352 54.5114 62.8018 54.5742L59.0596 55.582C58.7933 55.6539 58.6347 55.928 58.7061 56.1943L55.9297 56.9414C55.8664 56.7086 55.6489 56.5588 55.417 56.5732L55.3174 56.5898L53.4463 57.0938L53.168 57.168L53.0938 57.4463L52.5898 59.3174C52.5182 59.5837 52.6754 59.8574 52.9414 59.9297L52.1943 62.7061C51.9614 62.6437 51.7224 62.7574 51.6182 62.9648L51.582 63.0596L50.5742 66.8018C50.5025 67.0683 50.6604 67.3431 50.9268 67.415L50.1787 70.1904C49.9124 70.1194 49.6381 70.2787 49.5664 70.5449L48.5596 74.2871C48.4879 74.5534 48.6452 74.8262 48.9111 74.8984L48.1641 77.6768C47.9309 77.6141 47.6922 77.7269 47.5879 77.9346L47.5518 78.0293L46.5439 81.7715C46.4722 82.0381 46.6299 82.3129 46.8965 82.3848L46.1484 85.1602C45.8822 85.089 45.608 85.2475 45.5361 85.5137L44.5283 89.2568C44.4569 89.5231 44.6149 89.7961 44.8809 89.8682L44.1328 92.6455C43.8665 92.5744 43.5932 92.7327 43.5215 92.999L43.5 93.0781L43.4785 92.999L43.4434 92.9043C43.3392 92.6963 43.0996 92.5827 42.8662 92.6455L42.1182 89.8682C42.3847 89.7964 42.5432 89.5233 42.4717 89.2568L41.4639 85.5137L41.4277 85.4189C41.3234 85.2113 41.0838 85.0974 40.8506 85.1602L40.1025 82.3848C40.3692 82.313 40.5278 82.0381 40.4561 81.7715L39.4482 78.0293C39.3764 77.7627 39.1016 77.605 38.835 77.6768L38.0879 74.8984C38.3544 74.8266 38.5122 74.5537 38.4404 74.2871L37.4336 70.5449L37.3975 70.4502C37.2933 70.2422 37.0537 70.1277 36.8203 70.1904L36.0723 67.415C36.3389 67.3432 36.4976 67.0684 36.4258 66.8018L35.418 63.0596C35.3461 62.7931 35.0713 62.6343 34.8047 62.7061L34.0576 59.9297C34.3241 59.8578 34.4819 59.584 34.4102 59.3174L33.9062 57.4463L33.832 57.168L33.5537 57.0938L31.6826 56.5898L31.583 56.5732C31.351 56.5588 31.1325 56.7085 31.0693 56.9414L28.293 56.1943C28.3644 55.9279 28.2068 55.6539 27.9404 55.582L24.1982 54.5742L24.0977 54.5576C23.8657 54.5435 23.6479 54.6937 23.585 54.9268H23.584L20.8086 54.1787C20.8798 53.9123 20.7214 53.6381 20.4551 53.5664L16.7129 52.5596L16.6133 52.543C16.3814 52.5287 16.1637 52.6782 16.1006 52.9111L13.3223 52.1641C13.3941 51.8974 13.2373 51.6236 12.9707 51.5518L9.22852 50.5439L9.12793 50.5273C8.89596 50.5133 8.67704 50.6633 8.61426 50.8965L5.83887 50.1484C5.91022 49.8821 5.75256 49.608 5.48633 49.5361L1.74316 48.5283C1.47685 48.4569 1.20285 48.6147 1.13086 48.8809L-1.64648 48.1328C-1.57523 47.8664 -1.73265 47.5932 -1.99902 47.5215L-2.0791 47.5L-1.99902 47.4785C-1.7656 47.4157 -1.6155 47.1981 -1.62988 46.9658L-1.64648 46.8662L1.13086 46.1182C1.19368 46.3515 1.41144 46.5015 1.64355 46.4873L1.74316 46.4717L5.48633 45.4639C5.75277 45.3919 5.91063 45.1171 5.83887 44.8506L8.61426 44.1025L8.61523 44.1035C8.67806 44.3366 8.89601 44.4867 9.12793 44.4727L9.22852 44.4561L12.9707 43.4482C13.2372 43.3764 13.3949 43.1025 13.3232 42.8359L13.3223 42.835L16.1006 42.0879C16.1724 42.3545 16.4463 42.5122 16.7129 42.4404L20.4551 41.4336C20.6886 41.3707 20.8387 41.1522 20.8242 40.9199L20.8086 40.8203L23.584 40.0723L23.585 40.0732C23.6479 40.3063 23.8657 40.4565 24.0977 40.4424L24.1982 40.4258L27.9404 39.418C28.2069 39.3461 28.3647 39.0713 28.293 38.8047L31.0693 38.0576C31.1322 38.2911 31.3507 38.4412 31.583 38.4268L31.6826 38.4102L33.5537 37.9062L33.832 37.832L33.9062 37.5537L34.4102 35.6826C34.473 35.4493 34.3602 35.2097 34.1523 35.1055L34.0576 35.0693L34.8047 32.293C35.0379 32.3558 35.2775 32.2428 35.3818 32.0352L35.418 31.9404L36.4258 28.1982C36.4975 27.9317 36.3396 27.6569 36.0732 27.585L36.0723 27.584L36.8203 24.8086C37.0537 24.8714 37.2933 24.7579 37.3975 24.5498L37.4336 24.4551L38.4404 20.7129C38.5032 20.4796 38.3904 20.241 38.1826 20.1367L38.0879 20.1006L38.835 17.3223L38.8359 17.3232C39.0691 17.3859 39.3078 17.2731 39.4121 17.0654L39.4482 16.9707L40.4561 13.2285C40.5278 12.9619 40.3701 12.6871 40.1035 12.6152L40.1025 12.6143L40.8506 9.83887C41.0838 9.90165 41.3234 9.7887 41.4277 9.58105L41.4639 9.48633L42.4717 5.74316C42.5343 5.50993 42.4208 5.27114 42.2129 5.16699L42.1182 5.13086L42.8662 2.35352C43.1329 2.42531 43.4067 2.26762 43.4785 2.00098L43.5 1.9209L43.5215 2.00098C43.5932 2.26735 43.8664 2.42477 44.1328 2.35352L44.8809 5.13086H44.8818C44.6153 5.20261 44.4568 5.47666 44.5283 5.74316L45.5361 9.48633C45.608 9.75256 45.8821 9.91022 46.1484 9.83887L46.8965 12.6143V12.6152C46.6299 12.6871 46.4722 12.9619 46.5439 13.2285L47.5518 16.9707C47.6236 17.2372 47.8975 17.3949 48.1641 17.3232V17.3223L48.9111 20.1006H48.9121C48.6455 20.1724 48.4878 20.4463 48.5596 20.7129L49.5664 24.4551C49.6381 24.7214 49.9123 24.8798 50.1787 24.8086L50.9268 27.584V27.585C50.6604 27.6569 50.5025 27.9317 50.5742 28.1982L51.582 31.9404C51.6539 32.2068 51.9279 32.3644 52.1943 32.293L52.9414 35.0693H52.9424C52.6757 35.1411 52.518 35.416 52.5898 35.6826L53.0938 37.5537L53.168 37.832L53.4463 37.9062L55.3174 38.4102C55.584 38.4819 55.8578 38.3241 55.9297 38.0576L58.7061 38.8047C58.6343 39.0713 58.7931 39.3461 59.0596 39.418L62.8018 40.4258C63.0683 40.4975 63.3431 40.3396 63.415 40.0732V40.0723L66.1904 40.8203H66.1914C66.1196 41.087 66.2783 41.3618 66.5449 41.4336L70.2871 42.4404C70.5537 42.5122 70.8266 42.3544 70.8984 42.0879Z" fill="#342E84" fill-opacity="0.1" stroke="#FEECB8" stroke-linecap="round" stroke-dasharray="4 4"/>
</svg>
