<svg width="32" height="39" viewBox="0 0 32 39" fill="none" xmlns="http://www.w3.org/2000/svg">
<path d="M14.7436 22.8375C8.18493 17.1134 4.03692 10.1787 2.00425 1.80368C5.79772 2.06494 20.1261 18.9496 24.2945 27.9071C20.4834 27.1275 17.6616 25.1095 14.7436 22.8375Z" fill="#FDC31B"/>
<path d="M20.9133 9.90003C21.4163 5.2132 24.4573 2.68198 27.9372 0.0635575C28.9134 7.42752 29.8371 14.3961 30.7739 21.4633C26.2182 18.8582 21.3858 16.4395 20.9133 9.90003Z" fill="#FDC31B"/>
<path d="M11.2662 34.6086C8.15389 33.0049 5.19153 31.5601 2.31805 29.9561C1.6137 29.5629 0.720999 28.6029 0.78047 27.9871C0.846588 27.3025 1.78979 26.4384 2.54604 26.1294C6.23925 24.62 9.59423 25.5989 12.5364 28.0279C15.3957 30.3885 16.9141 33.5291 17.5381 37.7255C15.2374 36.5857 13.3431 35.6473 11.2662 34.6086Z" fill="#FDC31B"/>
</svg>
