<svg width="30" height="30" viewBox="0 0 30 30" fill="none" xmlns="http://www.w3.org/2000/svg">
<path fill-rule="evenodd" clip-rule="evenodd" d="M28.8375 8.24989C28.8714 7.24764 28.6476 6.25346 28.1875 5.36239C27.7271 4.72742 27.0738 4.25827 26.325 4.02489C25.8522 3.94396 25.3666 3.98263 24.9125 4.13739C24.3824 4.32118 23.8127 4.36002 23.2625 4.24989C23.2123 4.23706 23.1601 4.23477 23.1089 4.24315C23.0578 4.25153 23.009 4.27041 22.9656 4.2986C22.9221 4.32678 22.885 4.36366 22.8565 4.40691C22.828 4.45016 22.8088 4.49884 22.8 4.54989C22.7776 4.6526 22.7964 4.76003 22.8526 4.84892C22.9087 4.93782 22.9976 5.00103 23.1 5.02489C23.7621 5.18712 24.4546 5.17852 25.1125 4.99989C25.4404 4.88095 25.7929 4.84656 26.1375 4.89989C26.6823 5.10066 27.1561 5.45709 27.5 5.92489C27.8748 6.96463 28.0073 8.07619 27.8875 9.17489C27.8875 11.0249 27.75 13.1624 27.6125 14.5249C27.4375 16.1624 27.3625 18.1999 27.075 20.1249C26.9875 20.7124 26.875 21.2749 26.7375 21.8249C26.2385 21.8248 25.7406 21.7788 25.25 21.6874C23.8625 21.4124 22.575 20.8624 21.1125 20.5749C20.5171 20.4668 19.9046 20.5011 19.325 20.6749C19.0749 20.7461 18.843 20.8699 18.6446 21.0381C18.4463 21.2062 18.2862 21.4148 18.175 21.6499C18.0025 22.0451 17.905 22.469 17.8875 22.8999C17.8 23.7749 17.8875 24.7874 17.8875 25.4749C17.8875 26.1624 17.8875 26.8374 17.775 27.5124C17.775 27.8249 17.6875 28.1374 17.65 28.4499C13.6802 28.8186 9.67822 28.625 5.76252 27.8749C4.96472 27.7554 4.18681 27.5284 3.45002 27.1999C3.06151 27.0287 2.70283 26.7967 2.38752 26.5124C2.51252 25.6874 3.15002 23.7874 3.21252 23.5374C3.55002 21.8499 3.81252 20.1249 3.98752 18.3874C4.16803 16.6558 4.25566 14.9158 4.25002 13.1749C4.25002 12.1249 3.81252 9.68739 3.82502 7.77489C3.75528 7.09925 3.89492 6.41851 4.22502 5.82489C4.55587 5.45375 4.95722 5.15211 5.40573 4.93751C5.85423 4.72291 6.34094 4.59965 6.83752 4.57489C8.4791 4.52361 10.1221 4.60723 11.75 4.82489C11.8408 4.82836 11.9294 4.7964 11.997 4.73575C12.0647 4.6751 12.1061 4.59052 12.1125 4.49989C12.116 4.40579 12.0827 4.31404 12.0197 4.24405C11.9567 4.17405 11.869 4.13132 11.775 4.12489C10.1196 3.88347 8.4479 3.77064 6.77502 3.78739C5.55658 3.84866 4.41136 4.38759 3.58752 5.28739C3.12855 6.0377 2.90639 6.90892 2.95002 7.78739C2.95002 9.68739 3.27502 12.1499 3.26252 13.1999C3.2346 14.9011 3.11359 16.5994 2.90002 18.2874C2.68752 19.9749 2.40002 21.6624 2.03752 23.2874C2.03752 23.5374 1.27502 25.5249 1.15002 26.3624C1.11588 26.5103 1.11383 26.6638 1.14402 26.8126C1.17421 26.9614 1.23593 27.102 1.32502 27.2249C1.77998 27.7069 2.32311 28.0973 2.92502 28.3749C3.76944 28.7593 4.66023 29.0325 5.57502 29.1874C9.17502 29.7999 14.825 30.4374 19.5375 29.4749C22.9375 28.7374 25.7875 27.1124 27.225 24.0749C27.7336 22.8792 28.0662 21.616 28.2125 20.3249C28.475 18.3749 28.5125 16.3124 28.6625 14.6624C28.8471 12.5302 28.9055 10.389 28.8375 8.24989ZM19.2625 28.2499C19 28.3124 18.725 28.3374 18.4625 28.3874C18.5375 28.0374 18.6375 27.6999 18.6875 27.3499C18.7959 26.7832 18.8959 26.2082 18.9875 25.6249C19.075 24.9624 19.0875 23.9624 19.2 23.1249C19.2362 22.8327 19.3119 22.5467 19.425 22.2749C19.5125 22.0749 19.7375 22.0124 19.95 21.9624C20.2853 21.9074 20.6273 21.9074 20.9625 21.9624C22.425 22.1249 23.7375 22.5749 25.15 22.7249C25.6117 22.7627 26.0758 22.7627 26.5375 22.7249C26.4209 23.0499 26.2959 23.3624 26.1625 23.6624C24.9 26.2499 22.275 27.5749 19.2625 28.1999V28.2499Z" fill="#2F2977"/>
<path fill-rule="evenodd" clip-rule="evenodd" d="M14.8625 5.56244C15.1075 5.72028 15.367 5.85423 15.6375 5.96244C15.3965 6.2019 15.171 6.45659 14.9625 6.72494C14.8442 6.89785 14.7357 7.0773 14.6375 7.26244C14.5363 7.44584 14.4526 7.63836 14.3875 7.83744C14.2125 8.31244 14.0875 8.77494 13.95 9.24994C13.9165 9.29761 13.8938 9.35203 13.8835 9.40939C13.8732 9.46674 13.8756 9.52566 13.8904 9.58201C13.9053 9.63836 13.9323 9.69079 13.9695 9.73561C14.0067 9.78045 14.0533 9.8166 14.106 9.84155C14.1587 9.86649 14.2161 9.87963 14.2744 9.88004C14.3327 9.88045 14.3903 9.86812 14.4434 9.84392C14.4964 9.81972 14.5435 9.78422 14.5813 9.73992C14.6192 9.69562 14.6469 9.64358 14.6625 9.58744C14.9375 9.18744 15.225 8.81244 15.5 8.41244C15.6134 8.24306 15.7177 8.06781 15.8125 7.88744C15.9125 7.71463 16.0002 7.53502 16.075 7.34994C16.225 6.97494 16.3375 6.61244 16.4625 6.24994C16.5263 6.25632 16.5905 6.24296 16.6463 6.21166C16.7022 6.18035 16.7472 6.13263 16.775 6.07494C16.796 6.03414 16.8085 5.98949 16.8116 5.94372C16.8147 5.89794 16.8085 5.85201 16.7933 5.80872C16.7781 5.76544 16.7542 5.72571 16.7232 5.69196C16.6921 5.65821 16.6544 5.63115 16.6125 5.61244L16.475 5.53744H16.4125C16.0497 5.37611 15.7059 5.17487 15.3875 4.93744C15.188 4.77135 15.0512 4.54198 15 4.28744C14.8548 3.85344 14.8638 3.38261 15.0255 2.95446C15.1872 2.52631 15.4917 2.16708 15.8875 1.93744C16.2477 1.65384 16.6705 1.46049 17.1206 1.37351C17.5707 1.28653 18.0351 1.30845 18.475 1.43744C18.9275 1.60577 19.3497 1.84639 19.725 2.14994C20.0651 2.40334 20.3007 2.77235 20.3875 3.18744C20.4105 3.53547 20.3458 3.8837 20.1995 4.20032C20.0532 4.51693 19.8299 4.79185 19.55 4.99994C19.3001 5.27077 18.9854 5.47364 18.6356 5.58952C18.2858 5.70541 17.9122 5.7305 17.55 5.66244C17.4522 5.63247 17.3466 5.64113 17.2549 5.68666C17.1633 5.73219 17.0925 5.81111 17.0573 5.90719C17.0221 6.00328 17.025 6.10921 17.0655 6.20319C17.106 6.29718 17.181 6.37206 17.275 6.41244C17.7773 6.55277 18.3067 6.56569 18.8152 6.45001C19.3237 6.33434 19.7954 6.09373 20.1875 5.74994C20.6217 5.43981 20.9706 5.02527 21.2022 4.54463C21.4338 4.06398 21.5405 3.53273 21.5125 2.99994C21.4549 2.42308 21.214 1.87987 20.825 1.44994C20.2926 0.891255 19.638 0.46342 18.9125 0.199943C18.2608 -0.0022217 17.569 -0.0395291 16.8993 0.0913641C16.2295 0.222257 15.6027 0.517262 15.075 0.949943C14.5078 1.34831 14.0974 1.93226 13.9149 2.60094C13.7323 3.26963 13.7889 3.98108 14.075 4.61244C14.2337 5.00247 14.5087 5.33417 14.8625 5.56244Z" fill="#2F2977"/>
<path fill-rule="evenodd" clip-rule="evenodd" d="M24.925 12.5C24.9133 12.4496 24.8916 12.402 24.8612 12.3601C24.8309 12.3182 24.7924 12.2828 24.7481 12.256C24.7038 12.2292 24.6547 12.2116 24.6034 12.2041C24.5522 12.1966 24.5 12.1995 24.45 12.2125C23.138 12.4517 21.8084 12.5813 20.475 12.6C19.4875 12.6 18.5 12.6 17.4875 12.4625C16.475 12.325 15.5125 12.275 14.5125 12.125C12.9105 11.8464 11.2884 11.7 9.66246 11.6875C8.51653 11.741 7.40828 12.1133 6.46246 12.7625C6.41535 12.7817 6.37298 12.8109 6.3383 12.8481C6.30363 12.8853 6.27748 12.9296 6.26169 12.978C6.24589 13.0264 6.24083 13.0776 6.24684 13.1281C6.25286 13.1786 6.26981 13.2272 6.29652 13.2705C6.32323 13.3138 6.35906 13.3507 6.40151 13.3787C6.44395 13.4068 6.492 13.4252 6.5423 13.4328C6.5926 13.4404 6.64395 13.4369 6.69276 13.4226C6.74158 13.4083 6.78669 13.3835 6.82496 13.35C7.70195 12.874 8.6902 12.641 9.68746 12.675C11.2504 12.8111 12.8007 13.066 14.325 13.4375C16.0349 13.677 17.7611 13.7815 19.4875 13.75C21.2238 13.6872 22.9474 13.4272 24.625 12.975C24.7274 12.9511 24.8162 12.8879 24.8724 12.799C24.9285 12.7101 24.9474 12.6027 24.925 12.5Z" fill="#2F2977"/>
<path fill-rule="evenodd" clip-rule="evenodd" d="M19.8876 18.4749C21.1496 18.5507 22.4156 18.4241 23.6376 18.0999C23.6876 18.0876 23.7348 18.0655 23.7763 18.035C23.8179 18.0045 23.853 17.966 23.8797 17.9219C23.9064 17.8778 23.9241 17.8289 23.9319 17.7779C23.9397 17.727 23.9374 17.675 23.9251 17.6249C23.9127 17.5748 23.8907 17.5277 23.8602 17.4861C23.8296 17.4446 23.7912 17.4095 23.7471 17.3828C23.703 17.3561 23.6541 17.3383 23.6031 17.3305C23.5521 17.3227 23.5001 17.3251 23.4501 17.3374C22.3064 17.5401 21.1378 17.5612 19.9876 17.3999C19.1126 17.2999 18.2376 17.1124 17.3876 16.9374L14.7501 16.3499C13.2292 15.9812 11.6625 15.838 10.1001 15.9249C9.02214 16.0272 7.98675 16.3967 7.08756 16.9999C7.01064 17.0488 6.95585 17.1258 6.93484 17.2145C6.91383 17.3033 6.92826 17.3967 6.97506 17.4749C7.02433 17.5548 7.10266 17.6125 7.19358 17.6358C7.28451 17.6591 7.38093 17.6462 7.46256 17.5999C8.29296 17.1538 9.21994 16.9178 10.1626 16.9124C11.0268 16.9271 11.8865 17.0403 12.7251 17.2499C13.3001 17.3749 13.8876 17.4999 14.4626 17.6499C15.3126 17.8374 16.2126 18.0499 17.1376 18.1999C18.0471 18.3528 18.9658 18.4447 19.8876 18.4749Z" fill="#2F2977"/>
<path fill-rule="evenodd" clip-rule="evenodd" d="M12.3125 21.3999C11.692 21.2117 11.0563 21.0779 10.4125 20.9999C9.283 20.88 8.14213 21.0701 7.11254 21.5499C7.02502 21.5786 6.95233 21.6406 6.91021 21.7225C6.86809 21.8044 6.85995 21.8996 6.88754 21.9874C6.91881 22.0731 6.9812 22.1438 7.06228 22.1855C7.14337 22.2272 7.23719 22.2368 7.32504 22.2124C7.7916 22.1027 8.27151 22.0606 8.75004 22.0874C9.13634 22.1112 9.52057 22.1613 9.90004 22.2374L11.075 22.4624C12.3341 22.7435 13.6229 22.8694 14.9125 22.8374C14.9645 22.8391 15.0162 22.8303 15.0647 22.8116C15.1131 22.7929 15.1573 22.7646 15.1947 22.7284C15.232 22.6923 15.2616 22.649 15.2819 22.6011C15.3021 22.5533 15.3126 22.5019 15.3125 22.4499C15.3126 22.346 15.2722 22.2461 15.1998 22.1714C15.1275 22.0967 15.0289 22.0532 14.925 22.0499C14.0358 21.9152 13.1612 21.6976 12.3125 21.3999Z" fill="#2F2977"/>
</svg>
